<svg width="396" height="140" viewBox="0 0 396 140" fill="none" xmlns="http://www.w3.org/2000/svg">
<g clip-path="url(#clip0_1181_344)">
<rect width="396" height="140" fill="white"/>
<path d="M14 126L60 70" stroke="black" stroke-width="2" stroke-linecap="round"/>
<path d="M60 126L60 70" stroke="black" stroke-width="2" stroke-linecap="round"/>
<path d="M106 126L60 70" stroke="black" stroke-width="2" stroke-linecap="round"/>
<path d="M60 70L198 14" stroke="black" stroke-width="2" stroke-linecap="round"/>
<path d="M198 70L198 14" stroke="black" stroke-width="2" stroke-linecap="round"/>
<path d="M336 70L198 14" stroke="black" stroke-width="2" stroke-linecap="round"/>
<rect x="1" y="113" width="26" height="26" rx="13" fill="white"/>
<rect x="1" y="113" width="26" height="26" rx="13" stroke="black" stroke-width="2"/>
<path d="M11.1335 120.818V131H9.90057V122.111H9.84091L7.35511 123.761V122.509L9.90057 120.818H11.1335ZM14.38 131L18.9339 121.991V121.912H13.6839V120.818H20.2067V121.972L15.6726 131H14.38Z" fill="black"/>
<rect x="47" y="113" width="26" height="26" rx="13" fill="white"/>
<rect x="47" y="113" width="26" height="26" rx="13" stroke="black" stroke-width="2"/>
<path d="M57.3722 131L61.9261 121.991V121.912H56.6761V120.818H63.1989V121.972L58.6648 131H57.3722Z" fill="black"/>
<rect x="93" y="113" width="26" height="26" rx="13" fill="white"/>
<rect x="93" y="113" width="26" height="26" rx="13" stroke="black" stroke-width="2"/>
<path d="M98.054 131V130.105L101.415 126.426C101.809 125.995 102.134 125.621 102.389 125.303C102.644 124.981 102.833 124.679 102.956 124.398C103.082 124.113 103.145 123.814 103.145 123.503C103.145 123.145 103.059 122.835 102.886 122.573C102.717 122.311 102.485 122.109 102.19 121.967C101.895 121.824 101.564 121.753 101.196 121.753C100.805 121.753 100.464 121.834 100.172 121.996C99.8835 122.156 99.6598 122.379 99.5007 122.668C99.3449 122.956 99.267 123.294 99.267 123.682H98.0938C98.0938 123.085 98.2313 122.562 98.5064 122.111C98.7815 121.66 99.156 121.309 99.63 121.057C100.107 120.805 100.643 120.679 101.236 120.679C101.832 120.679 102.361 120.805 102.822 121.057C103.282 121.309 103.644 121.648 103.906 122.076C104.167 122.504 104.298 122.979 104.298 123.503C104.298 123.877 104.23 124.244 104.094 124.602C103.962 124.956 103.73 125.352 103.398 125.79C103.07 126.224 102.615 126.754 102.031 127.381L99.7443 129.827V129.906H104.477V131H98.054ZM109.852 131.139C109.103 131.139 108.464 130.935 107.938 130.528C107.411 130.117 107.008 129.522 106.729 128.743C106.451 127.961 106.312 127.016 106.312 125.909C106.312 124.809 106.451 123.869 106.729 123.09C107.011 122.308 107.415 121.711 107.942 121.3C108.473 120.886 109.109 120.679 109.852 120.679C110.594 120.679 111.229 120.886 111.756 121.3C112.286 121.711 112.69 122.308 112.969 123.09C113.25 123.869 113.391 124.809 113.391 125.909C113.391 127.016 113.252 127.961 112.974 128.743C112.695 129.522 112.293 130.117 111.766 130.528C111.239 130.935 110.601 131.139 109.852 131.139ZM109.852 130.045C110.594 130.045 111.171 129.687 111.582 128.972C111.993 128.256 112.198 127.235 112.198 125.909C112.198 125.027 112.104 124.277 111.915 123.657C111.729 123.037 111.461 122.565 111.109 122.24C110.761 121.915 110.342 121.753 109.852 121.753C109.116 121.753 108.541 122.116 108.126 122.842C107.712 123.564 107.505 124.587 107.505 125.909C107.505 126.791 107.598 127.54 107.783 128.156C107.969 128.773 108.236 129.242 108.584 129.563C108.935 129.885 109.358 130.045 109.852 130.045Z" fill="black"/>
<rect x="47" y="57" width="26" height="26" rx="13" fill="white"/>
<rect x="47" y="57" width="26" height="26" rx="13" stroke="black" stroke-width="2"/>
<path d="M55.4943 75.1392C54.8381 75.1392 54.2531 75.0265 53.7393 74.8011C53.2289 74.5758 52.8229 74.2625 52.5213 73.8615C52.223 73.4571 52.0606 72.9882 52.0341 72.4545H53.2869C53.3134 72.7827 53.4261 73.0661 53.625 73.3047C53.8239 73.54 54.084 73.7223 54.4055 73.8516C54.727 73.9808 55.0833 74.0455 55.4744 74.0455C55.9119 74.0455 56.2997 73.9692 56.6378 73.8168C56.9759 73.6643 57.241 73.4522 57.4332 73.1804C57.6255 72.9086 57.7216 72.5938 57.7216 72.2358C57.7216 71.8613 57.6288 71.5315 57.4432 71.2464C57.2576 70.9581 56.9858 70.7327 56.6278 70.5703C56.2699 70.4079 55.8324 70.3267 55.3153 70.3267H54.5V69.233H55.3153C55.7197 69.233 56.0743 69.16 56.3793 69.0142C56.6875 68.8684 56.9278 68.6629 57.1001 68.3977C57.2758 68.1326 57.3636 67.821 57.3636 67.4631C57.3636 67.1184 57.2874 66.8184 57.1349 66.5632C56.9825 66.308 56.767 66.1091 56.4886 65.9666C56.2135 65.8241 55.8887 65.7528 55.5142 65.7528C55.1629 65.7528 54.8314 65.8175 54.5199 65.9467C54.2116 66.0727 53.9598 66.2566 53.7642 66.4986C53.5687 66.7372 53.4626 67.0256 53.446 67.3636H52.2528C52.2727 66.83 52.4335 66.3627 52.7351 65.9616C53.0367 65.5573 53.4311 65.2424 53.9183 65.017C54.4089 64.7917 54.9474 64.679 55.5341 64.679C56.1638 64.679 56.7041 64.8066 57.1548 65.0618C57.6056 65.3137 57.9519 65.6468 58.1939 66.0611C58.4358 66.4754 58.5568 66.9228 58.5568 67.4034C58.5568 67.9768 58.406 68.4657 58.1044 68.87C57.8061 69.2744 57.4001 69.5545 56.8864 69.7102V69.7898C57.5294 69.8958 58.0315 70.1693 58.3928 70.6101C58.754 71.0476 58.9347 71.5895 58.9347 72.2358C58.9347 72.7893 58.7839 73.2865 58.4822 73.7273C58.1839 74.1648 57.7763 74.5095 57.2592 74.7614C56.7422 75.0133 56.1539 75.1392 55.4943 75.1392ZM60.968 75V74.1051L64.3288 70.4261C64.7232 69.9953 65.0481 69.6207 65.3033 69.3026C65.5585 68.9811 65.7474 68.6795 65.87 68.3977C65.996 68.1127 66.0589 67.8144 66.0589 67.5028C66.0589 67.1449 65.9728 66.835 65.8004 66.5732C65.6314 66.3113 65.3994 66.1091 65.1044 65.9666C64.8094 65.8241 64.478 65.7528 64.1101 65.7528C63.719 65.7528 63.3776 65.834 63.0859 65.9964C62.7976 66.1555 62.5739 66.3793 62.4148 66.6676C62.259 66.956 62.1811 67.294 62.1811 67.6818H61.0078C61.0078 67.0852 61.1454 66.5616 61.4205 66.1108C61.6955 65.66 62.0701 65.3087 62.544 65.0568C63.0213 64.8049 63.5566 64.679 64.1499 64.679C64.7464 64.679 65.2751 64.8049 65.7358 65.0568C66.1965 65.3087 66.5578 65.6484 66.8196 66.076C67.0814 66.5036 67.2124 66.9792 67.2124 67.5028C67.2124 67.8774 67.1444 68.2436 67.0085 68.6016C66.8759 68.9562 66.6439 69.3523 66.3125 69.7898C65.9844 70.224 65.5286 70.7543 64.9453 71.3807L62.6584 73.8267V73.9062H67.3913V75H60.968Z" fill="black"/>
<path d="M152 126L198 70" stroke="black" stroke-width="2" stroke-linecap="round"/>
<path d="M198 126L198 70" stroke="black" stroke-width="2" stroke-linecap="round"/>
<path d="M244 126L198 70" stroke="black" stroke-width="2" stroke-linecap="round"/>
<rect x="139" y="113" width="26" height="26" rx="13" fill="white"/>
<rect x="139" y="113" width="26" height="26" rx="13" stroke="black" stroke-width="2"/>
<path d="M148.634 120.818V131H147.401V122.111H147.341L144.855 123.761V122.509L147.401 120.818H148.634ZM154.744 131.139C154.16 131.139 153.635 131.023 153.168 130.791C152.7 130.559 152.326 130.241 152.044 129.837C151.762 129.432 151.608 128.972 151.582 128.455H152.775C152.821 128.915 153.03 129.296 153.401 129.598C153.776 129.896 154.223 130.045 154.744 130.045C155.161 130.045 155.532 129.948 155.857 129.752C156.185 129.557 156.442 129.288 156.628 128.947C156.817 128.602 156.911 128.213 156.911 127.778C156.911 127.334 156.813 126.938 156.618 126.59C156.426 126.239 156.161 125.962 155.822 125.76C155.484 125.558 155.098 125.455 154.664 125.452C154.353 125.448 154.033 125.496 153.705 125.596C153.376 125.692 153.106 125.816 152.894 125.969L151.741 125.83L152.357 120.818H157.647V121.912H153.391L153.033 124.915H153.093C153.302 124.749 153.564 124.612 153.879 124.502C154.193 124.393 154.522 124.338 154.863 124.338C155.486 124.338 156.041 124.487 156.528 124.786C157.019 125.08 157.403 125.485 157.682 125.999C157.964 126.512 158.104 127.099 158.104 127.759C158.104 128.408 157.959 128.988 157.667 129.499C157.379 130.006 156.981 130.407 156.474 130.702C155.967 130.993 155.39 131.139 154.744 131.139Z" fill="black"/>
<rect x="185" y="113" width="26" height="26" rx="13" fill="white"/>
<rect x="185" y="113" width="26" height="26" rx="13" stroke="black" stroke-width="2"/>
<path d="M194.554 131V130.105L197.915 126.426C198.309 125.995 198.634 125.621 198.889 125.303C199.144 124.981 199.333 124.679 199.456 124.398C199.582 124.113 199.645 123.814 199.645 123.503C199.645 123.145 199.559 122.835 199.386 122.573C199.217 122.311 198.985 122.109 198.69 121.967C198.395 121.824 198.064 121.753 197.696 121.753C197.305 121.753 196.964 121.834 196.672 121.996C196.384 122.156 196.16 122.379 196.001 122.668C195.845 122.956 195.767 123.294 195.767 123.682H194.594C194.594 123.085 194.731 122.562 195.006 122.111C195.281 121.66 195.656 121.309 196.13 121.057C196.607 120.805 197.143 120.679 197.736 120.679C198.332 120.679 198.861 120.805 199.322 121.057C199.782 121.309 200.144 121.648 200.406 122.076C200.667 122.504 200.798 122.979 200.798 123.503C200.798 123.877 200.73 124.244 200.594 124.602C200.462 124.956 200.23 125.352 199.898 125.79C199.57 126.224 199.115 126.754 198.531 127.381L196.244 129.827V129.906H200.977V131H194.554Z" fill="black"/>
<rect x="231" y="113" width="26" height="26" rx="13" fill="white"/>
<rect x="231" y="113" width="26" height="26" rx="13" stroke="black" stroke-width="2"/>
<path d="M241.634 120.818V131H240.401V122.111H240.341L237.855 123.761V122.509L240.401 120.818H241.634ZM248.141 120.818V131H246.908V122.111H246.849L244.363 123.761V122.509L246.908 120.818H248.141Z" fill="black"/>
<rect x="185" y="57" width="26" height="26" rx="13" fill="white"/>
<rect x="185" y="57" width="26" height="26" rx="13" stroke="black" stroke-width="2"/>
<path d="M190.554 75V74.1051L193.915 70.4261C194.309 69.9953 194.634 69.6207 194.889 69.3026C195.144 68.9811 195.333 68.6795 195.456 68.3977C195.582 68.1127 195.645 67.8144 195.645 67.5028C195.645 67.1449 195.559 66.835 195.386 66.5732C195.217 66.3113 194.985 66.1091 194.69 65.9666C194.395 65.8241 194.064 65.7528 193.696 65.7528C193.305 65.7528 192.964 65.834 192.672 65.9964C192.384 66.1555 192.16 66.3793 192.001 66.6676C191.845 66.956 191.767 67.294 191.767 67.6818H190.594C190.594 67.0852 190.731 66.5616 191.006 66.1108C191.281 65.66 191.656 65.3087 192.13 65.0568C192.607 64.8049 193.143 64.679 193.736 64.679C194.332 64.679 194.861 64.8049 195.322 65.0568C195.782 65.3087 196.144 65.6484 196.406 66.076C196.667 66.5036 196.798 66.9792 196.798 67.5028C196.798 67.8774 196.73 68.2436 196.594 68.6016C196.462 68.9562 196.23 69.3523 195.898 69.7898C195.57 70.224 195.115 70.7543 194.531 71.3807L192.244 73.8267V73.9062H196.977V75H190.554ZM199.349 75L203.903 65.9915V65.9119H198.653V64.8182H205.175V65.9716L200.641 75H199.349Z" fill="black"/>
<rect x="185" y="1" width="26" height="26" rx="13" fill="white"/>
<rect x="185" y="1" width="26" height="26" rx="13" stroke="black" stroke-width="2"/>
<path d="M189.815 16.9119V15.8977L194.29 8.81818H195.026V10.3892H194.528L191.148 15.7386V15.8182H197.173V16.9119H189.815ZM194.608 19V16.6037V16.1314V8.81818H195.781V19H194.608ZM199.036 19V18.1051L202.397 14.4261C202.792 13.9953 203.116 13.6207 203.372 13.3026C203.627 12.9811 203.816 12.6795 203.938 12.3977C204.064 12.1127 204.127 11.8144 204.127 11.5028C204.127 11.1449 204.041 10.835 203.869 10.5732C203.7 10.3113 203.468 10.1091 203.173 9.96662C202.878 9.8241 202.546 9.75284 202.178 9.75284C201.787 9.75284 201.446 9.83404 201.154 9.99645C200.866 10.1555 200.642 10.3793 200.483 10.6676C200.327 10.956 200.249 11.294 200.249 11.6818H199.076C199.076 11.0852 199.214 10.5616 199.489 10.1108C199.764 9.66004 200.138 9.30871 200.612 9.05682C201.09 8.80492 201.625 8.67898 202.218 8.67898C202.815 8.67898 203.343 8.80492 203.804 9.05682C204.265 9.30871 204.626 9.64844 204.888 10.076C205.15 10.5036 205.281 10.9792 205.281 11.5028C205.281 11.8774 205.213 12.2436 205.077 12.6016C204.944 12.9562 204.712 13.3523 204.381 13.7898C204.053 14.224 203.597 14.7543 203.014 15.3807L200.727 17.8267V17.9062H205.46V19H199.036Z" fill="black"/>
<path d="M290 126L336 70" stroke="black" stroke-width="2" stroke-linecap="round"/>
<path d="M336 126L336 70" stroke="black" stroke-width="2" stroke-linecap="round"/>
<path d="M382 126L336 70" stroke="black" stroke-width="2" stroke-linecap="round"/>
<rect x="277" y="113" width="26" height="26" rx="13" fill="white"/>
<rect x="277" y="113" width="26" height="26" rx="13" stroke="black" stroke-width="2"/>
<path d="M289.736 131.139C289.152 131.139 288.627 131.023 288.16 130.791C287.692 130.559 287.318 130.241 287.036 129.837C286.754 129.432 286.6 128.972 286.574 128.455H287.767C287.813 128.915 288.022 129.296 288.393 129.598C288.768 129.896 289.215 130.045 289.736 130.045C290.153 130.045 290.525 129.948 290.849 129.752C291.178 129.557 291.434 129.288 291.62 128.947C291.809 128.602 291.903 128.213 291.903 127.778C291.903 127.334 291.806 126.938 291.61 126.59C291.418 126.239 291.153 125.962 290.815 125.76C290.477 125.558 290.09 125.455 289.656 125.452C289.345 125.448 289.025 125.496 288.697 125.596C288.369 125.692 288.098 125.816 287.886 125.969L286.733 125.83L287.349 120.818H292.639V121.912H288.384L288.026 124.915H288.085C288.294 124.749 288.556 124.612 288.871 124.502C289.186 124.393 289.514 124.338 289.855 124.338C290.478 124.338 291.033 124.487 291.521 124.786C292.011 125.08 292.396 125.485 292.674 125.999C292.956 126.512 293.097 127.099 293.097 127.759C293.097 128.408 292.951 128.988 292.659 129.499C292.371 130.006 291.973 130.407 291.466 130.702C290.959 130.993 290.382 131.139 289.736 131.139Z" fill="black"/>
<rect x="323" y="113" width="26" height="26" rx="13" fill="white"/>
<rect x="323" y="113" width="26" height="26" rx="13" stroke="black" stroke-width="2"/>
<path d="M332.634 120.818V131H331.401V122.111H331.341L328.855 123.761V122.509L331.401 120.818H332.634ZM338.803 120.679C339.221 120.682 339.638 120.762 340.056 120.918C340.474 121.073 340.855 121.332 341.2 121.693C341.544 122.051 341.821 122.54 342.03 123.16C342.239 123.78 342.343 124.557 342.343 125.491C342.343 126.396 342.257 127.2 342.085 127.903C341.915 128.602 341.67 129.192 341.349 129.673C341.031 130.153 340.643 130.518 340.185 130.766C339.731 131.015 339.218 131.139 338.644 131.139C338.074 131.139 337.565 131.027 337.118 130.801C336.674 130.572 336.309 130.256 336.024 129.852C335.742 129.444 335.562 128.972 335.482 128.435H336.695C336.805 128.902 337.022 129.288 337.347 129.593C337.675 129.895 338.107 130.045 338.644 130.045C339.43 130.045 340.049 129.702 340.504 129.016C340.961 128.33 341.19 127.361 341.19 126.108H341.11C340.924 126.386 340.704 126.627 340.449 126.829C340.194 127.031 339.91 127.187 339.599 127.296C339.287 127.406 338.956 127.46 338.604 127.46C338.021 127.46 337.486 127.316 336.999 127.028C336.515 126.736 336.127 126.337 335.835 125.83C335.547 125.319 335.403 124.736 335.403 124.08C335.403 123.456 335.542 122.886 335.82 122.369C336.102 121.849 336.496 121.435 337.004 121.126C337.514 120.818 338.114 120.669 338.803 120.679ZM338.803 121.773C338.386 121.773 338.009 121.877 337.675 122.086C337.343 122.291 337.08 122.57 336.884 122.921C336.692 123.269 336.596 123.655 336.596 124.08C336.596 124.504 336.689 124.89 336.874 125.238C337.063 125.583 337.32 125.858 337.645 126.063C337.973 126.265 338.346 126.366 338.763 126.366C339.078 126.366 339.372 126.305 339.643 126.183C339.915 126.057 340.152 125.886 340.354 125.67C340.56 125.452 340.721 125.205 340.837 124.93C340.953 124.651 341.011 124.361 341.011 124.06C341.011 123.662 340.915 123.289 340.722 122.941C340.533 122.593 340.272 122.311 339.937 122.096C339.605 121.88 339.228 121.773 338.803 121.773Z" fill="black"/>
<rect x="369" y="113" width="26" height="26" rx="13" fill="white"/>
<rect x="369" y="113" width="26" height="26" rx="13" stroke="black" stroke-width="2"/>
<path d="M378.634 120.818V131H377.401V122.111H377.341L374.855 123.761V122.509L377.401 120.818H378.634ZM385.002 131.139C384.346 131.139 383.761 131.027 383.247 130.801C382.737 130.576 382.331 130.263 382.029 129.862C381.731 129.457 381.568 128.988 381.542 128.455H382.795C382.821 128.783 382.934 129.066 383.133 129.305C383.332 129.54 383.592 129.722 383.913 129.852C384.235 129.981 384.591 130.045 384.982 130.045C385.42 130.045 385.808 129.969 386.146 129.817C386.484 129.664 386.749 129.452 386.941 129.18C387.133 128.909 387.229 128.594 387.229 128.236C387.229 127.861 387.137 127.531 386.951 127.246C386.765 126.958 386.494 126.733 386.136 126.57C385.778 126.408 385.34 126.327 384.823 126.327H384.008V125.233H384.823C385.228 125.233 385.582 125.16 385.887 125.014C386.195 124.868 386.436 124.663 386.608 124.398C386.784 124.133 386.871 123.821 386.871 123.463C386.871 123.118 386.795 122.818 386.643 122.563C386.49 122.308 386.275 122.109 385.996 121.967C385.721 121.824 385.397 121.753 385.022 121.753C384.671 121.753 384.339 121.817 384.028 121.947C383.719 122.073 383.468 122.257 383.272 122.499C383.076 122.737 382.97 123.026 382.954 123.364H381.761C381.781 122.83 381.941 122.363 382.243 121.962C382.545 121.557 382.939 121.242 383.426 121.017C383.917 120.792 384.455 120.679 385.042 120.679C385.672 120.679 386.212 120.807 386.663 121.062C387.113 121.314 387.46 121.647 387.702 122.061C387.944 122.475 388.065 122.923 388.065 123.403C388.065 123.977 387.914 124.466 387.612 124.87C387.314 125.274 386.908 125.554 386.394 125.71V125.79C387.037 125.896 387.539 126.169 387.901 126.61C388.262 127.048 388.442 127.589 388.442 128.236C388.442 128.789 388.292 129.286 387.99 129.727C387.692 130.165 387.284 130.509 386.767 130.761C386.25 131.013 385.662 131.139 385.002 131.139Z" fill="black"/>
<rect x="323" y="57" width="26" height="26" rx="13" fill="white"/>
<rect x="323" y="57" width="26" height="26" rx="13" stroke="black" stroke-width="2"/>
<path d="M328.054 75V74.1051L331.415 70.4261C331.809 69.9953 332.134 69.6207 332.389 69.3026C332.644 68.9811 332.833 68.6795 332.956 68.3977C333.082 68.1127 333.145 67.8144 333.145 67.5028C333.145 67.1449 333.059 66.835 332.886 66.5732C332.717 66.3113 332.485 66.1091 332.19 65.9666C331.895 65.8241 331.564 65.7528 331.196 65.7528C330.805 65.7528 330.464 65.834 330.172 65.9964C329.884 66.1555 329.66 66.3793 329.501 66.6676C329.345 66.956 329.267 67.294 329.267 67.6818H328.094C328.094 67.0852 328.231 66.5616 328.506 66.1108C328.781 65.66 329.156 65.3087 329.63 65.0568C330.107 64.8049 330.643 64.679 331.236 64.679C331.832 64.679 332.361 64.8049 332.822 65.0568C333.282 65.3087 333.644 65.6484 333.906 66.076C334.167 66.5036 334.298 66.9792 334.298 67.5028C334.298 67.8774 334.23 68.2436 334.094 68.6016C333.962 68.9562 333.73 69.3523 333.398 69.7898C333.07 70.224 332.615 70.7543 332.031 71.3807L329.744 73.8267V73.9062H334.477V75H328.054ZM339.772 64.679C340.19 64.6823 340.607 64.7618 341.025 64.9176C341.442 65.0734 341.824 65.3319 342.168 65.6932C342.513 66.0511 342.79 66.54 342.999 67.1598C343.207 67.7796 343.312 68.5568 343.312 69.4915C343.312 70.3963 343.226 71.2 343.053 71.9027C342.884 72.602 342.639 73.192 342.317 73.6726C341.999 74.1532 341.612 74.5178 341.154 74.7663C340.7 75.0149 340.186 75.1392 339.613 75.1392C339.043 75.1392 338.534 75.0265 338.087 74.8011C337.643 74.5724 337.278 74.2559 336.993 73.8516C336.711 73.4439 336.531 72.9716 336.451 72.4347H337.664C337.773 72.902 337.991 73.2881 338.315 73.593C338.643 73.8946 339.076 74.0455 339.613 74.0455C340.398 74.0455 341.018 73.7024 341.472 73.0163C341.93 72.3303 342.158 71.3608 342.158 70.108H342.079C341.893 70.3864 341.673 70.6267 341.418 70.8288C341.162 71.031 340.879 71.1868 340.567 71.2962C340.256 71.4055 339.924 71.4602 339.573 71.4602C338.99 71.4602 338.455 71.3161 337.967 71.0277C337.483 70.736 337.096 70.3366 336.804 69.8295C336.516 69.3191 336.371 68.7358 336.371 68.0795C336.371 67.4564 336.511 66.8864 336.789 66.3693C337.071 65.849 337.465 65.4347 337.972 65.1264C338.483 64.8182 339.083 64.669 339.772 64.679ZM339.772 65.7727C339.354 65.7727 338.978 65.8771 338.643 66.0859C338.312 66.2914 338.049 66.5698 337.853 66.9212C337.661 67.2692 337.565 67.6553 337.565 68.0795C337.565 68.5038 337.657 68.8899 337.843 69.2379C338.032 69.5826 338.289 69.8577 338.614 70.0632C338.942 70.2654 339.315 70.3665 339.732 70.3665C340.047 70.3665 340.34 70.3052 340.612 70.1825C340.884 70.0566 341.121 69.8859 341.323 69.6705C341.529 69.4517 341.689 69.2048 341.805 68.9297C341.921 68.6513 341.979 68.3613 341.979 68.0597C341.979 67.6619 341.883 67.2891 341.691 66.9411C341.502 66.593 341.24 66.3113 340.906 66.0959C340.574 65.8804 340.196 65.7727 339.772 65.7727Z" fill="black"/>
</g>
<defs>
<clipPath id="clip0_1181_344">
<rect width="396" height="140" fill="white"/>
</clipPath>
</defs>
</svg>
