<svg width="312" height="192" viewBox="0 0 312 192" fill="none" xmlns="http://www.w3.org/2000/svg">
    <g clip-path="url(#clip0_329_72)">
        <path d="M136 56L176 16" stroke="black" stroke-width="2" stroke-linecap="round"/>
        <path d="M216 56L176 16" stroke="black" stroke-width="2" stroke-linecap="round"/>
        <path d="M96 96L136 56" stroke="black" stroke-width="2" stroke-linecap="round"/>
        <path d="M176 96L136 56" stroke="black" stroke-width="2" stroke-linecap="round"/>
        <path d="M176 96L216 56" stroke="black" stroke-width="2" stroke-linecap="round"/>
        <path d="M256 96L216 56" stroke="black" stroke-width="2" stroke-linecap="round"/>
        <path d="M56 136L96 96" stroke="black" stroke-width="2" stroke-linecap="round"/>
        <path d="M136 136L96 96" stroke="black" stroke-width="2" stroke-linecap="round"/>
        <path d="M136 136L176 96" stroke="black" stroke-width="2" stroke-linecap="round"/>
        <path d="M216 136L176 96" stroke="black" stroke-width="2" stroke-linecap="round"/>
        <path d="M16 176L56 136" stroke="black" stroke-width="2" stroke-linecap="round"/>
        <path d="M96 176L136 136" stroke="black" stroke-width="2" stroke-linecap="round"/>
        <path d="M96 176L56 136" stroke="black" stroke-width="2" stroke-linecap="round"/>
        <path d="M216 136L256 96" stroke="black" stroke-width="2" stroke-linecap="round"/>
        <path d="M296 136L256 96" stroke="black" stroke-width="2" stroke-linecap="round"/>
        <rect x="161" y="1" width="30" height="30" rx="15" fill="white"/>
        <rect x="161" y="1" width="30" height="30" rx="15" stroke="black" stroke-width="2"/>
        <path d="M175.841 21.6591C175.174 21.6591 174.574 21.5265 174.04 21.2614C173.506 20.9962 173.078 20.6326 172.756 20.1705C172.434 19.7083 172.258 19.1818 172.227 18.5909H173.591C173.644 19.1174 173.883 19.553 174.307 19.8977C174.735 20.2386 175.246 20.4091 175.841 20.4091C176.318 20.4091 176.742 20.2973 177.114 20.0739C177.489 19.8504 177.782 19.5436 177.994 19.1534C178.21 18.7595 178.318 18.3144 178.318 17.8182C178.318 17.3106 178.206 16.858 177.983 16.4602C177.763 16.0587 177.46 15.7424 177.074 15.5114C176.688 15.2803 176.246 15.1629 175.75 15.1591C175.394 15.1553 175.028 15.2102 174.653 15.3239C174.278 15.4337 173.97 15.5758 173.727 15.75L172.409 15.5909L173.114 9.86364H179.159V11.1136H174.295L173.886 14.5455H173.955C174.193 14.3561 174.492 14.1989 174.852 14.0739C175.212 13.9489 175.587 13.8864 175.977 13.8864C176.689 13.8864 177.324 14.0568 177.881 14.3977C178.441 14.7348 178.881 15.197 179.199 15.7841C179.521 16.3712 179.682 17.0417 179.682 17.7955C179.682 18.5379 179.515 19.2008 179.182 19.7841C178.852 20.3636 178.398 20.822 177.818 21.1591C177.239 21.4924 176.58 21.6591 175.841 21.6591Z" fill="black"/>
        <rect x="121" y="41" width="30" height="30" rx="15" fill="white"/>
        <rect x="121" y="41" width="30" height="30" rx="15" stroke="black" stroke-width="2"/>
        <path d="M132.295 49.8636V61.5H130.886V51.3409H130.818L127.977 53.2273V51.7955L130.886 49.8636H132.295ZM139.438 61.6591C138.581 61.6591 137.852 61.4261 137.25 60.9602C136.648 60.4905 136.188 59.8106 135.869 58.9205C135.551 58.0265 135.392 56.947 135.392 55.6818C135.392 54.4242 135.551 53.3504 135.869 52.4602C136.191 51.5663 136.653 50.8845 137.256 50.4148C137.862 49.9413 138.589 49.7045 139.438 49.7045C140.286 49.7045 141.011 49.9413 141.614 50.4148C142.22 50.8845 142.682 51.5663 143 52.4602C143.322 53.3504 143.483 54.4242 143.483 55.6818C143.483 56.947 143.324 58.0265 143.006 58.9205C142.688 59.8106 142.227 60.4905 141.625 60.9602C141.023 61.4261 140.294 61.6591 139.438 61.6591ZM139.438 60.4091C140.286 60.4091 140.945 60 141.415 59.1818C141.884 58.3636 142.119 57.197 142.119 55.6818C142.119 54.6742 142.011 53.8163 141.795 53.108C141.583 52.3996 141.277 51.8598 140.875 51.4886C140.477 51.1174 139.998 50.9318 139.438 50.9318C138.597 50.9318 137.939 51.3466 137.466 52.1761C136.992 53.0019 136.756 54.1705 136.756 55.6818C136.756 56.6894 136.862 57.5455 137.074 58.25C137.286 58.9545 137.591 59.4905 137.989 59.858C138.39 60.2254 138.873 60.4091 139.438 60.4091Z" fill="black"/>
        <rect x="161" y="81" width="30" height="30" rx="15" fill="white"/>
        <rect x="161" y="81" width="30" height="30" rx="15" stroke="black" stroke-width="2"/>
        <path d="M172.295 89.8636V101.5H170.886V91.3409H170.818L167.977 93.2273V91.7955L170.886 89.8636H172.295ZM179.506 101.659C179.028 101.652 178.551 101.561 178.074 101.386C177.597 101.212 177.161 100.919 176.767 100.506C176.373 100.089 176.057 99.5265 175.818 98.8182C175.58 98.1061 175.46 97.2121 175.46 96.1364C175.46 95.1061 175.557 94.1932 175.75 93.3977C175.943 92.5985 176.223 91.9261 176.591 91.3807C176.958 90.8314 177.402 90.4148 177.92 90.1307C178.443 89.8466 179.032 89.7045 179.688 89.7045C180.339 89.7045 180.919 89.8352 181.426 90.0966C181.938 90.3542 182.354 90.714 182.676 91.1761C182.998 91.6383 183.206 92.1705 183.301 92.7727H181.915C181.786 92.25 181.536 91.8163 181.165 91.4716C180.794 91.1269 180.301 90.9545 179.688 90.9545C178.786 90.9545 178.076 91.3466 177.557 92.1307C177.042 92.9148 176.782 94.0152 176.778 95.4318H176.869C177.081 95.1098 177.333 94.8352 177.625 94.608C177.92 94.3769 178.246 94.1989 178.602 94.0739C178.958 93.9489 179.335 93.8864 179.733 93.8864C180.4 93.8864 181.009 94.053 181.562 94.3864C182.116 94.7159 182.559 95.1723 182.892 95.7557C183.225 96.3352 183.392 97 183.392 97.75C183.392 98.4697 183.231 99.1288 182.909 99.7273C182.587 100.322 182.134 100.795 181.551 101.148C180.972 101.496 180.29 101.667 179.506 101.659ZM179.506 100.409C179.983 100.409 180.411 100.29 180.79 100.051C181.172 99.8125 181.473 99.4924 181.693 99.0909C181.917 98.6894 182.028 98.2424 182.028 97.75C182.028 97.2689 181.92 96.8314 181.705 96.4375C181.492 96.0398 181.199 95.7235 180.824 95.4886C180.453 95.2538 180.028 95.1364 179.551 95.1364C179.191 95.1364 178.856 95.2083 178.545 95.3523C178.235 95.4924 177.962 95.6856 177.727 95.9318C177.496 96.178 177.314 96.4602 177.182 96.7784C177.049 97.0928 176.983 97.4242 176.983 97.7727C176.983 98.2348 177.091 98.6667 177.307 99.0682C177.527 99.4697 177.826 99.7936 178.205 100.04C178.587 100.286 179.021 100.409 179.506 100.409Z" fill="black"/>
        <rect x="241" y="81" width="30" height="30" rx="15" fill="white"/>
        <rect x="241" y="81" width="30" height="30" rx="15" stroke="black" stroke-width="2"/>
        <path d="M252.295 89.8636V101.5H250.886V91.3409H250.818L247.977 93.2273V91.7955L250.886 89.8636H252.295ZM259.278 101.659C258.612 101.659 258.011 101.527 257.477 101.261C256.943 100.996 256.515 100.633 256.193 100.17C255.871 99.7083 255.695 99.1818 255.665 98.5909H257.028C257.081 99.1174 257.32 99.553 257.744 99.8977C258.172 100.239 258.684 100.409 259.278 100.409C259.756 100.409 260.18 100.297 260.551 100.074C260.926 99.8504 261.22 99.5436 261.432 99.1534C261.648 98.7595 261.756 98.3144 261.756 97.8182C261.756 97.3106 261.644 96.858 261.42 96.4602C261.201 96.0587 260.898 95.7424 260.511 95.5114C260.125 95.2803 259.684 95.1629 259.188 95.1591C258.831 95.1553 258.466 95.2102 258.091 95.3239C257.716 95.4337 257.407 95.5758 257.165 95.75L255.847 95.5909L256.551 89.8636H262.597V91.1136H257.733L257.324 94.5455H257.392C257.631 94.3561 257.93 94.1989 258.29 94.0739C258.65 93.9489 259.025 93.8864 259.415 93.8864C260.127 93.8864 260.761 94.0568 261.318 94.3977C261.879 94.7348 262.318 95.197 262.636 95.7841C262.958 96.3712 263.119 97.0417 263.119 97.7955C263.119 98.5379 262.953 99.2008 262.619 99.7841C262.29 100.364 261.835 100.822 261.256 101.159C260.676 101.492 260.017 101.659 259.278 101.659Z" fill="black"/>
        <rect x="81" y="81" width="30" height="30" rx="15" fill="white"/>
        <rect x="81" y="81" width="30" height="30" rx="15" stroke="black" stroke-width="2"/>
        <path d="M92.2955 89.8636V101.5H90.8864V91.3409H90.8182L87.9773 93.2273V91.7955L90.8864 89.8636H92.2955ZM95.642 101.5V100.477L99.483 96.2727C99.9337 95.7803 100.305 95.3523 100.597 94.9886C100.888 94.6212 101.104 94.2765 101.244 93.9545C101.388 93.6288 101.46 93.2879 101.46 92.9318C101.46 92.5227 101.362 92.1686 101.165 91.8693C100.972 91.5701 100.706 91.339 100.369 91.1761C100.032 91.0133 99.6534 90.9318 99.233 90.9318C98.786 90.9318 98.3958 91.0246 98.0625 91.2102C97.733 91.392 97.4773 91.6477 97.2955 91.9773C97.1174 92.3068 97.0284 92.6932 97.0284 93.1364H95.6875C95.6875 92.4545 95.8447 91.8561 96.1591 91.3409C96.4735 90.8258 96.9015 90.4242 97.4432 90.1364C97.9886 89.8485 98.6004 89.7045 99.2784 89.7045C99.9602 89.7045 100.564 89.8485 101.091 90.1364C101.617 90.4242 102.03 90.8125 102.33 91.3011C102.629 91.7898 102.778 92.3333 102.778 92.9318C102.778 93.3598 102.701 93.7784 102.545 94.1875C102.394 94.5928 102.129 95.0455 101.75 95.5455C101.375 96.0417 100.854 96.6477 100.188 97.3636L97.5739 100.159V100.25H102.983V101.5H95.642Z" fill="black"/>
        <rect x="41" y="121" width="30" height="30" rx="15" fill="white"/>
        <rect x="41" y="121" width="30" height="30" rx="15" stroke="black" stroke-width="2"/>
        <path d="M47.7045 141.5V140.477L51.5455 136.273C51.9962 135.78 52.3674 135.352 52.6591 134.989C52.9508 134.621 53.1667 134.277 53.3068 133.955C53.4508 133.629 53.5227 133.288 53.5227 132.932C53.5227 132.523 53.4242 132.169 53.2273 131.869C53.0341 131.57 52.7689 131.339 52.4318 131.176C52.0947 131.013 51.7159 130.932 51.2955 130.932C50.8485 130.932 50.4583 131.025 50.125 131.21C49.7955 131.392 49.5398 131.648 49.358 131.977C49.1799 132.307 49.0909 132.693 49.0909 133.136H47.75C47.75 132.455 47.9072 131.856 48.2216 131.341C48.536 130.826 48.964 130.424 49.5057 130.136C50.0511 129.848 50.6629 129.705 51.3409 129.705C52.0227 129.705 52.6269 129.848 53.1534 130.136C53.6799 130.424 54.0928 130.812 54.392 131.301C54.6913 131.79 54.8409 132.333 54.8409 132.932C54.8409 133.36 54.7633 133.778 54.608 134.188C54.4564 134.593 54.1913 135.045 53.8125 135.545C53.4375 136.042 52.9167 136.648 52.25 137.364L49.6364 140.159V140.25H55.0455V141.5H47.7045ZM57.7557 141.5L62.9602 131.205V131.114H56.9602V129.864H64.4148V131.182L59.233 141.5H57.7557Z" fill="black"/>
        <rect x="1" y="161" width="30" height="30" rx="15" fill="white"/>
        <rect x="1" y="161" width="30" height="30" rx="15" stroke="black" stroke-width="2"/>
        <path d="M10.8409 181.659C10.1742 181.659 9.57386 181.527 9.03977 181.261C8.50568 180.996 8.07765 180.633 7.75568 180.17C7.43371 179.708 7.25758 179.182 7.22727 178.591H8.59091C8.64394 179.117 8.88258 179.553 9.30682 179.898C9.73485 180.239 10.2462 180.409 10.8409 180.409C11.3182 180.409 11.7424 180.297 12.1136 180.074C12.4886 179.85 12.7822 179.544 12.9943 179.153C13.2102 178.759 13.3182 178.314 13.3182 177.818C13.3182 177.311 13.2064 176.858 12.983 176.46C12.7633 176.059 12.4602 175.742 12.0739 175.511C11.6875 175.28 11.2462 175.163 10.75 175.159C10.3939 175.155 10.0284 175.21 9.65341 175.324C9.27841 175.434 8.9697 175.576 8.72727 175.75L7.40909 175.591L8.11364 169.864H14.1591V171.114H9.29545L8.88636 174.545H8.95455C9.19318 174.356 9.49242 174.199 9.85227 174.074C10.2121 173.949 10.5871 173.886 10.9773 173.886C11.6894 173.886 12.3239 174.057 12.8807 174.398C13.4413 174.735 13.8807 175.197 14.1989 175.784C14.5208 176.371 14.6818 177.042 14.6818 177.795C14.6818 178.538 14.5152 179.201 14.1818 179.784C13.8523 180.364 13.3977 180.822 12.8182 181.159C12.2386 181.492 11.5795 181.659 10.8409 181.659ZM20.6435 169.705C21.1207 169.708 21.598 169.799 22.0753 169.977C22.5526 170.155 22.9882 170.451 23.3821 170.864C23.776 171.273 24.0923 171.831 24.331 172.54C24.5696 173.248 24.6889 174.136 24.6889 175.205C24.6889 176.239 24.5904 177.157 24.3935 177.96C24.2003 178.759 23.92 179.434 23.5526 179.983C23.1889 180.532 22.7457 180.949 22.223 181.233C21.7041 181.517 21.117 181.659 20.4616 181.659C19.8101 181.659 19.2287 181.53 18.7173 181.273C18.2098 181.011 17.7931 180.65 17.4673 180.188C17.1454 179.722 16.9389 179.182 16.848 178.568H18.2344C18.3594 179.102 18.6075 179.544 18.9787 179.892C19.3537 180.237 19.848 180.409 20.4616 180.409C21.3594 180.409 22.0677 180.017 22.5866 179.233C23.1094 178.449 23.3707 177.341 23.3707 175.909H23.2798C23.0677 176.227 22.8158 176.502 22.5241 176.733C22.2325 176.964 21.9086 177.142 21.5526 177.267C21.1965 177.392 20.8177 177.455 20.4162 177.455C19.7495 177.455 19.1378 177.29 18.581 176.96C18.0279 176.627 17.5848 176.17 17.2514 175.591C16.9219 175.008 16.7571 174.341 16.7571 173.591C16.7571 172.879 16.9162 172.227 17.2344 171.636C17.5563 171.042 18.0071 170.568 18.5866 170.216C19.17 169.864 19.8556 169.693 20.6435 169.705ZM20.6435 170.955C20.1662 170.955 19.7363 171.074 19.3537 171.312C18.9749 171.547 18.6738 171.866 18.4503 172.267C18.2306 172.665 18.1207 173.106 18.1207 173.591C18.1207 174.076 18.2268 174.517 18.4389 174.915C18.6548 175.309 18.9484 175.623 19.3196 175.858C19.6946 176.089 20.1207 176.205 20.598 176.205C20.9579 176.205 21.2931 176.134 21.6037 175.994C21.9143 175.85 22.1851 175.655 22.4162 175.409C22.651 175.159 22.8348 174.877 22.9673 174.562C23.0999 174.244 23.1662 173.913 23.1662 173.568C23.1662 173.114 23.0563 172.687 22.8366 172.29C22.6207 171.892 22.3215 171.57 21.9389 171.324C21.5601 171.078 21.1283 170.955 20.6435 170.955Z" fill="black"/>
        <rect x="81" y="161" width="30" height="30" rx="15" fill="white"/>
        <rect x="81" y="161" width="30" height="30" rx="15" stroke="black" stroke-width="2"/>
        <path d="M90.6364 181.659C89.8864 181.659 89.2178 181.53 88.6307 181.273C88.0473 181.015 87.5833 180.657 87.2386 180.199C86.8977 179.737 86.7121 179.201 86.6818 178.591H88.1136C88.1439 178.966 88.2727 179.29 88.5 179.562C88.7273 179.831 89.0246 180.04 89.392 180.188C89.7595 180.335 90.1667 180.409 90.6136 180.409C91.1136 180.409 91.5568 180.322 91.9432 180.148C92.3295 179.973 92.6326 179.731 92.8523 179.42C93.072 179.11 93.1818 178.75 93.1818 178.341C93.1818 177.913 93.0758 177.536 92.8636 177.21C92.6515 176.881 92.3409 176.623 91.9318 176.438C91.5227 176.252 91.0227 176.159 90.4318 176.159H89.5V174.909H90.4318C90.8939 174.909 91.2992 174.826 91.6477 174.659C92 174.492 92.2746 174.258 92.4716 173.955C92.6723 173.652 92.7727 173.295 92.7727 172.886C92.7727 172.492 92.6856 172.15 92.5114 171.858C92.3371 171.566 92.0909 171.339 91.7727 171.176C91.4583 171.013 91.0871 170.932 90.6591 170.932C90.2576 170.932 89.8788 171.006 89.5227 171.153C89.1705 171.297 88.8826 171.508 88.6591 171.784C88.4356 172.057 88.3144 172.386 88.2955 172.773H86.9318C86.9545 172.163 87.1383 171.629 87.483 171.17C87.8277 170.708 88.2784 170.348 88.8352 170.091C89.3958 169.833 90.0114 169.705 90.6818 169.705C91.4015 169.705 92.0189 169.85 92.5341 170.142C93.0492 170.43 93.4451 170.811 93.7216 171.284C93.9981 171.758 94.1364 172.269 94.1364 172.818C94.1364 173.473 93.964 174.032 93.6193 174.494C93.2784 174.956 92.8144 175.277 92.2273 175.455V175.545C92.9621 175.667 93.536 175.979 93.9489 176.483C94.3617 176.983 94.5682 177.602 94.5682 178.341C94.5682 178.973 94.3958 179.542 94.0511 180.045C93.7102 180.545 93.2443 180.939 92.6534 181.227C92.0625 181.515 91.3902 181.659 90.6364 181.659ZM96.6193 179.114V177.955L101.733 169.864H102.574V171.659H102.006L98.142 177.773V177.864H105.028V179.114H96.6193ZM102.097 181.5V178.761V178.222V169.864H103.438V181.5H102.097Z" fill="black"/>
        <rect x="121" y="121" width="30" height="30" rx="15" fill="white"/>
        <rect x="121" y="121" width="30" height="30" rx="15" stroke="black" stroke-width="2"/>
        <path d="M127.205 141.5V140.477L131.045 136.273C131.496 135.78 131.867 135.352 132.159 134.989C132.451 134.621 132.667 134.277 132.807 133.955C132.951 133.629 133.023 133.288 133.023 132.932C133.023 132.523 132.924 132.169 132.727 131.869C132.534 131.57 132.269 131.339 131.932 131.176C131.595 131.013 131.216 130.932 130.795 130.932C130.348 130.932 129.958 131.025 129.625 131.21C129.295 131.392 129.04 131.648 128.858 131.977C128.68 132.307 128.591 132.693 128.591 133.136H127.25C127.25 132.455 127.407 131.856 127.722 131.341C128.036 130.826 128.464 130.424 129.006 130.136C129.551 129.848 130.163 129.705 130.841 129.705C131.523 129.705 132.127 129.848 132.653 130.136C133.18 130.424 133.593 130.812 133.892 131.301C134.191 131.79 134.341 132.333 134.341 132.932C134.341 133.36 134.263 133.778 134.108 134.188C133.956 134.593 133.691 135.045 133.312 135.545C132.938 136.042 132.417 136.648 131.75 137.364L129.136 140.159V140.25H134.545V141.5H127.205ZM136.892 141.5V140.477L140.733 136.273C141.184 135.78 141.555 135.352 141.847 134.989C142.138 134.621 142.354 134.277 142.494 133.955C142.638 133.629 142.71 133.288 142.71 132.932C142.71 132.523 142.612 132.169 142.415 131.869C142.222 131.57 141.956 131.339 141.619 131.176C141.282 131.013 140.903 130.932 140.483 130.932C140.036 130.932 139.646 131.025 139.312 131.21C138.983 131.392 138.727 131.648 138.545 131.977C138.367 132.307 138.278 132.693 138.278 133.136H136.938C136.938 132.455 137.095 131.856 137.409 131.341C137.723 130.826 138.152 130.424 138.693 130.136C139.239 129.848 139.85 129.705 140.528 129.705C141.21 129.705 141.814 129.848 142.341 130.136C142.867 130.424 143.28 130.812 143.58 131.301C143.879 131.79 144.028 132.333 144.028 132.932C144.028 133.36 143.951 133.778 143.795 134.188C143.644 134.593 143.379 135.045 143 135.545C142.625 136.042 142.104 136.648 141.438 137.364L138.824 140.159V140.25H144.233V141.5H136.892Z" fill="black"/>
        <rect x="201" y="121" width="30" height="30" rx="15" fill="white"/>
        <rect x="201" y="121" width="30" height="30" rx="15" stroke="black" stroke-width="2"/>
        <path d="M212.295 129.864V141.5H210.886V131.341H210.818L207.977 133.227V131.795L210.886 129.864H212.295ZM219.347 129.705C219.824 129.708 220.301 129.799 220.778 129.977C221.256 130.155 221.691 130.451 222.085 130.864C222.479 131.273 222.795 131.831 223.034 132.54C223.273 133.248 223.392 134.136 223.392 135.205C223.392 136.239 223.294 137.157 223.097 137.96C222.903 138.759 222.623 139.434 222.256 139.983C221.892 140.532 221.449 140.949 220.926 141.233C220.407 141.517 219.82 141.659 219.165 141.659C218.513 141.659 217.932 141.53 217.42 141.273C216.913 141.011 216.496 140.65 216.17 140.188C215.848 139.722 215.642 139.182 215.551 138.568H216.938C217.062 139.102 217.311 139.544 217.682 139.892C218.057 140.237 218.551 140.409 219.165 140.409C220.063 140.409 220.771 140.017 221.29 139.233C221.813 138.449 222.074 137.341 222.074 135.909H221.983C221.771 136.227 221.519 136.502 221.227 136.733C220.936 136.964 220.612 137.142 220.256 137.267C219.9 137.392 219.521 137.455 219.119 137.455C218.453 137.455 217.841 137.29 217.284 136.96C216.731 136.627 216.288 136.17 215.955 135.591C215.625 135.008 215.46 134.341 215.46 133.591C215.46 132.879 215.619 132.227 215.938 131.636C216.259 131.042 216.71 130.568 217.29 130.216C217.873 129.864 218.559 129.693 219.347 129.705ZM219.347 130.955C218.869 130.955 218.439 131.074 218.057 131.312C217.678 131.547 217.377 131.866 217.153 132.267C216.934 132.665 216.824 133.106 216.824 133.591C216.824 134.076 216.93 134.517 217.142 134.915C217.358 135.309 217.652 135.623 218.023 135.858C218.398 136.089 218.824 136.205 219.301 136.205C219.661 136.205 219.996 136.134 220.307 135.994C220.617 135.85 220.888 135.655 221.119 135.409C221.354 135.159 221.538 134.877 221.67 134.562C221.803 134.244 221.869 133.913 221.869 133.568C221.869 133.114 221.759 132.687 221.54 132.29C221.324 131.892 221.025 131.57 220.642 131.324C220.263 131.078 219.831 130.955 219.347 130.955Z" fill="black"/>
        <rect x="281" y="121" width="30" height="30" rx="15" fill="white"/>
        <rect x="281" y="121" width="30" height="30" rx="15" stroke="black" stroke-width="2"/>
        <path d="M291.136 141.659C290.386 141.659 289.718 141.53 289.131 141.273C288.547 141.015 288.083 140.657 287.739 140.199C287.398 139.737 287.212 139.201 287.182 138.591H288.614C288.644 138.966 288.773 139.29 289 139.562C289.227 139.831 289.525 140.04 289.892 140.188C290.259 140.335 290.667 140.409 291.114 140.409C291.614 140.409 292.057 140.322 292.443 140.148C292.83 139.973 293.133 139.731 293.352 139.42C293.572 139.11 293.682 138.75 293.682 138.341C293.682 137.913 293.576 137.536 293.364 137.21C293.152 136.881 292.841 136.623 292.432 136.438C292.023 136.252 291.523 136.159 290.932 136.159H290V134.909H290.932C291.394 134.909 291.799 134.826 292.148 134.659C292.5 134.492 292.775 134.258 292.972 133.955C293.172 133.652 293.273 133.295 293.273 132.886C293.273 132.492 293.186 132.15 293.011 131.858C292.837 131.566 292.591 131.339 292.273 131.176C291.958 131.013 291.587 130.932 291.159 130.932C290.758 130.932 290.379 131.006 290.023 131.153C289.67 131.297 289.383 131.508 289.159 131.784C288.936 132.057 288.814 132.386 288.795 132.773H287.432C287.455 132.163 287.638 131.629 287.983 131.17C288.328 130.708 288.778 130.348 289.335 130.091C289.896 129.833 290.511 129.705 291.182 129.705C291.902 129.705 292.519 129.85 293.034 130.142C293.549 130.43 293.945 130.811 294.222 131.284C294.498 131.758 294.636 132.269 294.636 132.818C294.636 133.473 294.464 134.032 294.119 134.494C293.778 134.956 293.314 135.277 292.727 135.455V135.545C293.462 135.667 294.036 135.979 294.449 136.483C294.862 136.983 295.068 137.602 295.068 138.341C295.068 138.973 294.896 139.542 294.551 140.045C294.21 140.545 293.744 140.939 293.153 141.227C292.563 141.515 291.89 141.659 291.136 141.659ZM297.756 141.5L302.96 131.205V131.114H296.96V129.864H304.415V131.182L299.233 141.5H297.756Z" fill="black"/>
        <rect x="201" y="41" width="30" height="30" rx="15" fill="white"/>
        <rect x="201" y="41" width="30" height="30" rx="15" stroke="black" stroke-width="2"/>
        <path d="M212.568 61.5L217.773 51.2045V51.1136H211.773V49.8636H219.227V51.1818L214.045 61.5H212.568Z" fill="black"/>
    </g>
    <defs>
        <clipPath id="clip0_329_72">
            <rect width="312" height="192" fill="white"/>
        </clipPath>
    </defs>
</svg>