<svg width="536" height="224" viewBox="0 0 536 224" fill="none" xmlns="http://www.w3.org/2000/svg">
<g clip-path="url(#clip0_1233_338)">
    <rect width="536" height="224" fill="white"/>
    <path d="M276.259 12.5403C276.792 12.3974 277.109 11.849 276.966 11.3156L274.637 2.62222C274.494 2.08875 273.945 1.77217 273.412 1.91511C272.878 2.05806 272.562 2.60639 272.705 3.13986L274.775 10.8673L267.048 12.9378C266.514 13.0808 266.198 13.6291 266.341 14.1626C266.484 14.696 267.032 15.0126 267.565 14.8697L276.259 12.5403ZM211.5 10.7083C211.022 10.9845 210.858 11.5961 211.134 12.0744C211.41 12.5527 212.022 12.7165 212.5 12.4404L212 11.5744L211.5 10.7083ZM276 11.5744L276.5 10.7083C266.619 5.00341 255.41 2 244 2L244 3L244 4C255.059 4 265.923 6.91099 275.5 12.4404L276 11.5744ZM244 3L244 2C232.59 2 221.381 5.00341 211.5 10.7083L212 11.5744L212.5 12.4404C222.077 6.91099 232.941 4 244 4L244 3Z" fill="black"/>
    <path d="M180 51L130 17" stroke="black" stroke-width="2" stroke-linecap="round"/>
    <path d="M66 65L130 17" stroke="black" stroke-width="2" stroke-linecap="round"/>
    <path d="M114 113L66 65" stroke="black" stroke-width="2" stroke-linecap="round"/>
    <rect x="114" y="1" width="32" height="32" rx="16" fill="white"/>
    <rect x="114" y="1" width="32" height="32" rx="16" stroke="black" stroke-width="2"/>
    <path d="M126.386 22.5H124.909L129.182 10.8636H130.636L134.909 22.5H133.432L129.955 12.7045H129.864L126.386 22.5ZM126.932 17.9545H132.886V19.2045H126.932V17.9545Z" fill="black"/>
    <path d="M32 99L66 65" stroke="black" stroke-width="2" stroke-linecap="round"/>
    <rect x="50" y="49" width="32" height="32" rx="16" fill="white"/>
    <rect x="50" y="49" width="32" height="32" rx="16" stroke="black" stroke-width="2"/>
    <path d="M61.9091 70.5V58.8636H65.9773C66.7879 58.8636 67.4564 59.0038 67.983 59.2841C68.5095 59.5606 68.9015 59.9337 69.1591 60.4034C69.4167 60.8693 69.5455 61.3864 69.5455 61.9545C69.5455 62.4545 69.4564 62.8674 69.2784 63.1932C69.1042 63.5189 68.8731 63.7765 68.5852 63.9659C68.3011 64.1553 67.9924 64.2955 67.6591 64.3864V64.5C68.0152 64.5227 68.3731 64.6477 68.733 64.875C69.0928 65.1023 69.3939 65.428 69.6364 65.8523C69.8788 66.2765 70 66.7955 70 67.4091C70 67.9924 69.8674 68.517 69.6023 68.983C69.3371 69.4489 68.9186 69.8182 68.3466 70.0909C67.7746 70.3636 67.0303 70.5 66.1136 70.5H61.9091ZM63.3182 69.25H66.1136C67.0341 69.25 67.6875 69.072 68.0739 68.7159C68.464 68.3561 68.6591 67.9205 68.6591 67.4091C68.6591 67.0152 68.5587 66.6515 68.358 66.3182C68.1572 65.9811 67.8712 65.7121 67.5 65.5114C67.1288 65.3068 66.6894 65.2045 66.1818 65.2045H63.3182V69.25ZM63.3182 63.9773H65.9318C66.3561 63.9773 66.7386 63.8939 67.0795 63.7273C67.4242 63.5606 67.697 63.3258 67.8977 63.0227C68.1023 62.7197 68.2045 62.3636 68.2045 61.9545C68.2045 61.4432 68.0265 61.0095 67.6705 60.6534C67.3144 60.2936 66.75 60.1136 65.9773 60.1136H63.3182V63.9773Z" fill="black"/>
    <path d="M175.357 52.0301C176.777 48.9 181.223 48.9 182.643 52.0301L205.015 101.348C206.216 103.996 204.28 107 201.372 107H156.628C153.72 107 151.784 103.996 152.985 101.348L175.357 52.0301Z" fill="white" stroke="black" stroke-width="2"/>
    <path d="M174.274 89.3153V88.0114L180.027 78.9091H180.973V80.929H180.334L175.987 87.8068V87.9091H183.734V89.3153H174.274ZM180.436 92V88.919V88.3118V78.9091H181.944V92H180.436Z" fill="#AAAAAA"/>
    <path d="M36.6427 100.03C35.2228 96.9 30.7772 96.9 29.3573 100.03L6.9853 149.348C5.78403 151.996 7.72017 155 10.628 155H55.372C58.2798 155 60.216 151.996 59.0147 149.348L36.6427 100.03Z" fill="white" stroke="black" stroke-width="2"/>
    <path d="M35.7738 124.909V138H34.1886V126.571H34.1119L30.9158 128.693V127.082L34.1886 124.909H35.7738Z" fill="#AAAAAA"/>
    <path d="M80 147L114 113" stroke="black" stroke-width="2" stroke-linecap="round"/>
    <path d="M148 147L114 113" stroke="black" stroke-width="2" stroke-linecap="round"/>
    <rect x="98" y="97" width="32" height="32" rx="16" fill="white"/>
    <rect x="98" y="97" width="32" height="32" rx="16" stroke="black" stroke-width="2"/>
    <path d="M118.773 110.5H117.364C117.28 110.095 117.134 109.739 116.926 109.432C116.722 109.125 116.472 108.867 116.176 108.659C115.884 108.447 115.561 108.288 115.205 108.182C114.848 108.076 114.477 108.023 114.091 108.023C113.386 108.023 112.748 108.201 112.176 108.557C111.608 108.913 111.155 109.438 110.818 110.131C110.485 110.824 110.318 111.674 110.318 112.682C110.318 113.689 110.485 114.54 110.818 115.233C111.155 115.926 111.608 116.451 112.176 116.807C112.748 117.163 113.386 117.341 114.091 117.341C114.477 117.341 114.848 117.288 115.205 117.182C115.561 117.076 115.884 116.919 116.176 116.71C116.472 116.498 116.722 116.239 116.926 115.932C117.134 115.621 117.28 115.265 117.364 114.864H118.773C118.667 115.458 118.473 115.991 118.193 116.46C117.913 116.93 117.564 117.33 117.148 117.659C116.731 117.985 116.263 118.233 115.744 118.403C115.229 118.574 114.678 118.659 114.091 118.659C113.098 118.659 112.216 118.417 111.443 117.932C110.67 117.447 110.063 116.758 109.619 115.864C109.176 114.97 108.955 113.909 108.955 112.682C108.955 111.455 109.176 110.394 109.619 109.5C110.063 108.606 110.67 107.917 111.443 107.432C112.216 106.947 113.098 106.705 114.091 106.705C114.678 106.705 115.229 106.79 115.744 106.96C116.263 107.131 116.731 107.381 117.148 107.71C117.564 108.036 117.913 108.434 118.193 108.903C118.473 109.369 118.667 109.902 118.773 110.5Z" fill="black"/>
    <path d="M77.3573 148.03C78.7772 144.9 83.2228 144.9 84.6427 148.03L107.015 197.348C108.216 199.996 106.28 203 103.372 203H58.628C55.7202 203 53.784 199.996 54.9853 197.348L77.3573 148.03Z" fill="white" stroke="black" stroke-width="2"/>
    <path d="M76.9059 188V186.849L81.2269 182.119C81.734 181.565 82.1516 181.084 82.4798 180.675C82.8079 180.261 83.0508 179.874 83.2085 179.511C83.3704 179.145 83.4513 178.761 83.4513 178.361C83.4513 177.901 83.3406 177.502 83.119 177.165C82.9016 176.829 82.6033 176.569 82.2241 176.386C81.8448 176.202 81.4187 176.111 80.9457 176.111C80.4428 176.111 80.0039 176.215 79.6289 176.424C79.2582 176.629 78.9705 176.916 78.766 177.287C78.5657 177.658 78.4656 178.092 78.4656 178.591H76.957C76.957 177.824 77.1339 177.151 77.4876 176.571C77.8413 175.991 78.3228 175.54 78.9322 175.216C79.5458 174.892 80.234 174.73 80.9968 174.73C81.7638 174.73 82.4435 174.892 83.0359 175.216C83.6282 175.54 84.0927 175.977 84.4293 176.526C84.766 177.076 84.9343 177.688 84.9343 178.361C84.9343 178.842 84.8469 179.313 84.6722 179.773C84.5018 180.229 84.2035 180.739 83.7773 181.301C83.3555 181.859 82.7695 182.541 82.0195 183.347L79.0792 186.491V186.594H85.1644V188H76.9059Z" fill="#AAAAAA"/>
    <path d="M150.643 148.03C149.223 144.9 144.777 144.9 143.357 148.03L120.985 197.348C119.784 199.996 121.72 203 124.628 203H169.372C172.28 203 174.216 199.996 173.015 197.348L150.643 148.03Z" fill="white" stroke="black" stroke-width="2"/>
    <path d="M148.048 186.179C147.204 186.179 146.452 186.034 145.792 185.744C145.135 185.455 144.613 185.052 144.225 184.536C143.842 184.016 143.633 183.413 143.599 182.727H145.21C145.244 183.149 145.389 183.513 145.645 183.82C145.9 184.123 146.235 184.357 146.648 184.523C147.061 184.69 147.52 184.773 148.022 184.773C148.585 184.773 149.083 184.675 149.518 184.479C149.953 184.283 150.294 184.01 150.541 183.661C150.788 183.311 150.912 182.906 150.912 182.446C150.912 181.964 150.792 181.54 150.554 181.174C150.315 180.803 149.966 180.513 149.505 180.305C149.045 180.096 148.483 179.991 147.818 179.991H146.77V178.585H147.818C148.338 178.585 148.794 178.491 149.186 178.304C149.582 178.116 149.891 177.852 150.113 177.511C150.338 177.17 150.451 176.77 150.451 176.31C150.451 175.866 150.353 175.481 150.157 175.153C149.961 174.825 149.684 174.569 149.326 174.386C148.973 174.202 148.555 174.111 148.074 174.111C147.622 174.111 147.196 174.194 146.795 174.36C146.399 174.522 146.075 174.759 145.824 175.07C145.572 175.376 145.436 175.747 145.414 176.182H143.88C143.906 175.496 144.113 174.895 144.5 174.379C144.888 173.859 145.395 173.455 146.022 173.165C146.652 172.875 147.345 172.73 148.099 172.73C148.909 172.73 149.603 172.894 150.183 173.222C150.762 173.546 151.208 173.974 151.519 174.507C151.83 175.04 151.985 175.615 151.985 176.233C151.985 176.97 151.792 177.599 151.404 178.119C151.02 178.638 150.498 178.999 149.838 179.199V179.301C150.664 179.437 151.31 179.789 151.775 180.356C152.239 180.918 152.471 181.615 152.471 182.446C152.471 183.158 152.277 183.797 151.89 184.364C151.506 184.926 150.982 185.369 150.317 185.693C149.652 186.017 148.896 186.179 148.048 186.179Z" fill="#AAAAAA"/>
    <path d="M470 65L406 17" stroke="black" stroke-width="2" stroke-linecap="round"/>
    <path d="M342 65L406 17" stroke="black" stroke-width="2" stroke-linecap="round"/>
    <rect x="390" y="1" width="32" height="32" rx="16" fill="white"/>
    <rect x="390" y="1" width="32" height="32" rx="16" stroke="black" stroke-width="2"/>
    <path d="M410.773 14.5H409.364C409.28 14.0947 409.134 13.7386 408.926 13.4318C408.722 13.125 408.472 12.8674 408.176 12.6591C407.884 12.447 407.561 12.2879 407.205 12.1818C406.848 12.0758 406.477 12.0227 406.091 12.0227C405.386 12.0227 404.748 12.2008 404.176 12.5568C403.608 12.9129 403.155 13.4375 402.818 14.1307C402.485 14.8239 402.318 15.6742 402.318 16.6818C402.318 17.6894 402.485 18.5398 402.818 19.233C403.155 19.9261 403.608 20.4508 404.176 20.8068C404.748 21.1629 405.386 21.3409 406.091 21.3409C406.477 21.3409 406.848 21.2879 407.205 21.1818C407.561 21.0758 407.884 20.9186 408.176 20.7102C408.472 20.4981 408.722 20.2386 408.926 19.9318C409.134 19.6212 409.28 19.2652 409.364 18.8636H410.773C410.667 19.4583 410.473 19.9905 410.193 20.4602C409.913 20.9299 409.564 21.3295 409.148 21.6591C408.731 21.9848 408.263 22.233 407.744 22.4034C407.229 22.5739 406.678 22.6591 406.091 22.6591C405.098 22.6591 404.216 22.4167 403.443 21.9318C402.67 21.447 402.063 20.7576 401.619 19.8636C401.176 18.9697 400.955 17.9091 400.955 16.6818C400.955 15.4545 401.176 14.3939 401.619 13.5C402.063 12.6061 402.67 11.9167 403.443 11.4318C404.216 10.947 405.098 10.7045 406.091 10.7045C406.678 10.7045 407.229 10.7898 407.744 10.9602C408.263 11.1307 408.731 11.3807 409.148 11.7102C409.564 12.036 409.913 12.4337 410.193 12.9034C410.473 13.3693 410.667 13.9015 410.773 14.5Z" fill="black"/>
    <path d="M308 99L342 65" stroke="black" stroke-width="2" stroke-linecap="round"/>
    <path d="M376 99L342 65" stroke="black" stroke-width="2" stroke-linecap="round"/>
    <rect x="326" y="49" width="32" height="32" rx="16" fill="white"/>
    <rect x="326" y="49" width="32" height="32" rx="16" stroke="black" stroke-width="2"/>
    <path d="M337.909 70.5V58.8636H341.977C342.788 58.8636 343.456 59.0038 343.983 59.2841C344.509 59.5606 344.902 59.9337 345.159 60.4034C345.417 60.8693 345.545 61.3864 345.545 61.9545C345.545 62.4545 345.456 62.8674 345.278 63.1932C345.104 63.5189 344.873 63.7765 344.585 63.9659C344.301 64.1553 343.992 64.2955 343.659 64.3864V64.5C344.015 64.5227 344.373 64.6477 344.733 64.875C345.093 65.1023 345.394 65.428 345.636 65.8523C345.879 66.2765 346 66.7955 346 67.4091C346 67.9924 345.867 68.517 345.602 68.983C345.337 69.4489 344.919 69.8182 344.347 70.0909C343.775 70.3636 343.03 70.5 342.114 70.5H337.909ZM339.318 69.25H342.114C343.034 69.25 343.688 69.072 344.074 68.7159C344.464 68.3561 344.659 67.9205 344.659 67.4091C344.659 67.0152 344.559 66.6515 344.358 66.3182C344.157 65.9811 343.871 65.7121 343.5 65.5114C343.129 65.3068 342.689 65.2045 342.182 65.2045H339.318V69.25ZM339.318 63.9773H341.932C342.356 63.9773 342.739 63.8939 343.08 63.7273C343.424 63.5606 343.697 63.3258 343.898 63.0227C344.102 62.7197 344.205 62.3636 344.205 61.9545C344.205 61.4432 344.027 61.0095 343.67 60.6534C343.314 60.2936 342.75 60.1136 341.977 60.1136H339.318V63.9773Z" fill="black"/>
    <path d="M305.357 100.03C306.777 96.9 311.223 96.9 312.643 100.03L335.015 149.348C336.216 151.996 334.28 155 331.372 155H286.628C283.72 155 281.784 151.996 282.985 149.348L305.357 100.03Z" fill="white" stroke="black" stroke-width="2"/>
    <path d="M310.774 126.909V140H309.189V128.571H309.112L305.916 130.693V129.082L309.189 126.909H310.774Z" fill="#AAAAAA"/>
    <path d="M378.643 100.03C377.223 96.9 372.777 96.9 371.357 100.03L348.985 149.348C347.784 151.996 349.72 155 352.628 155H397.372C400.28 155 402.216 151.996 401.015 149.348L378.643 100.03Z" fill="white" stroke="black" stroke-width="2"/>
    <path d="M371.906 138V136.849L376.227 132.119C376.734 131.565 377.152 131.084 377.48 130.675C377.808 130.261 378.051 129.874 378.208 129.511C378.37 129.145 378.451 128.761 378.451 128.361C378.451 127.901 378.341 127.502 378.119 127.165C377.902 126.829 377.603 126.569 377.224 126.386C376.845 126.202 376.419 126.111 375.946 126.111C375.443 126.111 375.004 126.215 374.629 126.424C374.258 126.629 373.971 126.916 373.766 127.287C373.566 127.658 373.466 128.092 373.466 128.591H371.957C371.957 127.824 372.134 127.151 372.488 126.571C372.841 125.991 373.323 125.54 373.932 125.216C374.546 124.892 375.234 124.73 375.997 124.73C376.764 124.73 377.444 124.892 378.036 125.216C378.628 125.54 379.093 125.977 379.429 126.526C379.766 127.076 379.934 127.688 379.934 128.361C379.934 128.842 379.847 129.313 379.672 129.773C379.502 130.229 379.203 130.739 378.777 131.301C378.355 131.859 377.77 132.541 377.02 133.347L374.079 136.491V136.594H380.164V138H371.906Z" fill="#AAAAAA"/>
    <path d="M436 99L470 65" stroke="black" stroke-width="2" stroke-linecap="round"/>
    <path d="M504 99L470 65" stroke="black" stroke-width="2" stroke-linecap="round"/>
    <rect x="454" y="49" width="32" height="32" rx="16" fill="white"/>
    <rect x="454" y="49" width="32" height="32" rx="16" stroke="black" stroke-width="2"/>
    <path d="M466.386 70.5H464.909L469.182 58.8636H470.636L474.909 70.5H473.432L469.955 60.7045H469.864L466.386 70.5ZM466.932 65.9545H472.886V67.2045H466.932V65.9545Z" fill="black"/>
    <path d="M433.357 100.03C434.777 96.9 439.223 96.9 440.643 100.03L463.015 149.348C464.216 151.996 462.28 155 459.372 155H414.628C411.72 155 409.784 151.996 410.985 149.348L433.357 100.03Z" fill="white" stroke="black" stroke-width="2"/>
    <path d="M437.048 140.179C436.204 140.179 435.452 140.034 434.792 139.744C434.135 139.455 433.613 139.052 433.225 138.536C432.842 138.016 432.633 137.413 432.599 136.727H434.21C434.244 137.149 434.389 137.513 434.645 137.82C434.9 138.123 435.235 138.357 435.648 138.523C436.061 138.69 436.52 138.773 437.022 138.773C437.585 138.773 438.083 138.675 438.518 138.479C438.953 138.283 439.294 138.01 439.541 137.661C439.788 137.311 439.912 136.906 439.912 136.446C439.912 135.964 439.792 135.54 439.554 135.174C439.315 134.803 438.966 134.513 438.505 134.305C438.045 134.096 437.483 133.991 436.818 133.991H435.77V132.585H436.818C437.338 132.585 437.794 132.491 438.186 132.304C438.582 132.116 438.891 131.852 439.113 131.511C439.338 131.17 439.451 130.77 439.451 130.31C439.451 129.866 439.353 129.481 439.157 129.153C438.961 128.825 438.684 128.569 438.326 128.386C437.973 128.202 437.555 128.111 437.074 128.111C436.622 128.111 436.196 128.194 435.795 128.36C435.399 128.522 435.075 128.759 434.824 129.07C434.572 129.376 434.436 129.747 434.414 130.182H432.88C432.906 129.496 433.113 128.895 433.5 128.379C433.888 127.859 434.395 127.455 435.022 127.165C435.652 126.875 436.345 126.73 437.099 126.73C437.909 126.73 438.603 126.894 439.183 127.222C439.762 127.546 440.208 127.974 440.519 128.507C440.83 129.04 440.985 129.615 440.985 130.233C440.985 130.97 440.792 131.599 440.404 132.119C440.02 132.638 439.498 132.999 438.838 133.199V133.301C439.664 133.437 440.31 133.789 440.775 134.356C441.239 134.918 441.471 135.615 441.471 136.446C441.471 137.158 441.277 137.797 440.89 138.364C440.506 138.926 439.982 139.369 439.317 139.693C438.652 140.017 437.896 140.179 437.048 140.179Z" fill="#AAAAAA"/>
    <path d="M506.643 100.03C505.223 96.9 500.777 96.9 499.357 100.03L476.985 149.348C475.784 151.996 477.72 155 480.628 155H525.372C528.28 155 530.216 151.996 529.015 149.348L506.643 100.03Z" fill="white" stroke="black" stroke-width="2"/>
    <path d="M499.274 135.315V134.011L505.027 124.909H505.973V126.929H505.334L500.987 133.807V133.909H508.734V135.315H499.274ZM505.436 138V134.919V134.312V124.909H506.944V138H505.436Z" fill="#AAAAAA"/>
</g>
<defs>
    <clipPath id="clip0_1233_338">
        <rect width="536" height="224" fill="white"/>
    </clipPath>
</defs>
</svg>
