<svg width="536" height="224" viewBox="0 0 536 224" fill="none" xmlns="http://www.w3.org/2000/svg">
    <g clip-path="url(#clip0_399_171)">
        <rect width="536" height="224" fill="white"/>
        <path d="M275.5 12.4404C275.978 12.7165 276.59 12.5527 276.866 12.0744C277.142 11.5961 276.978 10.9845 276.5 10.7083L276 11.5744L275.5 12.4404ZM211.034 11.3156C210.891 11.849 211.208 12.3974 211.741 12.5403L220.435 14.8697C220.968 15.0126 221.516 14.696 221.659 14.1626C221.802 13.6291 221.486 13.0808 220.952 12.9378L213.225 10.8673L215.295 3.13986C215.438 2.60639 215.122 2.05805 214.588 1.91511C214.055 1.77217 213.506 2.08875 213.363 2.62222L211.034 11.3156ZM276 11.5744L276.5 10.7083C266.619 5.00341 255.41 2 244 2L244 3L244 4C255.059 4 265.923 6.91099 275.5 12.4404L276 11.5744ZM244 3L244 2C232.59 2 221.381 5.00341 211.5 10.7083L212 11.5744L212.5 12.4404C222.077 6.91099 232.941 4 244 4L244 3Z" fill="black"/>
        <path d="M32 51L82 17" stroke="black" stroke-width="2" stroke-linecap="round"/>
        <path d="M146 65L82 17" stroke="black" stroke-width="2" stroke-linecap="round"/>
        <path d="M98 113L146 65" stroke="black" stroke-width="2" stroke-linecap="round"/>
        <rect x="66" y="1" width="32" height="32" rx="16" fill="white"/>
        <rect x="66" y="1" width="32" height="32" rx="16" stroke="black" stroke-width="2"/>
        <path d="M78.3864 22.5H76.9091L81.1818 10.8636H82.6364L86.9091 22.5H85.4318L81.9545 12.7045H81.8636L78.3864 22.5ZM78.9318 17.9545H84.8864V19.2045H78.9318V17.9545Z" fill="black"/>
        <path d="M180 99L146 65" stroke="black" stroke-width="2" stroke-linecap="round"/>
        <rect x="130" y="49" width="32" height="32" rx="16" fill="white"/>
        <rect x="130" y="49" width="32" height="32" rx="16" stroke="black" stroke-width="2"/>
        <path d="M141.909 70.5V58.8636H145.977C146.788 58.8636 147.456 59.0038 147.983 59.2841C148.509 59.5606 148.902 59.9337 149.159 60.4034C149.417 60.8693 149.545 61.3864 149.545 61.9545C149.545 62.4545 149.456 62.8674 149.278 63.1932C149.104 63.5189 148.873 63.7765 148.585 63.9659C148.301 64.1553 147.992 64.2955 147.659 64.3864V64.5C148.015 64.5227 148.373 64.6477 148.733 64.875C149.093 65.1023 149.394 65.428 149.636 65.8523C149.879 66.2765 150 66.7955 150 67.4091C150 67.9924 149.867 68.517 149.602 68.983C149.337 69.4489 148.919 69.8182 148.347 70.0909C147.775 70.3636 147.03 70.5 146.114 70.5H141.909ZM143.318 69.25H146.114C147.034 69.25 147.688 69.072 148.074 68.7159C148.464 68.3561 148.659 67.9205 148.659 67.4091C148.659 67.0152 148.559 66.6515 148.358 66.3182C148.157 65.9811 147.871 65.7121 147.5 65.5114C147.129 65.3068 146.689 65.2045 146.182 65.2045H143.318V69.25ZM143.318 63.9773H145.932C146.356 63.9773 146.739 63.8939 147.08 63.7273C147.424 63.5606 147.697 63.3258 147.898 63.0227C148.102 62.7197 148.205 62.3636 148.205 61.9545C148.205 61.4432 148.027 61.0095 147.67 60.6534C147.314 60.2936 146.75 60.1136 145.977 60.1136H143.318V63.9773Z" fill="black"/>
        <path d="M29.3573 52.0301C30.7772 48.9 35.2228 48.9 36.6427 52.0301L59.0147 101.348C60.216 103.996 58.2798 107 55.372 107H10.628C7.72017 107 5.78403 103.996 6.9853 101.348L29.3573 52.0301Z" fill="white" stroke="black" stroke-width="2"/>
        <path d="M34.7738 78.9091V92H33.1886V80.571H33.1119L29.9158 82.6932V81.0824L33.1886 78.9091H34.7738Z" fill="#AAAAAA"/>
        <path d="M182.643 100.03C181.223 96.9 176.777 96.9 175.357 100.03L152.985 149.348C151.784 151.996 153.72 155 156.628 155H201.372C204.28 155 206.216 151.996 205.015 149.348L182.643 100.03Z" fill="white" stroke="black" stroke-width="2"/>
        <path d="M175.274 135.315V134.011L181.027 124.909H181.973V126.929H181.334L176.987 133.807V133.909H184.734V135.315H175.274ZM181.436 138V134.919V134.312V124.909H182.944V138H181.436Z" fill="#AAAAAA"/>
        <path d="M64 147L98 113" stroke="black" stroke-width="2" stroke-linecap="round"/>
        <path d="M132 147L98 113" stroke="black" stroke-width="2" stroke-linecap="round"/>
        <rect x="82" y="97" width="32" height="32" rx="16" fill="white"/>
        <rect x="82" y="97" width="32" height="32" rx="16" stroke="black" stroke-width="2"/>
        <path d="M102.773 110.5H101.364C101.28 110.095 101.134 109.739 100.926 109.432C100.722 109.125 100.472 108.867 100.176 108.659C99.8845 108.447 99.5606 108.288 99.2045 108.182C98.8485 108.076 98.4773 108.023 98.0909 108.023C97.3864 108.023 96.7481 108.201 96.1761 108.557C95.608 108.913 95.1553 109.438 94.8182 110.131C94.4848 110.824 94.3182 111.674 94.3182 112.682C94.3182 113.689 94.4848 114.54 94.8182 115.233C95.1553 115.926 95.608 116.451 96.1761 116.807C96.7481 117.163 97.3864 117.341 98.0909 117.341C98.4773 117.341 98.8485 117.288 99.2045 117.182C99.5606 117.076 99.8845 116.919 100.176 116.71C100.472 116.498 100.722 116.239 100.926 115.932C101.134 115.621 101.28 115.265 101.364 114.864H102.773C102.667 115.458 102.473 115.991 102.193 116.46C101.913 116.93 101.564 117.33 101.148 117.659C100.731 117.985 100.263 118.233 99.7443 118.403C99.2292 118.574 98.678 118.659 98.0909 118.659C97.0985 118.659 96.2159 118.417 95.4432 117.932C94.6705 117.447 94.0625 116.758 93.6193 115.864C93.1761 114.97 92.9545 113.909 92.9545 112.682C92.9545 111.455 93.1761 110.394 93.6193 109.5C94.0625 108.606 94.6705 107.917 95.4432 107.432C96.2159 106.947 97.0985 106.705 98.0909 106.705C98.678 106.705 99.2292 106.79 99.7443 106.96C100.263 107.131 100.731 107.381 101.148 107.71C101.564 108.036 101.913 108.434 102.193 108.903C102.473 109.369 102.667 109.902 102.773 110.5Z" fill="black"/>
        <path d="M61.3573 148.03C62.7772 144.9 67.2228 144.9 68.6427 148.03L91.0147 197.348C92.216 199.996 90.2798 203 87.372 203H42.628C39.7202 203 37.784 199.996 38.9853 197.348L61.3573 148.03Z" fill="white" stroke="black" stroke-width="2"/>
        <path d="M60.9059 188V186.849L65.2269 182.119C65.734 181.565 66.1516 181.084 66.4798 180.675C66.8079 180.261 67.0508 179.874 67.2085 179.511C67.3704 179.145 67.4513 178.761 67.4513 178.361C67.4513 177.901 67.3406 177.502 67.119 177.165C66.9016 176.829 66.6033 176.569 66.2241 176.386C65.8448 176.202 65.4187 176.111 64.9457 176.111C64.4428 176.111 64.0039 176.215 63.6289 176.424C63.2582 176.629 62.9705 176.916 62.766 177.287C62.5657 177.658 62.4656 178.092 62.4656 178.591H60.957C60.957 177.824 61.1339 177.151 61.4876 176.571C61.8413 175.991 62.3228 175.54 62.9322 175.216C63.5458 174.892 64.234 174.73 64.9968 174.73C65.7638 174.73 66.4435 174.892 67.0359 175.216C67.6282 175.54 68.0927 175.977 68.4293 176.526C68.766 177.076 68.9343 177.688 68.9343 178.361C68.9343 178.842 68.8469 179.313 68.6722 179.773C68.5018 180.229 68.2035 180.739 67.7773 181.301C67.3555 181.859 66.7695 182.541 66.0195 183.347L63.0792 186.491V186.594H69.1644V188H60.9059Z" fill="#AAAAAA"/>
        <path d="M134.643 148.03C133.223 144.9 128.777 144.9 127.357 148.03L104.985 197.348C103.784 199.996 105.72 203 108.628 203H153.372C156.28 203 158.216 199.996 157.015 197.348L134.643 148.03Z" fill="white" stroke="black" stroke-width="2"/>
        <path d="M132.048 186.179C131.204 186.179 130.452 186.034 129.792 185.744C129.135 185.455 128.613 185.052 128.225 184.536C127.842 184.016 127.633 183.413 127.599 182.727H129.21C129.244 183.149 129.389 183.513 129.645 183.82C129.9 184.123 130.235 184.357 130.648 184.523C131.061 184.69 131.52 184.773 132.022 184.773C132.585 184.773 133.083 184.675 133.518 184.479C133.953 184.283 134.294 184.01 134.541 183.661C134.788 183.311 134.912 182.906 134.912 182.446C134.912 181.964 134.792 181.54 134.554 181.174C134.315 180.803 133.966 180.513 133.505 180.305C133.045 180.096 132.483 179.991 131.818 179.991H130.77V178.585H131.818C132.338 178.585 132.794 178.491 133.186 178.304C133.582 178.116 133.891 177.852 134.113 177.511C134.338 177.17 134.451 176.77 134.451 176.31C134.451 175.866 134.353 175.481 134.157 175.153C133.961 174.825 133.684 174.569 133.326 174.386C132.973 174.202 132.555 174.111 132.074 174.111C131.622 174.111 131.196 174.194 130.795 174.36C130.399 174.522 130.075 174.759 129.824 175.07C129.572 175.376 129.436 175.747 129.414 176.182H127.88C127.906 175.496 128.113 174.895 128.5 174.379C128.888 173.859 129.395 173.455 130.022 173.165C130.652 172.875 131.345 172.73 132.099 172.73C132.909 172.73 133.603 172.894 134.183 173.222C134.762 173.546 135.208 173.974 135.519 174.507C135.83 175.04 135.985 175.615 135.985 176.233C135.985 176.97 135.792 177.599 135.404 178.119C135.02 178.638 134.498 178.999 133.838 179.199V179.301C134.664 179.437 135.31 179.789 135.775 180.356C136.239 180.918 136.471 181.615 136.471 182.446C136.471 183.158 136.277 183.797 135.89 184.364C135.506 184.926 134.982 185.369 134.317 185.693C133.652 186.017 132.896 186.179 132.048 186.179Z" fill="#AAAAAA"/>
        <path d="M470 65L406 17" stroke="black" stroke-width="2" stroke-linecap="round"/>
        <path d="M342 65L406 17" stroke="black" stroke-width="2" stroke-linecap="round"/>
        <rect x="390" y="1" width="32" height="32" rx="16" fill="white"/>
        <rect x="390" y="1" width="32" height="32" rx="16" stroke="black" stroke-width="2"/>
        <path d="M410.773 14.5H409.364C409.28 14.0947 409.134 13.7386 408.926 13.4318C408.722 13.125 408.472 12.8674 408.176 12.6591C407.884 12.447 407.561 12.2879 407.205 12.1818C406.848 12.0758 406.477 12.0227 406.091 12.0227C405.386 12.0227 404.748 12.2008 404.176 12.5568C403.608 12.9129 403.155 13.4375 402.818 14.1307C402.485 14.8239 402.318 15.6742 402.318 16.6818C402.318 17.6894 402.485 18.5398 402.818 19.233C403.155 19.9261 403.608 20.4508 404.176 20.8068C404.748 21.1629 405.386 21.3409 406.091 21.3409C406.477 21.3409 406.848 21.2879 407.205 21.1818C407.561 21.0758 407.884 20.9186 408.176 20.7102C408.472 20.4981 408.722 20.2386 408.926 19.9318C409.134 19.6212 409.28 19.2652 409.364 18.8636H410.773C410.667 19.4583 410.473 19.9905 410.193 20.4602C409.913 20.9299 409.564 21.3295 409.148 21.6591C408.731 21.9848 408.263 22.233 407.744 22.4034C407.229 22.5739 406.678 22.6591 406.091 22.6591C405.098 22.6591 404.216 22.4167 403.443 21.9318C402.67 21.447 402.063 20.7576 401.619 19.8636C401.176 18.9697 400.955 17.9091 400.955 16.6818C400.955 15.4545 401.176 14.3939 401.619 13.5C402.063 12.6061 402.67 11.9167 403.443 11.4318C404.216 10.947 405.098 10.7045 406.091 10.7045C406.678 10.7045 407.229 10.7898 407.744 10.9602C408.263 11.1307 408.731 11.3807 409.148 11.7102C409.564 12.036 409.913 12.4337 410.193 12.9034C410.473 13.3693 410.667 13.9015 410.773 14.5Z" fill="black"/>
        <path d="M308 99L342 65" stroke="black" stroke-width="2" stroke-linecap="round"/>
        <path d="M376 99L342 65" stroke="black" stroke-width="2" stroke-linecap="round"/>
        <rect x="326" y="49" width="32" height="32" rx="16" fill="white"/>
        <rect x="326" y="49" width="32" height="32" rx="16" stroke="black" stroke-width="2"/>
        <path d="M338.386 70.5H336.909L341.182 58.8636H342.636L346.909 70.5H345.432L341.955 60.7045H341.864L338.386 70.5ZM338.932 65.9545H344.886V67.2045H338.932V65.9545Z" fill="black"/>
        <path d="M305.357 100.03C306.777 96.9 311.223 96.9 312.643 100.03L335.015 149.348C336.216 151.996 334.28 155 331.372 155H286.628C283.72 155 281.784 151.996 282.985 149.348L305.357 100.03Z" fill="white" stroke="black" stroke-width="2"/>
        <path d="M310.774 126.909V140H309.189V128.571H309.112L305.916 130.693V129.082L309.189 126.909H310.774Z" fill="#AAAAAA"/>
        <path d="M378.643 100.03C377.223 96.9 372.777 96.9 371.357 100.03L348.985 149.348C347.784 151.996 349.72 155 352.628 155H397.372C400.28 155 402.216 151.996 401.015 149.348L378.643 100.03Z" fill="white" stroke="black" stroke-width="2"/>
        <path d="M371.906 138V136.849L376.227 132.119C376.734 131.565 377.152 131.084 377.48 130.675C377.808 130.261 378.051 129.874 378.208 129.511C378.37 129.145 378.451 128.761 378.451 128.361C378.451 127.901 378.341 127.502 378.119 127.165C377.902 126.829 377.603 126.569 377.224 126.386C376.845 126.202 376.419 126.111 375.946 126.111C375.443 126.111 375.004 126.215 374.629 126.424C374.258 126.629 373.971 126.916 373.766 127.287C373.566 127.658 373.466 128.092 373.466 128.591H371.957C371.957 127.824 372.134 127.151 372.488 126.571C372.841 125.991 373.323 125.54 373.932 125.216C374.546 124.892 375.234 124.73 375.997 124.73C376.764 124.73 377.444 124.892 378.036 125.216C378.628 125.54 379.093 125.977 379.429 126.526C379.766 127.076 379.934 127.688 379.934 128.361C379.934 128.842 379.847 129.313 379.672 129.773C379.502 130.229 379.203 130.739 378.777 131.301C378.355 131.859 377.77 132.541 377.02 133.347L374.079 136.491V136.594H380.164V138H371.906Z" fill="#AAAAAA"/>
        <path d="M436 99L470 65" stroke="black" stroke-width="2" stroke-linecap="round"/>
        <path d="M504 99L470 65" stroke="black" stroke-width="2" stroke-linecap="round"/>
        <rect x="454" y="49" width="32" height="32" rx="16" fill="white"/>
        <rect x="454" y="49" width="32" height="32" rx="16" stroke="black" stroke-width="2"/>
        <path d="M465.909 70.5V58.8636H469.977C470.788 58.8636 471.456 59.0038 471.983 59.2841C472.509 59.5606 472.902 59.9337 473.159 60.4034C473.417 60.8693 473.545 61.3864 473.545 61.9545C473.545 62.4545 473.456 62.8674 473.278 63.1932C473.104 63.5189 472.873 63.7765 472.585 63.9659C472.301 64.1553 471.992 64.2955 471.659 64.3864V64.5C472.015 64.5227 472.373 64.6477 472.733 64.875C473.093 65.1023 473.394 65.428 473.636 65.8523C473.879 66.2765 474 66.7955 474 67.4091C474 67.9924 473.867 68.517 473.602 68.983C473.337 69.4489 472.919 69.8182 472.347 70.0909C471.775 70.3636 471.03 70.5 470.114 70.5H465.909ZM467.318 69.25H470.114C471.034 69.25 471.688 69.072 472.074 68.7159C472.464 68.3561 472.659 67.9205 472.659 67.4091C472.659 67.0152 472.559 66.6515 472.358 66.3182C472.157 65.9811 471.871 65.7121 471.5 65.5114C471.129 65.3068 470.689 65.2045 470.182 65.2045H467.318V69.25ZM467.318 63.9773H469.932C470.356 63.9773 470.739 63.8939 471.08 63.7273C471.424 63.5606 471.697 63.3258 471.898 63.0227C472.102 62.7197 472.205 62.3636 472.205 61.9545C472.205 61.4432 472.027 61.0095 471.67 60.6534C471.314 60.2936 470.75 60.1136 469.977 60.1136H467.318V63.9773Z" fill="black"/>
        <path d="M433.357 100.03C434.777 96.9 439.223 96.9 440.643 100.03L463.015 149.348C464.216 151.996 462.28 155 459.372 155H414.628C411.72 155 409.784 151.996 410.985 149.348L433.357 100.03Z" fill="white" stroke="black" stroke-width="2"/>
        <path d="M437.048 140.179C436.204 140.179 435.452 140.034 434.792 139.744C434.135 139.455 433.613 139.052 433.225 138.536C432.842 138.016 432.633 137.413 432.599 136.727H434.21C434.244 137.149 434.389 137.513 434.645 137.82C434.9 138.123 435.235 138.357 435.648 138.523C436.061 138.69 436.52 138.773 437.022 138.773C437.585 138.773 438.083 138.675 438.518 138.479C438.953 138.283 439.294 138.01 439.541 137.661C439.788 137.311 439.912 136.906 439.912 136.446C439.912 135.964 439.792 135.54 439.554 135.174C439.315 134.803 438.966 134.513 438.505 134.305C438.045 134.096 437.483 133.991 436.818 133.991H435.77V132.585H436.818C437.338 132.585 437.794 132.491 438.186 132.304C438.582 132.116 438.891 131.852 439.113 131.511C439.338 131.17 439.451 130.77 439.451 130.31C439.451 129.866 439.353 129.481 439.157 129.153C438.961 128.825 438.684 128.569 438.326 128.386C437.973 128.202 437.555 128.111 437.074 128.111C436.622 128.111 436.196 128.194 435.795 128.36C435.399 128.522 435.075 128.759 434.824 129.07C434.572 129.376 434.436 129.747 434.414 130.182H432.88C432.906 129.496 433.113 128.895 433.5 128.379C433.888 127.859 434.395 127.455 435.022 127.165C435.652 126.875 436.345 126.73 437.099 126.73C437.909 126.73 438.603 126.894 439.183 127.222C439.762 127.546 440.208 127.974 440.519 128.507C440.83 129.04 440.985 129.615 440.985 130.233C440.985 130.97 440.792 131.599 440.404 132.119C440.02 132.638 439.498 132.999 438.838 133.199V133.301C439.664 133.437 440.31 133.789 440.775 134.356C441.239 134.918 441.471 135.615 441.471 136.446C441.471 137.158 441.277 137.797 440.89 138.364C440.506 138.926 439.982 139.369 439.317 139.693C438.652 140.017 437.896 140.179 437.048 140.179Z" fill="#AAAAAA"/>
        <path d="M506.643 100.03C505.223 96.9 500.777 96.9 499.357 100.03L476.985 149.348C475.784 151.996 477.72 155 480.628 155H525.372C528.28 155 530.216 151.996 529.015 149.348L506.643 100.03Z" fill="white" stroke="black" stroke-width="2"/>
        <path d="M499.274 135.315V134.011L505.027 124.909H505.973V126.929H505.334L500.987 133.807V133.909H508.734V135.315H499.274ZM505.436 138V134.919V134.312V124.909H506.944V138H505.436Z" fill="#AAAAAA"/>
    </g>
    <defs>
        <clipPath id="clip0_399_171">
            <rect width="536" height="224" fill="white"/>
        </clipPath>
    </defs>
</svg>