<svg width="482" height="202" viewBox="0 0 482 202" fill="none" xmlns="http://www.w3.org/2000/svg">
<path d="M17 185L49 129" stroke="black" stroke-width="2" stroke-linecap="round"/>
<path d="M113 73L49 129" stroke="black" stroke-width="2" stroke-linecap="round"/>
<path d="M369 73L305 129" stroke="black" stroke-width="2" stroke-linecap="round"/>
<path d="M369 73L241 17" stroke="black" stroke-width="2" stroke-linecap="round"/>
<path d="M113 73L241 17" stroke="black" stroke-width="2" stroke-linecap="round"/>
<path d="M113 73L177 129" stroke="black" stroke-width="2" stroke-linecap="round"/>
<path d="M369 73L433 129" stroke="black" stroke-width="2" stroke-linecap="round"/>
<path d="M81 185L49 129" stroke="black" stroke-width="2" stroke-linecap="round"/>
<path d="M209 185L177 129" stroke="black" stroke-width="2" stroke-linecap="round"/>
<path d="M337 185L305 129" stroke="black" stroke-width="2" stroke-linecap="round"/>
<path d="M465 185L433 129" stroke="black" stroke-width="2" stroke-linecap="round"/>
<path d="M145 185L177 129" stroke="black" stroke-width="2" stroke-linecap="round"/>
<path d="M273 185L305 129" stroke="black" stroke-width="2" stroke-linecap="round"/>
<path d="M401 185L433 129" stroke="black" stroke-width="2" stroke-linecap="round"/>
<rect x="1" y="169" width="32" height="32" rx="16" fill="white"/>
<rect x="1" y="169" width="32" height="32" rx="16" stroke="black" stroke-width="2"/>
<path d="M18.2955 178.864V190.5H16.8864V180.341H16.8182L13.9773 182.227V180.795L16.8864 178.864H18.2955Z" fill="black"/>
<rect x="65" y="169" width="32" height="32" rx="16" fill="white"/>
<rect x="65" y="169" width="32" height="32" rx="16" stroke="black" stroke-width="2"/>
<path d="M80.6364 190.659C79.8864 190.659 79.2178 190.53 78.6307 190.273C78.0473 190.015 77.5833 189.657 77.2386 189.199C76.8977 188.737 76.7121 188.201 76.6818 187.591H78.1136C78.1439 187.966 78.2727 188.29 78.5 188.562C78.7273 188.831 79.0246 189.04 79.392 189.188C79.7595 189.335 80.1667 189.409 80.6136 189.409C81.1136 189.409 81.5568 189.322 81.9432 189.148C82.3295 188.973 82.6326 188.731 82.8523 188.42C83.072 188.11 83.1818 187.75 83.1818 187.341C83.1818 186.913 83.0758 186.536 82.8636 186.21C82.6515 185.881 82.3409 185.623 81.9318 185.438C81.5227 185.252 81.0227 185.159 80.4318 185.159H79.5V183.909H80.4318C80.8939 183.909 81.2992 183.826 81.6477 183.659C82 183.492 82.2746 183.258 82.4716 182.955C82.6723 182.652 82.7727 182.295 82.7727 181.886C82.7727 181.492 82.6856 181.15 82.5114 180.858C82.3371 180.566 82.0909 180.339 81.7727 180.176C81.4583 180.013 81.0871 179.932 80.6591 179.932C80.2576 179.932 79.8788 180.006 79.5227 180.153C79.1705 180.297 78.8826 180.508 78.6591 180.784C78.4356 181.057 78.3144 181.386 78.2955 181.773H76.9318C76.9545 181.163 77.1383 180.629 77.483 180.17C77.8277 179.708 78.2784 179.348 78.8352 179.091C79.3958 178.833 80.0114 178.705 80.6818 178.705C81.4015 178.705 82.0189 178.85 82.5341 179.142C83.0492 179.43 83.4451 179.811 83.7216 180.284C83.9981 180.758 84.1364 181.269 84.1364 181.818C84.1364 182.473 83.964 183.032 83.6193 183.494C83.2784 183.956 82.8144 184.277 82.2273 184.455V184.545C82.9621 184.667 83.536 184.979 83.9489 185.483C84.3617 185.983 84.5682 186.602 84.5682 187.341C84.5682 187.973 84.3958 188.542 84.0511 189.045C83.7102 189.545 83.2443 189.939 82.6534 190.227C82.0625 190.515 81.3902 190.659 80.6364 190.659Z" fill="black"/>
<rect x="129" y="169" width="32" height="32" rx="16" fill="white"/>
<rect x="129" y="169" width="32" height="32" rx="16" stroke="black" stroke-width="2"/>
<path d="M144.841 190.659C144.174 190.659 143.574 190.527 143.04 190.261C142.506 189.996 142.078 189.633 141.756 189.17C141.434 188.708 141.258 188.182 141.227 187.591H142.591C142.644 188.117 142.883 188.553 143.307 188.898C143.735 189.239 144.246 189.409 144.841 189.409C145.318 189.409 145.742 189.297 146.114 189.074C146.489 188.85 146.782 188.544 146.994 188.153C147.21 187.759 147.318 187.314 147.318 186.818C147.318 186.311 147.206 185.858 146.983 185.46C146.763 185.059 146.46 184.742 146.074 184.511C145.688 184.28 145.246 184.163 144.75 184.159C144.394 184.155 144.028 184.21 143.653 184.324C143.278 184.434 142.97 184.576 142.727 184.75L141.409 184.591L142.114 178.864H148.159V180.114H143.295L142.886 183.545H142.955C143.193 183.356 143.492 183.199 143.852 183.074C144.212 182.949 144.587 182.886 144.977 182.886C145.689 182.886 146.324 183.057 146.881 183.398C147.441 183.735 147.881 184.197 148.199 184.784C148.521 185.371 148.682 186.042 148.682 186.795C148.682 187.538 148.515 188.201 148.182 188.784C147.852 189.364 147.398 189.822 146.818 190.159C146.239 190.492 145.58 190.659 144.841 190.659Z" fill="black"/>
<rect x="193" y="169" width="32" height="32" rx="16" fill="white"/>
<rect x="193" y="169" width="32" height="32" rx="16" stroke="black" stroke-width="2"/>
<path d="M205.568 190.5L210.773 180.205V180.114H204.773V178.864H212.227V180.182L207.045 190.5H205.568Z" fill="black"/>
<rect x="257" y="169" width="32" height="32" rx="16" fill="white"/>
<rect x="257" y="169" width="32" height="32" rx="16" stroke="black" stroke-width="2"/>
<path d="M272.909 178.705C273.386 178.708 273.864 178.799 274.341 178.977C274.818 179.155 275.254 179.451 275.648 179.864C276.042 180.273 276.358 180.831 276.597 181.54C276.835 182.248 276.955 183.136 276.955 184.205C276.955 185.239 276.856 186.157 276.659 186.96C276.466 187.759 276.186 188.434 275.818 188.983C275.455 189.532 275.011 189.949 274.489 190.233C273.97 190.517 273.383 190.659 272.727 190.659C272.076 190.659 271.494 190.53 270.983 190.273C270.475 190.011 270.059 189.65 269.733 189.188C269.411 188.722 269.205 188.182 269.114 187.568H270.5C270.625 188.102 270.873 188.544 271.244 188.892C271.619 189.237 272.114 189.409 272.727 189.409C273.625 189.409 274.333 189.017 274.852 188.233C275.375 187.449 275.636 186.341 275.636 184.909H275.545C275.333 185.227 275.081 185.502 274.79 185.733C274.498 185.964 274.174 186.142 273.818 186.267C273.462 186.392 273.083 186.455 272.682 186.455C272.015 186.455 271.403 186.29 270.847 185.96C270.294 185.627 269.85 185.17 269.517 184.591C269.188 184.008 269.023 183.341 269.023 182.591C269.023 181.879 269.182 181.227 269.5 180.636C269.822 180.042 270.273 179.568 270.852 179.216C271.436 178.864 272.121 178.693 272.909 178.705ZM272.909 179.955C272.432 179.955 272.002 180.074 271.619 180.312C271.241 180.547 270.939 180.866 270.716 181.267C270.496 181.665 270.386 182.106 270.386 182.591C270.386 183.076 270.492 183.517 270.705 183.915C270.92 184.309 271.214 184.623 271.585 184.858C271.96 185.089 272.386 185.205 272.864 185.205C273.223 185.205 273.559 185.134 273.869 184.994C274.18 184.85 274.451 184.655 274.682 184.409C274.917 184.159 275.1 183.877 275.233 183.562C275.366 183.244 275.432 182.913 275.432 182.568C275.432 182.114 275.322 181.687 275.102 181.29C274.886 180.892 274.587 180.57 274.205 180.324C273.826 180.078 273.394 179.955 272.909 179.955Z" fill="black"/>
<rect x="321" y="169" width="32" height="32" rx="16" fill="white"/>
<rect x="321" y="169" width="32" height="32" rx="16" stroke="black" stroke-width="2"/>
<path d="M334.795 178.864V190.5H333.386V180.341H333.318L330.477 182.227V180.795L333.386 178.864H334.795ZM342.233 178.864V190.5H340.824V180.341H340.756L337.915 182.227V180.795L340.824 178.864H342.233Z" fill="black"/>
<rect x="385" y="169" width="32" height="32" rx="16" fill="white"/>
<rect x="385" y="169" width="32" height="32" rx="16" stroke="black" stroke-width="2"/>
<path d="M397.295 178.864V190.5H395.886V180.341H395.818L392.977 182.227V180.795L395.886 178.864H397.295ZM404.574 190.659C403.824 190.659 403.155 190.53 402.568 190.273C401.985 190.015 401.521 189.657 401.176 189.199C400.835 188.737 400.65 188.201 400.619 187.591H402.051C402.081 187.966 402.21 188.29 402.438 188.562C402.665 188.831 402.962 189.04 403.33 189.188C403.697 189.335 404.104 189.409 404.551 189.409C405.051 189.409 405.494 189.322 405.881 189.148C406.267 188.973 406.57 188.731 406.79 188.42C407.009 188.11 407.119 187.75 407.119 187.341C407.119 186.913 407.013 186.536 406.801 186.21C406.589 185.881 406.278 185.623 405.869 185.438C405.46 185.252 404.96 185.159 404.369 185.159H403.438V183.909H404.369C404.831 183.909 405.237 183.826 405.585 183.659C405.938 183.492 406.212 183.258 406.409 182.955C406.61 182.652 406.71 182.295 406.71 181.886C406.71 181.492 406.623 181.15 406.449 180.858C406.275 180.566 406.028 180.339 405.71 180.176C405.396 180.013 405.025 179.932 404.597 179.932C404.195 179.932 403.816 180.006 403.46 180.153C403.108 180.297 402.82 180.508 402.597 180.784C402.373 181.057 402.252 181.386 402.233 181.773H400.869C400.892 181.163 401.076 180.629 401.42 180.17C401.765 179.708 402.216 179.348 402.773 179.091C403.333 178.833 403.949 178.705 404.619 178.705C405.339 178.705 405.956 178.85 406.472 179.142C406.987 179.43 407.383 179.811 407.659 180.284C407.936 180.758 408.074 181.269 408.074 181.818C408.074 182.473 407.902 183.032 407.557 183.494C407.216 183.956 406.752 184.277 406.165 184.455V184.545C406.9 184.667 407.473 184.979 407.886 185.483C408.299 185.983 408.506 186.602 408.506 187.341C408.506 187.973 408.333 188.542 407.989 189.045C407.648 189.545 407.182 189.939 406.591 190.227C406 190.515 405.328 190.659 404.574 190.659Z" fill="black"/>
<rect x="449" y="169" width="32" height="32" rx="16" fill="white"/>
<rect x="449" y="169" width="32" height="32" rx="16" stroke="black" stroke-width="2"/>
<path d="M461.295 178.864V190.5H459.886V180.341H459.818L456.977 182.227V180.795L459.886 178.864H461.295ZM468.278 190.659C467.612 190.659 467.011 190.527 466.477 190.261C465.943 189.996 465.515 189.633 465.193 189.17C464.871 188.708 464.695 188.182 464.665 187.591H466.028C466.081 188.117 466.32 188.553 466.744 188.898C467.172 189.239 467.684 189.409 468.278 189.409C468.756 189.409 469.18 189.297 469.551 189.074C469.926 188.85 470.22 188.544 470.432 188.153C470.648 187.759 470.756 187.314 470.756 186.818C470.756 186.311 470.644 185.858 470.42 185.46C470.201 185.059 469.898 184.742 469.511 184.511C469.125 184.28 468.684 184.163 468.188 184.159C467.831 184.155 467.466 184.21 467.091 184.324C466.716 184.434 466.407 184.576 466.165 184.75L464.847 184.591L465.551 178.864H471.597V180.114H466.733L466.324 183.545H466.392C466.631 183.356 466.93 183.199 467.29 183.074C467.65 182.949 468.025 182.886 468.415 182.886C469.127 182.886 469.761 183.057 470.318 183.398C470.879 183.735 471.318 184.197 471.636 184.784C471.958 185.371 472.119 186.042 472.119 186.795C472.119 187.538 471.953 188.201 471.619 188.784C471.29 189.364 470.835 189.822 470.256 190.159C469.676 190.492 469.017 190.659 468.278 190.659Z" fill="black"/>
<rect x="33" y="113" width="32" height="32" rx="16" fill="white"/>
<rect x="33" y="113" width="32" height="32" rx="16" stroke="black" stroke-width="2"/>
<path d="M45.2045 134.5V133.477L49.0455 129.273C49.4962 128.78 49.8674 128.352 50.1591 127.989C50.4508 127.621 50.6667 127.277 50.8068 126.955C50.9508 126.629 51.0227 126.288 51.0227 125.932C51.0227 125.523 50.9242 125.169 50.7273 124.869C50.5341 124.57 50.2689 124.339 49.9318 124.176C49.5947 124.013 49.2159 123.932 48.7955 123.932C48.3485 123.932 47.9583 124.025 47.625 124.21C47.2955 124.392 47.0398 124.648 46.858 124.977C46.6799 125.307 46.5909 125.693 46.5909 126.136H45.25C45.25 125.455 45.4072 124.856 45.7216 124.341C46.036 123.826 46.464 123.424 47.0057 123.136C47.5511 122.848 48.1629 122.705 48.8409 122.705C49.5227 122.705 50.1269 122.848 50.6534 123.136C51.1799 123.424 51.5928 123.812 51.892 124.301C52.1913 124.79 52.3409 125.333 52.3409 125.932C52.3409 126.36 52.2633 126.778 52.108 127.188C51.9564 127.593 51.6913 128.045 51.3125 128.545C50.9375 129.042 50.4167 129.648 49.75 130.364L47.1364 133.159V133.25H52.5455V134.5H45.2045Z" fill="black"/>
<rect x="161" y="113" width="32" height="32" rx="16" fill="white"/>
<rect x="161" y="113" width="32" height="32" rx="16" stroke="black" stroke-width="2"/>
<path d="M177.068 134.659C176.591 134.652 176.114 134.561 175.636 134.386C175.159 134.212 174.723 133.919 174.33 133.506C173.936 133.089 173.619 132.527 173.381 131.818C173.142 131.106 173.023 130.212 173.023 129.136C173.023 128.106 173.119 127.193 173.312 126.398C173.506 125.598 173.786 124.926 174.153 124.381C174.521 123.831 174.964 123.415 175.483 123.131C176.006 122.847 176.595 122.705 177.25 122.705C177.902 122.705 178.481 122.835 178.989 123.097C179.5 123.354 179.917 123.714 180.239 124.176C180.561 124.638 180.769 125.17 180.864 125.773H179.477C179.348 125.25 179.098 124.816 178.727 124.472C178.356 124.127 177.864 123.955 177.25 123.955C176.348 123.955 175.638 124.347 175.119 125.131C174.604 125.915 174.345 127.015 174.341 128.432H174.432C174.644 128.11 174.896 127.835 175.188 127.608C175.483 127.377 175.809 127.199 176.165 127.074C176.521 126.949 176.898 126.886 177.295 126.886C177.962 126.886 178.572 127.053 179.125 127.386C179.678 127.716 180.121 128.172 180.455 128.756C180.788 129.335 180.955 130 180.955 130.75C180.955 131.47 180.794 132.129 180.472 132.727C180.15 133.322 179.697 133.795 179.114 134.148C178.534 134.496 177.852 134.667 177.068 134.659ZM177.068 133.409C177.545 133.409 177.973 133.29 178.352 133.051C178.735 132.812 179.036 132.492 179.256 132.091C179.479 131.689 179.591 131.242 179.591 130.75C179.591 130.269 179.483 129.831 179.267 129.438C179.055 129.04 178.761 128.723 178.386 128.489C178.015 128.254 177.591 128.136 177.114 128.136C176.754 128.136 176.419 128.208 176.108 128.352C175.797 128.492 175.525 128.686 175.29 128.932C175.059 129.178 174.877 129.46 174.744 129.778C174.612 130.093 174.545 130.424 174.545 130.773C174.545 131.235 174.653 131.667 174.869 132.068C175.089 132.47 175.388 132.794 175.767 133.04C176.15 133.286 176.583 133.409 177.068 133.409Z" fill="black"/>
<rect x="289" y="113" width="32" height="32" rx="16" fill="white"/>
<rect x="289" y="113" width="32" height="32" rx="16" stroke="black" stroke-width="2"/>
<path d="M301.295 122.864V134.5H299.886V124.341H299.818L296.977 126.227V124.795L299.886 122.864H301.295ZM308.438 134.659C307.581 134.659 306.852 134.426 306.25 133.96C305.648 133.491 305.188 132.811 304.869 131.92C304.551 131.027 304.392 129.947 304.392 128.682C304.392 127.424 304.551 126.35 304.869 125.46C305.191 124.566 305.653 123.884 306.256 123.415C306.862 122.941 307.589 122.705 308.438 122.705C309.286 122.705 310.011 122.941 310.614 123.415C311.22 123.884 311.682 124.566 312 125.46C312.322 126.35 312.483 127.424 312.483 128.682C312.483 129.947 312.324 131.027 312.006 131.92C311.688 132.811 311.227 133.491 310.625 133.96C310.023 134.426 309.294 134.659 308.438 134.659ZM308.438 133.409C309.286 133.409 309.945 133 310.415 132.182C310.884 131.364 311.119 130.197 311.119 128.682C311.119 127.674 311.011 126.816 310.795 126.108C310.583 125.4 310.277 124.86 309.875 124.489C309.477 124.117 308.998 123.932 308.438 123.932C307.597 123.932 306.939 124.347 306.466 125.176C305.992 126.002 305.756 127.17 305.756 128.682C305.756 129.689 305.862 130.545 306.074 131.25C306.286 131.955 306.591 132.491 306.989 132.858C307.39 133.225 307.873 133.409 308.438 133.409Z" fill="black"/>
<rect x="417" y="113" width="32" height="32" rx="16" fill="white"/>
<rect x="417" y="113" width="32" height="32" rx="16" stroke="black" stroke-width="2"/>
<path d="M429.295 122.864V134.5H427.886V124.341H427.818L424.977 126.227V124.795L427.886 122.864H429.295ZM432.369 132.114V130.955L437.483 122.864H438.324V124.659H437.756L433.892 130.773V130.864H440.778V132.114H432.369ZM437.847 134.5V131.761V131.222V122.864H439.188V134.5H437.847Z" fill="black"/>
<rect x="97" y="57" width="32" height="32" rx="16" fill="white"/>
<rect x="97" y="57" width="32" height="32" rx="16" stroke="black" stroke-width="2"/>
<path d="M108.432 76.1136V74.9545L113.545 66.8636H114.386V68.6591H113.818L109.955 74.7727V74.8636H116.841V76.1136H108.432ZM113.909 78.5V75.7614V75.2216V66.8636H115.25V78.5H113.909Z" fill="black"/>
<rect x="225" y="1" width="32" height="32" rx="16" fill="white"/>
<rect x="225" y="1" width="32" height="32" rx="16" stroke="black" stroke-width="2"/>
<path d="M240.932 22.6591C240.152 22.6591 239.462 22.5208 238.864 22.2443C238.269 21.964 237.805 21.5795 237.472 21.0909C237.138 20.5985 236.973 20.0379 236.977 19.4091C236.973 18.9167 237.07 18.4621 237.267 18.0455C237.464 17.625 237.733 17.2746 238.074 16.9943C238.419 16.7102 238.803 16.5303 239.227 16.4545V16.3864C238.67 16.2424 238.227 15.9299 237.898 15.4489C237.568 14.964 237.405 14.4129 237.409 13.7955C237.405 13.2045 237.555 12.6761 237.858 12.2102C238.161 11.7443 238.578 11.3769 239.108 11.108C239.642 10.839 240.25 10.7045 240.932 10.7045C241.606 10.7045 242.208 10.839 242.739 11.108C243.269 11.3769 243.686 11.7443 243.989 12.2102C244.295 12.6761 244.451 13.2045 244.455 13.7955C244.451 14.4129 244.282 14.964 243.949 15.4489C243.619 15.9299 243.182 16.2424 242.636 16.3864V16.4545C243.057 16.5303 243.436 16.7102 243.773 16.9943C244.11 17.2746 244.379 17.625 244.58 18.0455C244.78 18.4621 244.883 18.9167 244.886 19.4091C244.883 20.0379 244.712 20.5985 244.375 21.0909C244.042 21.5795 243.578 21.964 242.983 22.2443C242.392 22.5208 241.708 22.6591 240.932 22.6591ZM240.932 21.4091C241.458 21.4091 241.913 21.3239 242.295 21.1534C242.678 20.983 242.973 20.7424 243.182 20.4318C243.39 20.1212 243.496 19.7576 243.5 19.3409C243.496 18.9015 243.383 18.5133 243.159 18.1761C242.936 17.839 242.631 17.5739 242.244 17.3807C241.862 17.1875 241.424 17.0909 240.932 17.0909C240.436 17.0909 239.992 17.1875 239.602 17.3807C239.216 17.5739 238.911 17.839 238.688 18.1761C238.468 18.5133 238.36 18.9015 238.364 19.3409C238.36 19.7576 238.46 20.1212 238.665 20.4318C238.873 20.7424 239.17 20.983 239.557 21.1534C239.943 21.3239 240.402 21.4091 240.932 21.4091ZM240.932 15.8864C241.348 15.8864 241.718 15.803 242.04 15.6364C242.366 15.4697 242.621 15.2367 242.807 14.9375C242.992 14.6383 243.087 14.2879 243.091 13.8864C243.087 13.4924 242.994 13.1496 242.812 12.858C242.631 12.5625 242.379 12.3352 242.057 12.1761C241.735 12.0133 241.36 11.9318 240.932 11.9318C240.496 11.9318 240.116 12.0133 239.79 12.1761C239.464 12.3352 239.212 12.5625 239.034 12.858C238.856 13.1496 238.769 13.4924 238.773 13.8864C238.769 14.2879 238.858 14.6383 239.04 14.9375C239.225 15.2367 239.481 15.4697 239.807 15.6364C240.133 15.803 240.508 15.8864 240.932 15.8864Z" fill="black"/>
<rect x="353" y="57" width="32" height="32" rx="16" fill="white"/>
<rect x="353" y="57" width="32" height="32" rx="16" stroke="black" stroke-width="2"/>
<path d="M365.295 66.8636V78.5H363.886V68.3409H363.818L360.977 70.2273V68.7955L363.886 66.8636H365.295ZM368.642 78.5V77.4773L372.483 73.2727C372.934 72.7803 373.305 72.3523 373.597 71.9886C373.888 71.6212 374.104 71.2765 374.244 70.9545C374.388 70.6288 374.46 70.2879 374.46 69.9318C374.46 69.5227 374.362 69.1686 374.165 68.8693C373.972 68.5701 373.706 68.339 373.369 68.1761C373.032 68.0133 372.653 67.9318 372.233 67.9318C371.786 67.9318 371.396 68.0246 371.062 68.2102C370.733 68.392 370.477 68.6477 370.295 68.9773C370.117 69.3068 370.028 69.6932 370.028 70.1364H368.688C368.688 69.4545 368.845 68.8561 369.159 68.3409C369.473 67.8258 369.902 67.4242 370.443 67.1364C370.989 66.8485 371.6 66.7045 372.278 66.7045C372.96 66.7045 373.564 66.8485 374.091 67.1364C374.617 67.4242 375.03 67.8125 375.33 68.3011C375.629 68.7898 375.778 69.3333 375.778 69.9318C375.778 70.3598 375.701 70.7784 375.545 71.1875C375.394 71.5928 375.129 72.0455 374.75 72.5455C374.375 73.0417 373.854 73.6477 373.188 74.3636L370.574 77.1591V77.25H375.983V78.5H368.642Z" fill="black"/>
</svg>
