<?xml version="1.0" standalone="no"?>
<!DOCTYPE svg PUBLIC "-//W3C//DTD SVG 20010904//EN"
 "http://www.w3.org/TR/2001/REC-SVG-20010904/DTD/svg10.dtd">
<svg version="1.0" xmlns="http://www.w3.org/2000/svg"
 width="1280.000000pt" height="981.000000pt" viewBox="0 0 1280.000000 981.000000"
 preserveAspectRatio="xMidYMid meet">

<g transform="translate(0.000000,981.000000) scale(0.100000,-0.100000)"
fill="#000000" stroke="none">
<path d="M6190 7398 c-1 -1327 -1 -2612 0 -2855 1 -441 1 -443 -20 -443 -11 0
-29 6 -40 12 -16 10 -24 10 -40 0 -24 -14 -70 -16 -70 -2 0 13 -37 13 -45 0
-8 -13 -65 -13 -65 0 0 13 -37 13 -45 0 -9 -14 -59 -12 -73 2 -10 10 -17 10
-32 0 -25 -15 -63 -15 -78 0 -10 10 -17 10 -32 0 -25 -15 -55 -15 -80 0 -16
10 -24 10 -40 0 -24 -14 -70 -16 -70 -2 0 13 -37 13 -45 0 -8 -13 -65 -13 -65
0 0 13 -37 13 -45 0 -4 -7 -900 -10 -2656 -10 -1759 0 -2649 -3 -2649 -10 0
-7 890 -10 2649 -10 1756 0 2652 -3 2656 -10 3 -5 15 -10 26 -10 10 0 19 5 19
10 0 6 13 10 29 10 17 0 33 -4 36 -10 3 -5 15 -10 26 -10 10 0 19 5 19 10 0
14 44 13 76 -2 22 -10 28 -10 32 0 5 16 64 16 80 0 10 -10 17 -10 32 0 25 15
63 15 78 0 10 -10 17 -10 32 0 24 15 66 16 75 2 3 -5 15 -10 26 -10 10 0 19 5
19 10 0 13 57 13 65 0 8 -13 45 -13 45 0 0 13 46 13 72 -1 15 -8 27 -8 44 2
13 7 26 10 29 7 10 -9 -58 -68 -79 -68 -28 0 -46 -18 -46 -47 0 -18 -477 -501
-1966 -1991 -1081 -1081 -1960 -1968 -1954 -1970 7 -3 131 114 276 259 146
145 267 266 270 269 3 3 42 7 87 10 52 3 82 9 85 18 3 9 -13 12 -57 12 -34 0
-61 3 -61 8 0 4 190 197 423 430 l422 422 78 0 c45 0 77 4 77 10 0 9 -58 15
-102 11 -10 -1 -18 1 -18 6 0 5 190 198 423 430 l422 422 80 3 c94 4 103 21
15 28 l-60 5 422 422 423 422 78 3 c91 3 108 22 25 26 -32 2 -58 6 -58 10 0 4
150 157 334 341 311 311 335 333 351 318 38 -38 78 -6 74 60 -3 38 1 48 29 76
l32 32 0 -418 0 -417 -65 0 c-36 0 -65 -4 -65 -9 0 -14 27 -21 81 -21 l49 0 0
-1595 c0 -1057 3 -1595 10 -1595 6 0 10 99 10 278 0 152 1 1069 3 2037 l2
1760 435 2 c239 1 1721 2 3293 3 1898 0 2857 3 2857 10 0 7 -1098 10 -3275 10
-1801 0 -3275 3 -3275 8 0 4 190 197 423 430 l422 422 77 0 c42 0 79 4 82 9 9
13 -20 21 -77 21 l-52 0 425 425 425 425 75 0 c77 0 117 11 85 24 -9 3 -39 6
-66 6 -27 0 -49 3 -49 8 0 4 190 197 423 430 l422 422 78 0 c45 0 77 4 77 10
0 6 -27 10 -61 10 -35 0 -59 4 -57 10 2 5 192 199 423 430 l419 420 78 0 c42
0 79 4 82 9 9 13 -20 21 -77 21 l-52 0 427 428 428 427 77 0 c52 0 78 4 80 13
4 9 -13 12 -64 12 l-68 0 430 430 430 430 77 0 c45 0 78 4 78 10 0 6 -24 10
-53 10 -30 0 -57 3 -61 7 -4 4 82 96 191 205 126 126 191 198 180 198 -11 0
-451 -432 -1094 -1075 -591 -591 -1078 -1075 -1084 -1075 -5 0 -9 -4 -9 -9 0
-10 -3515 -3531 -3524 -3531 -4 0 -6 184 -6 409 0 351 2 410 15 421 19 16 19
39 0 46 -13 5 -15 261 -15 2198 0 1205 0 2287 0 2404 0 134 -4 212 -10 212 -7
0 -10 -811 -10 -2412z m-102 -3410 c-2 -6 -10 -14 -16 -16 -7 -2 -10 2 -6 12
7 18 28 22 22 4z m18 -84 c-7 -19 -35 -18 -43 2 -3 9 4 26 18 40 l24 26 3 -27
c2 -15 1 -33 -2 -41z"/>
<path d="M6057 9462 c-20 -22 -23 -92 -5 -110 28 -28 78 -7 78 34 0 28 -24 48
-50 41 -13 -3 -20 0 -20 9 0 21 27 29 45 14 20 -17 32 -5 15 15 -17 20 -43 19
-63 -3z m51 -76 c2 -10 -1 -23 -7 -29 -15 -15 -46 16 -37 38 8 21 40 15 44 -9z"/>
<path d="M9714 9426 c-28 -24 -28 -26 -14 -53 19 -35 52 -41 79 -14 24 24 17
56 -16 78 -18 12 -24 11 -49 -11z"/>
<path d="M10601 9402 c-18 -34 24 -57 49 -27 10 12 10 18 0 30 -17 20 -37 19
-49 -3z"/>
<path d="M10714 9405 c-8 -21 2 -45 19 -45 8 0 20 7 27 15 10 12 10 18 0 30
-7 8 -19 15 -27 15 -7 0 -16 -7 -19 -15z"/>
<path d="M10827 9413 c-14 -14 -6 -42 13 -48 30 -9 52 12 39 36 -10 19 -39 26
-52 12z"/>
<path d="M10940 9405 c-10 -12 -10 -18 0 -30 15 -18 27 -19 45 -2 9 9 10 19 3
30 -11 21 -32 22 -48 2z"/>
<path d="M11050 9405 c-10 -12 -10 -18 0 -30 25 -30 67 -7 49 27 -12 22 -32
23 -49 3z"/>
<path d="M11161 9402 c-11 -20 2 -42 25 -42 18 0 35 26 28 44 -8 22 -41 20
-53 -2z"/>
<path d="M11274 9405 c-16 -41 27 -60 50 -22 8 14 8 20 -4 27 -22 14 -40 12
-46 -5z"/>
<path d="M11384 9405 c-7 -17 12 -45 30 -45 23 0 36 22 25 42 -12 22 -47 24
-55 3z"/>
<path d="M12263 9402 c-13 -2 -23 -8 -23 -13 0 -5 39 -9 87 -9 63 0 84 3 76
11 -11 11 -96 17 -140 11z"/>
<path d="M11745 9390 c-4 -6 28 -10 90 -10 62 0 94 4 90 10 -3 6 -44 10 -90
10 -46 0 -87 -4 -90 -10z"/>
<path d="M11995 9390 c-4 -6 28 -10 90 -10 62 0 94 4 90 10 -3 6 -44 10 -90
10 -46 0 -87 -4 -90 -10z"/>
<path d="M9225 9270 c3 -5 8 -10 11 -10 2 0 4 5 4 10 0 6 -5 10 -11 10 -5 0
-7 -4 -4 -10z"/>
<path d="M9284 9195 c0 -49 1 -71 3 -48 2 23 2 64 0 90 -2 26 -3 8 -3 -42z"/>
<path d="M9415 9247 c-8 -20 -15 -52 -15 -72 0 -37 26 -112 36 -102 3 3 0 15
-6 27 -6 12 -11 45 -11 75 0 30 5 63 11 75 6 12 9 24 6 27 -3 4 -13 -10 -21
-30z"/>
<path d="M9610 9278 c0 -2 7 -25 15 -53 16 -52 13 -90 -11 -137 -20 -39 -8
-35 16 5 24 38 26 103 6 152 -8 19 -17 35 -20 35 -4 0 -6 -1 -6 -2z"/>
<path d="M8982 9224 c-26 -18 -29 -59 -6 -92 18 -25 56 -29 74 -7 18 22 5 31
-15 11 -9 -9 -20 -16 -24 -16 -18 0 -32 30 -29 62 2 26 8 34 27 36 13 2 27 -2
32 -9 4 -8 12 -10 16 -5 8 8 -23 36 -42 36 -6 0 -21 -7 -33 -16z"/>
<path d="M9100 9220 c-39 -39 -15 -110 37 -110 11 0 28 9 38 20 21 24 9 27
-16 4 -14 -12 -22 -13 -38 -4 -38 20 -26 40 24 40 51 0 59 16 25 50 -11 11
-27 20 -35 20 -8 0 -24 -9 -35 -20z m68 -22 c3 -15 -4 -18 -32 -18 -34 0 -47
15 -29 34 13 13 58 1 61 -16z"/>
<path d="M8560 9225 c0 -2 9 -29 21 -60 22 -59 20 -85 -6 -85 -8 0 -15 -4 -15
-10 0 -14 26 -12 37 3 6 6 20 37 31 67 11 30 23 63 27 73 4 9 3 17 -2 17 -6 0
-16 -18 -23 -41 -8 -22 -17 -42 -21 -44 -3 -3 -12 16 -19 40 -7 25 -17 45 -21
45 -5 0 -9 -2 -9 -5z"/>
<path d="M8760 9224 c36 -8 100 -9 100 -2 0 5 -26 7 -57 7 -32 -1 -51 -3 -43
-5z"/>
<path d="M9220 9170 c0 -33 4 -60 10 -60 6 0 10 27 10 60 0 33 -4 60 -10 60
-6 0 -10 -27 -10 -60z"/>
<path d="M9480 9225 c0 -3 7 -16 15 -29 14 -21 14 -25 -6 -50 -12 -15 -18 -30
-14 -34 3 -4 11 0 15 8 26 43 30 46 40 30 25 -39 29 -44 36 -38 3 4 -3 20 -15
36 l-21 30 21 26 c23 30 15 35 -14 9 -18 -17 -19 -17 -32 0 -12 16 -25 23 -25
12z"/>
<path d="M8755 9170 c3 -5 28 -10 56 -10 27 0 49 5 49 10 0 6 -25 10 -56 10
-34 0 -53 -4 -49 -10z"/>
<path d="M9722 8528 c-17 -17 -15 -36 6 -47 13 -7 23 -6 30 1 17 17 15 45 -4
52 -20 8 -18 8 -32 -6z"/>
<path d="M9831 8526 c-16 -20 -3 -46 24 -46 13 0 26 7 29 16 7 19 -10 44 -29
44 -7 0 -18 -6 -24 -14z"/>
<path d="M9952 8531 c-21 -13 -10 -46 16 -49 27 -4 40 22 22 43 -14 17 -20 18
-38 6z"/>
<path d="M10062 8531 c-21 -13 -10 -46 16 -49 27 -4 40 22 22 43 -14 17 -20
18 -38 6z"/>
<path d="M10170 8525 c-18 -21 -5 -47 22 -43 26 3 37 36 16 49 -18 12 -24 11
-38 -6z"/>
<path d="M10281 8527 c-17 -21 -3 -49 23 -45 15 2 21 10 21 28 0 28 -26 38
-44 17z"/>
<path d="M10391 8522 c-12 -22 3 -42 30 -42 22 0 33 28 18 46 -16 19 -36 17
-48 -4z"/>
<path d="M10512 8531 c-20 -12 -10 -46 14 -49 25 -4 40 24 23 44 -13 16 -19
17 -37 5z"/>
<path d="M10866 8511 c-9 -14 20 -21 84 -21 62 0 90 7 90 21 0 12 -167 12
-174 0z"/>
<path d="M11113 8508 c2 -9 29 -13 87 -13 58 0 85 4 88 13 3 9 -19 12 -88 12
-69 0 -91 -3 -87 -12z"/>
<path d="M11360 8510 c0 -22 150 -25 158 -2 3 9 -17 12 -77 12 -46 0 -81 -4
-81 -10z"/>
<path d="M6062 7663 c-32 -48 -29 -65 9 -56 14 4 19 0 19 -16 0 -28 12 -26 27
4 6 14 7 25 2 25 -5 0 -9 20 -9 45 0 25 -4 45 -9 45 -5 0 -22 -21 -39 -47z
m28 -18 c0 -16 -6 -25 -15 -25 -18 0 -19 4 -3 30 16 26 18 25 18 -5z"/>
<path d="M8833 7634 c-3 -8 2 -23 11 -32 15 -15 17 -15 32 0 21 21 11 48 -16
48 -11 0 -23 -7 -27 -16z"/>
<path d="M8943 7634 c-3 -8 2 -23 11 -32 15 -15 17 -15 32 0 21 21 11 48 -16
48 -11 0 -23 -7 -27 -16z"/>
<path d="M9054 7635 c-6 -15 12 -45 27 -45 16 0 38 31 33 45 -8 20 -53 19 -60
0z"/>
<path d="M9166 7635 c-5 -14 18 -45 34 -45 13 0 28 32 23 48 -6 17 -50 15 -57
-3z"/>
<path d="M9281 7636 c-9 -11 -8 -18 4 -30 9 -9 20 -16 24 -16 15 0 33 30 27
45 -7 19 -40 20 -55 1z"/>
<path d="M9391 7636 c-10 -11 -7 -17 11 -30 19 -14 24 -14 37 -2 7 8 11 22 8
30 -8 20 -41 21 -56 2z"/>
<path d="M9504 7635 c-4 -9 0 -23 8 -31 20 -20 50 -7 46 20 -4 26 -45 35 -54
11z"/>
<path d="M9616 7634 c-8 -22 -8 -22 13 -34 23 -12 54 12 45 35 -8 20 -50 19
-58 -1z"/>
<path d="M9987 7633 c-18 -18 0 -23 77 -23 80 0 115 11 80 24 -21 8 -149 8
-157 -1z"/>
<path d="M10225 7630 c-3 -5 0 -13 8 -16 24 -9 172 0 170 11 -4 14 -170 19
-178 5z"/>
<path d="M10477 7634 c-16 -17 10 -24 84 -24 60 0 80 3 77 13 -5 13 -148 23
-161 11z"/>
<path d="M7957 6762 c-14 -16 -15 -21 -4 -36 11 -15 17 -17 35 -7 27 14 27 23
4 45 -18 15 -20 15 -35 -2z"/>
<path d="M8067 6763 c-13 -12 -7 -41 10 -47 9 -4 23 -1 30 7 8 7 11 21 7 30
-6 17 -35 23 -47 10z"/>
<path d="M8174 6756 c-10 -26 4 -48 28 -44 17 2 23 10 23 28 0 18 -6 26 -23
28 -13 2 -25 -3 -28 -12z"/>
<path d="M8285 6749 c-5 -14 -2 -25 6 -30 24 -15 44 -5 44 21 0 34 -40 41 -50
9z"/>
<path d="M8401 6752 c-18 -34 24 -57 49 -27 10 12 10 18 0 30 -17 20 -37 19
-49 -3z"/>
<path d="M8514 6755 c-8 -21 2 -45 19 -45 8 0 20 7 27 15 10 12 10 18 0 30 -7
8 -19 15 -27 15 -7 0 -16 -7 -19 -15z"/>
<path d="M8627 6764 c-12 -13 -8 -42 8 -48 25 -9 46 5 43 28 -3 21 -37 34 -51
20z"/>
<path d="M8735 6760 c-12 -20 6 -51 28 -48 31 4 31 52 0 56 -11 2 -24 -2 -28
-8z"/>
<path d="M9673 6753 c-40 -2 -73 -8 -73 -13 0 -4 34 -10 75 -12 66 -3 75 -1
75 15 0 9 -1 16 -2 15 -2 -1 -36 -4 -75 -5z"/>
<path d="M9100 6740 c0 -6 35 -10 85 -10 50 0 85 4 85 10 0 6 -35 10 -85 10
-50 0 -85 -4 -85 -10z"/>
<path d="M9350 6740 c0 -6 35 -10 85 -10 50 0 85 4 85 10 0 6 -35 10 -85 10
-50 0 -85 -4 -85 -10z"/>
<path d="M6068 5943 c-17 -4 -32 -32 -23 -41 3 -3 11 3 19 13 14 20 46 15 46
-8 0 -7 -16 -28 -35 -47 -19 -19 -35 -38 -35 -42 0 -4 21 -7 48 -6 36 1 39 2
15 5 -18 2 -33 7 -33 10 0 3 14 18 30 33 34 32 39 65 11 80 -11 5 -21 9 -23 9
-2 -1 -10 -3 -20 -6z"/>
<path d="M7070 5875 c-16 -19 -6 -45 18 -45 28 0 43 20 31 42 -12 22 -32 23
-49 3z"/>
<path d="M7182 5873 c-13 -26 -4 -43 23 -43 13 0 25 6 28 13 6 17 -11 47 -28
47 -8 0 -18 -8 -23 -17z"/>
<path d="M7295 5874 c-18 -19 -4 -44 25 -44 23 0 34 28 19 46 -15 18 -24 18
-44 -2z"/>
<path d="M7405 5874 c-19 -19 -4 -44 27 -44 24 0 34 26 18 45 -16 19 -25 19
-45 -1z"/>
<path d="M7520 5875 c-16 -19 -6 -45 18 -45 31 0 46 25 27 44 -20 20 -29 20
-45 1z"/>
<path d="M7631 5872 c-12 -22 3 -42 30 -42 21 0 29 19 17 43 -11 22 -35 22
-47 -1z"/>
<path d="M7742 5873 c-13 -26 -4 -43 23 -43 30 0 42 30 19 47 -24 17 -32 16
-42 -4z"/>
<path d="M7851 5872 c-12 -22 3 -42 31 -42 24 0 34 26 18 45 -17 20 -37 19
-49 -3z"/>
<path d="M8217 5864 c-16 -16 10 -24 78 -24 82 0 115 7 93 21 -15 10 -162 12
-171 3z"/>
<path d="M8461 5861 c-12 -8 -10 -11 10 -16 41 -10 162 -1 167 13 5 15 -154
17 -177 3z"/>
<path d="M8717 5864 c-15 -16 9 -24 68 -24 73 0 104 8 83 21 -15 10 -142 12
-151 3z"/>
<path d="M9723 5019 c-34 -13 -41 -58 -13 -81 27 -22 44 -23 65 -2 36 37 -5
102 -52 83z"/>
<path d="M6641 4997 c-16 -16 -13 -44 6 -51 21 -8 46 15 38 36 -9 22 -30 29
-44 15z"/>
<path d="M6294 4985 c-4 -9 0 -23 8 -31 20 -20 50 -7 46 20 -4 26 -45 35 -54
11z"/>
<path d="M6406 4983 c-8 -20 19 -44 40 -36 8 3 14 16 14 29 0 19 -5 24 -24 24
-13 0 -27 -8 -30 -17z"/>
<path d="M6517 4980 c-7 -28 29 -48 50 -28 19 20 6 48 -22 48 -14 0 -25 -7
-28 -20z"/>
<path d="M6747 4994 c-12 -13 -8 -42 8 -48 25 -9 46 5 43 28 -3 21 -37 34 -51
20z"/>
<path d="M6853 4984 c-7 -20 22 -45 44 -37 8 3 13 15 11 27 -4 27 -45 35 -55
10z"/>
<path d="M6966 4983 c-7 -16 16 -43 35 -43 14 0 29 28 23 44 -8 21 -50 21 -58
-1z"/>
<path d="M7337 4983 c-18 -18 0 -23 78 -23 69 0 85 3 85 15 0 12 -15 15 -78
15 -43 0 -82 -3 -85 -7z"/>
<path d="M7587 4983 c-18 -18 0 -23 78 -23 69 0 85 3 85 15 0 12 -15 15 -78
15 -43 0 -82 -3 -85 -7z"/>
<path d="M7837 4984 c-19 -19 -1 -25 71 -22 43 2 77 7 77 13 0 11 -137 20
-148 9z"/>
<path d="M8943 4863 c-7 -2 -13 -13 -13 -23 0 -10 -6 -21 -12 -24 -10 -5 -10
-7 0 -12 7 -3 12 -26 12 -60 0 -34 4 -53 10 -49 6 3 10 28 10 55 0 29 5 51 13
54 10 5 10 7 0 12 -18 8 -16 34 2 34 8 0 15 5 15 10 0 10 -16 12 -37 3z"/>
<path d="M9420 4838 c-12 -19 -20 -51 -20 -76 0 -43 25 -120 36 -109 3 3 1 14
-5 25 -16 30 -13 128 4 162 21 40 10 38 -15 -2z"/>
<path d="M9615 4836 c17 -41 19 -113 5 -152 -16 -41 -2 -42 15 -1 8 20 15 52
15 72 0 38 -21 98 -39 109 -6 4 -4 -9 4 -28z"/>
<path d="M8990 4775 c0 -50 4 -85 10 -85 6 0 10 35 10 85 0 50 -4 85 -10 85
-6 0 -10 -35 -10 -85z"/>
<path d="M8521 4808 c-1 -10 8 -40 19 -67 20 -52 18 -81 -6 -81 -8 0 -14 -5
-14 -11 0 -6 7 -8 16 -5 9 3 17 6 19 6 7 0 66 162 61 168 -6 5 -36 -60 -36
-78 0 -24 -18 -6 -37 38 -12 26 -21 39 -22 30z"/>
<path d="M9062 4804 c-44 -31 -19 -114 35 -114 48 0 70 73 33 110 -24 24 -38
25 -68 4z m66 -44 c3 -23 -2 -38 -14 -47 -27 -19 -54 1 -54 41 0 40 7 48 40
44 21 -2 26 -9 28 -38z"/>
<path d="M9195 4806 c-13 -9 -19 -26 -19 -51 0 -61 53 -86 95 -44 16 16 20 28
15 53 -10 51 -52 71 -91 42z m68 -27 c17 -27 0 -69 -27 -69 -33 0 -49 23 -41
60 6 26 11 31 32 28 14 -2 30 -10 36 -19z"/>
<path d="M9338 4813 c-15 -4 -18 -15 -16 -66 l1 -62 6 50 c5 38 11 52 28 61
13 6 20 14 16 17 -7 7 -8 7 -35 0z"/>
<path d="M9480 4817 c0 -4 7 -21 15 -36 13 -27 13 -31 -6 -56 -12 -14 -18 -29
-15 -33 4 -3 17 6 29 22 l23 28 13 -26 c8 -14 21 -26 28 -26 11 0 9 7 -6 26
-25 32 -26 51 -4 76 9 10 13 21 9 25 -4 4 -16 -3 -26 -17 l-18 -24 -21 24
c-11 14 -20 21 -21 17z"/>
<path d="M8738 4803 c18 -2 45 -2 60 0 15 2 0 4 -33 4 -33 0 -45 -2 -27 -4z"/>
<path d="M8710 4750 c0 -5 25 -10 55 -10 30 0 55 5 55 10 0 6 -25 10 -55 10
-30 0 -55 -4 -55 -10z"/>
<path d="M882 4002 c-7 -5 -15 -25 -19 -45 -11 -68 46 -115 81 -66 22 32 6 64
-33 64 -35 0 -37 3 -17 30 12 17 16 17 30 6 18 -15 32 -9 21 8 -7 13 -44 14
-63 3z m47 -66 c15 -18 3 -46 -19 -46 -10 0 -21 7 -24 16 -6 16 9 44 24 44 4
0 13 -6 19 -14z"/>
<path d="M2654 3966 c-16 -25 -33 -42 -39 -38 -15 11 -44 8 -47 -3 -2 -6 19
-11 47 -12 58 -3 78 -9 70 -22 -3 -5 -2 -12 3 -14 4 -3 12 6 19 19 6 14 7 26
2 30 -5 3 -9 23 -9 45 0 21 -4 39 -9 39 -5 0 -22 -20 -37 -44z m26 -21 c0 -16
-6 -25 -15 -25 -18 0 -19 4 -3 30 16 26 18 25 18 -5z"/>
<path d="M4403 3995 c-9 -25 6 -31 21 -9 14 18 16 18 32 3 15 -16 14 -20 -25
-61 -22 -25 -38 -48 -34 -51 10 -11 81 -8 88 3 4 6 -7 10 -24 10 -32 0 -42 16
-16 27 25 9 45 56 34 76 -13 22 -67 23 -76 2z"/>
<path d="M7940 3995 c-7 -9 -10 -18 -6 -22 3 -4 12 2 20 12 14 20 46 15 46 -8
0 -7 -16 -28 -35 -47 -48 -46 -45 -60 10 -60 25 0 45 5 45 10 0 6 -14 10 -31
10 l-31 0 31 35 c17 20 31 41 31 48 0 35 -57 50 -80 22z"/>
<path d="M9720 3968 c-37 -51 -37 -58 -1 -58 23 0 31 -5 34 -22 3 -22 4 -22
12 -3 5 11 13 23 19 27 7 5 7 8 -1 8 -9 0 -13 16 -13 45 0 25 -4 45 -10 45 -5
0 -23 -19 -40 -42z m26 -33 c-7 -18 -26 -20 -26 -2 0 18 24 41 28 27 2 -6 1
-17 -2 -25z"/>
<path d="M11472 3985 c-16 -35 -15 -66 4 -93 29 -42 78 -19 72 35 -2 23 -9 29
-36 33 -31 5 -32 6 -19 25 13 16 17 17 31 6 18 -15 32 -9 21 8 -3 6 -19 11
-34 11 -20 0 -31 -7 -39 -25z m56 -52 c12 -24 4 -43 -18 -43 -22 0 -34 28 -19
46 15 19 26 18 37 -3z"/>
<path d="M800 3920 c0 -5 11 -10 25 -10 14 0 25 5 25 10 0 6 -11 10 -25 10
-14 0 -25 -4 -25 -10z"/>
<path d="M4330 3920 c0 -5 11 -10 25 -10 14 0 25 5 25 10 0 6 -11 10 -25 10
-14 0 -25 -4 -25 -10z"/>
<path d="M4422 3228 c-16 -16 -15 -23 4 -43 12 -12 19 -13 30 -4 19 15 18 45
-2 53 -20 8 -18 8 -32 -6z"/>
<path d="M4538 3230 c-20 -12 -12 -50 11 -50 27 0 42 20 30 42 -11 20 -17 22
-41 8z"/>
<path d="M4652 3231 c-21 -13 -10 -46 16 -49 27 -4 40 22 22 43 -14 17 -20 18
-38 6z"/>
<path d="M4760 3225 c-17 -20 -5 -45 20 -45 11 0 23 7 26 15 6 15 -11 45 -26
45 -4 0 -13 -7 -20 -15z"/>
<path d="M4870 3225 c-17 -20 -5 -45 20 -45 11 0 23 7 26 15 6 15 -11 45 -26
45 -4 0 -13 -7 -20 -15z"/>
<path d="M4981 3226 c-17 -20 -3 -46 25 -46 19 0 24 5 24 24 0 13 -7 27 -16
30 -21 8 -20 8 -33 -8z"/>
<path d="M5097 3229 c-13 -8 -15 -14 -7 -30 13 -23 33 -25 50 -4 10 12 10 18
0 30 -15 17 -19 18 -43 4z"/>
<path d="M5212 3231 c-21 -13 -10 -46 16 -49 27 -4 40 22 22 43 -14 17 -20 18
-38 6z"/>
<path d="M5567 3214 c-16 -16 9 -24 73 -24 71 0 100 6 100 21 0 10 -163 13
-173 3z"/>
<path d="M5812 3208 c3 -9 29 -13 86 -13 111 0 107 19 -4 23 -67 2 -85 0 -82
-10z"/>
<path d="M6046 2394 c-9 -25 2 -30 18 -9 14 20 46 15 46 -8 0 -7 -16 -28 -35
-47 -48 -46 -45 -60 10 -60 25 0 45 5 45 10 0 6 -13 10 -30 10 -36 0 -37 6 -6
31 31 24 41 55 26 74 -17 20 -66 19 -74 -1z"/>
<path d="M3531 2336 c-9 -11 -8 -18 4 -30 9 -9 20 -16 25 -16 5 0 16 7 25 16
18 19 4 44 -25 44 -10 0 -23 -6 -29 -14z"/>
<path d="M3644 2335 c-4 -9 0 -23 9 -32 21 -21 49 -9 45 19 -4 28 -45 38 -54
13z"/>
<path d="M3756 2334 c-7 -19 10 -44 30 -44 20 0 36 34 22 48 -17 17 -45 15
-52 -4z"/>
<path d="M3872 2338 c-14 -14 2 -48 22 -48 20 0 37 25 30 44 -7 19 -35 21 -52
4z"/>
<path d="M3984 2335 c-8 -21 2 -45 19 -45 20 0 40 27 33 45 -7 19 -45 20 -52
0z"/>
<path d="M4091 2336 c-9 -11 -8 -18 4 -30 9 -9 20 -16 25 -16 5 0 16 7 25 16
18 19 4 44 -25 44 -10 0 -23 -6 -29 -14z"/>
<path d="M4211 2341 c-17 -11 -8 -39 15 -48 23 -9 48 25 33 44 -13 15 -28 16
-48 4z"/>
<path d="M4316 2334 c-7 -19 10 -44 29 -44 7 0 18 7 25 15 10 12 10 18 0 30
-16 20 -46 19 -54 -1z"/>
<path d="M4687 2334 c-4 -4 -7 -11 -7 -16 0 -12 170 -5 173 7 2 11 -155 20
-166 9z"/>
<path d="M4937 2333 c-18 -18 0 -23 77 -23 80 0 115 11 80 24 -21 8 -149 8
-157 -1z"/>
<path d="M5187 2334 c-19 -19 -1 -25 71 -22 43 2 77 7 77 13 0 11 -137 20
-148 9z"/>
<path d="M5992 2332 c-26 -4 -20 -22 8 -22 20 0 36 16 23 22 -5 2 -18 2 -31 0z"/>
<path d="M900 2319 c0 -5 5 -7 10 -4 6 3 10 8 10 11 0 2 -4 4 -10 4 -5 0 -10
-5 -10 -11z"/>
<path d="M2675 2320 c3 -5 8 -10 11 -10 2 0 4 5 4 10 0 6 -5 10 -11 10 -5 0
-7 -4 -4 -10z"/>
<path d="M7965 2320 c3 -5 8 -10 11 -10 2 0 4 5 4 10 0 6 -5 10 -11 10 -5 0
-7 -4 -4 -10z"/>
<path d="M2651 1452 c-12 -22 3 -42 30 -42 22 0 33 28 18 46 -16 19 -36 17
-48 -4z"/>
<path d="M2764 1455 c-9 -23 3 -45 25 -45 21 0 33 22 25 45 -4 8 -15 15 -25
15 -11 0 -22 -7 -25 -15z"/>
<path d="M2877 1456 c-10 -26 4 -47 27 -44 15 2 21 10 21 28 0 29 -38 41 -48
16z"/>
<path d="M2991 1457 c-17 -21 -3 -49 23 -45 15 2 21 10 21 28 0 28 -26 38 -44
17z"/>
<path d="M3100 1455 c-15 -18 2 -45 30 -45 23 0 34 28 19 46 -15 18 -33 18
-49 -1z"/>
<path d="M3214 1455 c-8 -21 2 -45 19 -45 21 0 38 25 31 44 -8 20 -43 21 -50
1z"/>
<path d="M3324 1456 c-10 -26 4 -48 28 -44 17 2 23 10 23 28 0 18 -6 26 -23
28 -13 2 -25 -3 -28 -12z"/>
<path d="M3437 1456 c-10 -26 4 -47 27 -44 15 2 21 10 21 28 0 29 -38 41 -48
16z"/>
<path d="M4368 1452 c-38 -2 -68 -7 -68 -12 0 -11 140 -18 147 -7 10 17 -13
22 -79 19z"/>
<path d="M3800 1440 c0 -6 35 -10 85 -10 50 0 85 4 85 10 0 6 -35 10 -85 10
-50 0 -85 -4 -85 -10z"/>
<path d="M4050 1440 c0 -6 35 -10 85 -10 50 0 85 4 85 10 0 6 -35 10 -85 10
-50 0 -85 -4 -85 -10z"/>
<path d="M6066 607 c-25 -38 -32 -42 -62 -39 -19 2 -34 0 -34 -6 0 -5 27 -13
60 -17 41 -5 60 -11 60 -21 0 -8 5 -14 10 -14 6 0 10 6 10 14 0 8 6 17 13 20
10 5 10 7 0 12 -8 3 -13 24 -13 50 0 24 -3 44 -7 44 -5 0 -21 -20 -37 -43z
m24 -27 c0 -11 -7 -20 -15 -20 -18 0 -19 12 -3 28 16 16 18 15 18 -8z"/>
<path d="M1772 578 c-18 -18 -15 -36 7 -48 16 -8 23 -6 36 12 14 21 14 24 -2
35 -21 16 -26 16 -41 1z"/>
<path d="M1886 577 c-23 -17 -11 -47 19 -47 27 0 40 26 24 46 -14 17 -21 17
-43 1z"/>
<path d="M2003 583 c-7 -2 -13 -16 -13 -29 0 -19 5 -24 24 -24 28 0 42 26 25
46 -12 15 -16 16 -36 7z"/>
<path d="M2112 581 c-21 -13 -10 -46 16 -49 27 -4 40 22 22 43 -14 17 -20 18
-38 6z"/>
<path d="M2220 575 c-17 -21 -5 -45 24 -45 27 0 40 29 20 48 -17 16 -29 15
-44 -3z"/>
<path d="M2330 575 c-17 -21 -5 -45 24 -45 29 0 40 24 20 45 -19 19 -28 19
-44 0z"/>
<path d="M2446 577 c-23 -17 -11 -47 19 -47 27 0 40 26 24 46 -14 17 -21 17
-43 1z"/>
<path d="M2563 583 c-7 -2 -13 -16 -13 -29 0 -19 5 -24 25 -24 30 0 43 24 25
45 -13 16 -17 17 -37 8z"/>
<path d="M2913 558 c2 -9 29 -13 87 -13 58 0 85 4 88 13 3 9 -19 12 -88 12
-69 0 -91 -3 -87 -12z"/>
<path d="M3163 558 c2 -9 29 -13 87 -13 58 0 85 4 88 13 3 9 -19 12 -88 12
-69 0 -91 -3 -87 -12z"/>
<path d="M3413 558 c2 -9 27 -13 77 -13 50 0 75 4 78 13 3 9 -17 12 -78 12
-61 0 -81 -3 -77 -12z"/>
</g>
</svg>
