<svg width="672" height="112" viewBox="0 0 672 112" fill="none" xmlns="http://www.w3.org/2000/svg">
<g clip-path="url(#clip0_1140_288)">
<rect x="261" y="31" width="150" height="50" rx="6" fill="#FCFCFC"/>
<rect x="261" y="31" width="150" height="50" rx="6" stroke="#AAAAAA"/>
<path d="M292.629 48.4545V63H289.589V50.9545H283.709V63H280.669V48.4545H292.629ZM295.5 67.0909V52.0909H298.483V53.9233H298.618C298.751 53.6297 298.943 53.3314 299.194 53.0284C299.449 52.7206 299.781 52.465 300.188 52.2614C300.6 52.053 301.111 51.9489 301.722 51.9489C302.517 51.9489 303.251 52.1572 303.924 52.5739C304.596 52.9858 305.133 53.6084 305.536 54.4418C305.938 55.2704 306.14 56.3097 306.14 57.5597C306.14 58.7765 305.943 59.804 305.55 60.642C305.162 61.4754 304.632 62.1075 303.959 62.5384C303.292 62.9645 302.543 63.1776 301.715 63.1776C301.128 63.1776 300.628 63.0805 300.216 62.8864C299.809 62.6922 299.475 62.4484 299.215 62.1548C298.954 61.8565 298.756 61.5559 298.618 61.2528H298.526V67.0909H295.5ZM298.462 57.5455C298.462 58.1941 298.552 58.7599 298.732 59.2429C298.912 59.7259 299.172 60.1023 299.513 60.3722C299.854 60.6373 300.268 60.7699 300.756 60.7699C301.248 60.7699 301.665 60.6349 302.006 60.3651C302.347 60.0904 302.605 59.7116 302.78 59.2287C302.96 58.741 303.05 58.1799 303.05 57.5455C303.05 56.9157 302.962 56.3617 302.787 55.8835C302.612 55.4053 302.354 55.0312 302.013 54.7614C301.672 54.4915 301.253 54.3565 300.756 54.3565C300.264 54.3565 299.847 54.4867 299.506 54.7472C299.17 55.0076 298.912 55.3769 298.732 55.8551C298.552 56.3333 298.462 56.8968 298.462 57.5455ZM313.086 63.2131C311.982 63.2131 311.028 62.9787 310.223 62.5099C309.423 62.0365 308.805 61.3783 308.37 60.5355C307.934 59.688 307.716 58.7055 307.716 57.5881C307.716 56.4612 307.934 55.4763 308.37 54.6335C308.805 53.786 309.423 53.1278 310.223 52.6591C311.028 52.1856 311.982 51.9489 313.086 51.9489C314.189 51.9489 315.141 52.1856 315.941 52.6591C316.746 53.1278 317.366 53.786 317.801 54.6335C318.237 55.4763 318.455 56.4612 318.455 57.5881C318.455 58.7055 318.237 59.688 317.801 60.5355C317.366 61.3783 316.746 62.0365 315.941 62.5099C315.141 62.9787 314.189 63.2131 313.086 63.2131ZM313.1 60.8693C313.602 60.8693 314.021 60.7273 314.357 60.4432C314.693 60.1544 314.946 59.7614 315.117 59.2642C315.292 58.767 315.38 58.2012 315.38 57.5668C315.38 56.9323 315.292 56.3665 315.117 55.8693C314.946 55.3722 314.693 54.9792 314.357 54.6903C314.021 54.4015 313.602 54.2571 313.1 54.2571C312.593 54.2571 312.167 54.4015 311.821 54.6903C311.48 54.9792 311.222 55.3722 311.047 55.8693C310.877 56.3665 310.792 56.9323 310.792 57.5668C310.792 58.2012 310.877 58.767 311.047 59.2642C311.222 59.7614 311.48 60.1544 311.821 60.4432C312.167 60.7273 312.593 60.8693 313.1 60.8693ZM329.961 52.0909V60.9119H331.701V66.5085H328.76V63H320.422V52.0909H323.313V60.6207H327.105V52.0909H329.961ZM338.421 63.2131C337.299 63.2131 336.333 62.9858 335.523 62.5312C334.719 62.072 334.098 61.4233 333.663 60.5852C333.227 59.7424 333.009 58.7457 333.009 57.5952C333.009 56.473 333.227 55.4882 333.663 54.6406C334.098 53.7931 334.711 53.1326 335.502 52.6591C336.298 52.1856 337.23 51.9489 338.3 51.9489C339.02 51.9489 339.69 52.0649 340.31 52.2969C340.935 52.5241 341.48 52.8674 341.944 53.3267C342.413 53.786 342.777 54.3636 343.038 55.0597C343.298 55.7509 343.428 56.5606 343.428 57.4886V58.3196H334.217V56.4446H340.58C340.58 56.009 340.486 55.6231 340.296 55.2869C340.107 54.9508 339.844 54.688 339.508 54.4986C339.176 54.3045 338.79 54.2074 338.35 54.2074C337.891 54.2074 337.484 54.3139 337.129 54.527C336.778 54.7353 336.504 55.017 336.305 55.3722C336.106 55.7225 336.004 56.1132 335.999 56.544V58.3267C335.999 58.8665 336.099 59.3329 336.298 59.7259C336.501 60.1188 336.788 60.4219 337.157 60.6349C337.526 60.848 337.964 60.9545 338.471 60.9545C338.807 60.9545 339.115 60.9072 339.394 60.8125C339.674 60.7178 339.913 60.5758 340.112 60.3864C340.31 60.197 340.462 59.965 340.566 59.6903L343.364 59.875C343.222 60.5473 342.931 61.1345 342.491 61.6364C342.055 62.1335 341.492 62.5218 340.8 62.8011C340.114 63.0758 339.321 63.2131 338.421 63.2131ZM350.332 63.2131C349.214 63.2131 348.253 62.9763 347.448 62.5028C346.648 62.0246 346.032 61.3617 345.602 60.5142C345.175 59.6667 344.962 58.6913 344.962 57.5881C344.962 56.4706 345.178 55.4905 345.609 54.6477C346.044 53.8002 346.662 53.1397 347.462 52.6662C348.263 52.188 349.214 51.9489 350.317 51.9489C351.269 51.9489 352.103 52.1217 352.817 52.4673C353.532 52.813 354.098 53.2983 354.515 53.9233C354.932 54.5483 355.161 55.2822 355.204 56.125H352.349C352.268 55.5805 352.055 55.1425 351.71 54.8111C351.369 54.4749 350.921 54.3068 350.367 54.3068C349.898 54.3068 349.489 54.4347 349.138 54.6903C348.793 54.9413 348.523 55.3082 348.329 55.7912C348.135 56.2741 348.038 56.8589 348.038 57.5455C348.038 58.2415 348.132 58.8333 348.322 59.321C348.516 59.8087 348.788 60.1804 349.138 60.4361C349.489 60.6918 349.898 60.8196 350.367 60.8196C350.713 60.8196 351.023 60.7486 351.298 60.6065C351.577 60.4645 351.807 60.2585 351.987 59.9886C352.171 59.714 352.292 59.3849 352.349 59.0014H355.204C355.156 59.8348 354.929 60.5687 354.522 61.2031C354.12 61.8329 353.563 62.3253 352.853 62.6804C352.143 63.0355 351.302 63.2131 350.332 63.2131ZM362.07 63.2131C360.953 63.2131 359.991 62.9763 359.186 62.5028C358.386 62.0246 357.771 61.3617 357.34 60.5142C356.914 59.6667 356.701 58.6913 356.701 57.5881C356.701 56.4706 356.916 55.4905 357.347 54.6477C357.783 53.8002 358.4 53.1397 359.201 52.6662C360.001 52.188 360.953 51.9489 362.056 51.9489C363.007 51.9489 363.841 52.1217 364.556 52.4673C365.271 52.813 365.837 53.2983 366.253 53.9233C366.67 54.5483 366.9 55.2822 366.942 56.125H364.087C364.007 55.5805 363.793 55.1425 363.448 54.8111C363.107 54.4749 362.659 54.3068 362.105 54.3068C361.637 54.3068 361.227 54.4347 360.877 54.6903C360.531 54.9413 360.261 55.3082 360.067 55.7912C359.873 56.2741 359.776 56.8589 359.776 57.5455C359.776 58.2415 359.871 58.8333 360.06 59.321C360.254 59.8087 360.526 60.1804 360.877 60.4361C361.227 60.6918 361.637 60.8196 362.105 60.8196C362.451 60.8196 362.761 60.7486 363.036 60.6065C363.315 60.4645 363.545 60.2585 363.725 59.9886C363.909 59.714 364.03 59.3849 364.087 59.0014H366.942C366.895 59.8348 366.667 60.5687 366.26 61.2031C365.858 61.8329 365.301 62.3253 364.591 62.6804C363.881 63.0355 363.041 63.2131 362.07 63.2131ZM373.808 63.2131C372.705 63.2131 371.751 62.9787 370.946 62.5099C370.146 62.0365 369.528 61.3783 369.092 60.5355C368.657 59.688 368.439 58.7055 368.439 57.5881C368.439 56.4612 368.657 55.4763 369.092 54.6335C369.528 53.786 370.146 53.1278 370.946 52.6591C371.751 52.1856 372.705 51.9489 373.808 51.9489C374.911 51.9489 375.863 52.1856 376.663 52.6591C377.468 53.1278 378.089 53.786 378.524 54.6335C378.96 55.4763 379.178 56.4612 379.178 57.5881C379.178 58.7055 378.96 59.688 378.524 60.5355C378.089 61.3783 377.468 62.0365 376.663 62.5099C375.863 62.9787 374.911 63.2131 373.808 63.2131ZM373.822 60.8693C374.324 60.8693 374.743 60.7273 375.08 60.4432C375.416 60.1544 375.669 59.7614 375.839 59.2642C376.015 58.767 376.102 58.2012 376.102 57.5668C376.102 56.9323 376.015 56.3665 375.839 55.8693C375.669 55.3722 375.416 54.9792 375.08 54.6903C374.743 54.4015 374.324 54.2571 373.822 54.2571C373.316 54.2571 372.89 54.4015 372.544 54.6903C372.203 54.9792 371.945 55.3722 371.77 55.8693C371.599 56.3665 371.514 56.9323 371.514 57.5668C371.514 58.2012 371.599 58.767 371.77 59.2642C371.945 59.7614 372.203 60.1544 372.544 60.4432C372.89 60.7273 373.316 60.8693 373.822 60.8693ZM381.145 67.0909V52.0909H384.128V53.9233H384.263C384.395 53.6297 384.587 53.3314 384.838 53.0284C385.094 52.7206 385.425 52.465 385.832 52.2614C386.244 52.053 386.756 51.9489 387.366 51.9489C388.162 51.9489 388.896 52.1572 389.568 52.5739C390.241 52.9858 390.778 53.6084 391.18 54.4418C391.583 55.2704 391.784 56.3097 391.784 57.5597C391.784 58.7765 391.588 59.804 391.195 60.642C390.806 61.4754 390.276 62.1075 389.604 62.5384C388.936 62.9645 388.188 63.1776 387.359 63.1776C386.772 63.1776 386.273 63.0805 385.861 62.8864C385.454 62.6922 385.12 62.4484 384.859 62.1548C384.599 61.8565 384.4 61.5559 384.263 61.2528H384.17V67.0909H381.145ZM384.107 57.5455C384.107 58.1941 384.196 58.7599 384.376 59.2429C384.556 59.7259 384.817 60.1023 385.158 60.3722C385.499 60.6373 385.913 60.7699 386.401 60.7699C386.893 60.7699 387.31 60.6349 387.651 60.3651C387.991 60.0904 388.25 59.7116 388.425 59.2287C388.605 58.741 388.695 58.1799 388.695 57.5455C388.695 56.9157 388.607 56.3617 388.432 55.8835C388.257 55.4053 387.999 55.0312 387.658 54.7614C387.317 54.4915 386.898 54.3565 386.401 54.3565C385.908 54.3565 385.491 54.4867 385.151 54.7472C384.814 55.0076 384.556 55.3769 384.376 55.8551C384.196 56.3333 384.107 56.8968 384.107 57.5455Z" fill="black"/>
<rect x="1" y="1" width="200" height="40" rx="6" fill="#FCFCFC"/>
<rect x="1" y="1" width="200" height="40" rx="6" stroke="#AAAAAA"/>
<path d="M28.2045 21.1818C28.2045 22.4508 27.964 23.5303 27.483 24.4205C27.0057 25.3106 26.3542 25.9905 25.5284 26.4602C24.7064 26.9261 23.7822 27.1591 22.7557 27.1591C21.7216 27.1591 20.7936 26.9242 19.9716 26.4545C19.1496 25.9848 18.5 25.3049 18.0227 24.4148C17.5455 23.5246 17.3068 22.447 17.3068 21.1818C17.3068 19.9129 17.5455 18.8333 18.0227 17.9432C18.5 17.053 19.1496 16.375 19.9716 15.9091C20.7936 15.4394 21.7216 15.2045 22.7557 15.2045C23.7822 15.2045 24.7064 15.4394 25.5284 15.9091C26.3542 16.375 27.0057 17.053 27.483 17.9432C27.964 18.8333 28.2045 19.9129 28.2045 21.1818ZM25.7102 21.1818C25.7102 20.3598 25.5871 19.6667 25.3409 19.1023C25.0985 18.5379 24.7557 18.1098 24.3125 17.8182C23.8693 17.5265 23.3504 17.3807 22.7557 17.3807C22.161 17.3807 21.642 17.5265 21.1989 17.8182C20.7557 18.1098 20.411 18.5379 20.1648 19.1023C19.9223 19.6667 19.8011 20.3598 19.8011 21.1818C19.8011 22.0038 19.9223 22.697 20.1648 23.2614C20.411 23.8258 20.7557 24.2538 21.1989 24.5455C21.642 24.8371 22.161 24.983 22.7557 24.983C23.3504 24.983 23.8693 24.8371 24.3125 24.5455C24.7557 24.2538 25.0985 23.8258 25.3409 23.2614C25.5871 22.697 25.7102 22.0038 25.7102 21.1818ZM29.9815 27V18.2727H37.6122V27H35.2997V20.1761H32.2656V27H29.9815ZM43.5213 27.1705C42.6236 27.1705 41.8509 26.9886 41.2031 26.625C40.5592 26.2576 40.063 25.7386 39.7145 25.0682C39.366 24.3939 39.1918 23.5966 39.1918 22.6761C39.1918 21.7784 39.366 20.9905 39.7145 20.3125C40.063 19.6345 40.5535 19.1061 41.1861 18.7273C41.8224 18.3485 42.5687 18.1591 43.4247 18.1591C44.0005 18.1591 44.5365 18.2519 45.0327 18.4375C45.5327 18.6193 45.9683 18.8939 46.3395 19.2614C46.7145 19.6288 47.0062 20.0909 47.2145 20.6477C47.4228 21.2008 47.527 21.8485 47.527 22.5909V23.2557H40.1577V21.7557H45.2486C45.2486 21.4072 45.1728 21.0985 45.0213 20.8295C44.8698 20.5606 44.6596 20.3504 44.3906 20.1989C44.1255 20.0436 43.8168 19.9659 43.4645 19.9659C43.0971 19.9659 42.7713 20.0511 42.4872 20.2216C42.2069 20.3883 41.9872 20.6136 41.8281 20.8977C41.669 21.178 41.5876 21.4905 41.5838 21.8352V23.2614C41.5838 23.6932 41.6634 24.0663 41.8224 24.3807C41.9853 24.6951 42.2145 24.9375 42.5099 25.108C42.8054 25.2784 43.1558 25.3636 43.5611 25.3636C43.83 25.3636 44.0762 25.3258 44.2997 25.25C44.5232 25.1742 44.7145 25.0606 44.8736 24.9091C45.0327 24.7576 45.1539 24.572 45.2372 24.3523L47.4759 24.5C47.3622 25.0379 47.1293 25.5076 46.777 25.9091C46.4285 26.3068 45.9777 26.6174 45.4247 26.8409C44.8755 27.0606 44.241 27.1705 43.5213 27.1705ZM49.1065 30.2727V18.2727H51.4929V19.7386H51.6009C51.7069 19.5038 51.8603 19.2652 52.0611 19.0227C52.2656 18.7765 52.5308 18.572 52.8565 18.4091C53.1861 18.2424 53.5952 18.1591 54.0838 18.1591C54.7202 18.1591 55.3073 18.3258 55.8452 18.6591C56.383 18.9886 56.813 19.4867 57.1349 20.1534C57.4569 20.8163 57.6179 21.6477 57.6179 22.6477C57.6179 23.6212 57.4607 24.4432 57.1463 25.1136C56.8357 25.7803 56.4115 26.286 55.8736 26.6307C55.3395 26.9716 54.741 27.142 54.0781 27.142C53.6084 27.142 53.2088 27.0644 52.8793 26.9091C52.5535 26.7538 52.2865 26.5587 52.0781 26.3239C51.8698 26.0852 51.7107 25.8447 51.6009 25.6023H51.527V30.2727H49.1065ZM51.4759 22.6364C51.4759 23.1553 51.5478 23.608 51.6918 23.9943C51.8357 24.3807 52.044 24.6818 52.3168 24.8977C52.5895 25.1098 52.9209 25.2159 53.3111 25.2159C53.705 25.2159 54.0384 25.108 54.3111 24.892C54.5838 24.6723 54.7902 24.3693 54.9304 23.983C55.0743 23.5928 55.1463 23.1439 55.1463 22.6364C55.1463 22.1326 55.0762 21.6894 54.9361 21.3068C54.7959 20.9242 54.5895 20.625 54.3168 20.4091C54.044 20.1932 53.7088 20.0852 53.3111 20.0852C52.9171 20.0852 52.5838 20.1894 52.3111 20.3977C52.0421 20.6061 51.8357 20.9015 51.6918 21.2841C51.5478 21.6667 51.4759 22.1174 51.4759 22.6364ZM61.7202 27.1648C61.1634 27.1648 60.6671 27.0682 60.2315 26.875C59.7959 26.678 59.4512 26.3883 59.1974 26.0057C58.9474 25.6193 58.8224 25.1383 58.8224 24.5625C58.8224 24.0777 58.9115 23.6705 59.0895 23.3409C59.2675 23.0114 59.5099 22.7462 59.8168 22.5455C60.1236 22.3447 60.4721 22.1932 60.8622 22.0909C61.2562 21.9886 61.669 21.9167 62.1009 21.875C62.6084 21.822 63.0175 21.7727 63.3281 21.7273C63.6387 21.678 63.8641 21.6061 64.0043 21.5114C64.1444 21.4167 64.2145 21.2765 64.2145 21.0909V21.0568C64.2145 20.697 64.1009 20.4186 63.8736 20.2216C63.6501 20.0246 63.3319 19.9261 62.919 19.9261C62.4834 19.9261 62.1368 20.0227 61.8793 20.2159C61.6217 20.4053 61.4512 20.6439 61.3679 20.9318L59.1293 20.75C59.2429 20.2197 59.4664 19.7614 59.7997 19.375C60.133 18.9848 60.563 18.6856 61.0895 18.4773C61.6198 18.2652 62.2334 18.1591 62.9304 18.1591C63.4152 18.1591 63.8793 18.2159 64.3224 18.3295C64.7694 18.4432 65.1652 18.6193 65.5099 18.858C65.8584 19.0966 66.133 19.4034 66.3338 19.7784C66.5346 20.1496 66.6349 20.5947 66.6349 21.1136V27H64.3395V25.7898H64.2713C64.1312 26.0625 63.9437 26.303 63.7088 26.5114C63.474 26.7159 63.1918 26.8769 62.8622 26.9943C62.5327 27.108 62.152 27.1648 61.7202 27.1648ZM62.4134 25.4943C62.7694 25.4943 63.0838 25.4242 63.3565 25.2841C63.6293 25.1402 63.8433 24.947 63.9986 24.7045C64.1539 24.4621 64.2315 24.1875 64.2315 23.8807V22.9545C64.1558 23.0038 64.0516 23.0492 63.919 23.0909C63.7902 23.1288 63.6444 23.1648 63.4815 23.1989C63.3187 23.2292 63.1558 23.2576 62.9929 23.2841C62.83 23.3068 62.6823 23.3277 62.5497 23.3466C62.2656 23.3883 62.0175 23.4545 61.8054 23.5455C61.5933 23.6364 61.4285 23.7595 61.3111 23.9148C61.1937 24.0663 61.1349 24.2557 61.1349 24.483C61.1349 24.8125 61.2543 25.0644 61.4929 25.2386C61.7353 25.4091 62.0421 25.4943 62.4134 25.4943ZM67.6364 20.1761V18.2727H75.5455V20.1761H72.733V27H70.4261V20.1761H67.6364ZM79.3253 23.8068L82.4673 18.2727H84.8537V27H82.5469V21.4489L79.4162 27H77.0128V18.2727H79.3253V23.8068ZM86.794 27V18.2727H90.5156C91.5914 18.2727 92.4418 18.4773 93.0668 18.8864C93.6918 19.2955 94.0043 19.8769 94.0043 20.6307C94.0043 21.1042 93.8281 21.4981 93.4759 21.8125C93.1236 22.1269 92.6349 22.339 92.0099 22.4489C92.5327 22.4867 92.9777 22.6061 93.3452 22.8068C93.7164 23.0038 93.9986 23.2595 94.1918 23.5739C94.3887 23.8883 94.4872 24.2367 94.4872 24.6193C94.4872 25.1155 94.3546 25.5417 94.0895 25.8977C93.8281 26.2538 93.4437 26.5265 92.9361 26.7159C92.4323 26.9053 91.8168 27 91.0895 27H86.794ZM89.0497 25.1875H91.0895C91.4266 25.1875 91.6899 25.108 91.8793 24.9489C92.0724 24.786 92.169 24.5644 92.169 24.2841C92.169 23.9735 92.0724 23.7292 91.8793 23.5511C91.6899 23.3731 91.4266 23.2841 91.0895 23.2841H89.0497V25.1875ZM89.0497 21.8636H90.5668C90.8092 21.8636 91.0156 21.8295 91.1861 21.7614C91.3603 21.6894 91.4929 21.5871 91.5838 21.4545C91.6785 21.322 91.7259 21.1648 91.7259 20.983C91.7259 20.714 91.6179 20.5038 91.402 20.3523C91.1861 20.2008 90.8906 20.125 90.5156 20.125H89.0497V21.8636ZM102.087 21.6705V23.5739H97.5298V21.6705H102.087ZM98.3253 18.2727V27H96.0128V18.2727H98.3253ZM103.604 18.2727V27H101.308V18.2727H103.604ZM107.97 27.1648C107.413 27.1648 106.917 27.0682 106.482 26.875C106.046 26.678 105.701 26.3883 105.447 26.0057C105.197 25.6193 105.072 25.1383 105.072 24.5625C105.072 24.0777 105.161 23.6705 105.339 23.3409C105.518 23.0114 105.76 22.7462 106.067 22.5455C106.374 22.3447 106.722 22.1932 107.112 22.0909C107.506 21.9886 107.919 21.9167 108.351 21.875C108.858 21.822 109.268 21.7727 109.578 21.7273C109.889 21.678 110.114 21.6061 110.254 21.5114C110.394 21.4167 110.464 21.2765 110.464 21.0909V21.0568C110.464 20.697 110.351 20.4186 110.124 20.2216C109.9 20.0246 109.582 19.9261 109.169 19.9261C108.733 19.9261 108.387 20.0227 108.129 20.2159C107.872 20.4053 107.701 20.6439 107.618 20.9318L105.379 20.75C105.493 20.2197 105.716 19.7614 106.05 19.375C106.383 18.9848 106.813 18.6856 107.339 18.4773C107.87 18.2652 108.483 18.1591 109.18 18.1591C109.665 18.1591 110.129 18.2159 110.572 18.3295C111.019 18.4432 111.415 18.6193 111.76 18.858C112.108 19.0966 112.383 19.4034 112.584 19.7784C112.785 20.1496 112.885 20.5947 112.885 21.1136V27H110.589V25.7898H110.521C110.381 26.0625 110.194 26.303 109.959 26.5114C109.724 26.7159 109.442 26.8769 109.112 26.9943C108.783 27.108 108.402 27.1648 107.97 27.1648ZM108.663 25.4943C109.019 25.4943 109.334 25.4242 109.607 25.2841C109.879 25.1402 110.093 24.947 110.249 24.7045C110.404 24.4621 110.482 24.1875 110.482 23.8807V22.9545C110.406 23.0038 110.302 23.0492 110.169 23.0909C110.04 23.1288 109.894 23.1648 109.732 23.1989C109.569 23.2292 109.406 23.2576 109.243 23.2841C109.08 23.3068 108.932 23.3277 108.8 23.3466C108.516 23.3883 108.268 23.4545 108.055 23.5455C107.843 23.6364 107.679 23.7595 107.561 23.9148C107.444 24.0663 107.385 24.2557 107.385 24.483C107.385 24.8125 107.504 25.0644 107.743 25.2386C107.985 25.4091 108.292 25.4943 108.663 25.4943ZM119.876 27V20.1705H118.24C117.797 20.1705 117.46 20.2727 117.229 20.4773C116.998 20.6818 116.884 20.9242 116.888 21.2045C116.884 21.4886 116.994 21.7292 117.217 21.9261C117.445 22.1193 117.778 22.2159 118.217 22.2159H120.683V23.8523H118.217C117.471 23.8523 116.825 23.7386 116.28 23.5114C115.734 23.2841 115.314 22.9678 115.018 22.5625C114.723 22.1534 114.577 21.678 114.581 21.1364C114.577 20.5682 114.723 20.0701 115.018 19.642C115.314 19.2102 115.736 18.875 116.286 18.6364C116.839 18.3939 117.49 18.2727 118.24 18.2727H122.132V27H119.876ZM114.331 27L116.757 22.4545H119.07L116.649 27H114.331ZM127.716 27V18.2727H135.347V27H133.034V20.1761H130V27H127.716ZM139.767 27.1648C139.21 27.1648 138.714 27.0682 138.278 26.875C137.843 26.678 137.498 26.3883 137.244 26.0057C136.994 25.6193 136.869 25.1383 136.869 24.5625C136.869 24.0777 136.958 23.6705 137.136 23.3409C137.314 23.0114 137.557 22.7462 137.864 22.5455C138.17 22.3447 138.519 22.1932 138.909 22.0909C139.303 21.9886 139.716 21.9167 140.148 21.875C140.655 21.822 141.064 21.7727 141.375 21.7273C141.686 21.678 141.911 21.6061 142.051 21.5114C142.191 21.4167 142.261 21.2765 142.261 21.0909V21.0568C142.261 20.697 142.148 20.4186 141.92 20.2216C141.697 20.0246 141.379 19.9261 140.966 19.9261C140.53 19.9261 140.184 20.0227 139.926 20.2159C139.669 20.4053 139.498 20.6439 139.415 20.9318L137.176 20.75C137.29 20.2197 137.513 19.7614 137.847 19.375C138.18 18.9848 138.61 18.6856 139.136 18.4773C139.667 18.2652 140.28 18.1591 140.977 18.1591C141.462 18.1591 141.926 18.2159 142.369 18.3295C142.816 18.4432 143.212 18.6193 143.557 18.858C143.905 19.0966 144.18 19.4034 144.381 19.7784C144.581 20.1496 144.682 20.5947 144.682 21.1136V27H142.386V25.7898H142.318C142.178 26.0625 141.991 26.303 141.756 26.5114C141.521 26.7159 141.239 26.8769 140.909 26.9943C140.58 27.108 140.199 27.1648 139.767 27.1648ZM140.46 25.4943C140.816 25.4943 141.131 25.4242 141.403 25.2841C141.676 25.1402 141.89 24.947 142.045 24.7045C142.201 24.4621 142.278 24.1875 142.278 23.8807V22.9545C142.203 23.0038 142.098 23.0492 141.966 23.0909C141.837 23.1288 141.691 23.1648 141.528 23.1989C141.366 23.2292 141.203 23.2576 141.04 23.2841C140.877 23.3068 140.729 23.3277 140.597 23.3466C140.313 23.3883 140.064 23.4545 139.852 23.5455C139.64 23.6364 139.475 23.7595 139.358 23.9148C139.241 24.0663 139.182 24.2557 139.182 24.483C139.182 24.8125 139.301 25.0644 139.54 25.2386C139.782 25.4091 140.089 25.4943 140.46 25.4943ZM151.719 24.3239L154.082 18.2727H155.923L152.52 27H150.912L147.588 18.2727H149.423L151.719 24.3239ZM148.872 18.2727V27H146.56V18.2727H148.872ZM154.685 27V18.2727H156.969V27H154.685ZM163.955 27V20.1705H162.318C161.875 20.1705 161.538 20.2727 161.307 20.4773C161.076 20.6818 160.962 20.9242 160.966 21.2045C160.962 21.4886 161.072 21.7292 161.295 21.9261C161.523 22.1193 161.856 22.2159 162.295 22.2159H164.761V23.8523H162.295C161.549 23.8523 160.903 23.7386 160.358 23.5114C159.812 23.2841 159.392 22.9678 159.097 22.5625C158.801 22.1534 158.655 21.678 158.659 21.1364C158.655 20.5682 158.801 20.0701 159.097 19.642C159.392 19.2102 159.814 18.875 160.364 18.6364C160.917 18.3939 161.568 18.2727 162.318 18.2727H166.21V27H163.955ZM158.409 27L160.835 22.4545H163.148L160.727 27H158.409ZM167.214 20.1761V18.2727H175.124V20.1761H172.311V27H170.004V20.1761H167.214ZM178.108 20.9545H180.716C181.871 20.9545 182.773 21.2311 183.42 21.7841C184.068 22.3333 184.392 23.0682 184.392 23.9886C184.392 24.5871 184.246 25.1136 183.955 25.5682C183.663 26.0189 183.242 26.3712 182.693 26.625C182.144 26.875 181.485 27 180.716 27H176.591V18.2727H178.903V25.0966H180.716C181.121 25.0966 181.455 24.9943 181.716 24.7898C181.977 24.5852 182.11 24.3239 182.114 24.0057C182.11 23.6686 181.977 23.3939 181.716 23.1818C181.455 22.9659 181.121 22.858 180.716 22.858H178.108V20.9545Z" fill="black"/>
<rect x="1" y="71" width="200" height="40" rx="6" fill="#FCFCFC"/>
<rect x="1" y="71" width="200" height="40" rx="6" stroke="#AAAAAA"/>
<path d="M32.5114 97V85.3636H40.233V87.392H34.9716V89.6648H36.8636C37.7841 89.6648 38.5777 89.8144 39.2443 90.1136C39.9148 90.4091 40.4318 90.8277 40.7955 91.3693C41.1591 91.911 41.3409 92.5492 41.3409 93.2841C41.3409 94.0152 41.1591 94.661 40.7955 95.2216C40.4318 95.7784 39.9148 96.214 39.2443 96.5284C38.5777 96.8428 37.7841 97 36.8636 97H32.5114ZM34.9716 95.0227H36.8636C37.303 95.0227 37.6742 94.9432 37.9773 94.7841C38.2803 94.6212 38.5095 94.4072 38.6648 94.142C38.8239 93.8731 38.9034 93.5795 38.9034 93.2614C38.9034 92.7992 38.7273 92.4091 38.375 92.0909C38.0265 91.7689 37.5227 91.608 36.8636 91.608H34.9716V95.0227ZM42.3764 97L42.3651 95.0795H42.6548C42.8594 95.0795 43.0355 95.0303 43.1832 94.9318C43.3348 94.8295 43.4598 94.6648 43.5582 94.4375C43.6567 94.2102 43.7344 93.9091 43.7912 93.5341C43.848 93.1553 43.8859 92.6894 43.9048 92.1364L44.0469 88.2727H50.6832V97H48.3764V90.1761H46.223L46.0866 92.8409C46.0526 93.572 45.9635 94.2008 45.8196 94.7273C45.6795 95.2538 45.4844 95.6856 45.2344 96.0227C44.9844 96.3561 44.6832 96.6023 44.331 96.7614C43.9787 96.9205 43.5696 97 43.1037 97H42.3764ZM56.5028 97.1705C55.6203 97.1705 54.857 96.983 54.2131 96.608C53.5729 96.2292 53.0786 95.7027 52.7301 95.0284C52.3816 94.3504 52.2074 93.5644 52.2074 92.6705C52.2074 91.7689 52.3816 90.9811 52.7301 90.3068C53.0786 89.6288 53.5729 89.1023 54.2131 88.7273C54.857 88.3485 55.6203 88.1591 56.5028 88.1591C57.3854 88.1591 58.1468 88.3485 58.7869 88.7273C59.4309 89.1023 59.9271 89.6288 60.2756 90.3068C60.6241 90.9811 60.7983 91.7689 60.7983 92.6705C60.7983 93.5644 60.6241 94.3504 60.2756 95.0284C59.9271 95.7027 59.4309 96.2292 58.7869 96.608C58.1468 96.983 57.3854 97.1705 56.5028 97.1705ZM56.5142 95.2955C56.9157 95.2955 57.2509 95.1818 57.5199 94.9545C57.7888 94.7235 57.9915 94.4091 58.1278 94.0114C58.268 93.6136 58.3381 93.161 58.3381 92.6534C58.3381 92.1458 58.268 91.6932 58.1278 91.2955C57.9915 90.8977 57.7888 90.5833 57.5199 90.3523C57.2509 90.1212 56.9157 90.0057 56.5142 90.0057C56.1089 90.0057 55.768 90.1212 55.4915 90.3523C55.2188 90.5833 55.0123 90.8977 54.8722 91.2955C54.7358 91.6932 54.6676 92.1458 54.6676 92.6534C54.6676 93.161 54.7358 93.6136 54.8722 94.0114C55.0123 94.4091 55.2188 94.7235 55.4915 94.9545C55.768 95.1818 56.1089 95.2955 56.5142 95.2955ZM62.3722 97V88.2727H64.7926V91.6591H65.4744L67.8494 88.2727H70.6903L67.6051 92.6023L70.7244 97H67.8494L65.696 93.9034H64.7926V97H62.3722ZM76.9446 100.273C76.6378 100.273 76.3499 100.248 76.081 100.199C75.8158 100.153 75.5961 100.095 75.4219 100.023L75.9673 98.2159C76.2514 98.303 76.5071 98.3504 76.7344 98.358C76.9654 98.3655 77.1643 98.3125 77.331 98.1989C77.5014 98.0852 77.6397 97.892 77.7457 97.6193L77.8878 97.25L74.7571 88.2727H77.3026L79.1094 94.6818H79.2003L81.0241 88.2727H83.5866L80.1946 97.9432C80.0317 98.4129 79.8101 98.822 79.5298 99.1705C79.2533 99.5227 78.9029 99.7936 78.4787 99.983C78.0545 100.176 77.5431 100.273 76.9446 100.273ZM84.8253 97V88.2727H92.456V97H90.1435V90.1761H87.1094V97H84.8253ZM94.3878 100.273V88.2727H96.7741V89.7386H96.8821C96.9882 89.5038 97.1416 89.2652 97.3423 89.0227C97.5469 88.7765 97.812 88.572 98.1378 88.4091C98.4673 88.2424 98.8764 88.1591 99.3651 88.1591C100.001 88.1591 100.589 88.3258 101.126 88.6591C101.664 88.9886 102.094 89.4867 102.416 90.1534C102.738 90.8163 102.899 91.6477 102.899 92.6477C102.899 93.6212 102.742 94.4432 102.428 95.1136C102.117 95.7803 101.693 96.286 101.155 96.6307C100.621 96.9716 100.022 97.142 99.3594 97.142C98.8897 97.142 98.4901 97.0644 98.1605 96.9091C97.8348 96.7538 97.5677 96.5587 97.3594 96.3239C97.151 96.0852 96.992 95.8447 96.8821 95.6023H96.8082V100.273H94.3878ZM96.7571 92.6364C96.7571 93.1553 96.8291 93.608 96.973 93.9943C97.117 94.3807 97.3253 94.6818 97.598 94.8977C97.8707 95.1098 98.2022 95.2159 98.5923 95.2159C98.9863 95.2159 99.3196 95.108 99.5923 94.892C99.8651 94.6723 100.071 94.3693 100.212 93.983C100.356 93.5928 100.428 93.1439 100.428 92.6364C100.428 92.1326 100.357 91.6894 100.217 91.3068C100.077 90.9242 99.8707 90.625 99.598 90.4091C99.3253 90.1932 98.9901 90.0852 98.5923 90.0852C98.1984 90.0852 97.8651 90.1894 97.5923 90.3977C97.3234 90.6061 97.117 90.9015 96.973 91.2841C96.8291 91.6667 96.7571 92.1174 96.7571 92.6364ZM107.001 97.1648C106.445 97.1648 105.948 97.0682 105.513 96.875C105.077 96.678 104.732 96.3883 104.479 96.0057C104.229 95.6193 104.104 95.1383 104.104 94.5625C104.104 94.0777 104.193 93.6705 104.371 93.3409C104.549 93.0114 104.791 92.7462 105.098 92.5455C105.405 92.3447 105.753 92.1932 106.143 92.0909C106.537 91.9886 106.95 91.9167 107.382 91.875C107.89 91.822 108.299 91.7727 108.609 91.7273C108.92 91.678 109.145 91.6061 109.286 91.5114C109.426 91.4167 109.496 91.2765 109.496 91.0909V91.0568C109.496 90.697 109.382 90.4186 109.155 90.2216C108.931 90.0246 108.613 89.9261 108.2 89.9261C107.765 89.9261 107.418 90.0227 107.161 90.2159C106.903 90.4053 106.732 90.6439 106.649 90.9318L104.411 90.75C104.524 90.2197 104.748 89.7614 105.081 89.375C105.414 88.9848 105.844 88.6856 106.371 88.4773C106.901 88.2652 107.515 88.1591 108.212 88.1591C108.696 88.1591 109.161 88.2159 109.604 88.3295C110.051 88.4432 110.446 88.6193 110.791 88.858C111.14 89.0966 111.414 89.4034 111.615 89.7784C111.816 90.1496 111.916 90.5947 111.916 91.1136V97H109.621V95.7898H109.553C109.412 96.0625 109.225 96.303 108.99 96.5114C108.755 96.7159 108.473 96.8769 108.143 96.9943C107.814 97.108 107.433 97.1648 107.001 97.1648ZM107.695 95.4943C108.051 95.4943 108.365 95.4242 108.638 95.2841C108.911 95.1402 109.125 94.947 109.28 94.7045C109.435 94.4621 109.513 94.1875 109.513 93.8807V92.9545C109.437 93.0038 109.333 93.0492 109.2 93.0909C109.071 93.1288 108.926 93.1648 108.763 93.1989C108.6 93.2292 108.437 93.2576 108.274 93.2841C108.111 93.3068 107.964 93.3277 107.831 93.3466C107.547 93.3883 107.299 93.4545 107.087 93.5455C106.875 93.6364 106.71 93.7595 106.592 93.9148C106.475 94.0663 106.416 94.2557 106.416 94.483C106.416 94.8125 106.536 95.0644 106.774 95.2386C107.017 95.4091 107.323 95.4943 107.695 95.4943ZM113.794 97V88.2727H117.516C118.591 88.2727 119.442 88.4773 120.067 88.8864C120.692 89.2955 121.004 89.8769 121.004 90.6307C121.004 91.1042 120.828 91.4981 120.476 91.8125C120.124 92.1269 119.635 92.339 119.01 92.4489C119.533 92.4867 119.978 92.6061 120.345 92.8068C120.716 93.0038 120.999 93.2595 121.192 93.5739C121.389 93.8883 121.487 94.2367 121.487 94.6193C121.487 95.1155 121.355 95.5417 121.089 95.8977C120.828 96.2538 120.444 96.5265 119.936 96.7159C119.432 96.9053 118.817 97 118.089 97H113.794ZM116.05 95.1875H118.089C118.427 95.1875 118.69 95.108 118.879 94.9489C119.072 94.786 119.169 94.5644 119.169 94.2841C119.169 93.9735 119.072 93.7292 118.879 93.5511C118.69 93.3731 118.427 93.2841 118.089 93.2841H116.05V95.1875ZM116.05 91.8636H117.567C117.809 91.8636 118.016 91.8295 118.186 91.7614C118.36 91.6894 118.493 91.5871 118.584 91.4545C118.679 91.322 118.726 91.1648 118.726 90.983C118.726 90.714 118.618 90.5038 118.402 90.3523C118.186 90.2008 117.891 90.125 117.516 90.125H116.05V91.8636ZM122.501 97L122.49 95.0795H122.78C122.984 95.0795 123.161 95.0303 123.308 94.9318C123.46 94.8295 123.585 94.6648 123.683 94.4375C123.782 94.2102 123.859 93.9091 123.916 93.5341C123.973 93.1553 124.011 92.6894 124.03 92.1364L124.172 88.2727H130.808V97H128.501V90.1761H126.348L126.212 92.8409C126.178 93.572 126.089 94.2008 125.945 94.7273C125.804 95.2538 125.609 95.6856 125.359 96.0227C125.109 96.3561 124.808 96.6023 124.456 96.7614C124.104 96.9205 123.695 97 123.229 97H122.501ZM136.662 97.1705C135.764 97.1705 134.991 96.9886 134.344 96.625C133.7 96.2576 133.204 95.7386 132.855 95.0682C132.507 94.3939 132.332 93.5966 132.332 92.6761C132.332 91.7784 132.507 90.9905 132.855 90.3125C133.204 89.6345 133.694 89.1061 134.327 88.7273C134.963 88.3485 135.709 88.1591 136.565 88.1591C137.141 88.1591 137.677 88.2519 138.173 88.4375C138.673 88.6193 139.109 88.8939 139.48 89.2614C139.855 89.6288 140.147 90.0909 140.355 90.6477C140.563 91.2008 140.668 91.8485 140.668 92.5909V93.2557H133.298V91.7557H138.389C138.389 91.4072 138.313 91.0985 138.162 90.8295C138.01 90.5606 137.8 90.3504 137.531 90.1989C137.266 90.0436 136.957 89.9659 136.605 89.9659C136.238 89.9659 135.912 90.0511 135.628 90.2216C135.348 90.3883 135.128 90.6136 134.969 90.8977C134.81 91.178 134.728 91.4905 134.724 91.8352V93.2614C134.724 93.6932 134.804 94.0663 134.963 94.3807C135.126 94.6951 135.355 94.9375 135.651 95.108C135.946 95.2784 136.296 95.3636 136.702 95.3636C136.971 95.3636 137.217 95.3258 137.44 95.25C137.664 95.1742 137.855 95.0606 138.014 94.9091C138.173 94.7576 138.295 94.572 138.378 94.3523L140.616 94.5C140.503 95.0379 140.27 95.5076 139.918 95.9091C139.569 96.3068 139.118 96.6174 138.565 96.8409C138.016 97.0606 137.382 97.1705 136.662 97.1705ZM148.321 91.6705V93.5739H143.764V91.6705H148.321ZM144.56 88.2727V97H142.247V88.2727H144.56ZM149.838 88.2727V97H147.543V88.2727H149.838ZM154.028 93.8068L157.17 88.2727H159.557V97H157.25V91.4489L154.119 97H151.716V88.2727H154.028V93.8068ZM166.611 97V90.1705H164.974C164.531 90.1705 164.194 90.2727 163.963 90.4773C163.732 90.6818 163.618 90.9242 163.622 91.2045C163.618 91.4886 163.728 91.7292 163.952 91.9261C164.179 92.1193 164.512 92.2159 164.952 92.2159H167.418V93.8523H164.952C164.205 93.8523 163.56 93.7386 163.014 93.5114C162.469 93.2841 162.048 92.9678 161.753 92.5625C161.457 92.1534 161.312 91.678 161.315 91.1364C161.312 90.5682 161.457 90.0701 161.753 89.642C162.048 89.2102 162.471 88.875 163.02 88.6364C163.573 88.3939 164.224 88.2727 164.974 88.2727H168.866V97H166.611ZM161.065 97L163.491 92.4545H165.804L163.384 97H161.065Z" fill="black"/>
<rect x="471" y="71" width="200" height="40" rx="6" fill="#FCFCFC"/>
<rect x="471" y="71" width="200" height="40" rx="6" stroke="#AAAAAA"/>
<path d="M493.267 97.1591V95.1591H493.898C494.212 95.1591 494.466 95.1212 494.659 95.0455C494.852 94.9659 495.006 94.8504 495.119 94.6989C495.237 94.5436 495.335 94.3504 495.415 94.1193L495.557 93.7386L491.33 85.3636H493.875L496.614 91.0909L498.903 85.3636H501.415L497.403 94.7159C497.21 95.1477 496.981 95.5492 496.716 95.9205C496.455 96.2917 496.119 96.5909 495.71 96.8182C495.301 97.0455 494.778 97.1591 494.142 97.1591H493.267ZM504.815 97.1705C503.921 97.1705 503.152 96.9811 502.509 96.6023C501.868 96.2197 501.376 95.6894 501.031 95.0114C500.69 94.3333 500.52 93.553 500.52 92.6705C500.52 91.7765 500.692 90.9924 501.037 90.3182C501.385 89.6402 501.88 89.1117 502.52 88.733C503.16 88.3504 503.921 88.1591 504.804 88.1591C505.565 88.1591 506.232 88.2973 506.804 88.5739C507.376 88.8504 507.829 89.2386 508.162 89.7386C508.495 90.2386 508.679 90.8258 508.713 91.5H506.429C506.365 91.0644 506.194 90.714 505.918 90.4489C505.645 90.1799 505.287 90.0455 504.844 90.0455C504.469 90.0455 504.141 90.1477 503.861 90.3523C503.584 90.553 503.368 90.8466 503.213 91.233C503.058 91.6193 502.98 92.0871 502.98 92.6364C502.98 93.1932 503.056 93.6667 503.207 94.0568C503.363 94.447 503.58 94.7443 503.861 94.9489C504.141 95.1534 504.469 95.2557 504.844 95.2557C505.12 95.2557 505.368 95.1989 505.588 95.0852C505.812 94.9716 505.995 94.8068 506.139 94.5909C506.287 94.3712 506.384 94.108 506.429 93.8011H508.713C508.675 94.4678 508.493 95.0549 508.168 95.5625C507.846 96.0663 507.401 96.4602 506.832 96.7443C506.264 97.0284 505.592 97.1705 504.815 97.1705ZM509.668 90.1761V88.2727H517.577V90.1761H514.764V97H512.457V90.1761H509.668ZM519.044 100.273V88.2727H521.43V89.7386H521.538C521.644 89.5038 521.798 89.2652 521.999 89.0227C522.203 88.7765 522.468 88.572 522.794 88.4091C523.124 88.2424 523.533 88.1591 524.021 88.1591C524.658 88.1591 525.245 88.3258 525.783 88.6591C526.321 88.9886 526.75 89.4867 527.072 90.1534C527.394 90.8163 527.555 91.6477 527.555 92.6477C527.555 93.6212 527.398 94.4432 527.084 95.1136C526.773 95.7803 526.349 96.286 525.811 96.6307C525.277 96.9716 524.679 97.142 524.016 97.142C523.546 97.142 523.146 97.0644 522.817 96.9091C522.491 96.7538 522.224 96.5587 522.016 96.3239C521.807 96.0852 521.648 95.8447 521.538 95.6023H521.464V100.273H519.044ZM521.413 92.6364C521.413 93.1553 521.485 93.608 521.629 93.9943C521.773 94.3807 521.982 94.6818 522.254 94.8977C522.527 95.1098 522.858 95.2159 523.249 95.2159C523.643 95.2159 523.976 95.108 524.249 94.892C524.521 94.6723 524.728 94.3693 524.868 93.983C525.012 93.5928 525.084 93.1439 525.084 92.6364C525.084 92.1326 525.014 91.6894 524.874 91.3068C524.733 90.9242 524.527 90.625 524.254 90.4091C523.982 90.1932 523.646 90.0852 523.249 90.0852C522.855 90.0852 522.521 90.1894 522.249 90.3977C521.98 90.6061 521.773 90.9015 521.629 91.2841C521.485 91.6667 521.413 92.1174 521.413 92.6364ZM533.112 97.1705C532.23 97.1705 531.466 96.983 530.822 96.608C530.182 96.2292 529.688 95.7027 529.339 95.0284C528.991 94.3504 528.817 93.5644 528.817 92.6705C528.817 91.7689 528.991 90.9811 529.339 90.3068C529.688 89.6288 530.182 89.1023 530.822 88.7273C531.466 88.3485 532.23 88.1591 533.112 88.1591C533.995 88.1591 534.756 88.3485 535.396 88.7273C536.04 89.1023 536.536 89.6288 536.885 90.3068C537.233 90.9811 537.408 91.7689 537.408 92.6705C537.408 93.5644 537.233 94.3504 536.885 95.0284C536.536 95.7027 536.04 96.2292 535.396 96.608C534.756 96.983 533.995 97.1705 533.112 97.1705ZM533.124 95.2955C533.525 95.2955 533.86 95.1818 534.129 94.9545C534.398 94.7235 534.601 94.4091 534.737 94.0114C534.877 93.6136 534.947 93.161 534.947 92.6534C534.947 92.1458 534.877 91.6932 534.737 91.2955C534.601 90.8977 534.398 90.5833 534.129 90.3523C533.86 90.1212 533.525 90.0057 533.124 90.0057C532.718 90.0057 532.377 90.1212 532.101 90.3523C531.828 90.5833 531.622 90.8977 531.482 91.2955C531.345 91.6932 531.277 92.1458 531.277 92.6534C531.277 93.161 531.345 93.6136 531.482 94.0114C531.622 94.4091 531.828 94.7235 532.101 94.9545C532.377 95.1818 532.718 95.2955 533.124 95.2955ZM541.294 93.8068L544.436 88.2727H546.822V97H544.516V91.4489L541.385 97H538.982V88.2727H541.294V93.8068ZM544.021 85.2273H545.709C545.705 85.9167 545.449 86.4716 544.942 86.892C544.438 87.3125 543.756 87.5227 542.896 87.5227C542.033 87.5227 541.349 87.3125 540.845 86.892C540.341 86.4716 540.089 85.9167 540.089 85.2273H541.766C541.762 85.4886 541.845 85.7235 542.016 85.9318C542.19 86.1402 542.483 86.2443 542.896 86.2443C543.298 86.2443 543.586 86.142 543.76 85.9375C543.934 85.733 544.021 85.4962 544.021 85.2273ZM552.706 97.1705C551.812 97.1705 551.043 96.9811 550.399 96.6023C549.759 96.2197 549.267 95.6894 548.922 95.0114C548.581 94.3333 548.411 93.553 548.411 92.6705C548.411 91.7765 548.583 90.9924 548.928 90.3182C549.276 89.6402 549.77 89.1117 550.411 88.733C551.051 88.3504 551.812 88.1591 552.695 88.1591C553.456 88.1591 554.123 88.2973 554.695 88.5739C555.267 88.8504 555.719 89.2386 556.053 89.7386C556.386 90.2386 556.57 90.8258 556.604 91.5H554.32C554.255 91.0644 554.085 90.714 553.808 90.4489C553.536 90.1799 553.178 90.0455 552.734 90.0455C552.359 90.0455 552.032 90.1477 551.751 90.3523C551.475 90.553 551.259 90.8466 551.104 91.233C550.948 91.6193 550.871 92.0871 550.871 92.6364C550.871 93.1932 550.946 93.6667 551.098 94.0568C551.253 94.447 551.471 94.7443 551.751 94.9489C552.032 95.1534 552.359 95.2557 552.734 95.2557C553.011 95.2557 553.259 95.1989 553.479 95.0852C553.702 94.9716 553.886 94.8068 554.03 94.5909C554.178 94.3712 554.274 94.108 554.32 93.8011H556.604C556.566 94.4678 556.384 95.0549 556.058 95.5625C555.736 96.0663 555.291 96.4602 554.723 96.7443C554.155 97.0284 553.482 97.1705 552.706 97.1705ZM557.558 90.1761V88.2727H565.467V90.1761H562.655V97H560.348V90.1761H557.558ZM566.935 97V88.2727H570.656C571.732 88.2727 572.582 88.4773 573.207 88.8864C573.832 89.2955 574.145 89.8769 574.145 90.6307C574.145 91.1042 573.969 91.4981 573.616 91.8125C573.264 92.1269 572.776 92.339 572.151 92.4489C572.673 92.4867 573.118 92.6061 573.486 92.8068C573.857 93.0038 574.139 93.2595 574.332 93.5739C574.529 93.8883 574.628 94.2367 574.628 94.6193C574.628 95.1155 574.495 95.5417 574.23 95.8977C573.969 96.2538 573.584 96.5265 573.077 96.7159C572.573 96.9053 571.957 97 571.23 97H566.935ZM569.19 95.1875H571.23C571.567 95.1875 571.83 95.108 572.02 94.9489C572.213 94.786 572.31 94.5644 572.31 94.2841C572.31 93.9735 572.213 93.7292 572.02 93.5511C571.83 93.3731 571.567 93.2841 571.23 93.2841H569.19V95.1875ZM569.19 91.8636H570.707C570.95 91.8636 571.156 91.8295 571.327 91.7614C571.501 91.6894 571.634 91.5871 571.724 91.4545C571.819 91.322 571.866 91.1648 571.866 90.983C571.866 90.714 571.759 90.5038 571.543 90.3523C571.327 90.2008 571.031 90.125 570.656 90.125H569.19V91.8636ZM580.097 97.1705C579.214 97.1705 578.451 96.983 577.807 96.608C577.167 96.2292 576.672 95.7027 576.324 95.0284C575.975 94.3504 575.801 93.5644 575.801 92.6705C575.801 91.7689 575.975 90.9811 576.324 90.3068C576.672 89.6288 577.167 89.1023 577.807 88.7273C578.451 88.3485 579.214 88.1591 580.097 88.1591C580.979 88.1591 581.741 88.3485 582.381 88.7273C583.025 89.1023 583.521 89.6288 583.869 90.3068C584.218 90.9811 584.392 91.7689 584.392 92.6705C584.392 93.5644 584.218 94.3504 583.869 95.0284C583.521 95.7027 583.025 96.2292 582.381 96.608C581.741 96.983 580.979 97.1705 580.097 97.1705ZM580.108 95.2955C580.509 95.2955 580.845 95.1818 581.114 94.9545C581.383 94.7235 581.585 94.4091 581.722 94.0114C581.862 93.6136 581.932 93.161 581.932 92.6534C581.932 92.1458 581.862 91.6932 581.722 91.2955C581.585 90.8977 581.383 90.5833 581.114 90.3523C580.845 90.1212 580.509 90.0057 580.108 90.0057C579.703 90.0057 579.362 90.1212 579.085 90.3523C578.813 90.5833 578.606 90.8977 578.466 91.2955C578.33 91.6932 578.261 92.1458 578.261 92.6534C578.261 93.161 578.33 93.6136 578.466 94.0114C578.606 94.4091 578.813 94.7235 579.085 94.9545C579.362 95.1818 579.703 95.2955 580.108 95.2955ZM589.669 97V88.2727H593.391C594.466 88.2727 595.317 88.4773 595.942 88.8864C596.567 89.2955 596.879 89.8769 596.879 90.6307C596.879 91.1042 596.703 91.4981 596.351 91.8125C595.999 92.1269 595.51 92.339 594.885 92.4489C595.408 92.4867 595.853 92.6061 596.22 92.8068C596.591 93.0038 596.874 93.2595 597.067 93.5739C597.264 93.8883 597.362 94.2367 597.362 94.6193C597.362 95.1155 597.23 95.5417 596.964 95.8977C596.703 96.2538 596.319 96.5265 595.811 96.7159C595.307 96.9053 594.692 97 593.964 97H589.669ZM591.925 95.1875H593.964C594.302 95.1875 594.565 95.108 594.754 94.9489C594.947 94.786 595.044 94.5644 595.044 94.2841C595.044 93.9735 594.947 93.7292 594.754 93.5511C594.565 93.3731 594.302 93.2841 593.964 93.2841H591.925V95.1875ZM591.925 91.8636H593.442C593.684 91.8636 593.891 91.8295 594.061 91.7614C594.235 91.6894 594.368 91.5871 594.459 91.4545C594.554 91.322 594.601 91.1648 594.601 90.983C594.601 90.714 594.493 90.5038 594.277 90.3523C594.061 90.2008 593.766 90.125 593.391 90.125H591.925V91.8636ZM600.405 90.9545H603.013C604.168 90.9545 605.07 91.2311 605.717 91.7841C606.365 92.3333 606.689 93.0682 606.689 93.9886C606.689 94.5871 606.543 95.1136 606.251 95.5682C605.96 96.0189 605.539 96.3712 604.99 96.625C604.441 96.875 603.782 97 603.013 97H598.888V88.2727H601.2V95.0966H603.013C603.418 95.0966 603.751 94.9943 604.013 94.7898C604.274 94.5852 604.407 94.3239 604.411 94.0057C604.407 93.6686 604.274 93.3939 604.013 93.1818C603.751 92.9659 603.418 92.858 603.013 92.858H600.405V90.9545ZM607.626 97V88.2727H610.047V97H607.626ZM611.982 97V88.2727H615.703C616.779 88.2727 617.629 88.4773 618.254 88.8864C618.879 89.2955 619.192 89.8769 619.192 90.6307C619.192 91.1042 619.016 91.4981 618.663 91.8125C618.311 92.1269 617.822 92.339 617.197 92.4489C617.72 92.4867 618.165 92.6061 618.533 92.8068C618.904 93.0038 619.186 93.2595 619.379 93.5739C619.576 93.8883 619.675 94.2367 619.675 94.6193C619.675 95.1155 619.542 95.5417 619.277 95.8977C619.016 96.2538 618.631 96.5265 618.124 96.7159C617.62 96.9053 617.004 97 616.277 97H611.982ZM614.237 95.1875H616.277C616.614 95.1875 616.877 95.108 617.067 94.9489C617.26 94.786 617.357 94.5644 617.357 94.2841C617.357 93.9735 617.26 93.7292 617.067 93.5511C616.877 93.3731 616.614 93.2841 616.277 93.2841H614.237V95.1875ZM614.237 91.8636H615.754C615.997 91.8636 616.203 91.8295 616.374 91.7614C616.548 91.6894 616.68 91.5871 616.771 91.4545C616.866 91.322 616.913 91.1648 616.913 90.983C616.913 90.714 616.805 90.5038 616.589 90.3523C616.374 90.2008 616.078 90.125 615.703 90.125H614.237V91.8636ZM625.143 97.1705C624.261 97.1705 623.498 96.983 622.854 96.608C622.214 96.2292 621.719 95.7027 621.371 95.0284C621.022 94.3504 620.848 93.5644 620.848 92.6705C620.848 91.7689 621.022 90.9811 621.371 90.3068C621.719 89.6288 622.214 89.1023 622.854 88.7273C623.498 88.3485 624.261 88.1591 625.143 88.1591C626.026 88.1591 626.787 88.3485 627.428 88.7273C628.071 89.1023 628.568 89.6288 628.916 90.3068C629.265 90.9811 629.439 91.7689 629.439 92.6705C629.439 93.5644 629.265 94.3504 628.916 95.0284C628.568 95.7027 628.071 96.2292 627.428 96.608C626.787 96.983 626.026 97.1705 625.143 97.1705ZM625.155 95.2955C625.556 95.2955 625.892 95.1818 626.161 94.9545C626.429 94.7235 626.632 94.4091 626.768 94.0114C626.909 93.6136 626.979 93.161 626.979 92.6534C626.979 92.1458 626.909 91.6932 626.768 91.2955C626.632 90.8977 626.429 90.5833 626.161 90.3523C625.892 90.1212 625.556 90.0057 625.155 90.0057C624.75 90.0057 624.409 90.1212 624.132 90.3523C623.859 90.5833 623.653 90.8977 623.513 91.2955C623.376 91.6932 623.308 92.1458 623.308 92.6534C623.308 93.161 623.376 93.6136 623.513 94.0114C623.653 94.4091 623.859 94.7235 624.132 94.9545C624.409 95.1818 624.75 95.2955 625.155 95.2955ZM630.331 99.5568V95.0795H631.001C631.195 94.9583 631.35 94.7652 631.467 94.5C631.589 94.2348 631.687 93.9223 631.763 93.5625C631.842 93.2027 631.903 92.8144 631.945 92.3977C631.99 91.9773 632.03 91.553 632.064 91.125L632.291 88.2727H638.984V95.0795H640.337V99.5568H638.03V97H632.695V99.5568H630.331ZM633.411 95.0795H636.7V90.1364H634.348L634.257 91.125C634.193 92.0568 634.1 92.8485 633.979 93.5C633.857 94.1477 633.668 94.6742 633.411 95.0795ZM644.236 97.1648C643.679 97.1648 643.183 97.0682 642.747 96.875C642.312 96.678 641.967 96.3883 641.713 96.0057C641.463 95.6193 641.338 95.1383 641.338 94.5625C641.338 94.0777 641.427 93.6705 641.605 93.3409C641.783 93.0114 642.026 92.7462 642.332 92.5455C642.639 92.3447 642.988 92.1932 643.378 92.0909C643.772 91.9886 644.185 91.9167 644.616 91.875C645.124 91.822 645.533 91.7727 645.844 91.7273C646.154 91.678 646.38 91.6061 646.52 91.5114C646.66 91.4167 646.73 91.2765 646.73 91.0909V91.0568C646.73 90.697 646.616 90.4186 646.389 90.2216C646.166 90.0246 645.848 89.9261 645.435 89.9261C644.999 89.9261 644.652 90.0227 644.395 90.2159C644.137 90.4053 643.967 90.6439 643.884 90.9318L641.645 90.75C641.759 90.2197 641.982 89.7614 642.315 89.375C642.649 88.9848 643.079 88.6856 643.605 88.4773C644.135 88.2652 644.749 88.1591 645.446 88.1591C645.931 88.1591 646.395 88.2159 646.838 88.3295C647.285 88.4432 647.681 88.6193 648.026 88.858C648.374 89.0966 648.649 89.4034 648.849 89.7784C649.05 90.1496 649.151 90.5947 649.151 91.1136V97H646.855V95.7898H646.787C646.647 96.0625 646.459 96.303 646.224 96.5114C645.99 96.7159 645.707 96.8769 645.378 96.9943C645.048 97.108 644.668 97.1648 644.236 97.1648ZM644.929 95.4943C645.285 95.4943 645.599 95.4242 645.872 95.2841C646.145 95.1402 646.359 94.947 646.514 94.7045C646.67 94.4621 646.747 94.1875 646.747 93.8807V92.9545C646.671 93.0038 646.567 93.0492 646.435 93.0909C646.306 93.1288 646.16 93.1648 645.997 93.1989C645.834 93.2292 645.671 93.2576 645.509 93.2841C645.346 93.3068 645.198 93.3277 645.065 93.3466C644.781 93.3883 644.533 93.4545 644.321 93.5455C644.109 93.6364 643.944 93.7595 643.827 93.9148C643.709 94.0663 643.651 94.2557 643.651 94.483C643.651 94.8125 643.77 95.0644 644.009 95.2386C644.251 95.4091 644.558 95.4943 644.929 95.4943Z" fill="black"/>
<rect x="471" y="1" width="200" height="40" rx="6" fill="#FCFCFC"/>
<rect x="471" y="1" width="200" height="40" rx="6" stroke="#AAAAAA"/>
<path d="M500.267 27.1591V25.1591H500.898C501.212 25.1591 501.466 25.1212 501.659 25.0455C501.852 24.9659 502.006 24.8504 502.119 24.6989C502.237 24.5436 502.335 24.3504 502.415 24.1193L502.557 23.7386L498.33 15.3636H500.875L503.614 21.0909L505.903 15.3636H508.415L504.403 24.7159C504.21 25.1477 503.981 25.5492 503.716 25.9205C503.455 26.2917 503.119 26.5909 502.71 26.8182C502.301 27.0455 501.778 27.1591 501.142 27.1591H500.267ZM511.815 27.1705C510.921 27.1705 510.152 26.9811 509.509 26.6023C508.868 26.2197 508.376 25.6894 508.031 25.0114C507.69 24.3333 507.52 23.553 507.52 22.6705C507.52 21.7765 507.692 20.9924 508.037 20.3182C508.385 19.6402 508.88 19.1117 509.52 18.733C510.16 18.3504 510.921 18.1591 511.804 18.1591C512.565 18.1591 513.232 18.2973 513.804 18.5739C514.376 18.8504 514.829 19.2386 515.162 19.7386C515.495 20.2386 515.679 20.8258 515.713 21.5H513.429C513.365 21.0644 513.194 20.714 512.918 20.4489C512.645 20.1799 512.287 20.0455 511.844 20.0455C511.469 20.0455 511.141 20.1477 510.861 20.3523C510.584 20.553 510.368 20.8466 510.213 21.233C510.058 21.6193 509.98 22.0871 509.98 22.6364C509.98 23.1932 510.056 23.6667 510.207 24.0568C510.363 24.447 510.58 24.7443 510.861 24.9489C511.141 25.1534 511.469 25.2557 511.844 25.2557C512.12 25.2557 512.368 25.1989 512.588 25.0852C512.812 24.9716 512.995 24.8068 513.139 24.5909C513.287 24.3712 513.384 24.108 513.429 23.8011H515.713C515.675 24.4678 515.493 25.0549 515.168 25.5625C514.846 26.0663 514.401 26.4602 513.832 26.7443C513.264 27.0284 512.592 27.1705 511.815 27.1705ZM516.668 20.1761V18.2727H524.577V20.1761H521.764V27H519.457V20.1761H516.668ZM526.044 30.2727V18.2727H528.43V19.7386H528.538C528.644 19.5038 528.798 19.2652 528.999 19.0227C529.203 18.7765 529.468 18.572 529.794 18.4091C530.124 18.2424 530.533 18.1591 531.021 18.1591C531.658 18.1591 532.245 18.3258 532.783 18.6591C533.321 18.9886 533.75 19.4867 534.072 20.1534C534.394 20.8163 534.555 21.6477 534.555 22.6477C534.555 23.6212 534.398 24.4432 534.084 25.1136C533.773 25.7803 533.349 26.286 532.811 26.6307C532.277 26.9716 531.679 27.142 531.016 27.142C530.546 27.142 530.146 27.0644 529.817 26.9091C529.491 26.7538 529.224 26.5587 529.016 26.3239C528.807 26.0852 528.648 25.8447 528.538 25.6023H528.464V30.2727H526.044ZM528.413 22.6364C528.413 23.1553 528.485 23.608 528.629 23.9943C528.773 24.3807 528.982 24.6818 529.254 24.8977C529.527 25.1098 529.858 25.2159 530.249 25.2159C530.643 25.2159 530.976 25.108 531.249 24.892C531.521 24.6723 531.728 24.3693 531.868 23.983C532.012 23.5928 532.084 23.1439 532.084 22.6364C532.084 22.1326 532.014 21.6894 531.874 21.3068C531.733 20.9242 531.527 20.625 531.254 20.4091C530.982 20.1932 530.646 20.0852 530.249 20.0852C529.855 20.0852 529.521 20.1894 529.249 20.3977C528.98 20.6061 528.773 20.9015 528.629 21.2841C528.485 21.6667 528.413 22.1174 528.413 22.6364ZM540.112 27.1705C539.23 27.1705 538.466 26.983 537.822 26.608C537.182 26.2292 536.688 25.7027 536.339 25.0284C535.991 24.3504 535.817 23.5644 535.817 22.6705C535.817 21.7689 535.991 20.9811 536.339 20.3068C536.688 19.6288 537.182 19.1023 537.822 18.7273C538.466 18.3485 539.23 18.1591 540.112 18.1591C540.995 18.1591 541.756 18.3485 542.396 18.7273C543.04 19.1023 543.536 19.6288 543.885 20.3068C544.233 20.9811 544.408 21.7689 544.408 22.6705C544.408 23.5644 544.233 24.3504 543.885 25.0284C543.536 25.7027 543.04 26.2292 542.396 26.608C541.756 26.983 540.995 27.1705 540.112 27.1705ZM540.124 25.2955C540.525 25.2955 540.86 25.1818 541.129 24.9545C541.398 24.7235 541.601 24.4091 541.737 24.0114C541.877 23.6136 541.947 23.161 541.947 22.6534C541.947 22.1458 541.877 21.6932 541.737 21.2955C541.601 20.8977 541.398 20.5833 541.129 20.3523C540.86 20.1212 540.525 20.0057 540.124 20.0057C539.718 20.0057 539.377 20.1212 539.101 20.3523C538.828 20.5833 538.622 20.8977 538.482 21.2955C538.345 21.6932 538.277 22.1458 538.277 22.6534C538.277 23.161 538.345 23.6136 538.482 24.0114C538.622 24.4091 538.828 24.7235 539.101 24.9545C539.377 25.1818 539.718 25.2955 540.124 25.2955ZM548.294 23.8068L551.436 18.2727H553.822V27H551.516V21.4489L548.385 27H545.982V18.2727H548.294V23.8068ZM551.021 15.2273H552.709C552.705 15.9167 552.449 16.4716 551.942 16.892C551.438 17.3125 550.756 17.5227 549.896 17.5227C549.033 17.5227 548.349 17.3125 547.845 16.892C547.341 16.4716 547.089 15.9167 547.089 15.2273H548.766C548.762 15.4886 548.845 15.7235 549.016 15.9318C549.19 16.1402 549.483 16.2443 549.896 16.2443C550.298 16.2443 550.586 16.142 550.76 15.9375C550.934 15.733 551.021 15.4962 551.021 15.2273ZM559.706 27.1705C558.812 27.1705 558.043 26.9811 557.399 26.6023C556.759 26.2197 556.267 25.6894 555.922 25.0114C555.581 24.3333 555.411 23.553 555.411 22.6705C555.411 21.7765 555.583 20.9924 555.928 20.3182C556.276 19.6402 556.77 19.1117 557.411 18.733C558.051 18.3504 558.812 18.1591 559.695 18.1591C560.456 18.1591 561.123 18.2973 561.695 18.5739C562.267 18.8504 562.719 19.2386 563.053 19.7386C563.386 20.2386 563.57 20.8258 563.604 21.5H561.32C561.255 21.0644 561.085 20.714 560.808 20.4489C560.536 20.1799 560.178 20.0455 559.734 20.0455C559.359 20.0455 559.032 20.1477 558.751 20.3523C558.475 20.553 558.259 20.8466 558.104 21.233C557.948 21.6193 557.871 22.0871 557.871 22.6364C557.871 23.1932 557.946 23.6667 558.098 24.0568C558.253 24.447 558.471 24.7443 558.751 24.9489C559.032 25.1534 559.359 25.2557 559.734 25.2557C560.011 25.2557 560.259 25.1989 560.479 25.0852C560.702 24.9716 560.886 24.8068 561.03 24.5909C561.178 24.3712 561.274 24.108 561.32 23.8011H563.604C563.566 24.4678 563.384 25.0549 563.058 25.5625C562.736 26.0663 562.291 26.4602 561.723 26.7443C561.155 27.0284 560.482 27.1705 559.706 27.1705ZM564.558 20.1761V18.2727H572.467V20.1761H569.655V27H567.348V20.1761H564.558ZM573.935 27V18.2727H577.656C578.732 18.2727 579.582 18.4773 580.207 18.8864C580.832 19.2955 581.145 19.8769 581.145 20.6307C581.145 21.1042 580.969 21.4981 580.616 21.8125C580.264 22.1269 579.776 22.339 579.151 22.4489C579.673 22.4867 580.118 22.6061 580.486 22.8068C580.857 23.0038 581.139 23.2595 581.332 23.5739C581.529 23.8883 581.628 24.2367 581.628 24.6193C581.628 25.1155 581.495 25.5417 581.23 25.8977C580.969 26.2538 580.584 26.5265 580.077 26.7159C579.573 26.9053 578.957 27 578.23 27H573.935ZM576.19 25.1875H578.23C578.567 25.1875 578.83 25.108 579.02 24.9489C579.213 24.786 579.31 24.5644 579.31 24.2841C579.31 23.9735 579.213 23.7292 579.02 23.5511C578.83 23.3731 578.567 23.2841 578.23 23.2841H576.19V25.1875ZM576.19 21.8636H577.707C577.95 21.8636 578.156 21.8295 578.327 21.7614C578.501 21.6894 578.634 21.5871 578.724 21.4545C578.819 21.322 578.866 21.1648 578.866 20.983C578.866 20.714 578.759 20.5038 578.543 20.3523C578.327 20.2008 578.031 20.125 577.656 20.125H576.19V21.8636ZM587.097 27.1705C586.214 27.1705 585.451 26.983 584.807 26.608C584.167 26.2292 583.672 25.7027 583.324 25.0284C582.975 24.3504 582.801 23.5644 582.801 22.6705C582.801 21.7689 582.975 20.9811 583.324 20.3068C583.672 19.6288 584.167 19.1023 584.807 18.7273C585.451 18.3485 586.214 18.1591 587.097 18.1591C587.979 18.1591 588.741 18.3485 589.381 18.7273C590.025 19.1023 590.521 19.6288 590.869 20.3068C591.218 20.9811 591.392 21.7689 591.392 22.6705C591.392 23.5644 591.218 24.3504 590.869 25.0284C590.521 25.7027 590.025 26.2292 589.381 26.608C588.741 26.983 587.979 27.1705 587.097 27.1705ZM587.108 25.2955C587.509 25.2955 587.845 25.1818 588.114 24.9545C588.383 24.7235 588.585 24.4091 588.722 24.0114C588.862 23.6136 588.932 23.161 588.932 22.6534C588.932 22.1458 588.862 21.6932 588.722 21.2955C588.585 20.8977 588.383 20.5833 588.114 20.3523C587.845 20.1212 587.509 20.0057 587.108 20.0057C586.703 20.0057 586.362 20.1212 586.085 20.3523C585.813 20.5833 585.606 20.8977 585.466 21.2955C585.33 21.6932 585.261 22.1458 585.261 22.6534C585.261 23.161 585.33 23.6136 585.466 24.0114C585.606 24.4091 585.813 24.7235 586.085 24.9545C586.362 25.1818 586.703 25.2955 587.108 25.2955ZM596.669 27V18.2727H600.391C601.466 18.2727 602.317 18.4773 602.942 18.8864C603.567 19.2955 603.879 19.8769 603.879 20.6307C603.879 21.1042 603.703 21.4981 603.351 21.8125C602.999 22.1269 602.51 22.339 601.885 22.4489C602.408 22.4867 602.853 22.6061 603.22 22.8068C603.591 23.0038 603.874 23.2595 604.067 23.5739C604.264 23.8883 604.362 24.2367 604.362 24.6193C604.362 25.1155 604.23 25.5417 603.964 25.8977C603.703 26.2538 603.319 26.5265 602.811 26.7159C602.307 26.9053 601.692 27 600.964 27H596.669ZM598.925 25.1875H600.964C601.302 25.1875 601.565 25.108 601.754 24.9489C601.947 24.786 602.044 24.5644 602.044 24.2841C602.044 23.9735 601.947 23.7292 601.754 23.5511C601.565 23.3731 601.302 23.2841 600.964 23.2841H598.925V25.1875ZM598.925 21.8636H600.442C600.684 21.8636 600.891 21.8295 601.061 21.7614C601.235 21.6894 601.368 21.5871 601.459 21.4545C601.554 21.322 601.601 21.1648 601.601 20.983C601.601 20.714 601.493 20.5038 601.277 20.3523C601.061 20.2008 600.766 20.125 600.391 20.125H598.925V21.8636ZM605.888 27V18.2727H609.609C610.685 18.2727 611.536 18.4773 612.161 18.8864C612.786 19.2955 613.098 19.8769 613.098 20.6307C613.098 21.1042 612.922 21.4981 612.57 21.8125C612.217 22.1269 611.729 22.339 611.104 22.4489C611.626 22.4867 612.071 22.6061 612.439 22.8068C612.81 23.0038 613.092 23.2595 613.286 23.5739C613.482 23.8883 613.581 24.2367 613.581 24.6193C613.581 25.1155 613.448 25.5417 613.183 25.8977C612.922 26.2538 612.537 26.5265 612.03 26.7159C611.526 26.9053 610.911 27 610.183 27H605.888ZM608.143 25.1875H610.183C610.52 25.1875 610.784 25.108 610.973 24.9489C611.166 24.786 611.263 24.5644 611.263 24.2841C611.263 23.9735 611.166 23.7292 610.973 23.5511C610.784 23.3731 610.52 23.2841 610.183 23.2841H608.143V25.1875ZM608.143 21.8636H609.661C609.903 21.8636 610.109 21.8295 610.28 21.7614C610.454 21.6894 610.587 21.5871 610.678 21.4545C610.772 21.322 610.82 21.1648 610.82 20.983C610.82 20.714 610.712 20.5038 610.496 20.3523C610.28 20.2008 609.984 20.125 609.609 20.125H608.143V21.8636ZM619.05 27.1705C618.167 27.1705 617.404 26.983 616.76 26.608C616.12 26.2292 615.625 25.7027 615.277 25.0284C614.929 24.3504 614.754 23.5644 614.754 22.6705C614.754 21.7689 614.929 20.9811 615.277 20.3068C615.625 19.6288 616.12 19.1023 616.76 18.7273C617.404 18.3485 618.167 18.1591 619.05 18.1591C619.932 18.1591 620.694 18.3485 621.334 18.7273C621.978 19.1023 622.474 19.6288 622.822 20.3068C623.171 20.9811 623.345 21.7689 623.345 22.6705C623.345 23.5644 623.171 24.3504 622.822 25.0284C622.474 25.7027 621.978 26.2292 621.334 26.608C620.694 26.983 619.932 27.1705 619.05 27.1705ZM619.061 25.2955C619.463 25.2955 619.798 25.1818 620.067 24.9545C620.336 24.7235 620.538 24.4091 620.675 24.0114C620.815 23.6136 620.885 23.161 620.885 22.6534C620.885 22.1458 620.815 21.6932 620.675 21.2955C620.538 20.8977 620.336 20.5833 620.067 20.3523C619.798 20.1212 619.463 20.0057 619.061 20.0057C618.656 20.0057 618.315 20.1212 618.038 20.3523C617.766 20.5833 617.559 20.8977 617.419 21.2955C617.283 21.6932 617.214 22.1458 617.214 22.6534C617.214 23.161 617.283 23.6136 617.419 24.0114C617.559 24.4091 617.766 24.7235 618.038 24.9545C618.315 25.1818 618.656 25.2955 619.061 25.2955ZM624.237 29.5568V25.0795H624.908C625.101 24.9583 625.256 24.7652 625.374 24.5C625.495 24.2348 625.593 23.9223 625.669 23.5625C625.749 23.2027 625.809 22.8144 625.851 22.3977C625.896 21.9773 625.936 21.553 625.97 21.125L626.197 18.2727H632.891V25.0795H634.243V29.5568H631.936V27H626.601V29.5568H624.237ZM627.317 25.0795H630.607V20.1364H628.254L628.163 21.125C628.099 22.0568 628.006 22.8485 627.885 23.5C627.764 24.1477 627.574 24.6742 627.317 25.0795ZM638.142 27.1648C637.585 27.1648 637.089 27.0682 636.653 26.875C636.218 26.678 635.873 26.3883 635.619 26.0057C635.369 25.6193 635.244 25.1383 635.244 24.5625C635.244 24.0777 635.333 23.6705 635.511 23.3409C635.689 23.0114 635.932 22.7462 636.239 22.5455C636.545 22.3447 636.894 22.1932 637.284 22.0909C637.678 21.9886 638.091 21.9167 638.523 21.875C639.03 21.822 639.439 21.7727 639.75 21.7273C640.061 21.678 640.286 21.6061 640.426 21.5114C640.566 21.4167 640.636 21.2765 640.636 21.0909V21.0568C640.636 20.697 640.523 20.4186 640.295 20.2216C640.072 20.0246 639.754 19.9261 639.341 19.9261C638.905 19.9261 638.559 20.0227 638.301 20.2159C638.044 20.4053 637.873 20.6439 637.79 20.9318L635.551 20.75C635.665 20.2197 635.888 19.7614 636.222 19.375C636.555 18.9848 636.985 18.6856 637.511 18.4773C638.042 18.2652 638.655 18.1591 639.352 18.1591C639.837 18.1591 640.301 18.2159 640.744 18.3295C641.191 18.4432 641.587 18.6193 641.932 18.858C642.28 19.0966 642.555 19.4034 642.756 19.7784C642.956 20.1496 643.057 20.5947 643.057 21.1136V27H640.761V25.7898H640.693C640.553 26.0625 640.366 26.303 640.131 26.5114C639.896 26.7159 639.614 26.8769 639.284 26.9943C638.955 27.108 638.574 27.1648 638.142 27.1648ZM638.835 25.4943C639.191 25.4943 639.506 25.4242 639.778 25.2841C640.051 25.1402 640.265 24.947 640.42 24.7045C640.576 24.4621 640.653 24.1875 640.653 23.8807V22.9545C640.578 23.0038 640.473 23.0492 640.341 23.0909C640.212 23.1288 640.066 23.1648 639.903 23.1989C639.741 23.2292 639.578 23.2576 639.415 23.2841C639.252 23.3068 639.104 23.3277 638.972 23.3466C638.688 23.3883 638.439 23.4545 638.227 23.5455C638.015 23.6364 637.85 23.7595 637.733 23.9148C637.616 24.0663 637.557 24.2557 637.557 24.483C637.557 24.8125 637.676 25.0644 637.915 25.2386C638.157 25.4091 638.464 25.4943 638.835 25.4943Z" fill="black"/>
<path d="M258.302 49.9532C258.829 49.7863 259.12 49.2242 258.953 48.6978L256.233 40.1187C256.066 39.5922 255.504 39.3008 254.978 39.4677C254.451 39.6346 254.16 40.1967 254.327 40.7232L256.745 48.349L249.119 50.767C248.592 50.9339 248.301 51.496 248.468 52.0224C248.635 52.5489 249.197 52.8404 249.723 52.6734L258.302 49.9532ZM203.698 20.0468C203.171 20.2137 202.88 20.7758 203.047 21.3022L205.767 29.8813C205.934 30.4078 206.496 30.6992 207.022 30.5323C207.549 30.3654 207.84 29.8033 207.673 29.2768L205.255 21.651L212.881 19.233C213.408 19.0661 213.699 18.504 213.532 17.9776C213.365 17.4511 212.803 17.1597 212.277 17.3266L203.698 20.0468ZM258 49L258.46 48.1122L204.46 20.1122L204 21L203.54 21.8878L257.54 49.8878L258 49Z" fill="black"/>
<path d="M203.047 90.6978C202.88 91.2242 203.171 91.7863 203.698 91.9532L212.277 94.6734C212.803 94.8404 213.365 94.5489 213.532 94.0224C213.699 93.496 213.408 92.9339 212.881 92.767L205.255 90.349L207.673 82.7232C207.84 82.1967 207.549 81.6346 207.022 81.4677C206.496 81.3008 205.934 81.5922 205.767 82.1187L203.047 90.6978ZM258.953 63.3022C259.12 62.7758 258.829 62.2137 258.302 62.0468L249.723 59.3266C249.197 59.1597 248.635 59.4511 248.468 59.9776C248.301 60.504 248.592 61.0661 249.119 61.233L256.745 63.651L254.327 71.2768C254.16 71.8033 254.451 72.3654 254.978 72.5323C255.504 72.6992 256.066 72.4078 256.233 71.8813L258.953 63.3022ZM204 91L204.46 91.8878L258.46 63.8878L258 63L257.54 62.1122L203.54 90.1122L204 91Z" fill="black"/>
<path d="M413.698 49.9532C413.171 49.7863 412.88 49.2242 413.047 48.6978L415.767 40.1187C415.934 39.5922 416.496 39.3008 417.022 39.4677C417.549 39.6346 417.84 40.1967 417.673 40.7232L415.255 48.349L422.881 50.767C423.408 50.9339 423.699 51.496 423.532 52.0224C423.365 52.5489 422.803 52.8404 422.277 52.6734L413.698 49.9532ZM467.54 20.1122C468.03 19.858 468.634 20.0494 468.888 20.5397C469.142 21.03 468.951 21.6335 468.46 21.8878L467.54 20.1122ZM414 49L413.54 48.1122L467.54 20.1122L468 21L468.46 21.8878L414.46 49.8878L414 49Z" fill="black"/>
<path d="M468.953 90.6978C469.12 91.2242 468.829 91.7863 468.302 91.9532L459.723 94.6734C459.197 94.8404 458.635 94.5489 458.468 94.0224C458.301 93.496 458.592 92.9339 459.119 92.767L466.745 90.349L464.327 82.7232C464.16 82.1967 464.451 81.6346 464.978 81.4677C465.504 81.3008 466.066 81.5922 466.233 82.1187L468.953 90.6978ZM413.54 63.8878C413.049 63.6335 412.858 63.03 413.112 62.5397C413.366 62.0494 413.97 61.858 414.46 62.1122L413.54 63.8878ZM468 91L467.54 91.8878L413.54 63.8878L414 63L414.46 62.1122L468.46 90.1122L468 91Z" fill="black"/>
</g>
<defs>
<clipPath id="clip0_1140_288">
<rect width="672" height="112" fill="white"/>
</clipPath>
</defs>
</svg>
