<svg width="502" height="225" viewBox="0 0 502 225" fill="none" xmlns="http://www.w3.org/2000/svg">
<path d="M1 1H501" stroke="#AAAAAA" stroke-linecap="round"/>
<path d="M1 19H501" stroke="#AAAAAA" stroke-linecap="round"/>
<path d="M1 37H501" stroke="#AAAAAA" stroke-linecap="round"/>
<path d="M1 55H501" stroke="#AAAAAA" stroke-linecap="round"/>
<path d="M1 73H501" stroke="#AAAAAA" stroke-linecap="round"/>
<path d="M1 91H501" stroke="#AAAAAA" stroke-linecap="round"/>
<path d="M1 109H501" stroke="#AAAAAA" stroke-linecap="round"/>
<path d="M1 127H501" stroke="#AAAAAA" stroke-linecap="round"/>
<path d="M1 145H501" stroke="#AAAAAA" stroke-linecap="round"/>
<path d="M1 163H501" stroke="#AAAAAA" stroke-linecap="round"/>
<path d="M1 181H501" stroke="#AAAAAA" stroke-linecap="round"/>
<path d="M1 199H501" stroke="#AAAAAA" stroke-linecap="round"/>
<path d="M1 217H501" stroke="#AAAAAA" stroke-linecap="round"/>
<g clip-path="url(#clip0_48_103)">
<rect x="86" y="1" width="44" height="18" rx="2" fill="white"/>
<rect x="86" y="1" width="26" height="18" stroke="#AAAAAA"/>
<path d="M95.9307 15V13.708H98.5352V6.30469H98.5283L96.04 7.93164V6.48242L98.5762 4.81445H100.005V13.708H102.363V15H95.9307Z" fill="black"/>
<rect x="112" y="1" width="18" height="18" stroke="#AAAAAA"/>
<circle cx="121" cy="10" r="2" fill="black"/>
</g>
<rect x="86" y="1" width="44" height="18" rx="2" stroke="black"/>
<g clip-path="url(#clip1_48_103)">
<rect x="117" y="91" width="44" height="18" rx="2" fill="white"/>
<rect x="117" y="91" width="26" height="18" stroke="#AAAAAA"/>
<path d="M122.419 105V103.708H125.023V96.3047H125.017L122.528 97.9316V96.4824L125.064 94.8145H126.493V103.708H128.852V105H122.419ZM131.442 105V103.708H134.047V96.3047H134.04L131.552 97.9316V96.4824L134.088 94.8145H135.517V103.708H137.875V105H131.442Z" fill="black"/>
<rect x="143" y="91" width="18" height="18" stroke="#AAAAAA"/>
<circle cx="152" cy="100" r="2" fill="black"/>
</g>
<rect x="117" y="91" width="44" height="18" rx="2" stroke="black"/>
<g clip-path="url(#clip2_48_103)">
<rect x="162" y="37" width="44" height="18" rx="2" fill="white"/>
<rect x="162" y="37" width="26" height="18" stroke="#AAAAAA"/>
<path d="M167.419 51V49.708H170.023V42.3047H170.017L167.528 43.9316V42.4824L170.064 40.8145H171.493V49.708H173.852V51H167.419ZM176.066 51V49.7969L179.73 46.5293C180.118 46.1784 180.441 45.8639 180.701 45.5859C180.961 45.3034 181.155 45.0254 181.282 44.752C181.414 44.4785 181.48 44.1709 181.48 43.8291C181.48 43.2503 181.307 42.7923 180.961 42.4551C180.615 42.1133 180.143 41.9424 179.546 41.9424C178.899 41.9424 178.395 42.1429 178.035 42.5439C177.675 42.945 177.495 43.4896 177.495 44.1777H176.08C176.08 43.4805 176.221 42.8675 176.504 42.3389C176.791 41.8102 177.192 41.3978 177.707 41.1016C178.227 40.8008 178.837 40.6504 179.539 40.6504C180.195 40.6504 180.776 40.7826 181.282 41.0469C181.788 41.3066 182.185 41.6712 182.472 42.1406C182.763 42.6055 182.909 43.1455 182.909 43.7607C182.909 44.4398 182.722 45.0527 182.349 45.5996C181.975 46.1419 181.421 46.7412 180.688 47.3975L178.131 49.6943V49.708H182.964V51H176.066Z" fill="black"/>
<rect x="188" y="37" width="18" height="18" stroke="#AAAAAA"/>
<circle cx="197" cy="46" r="2" fill="black"/>
</g>
<rect x="162" y="37" width="44" height="18" rx="2" stroke="black"/>
<g clip-path="url(#clip3_48_103)">
<rect x="44" y="145" width="44" height="18" rx="2" fill="white"/>
<rect x="44" y="145" width="26" height="18" stroke="#AAAAAA"/>
<path d="M53.5547 159V157.797L57.2188 154.529C57.6061 154.178 57.9297 153.864 58.1895 153.586C58.4492 153.303 58.6429 153.025 58.7705 152.752C58.9027 152.479 58.9688 152.171 58.9688 151.829C58.9688 151.25 58.7956 150.792 58.4492 150.455C58.1029 150.113 57.6312 149.942 57.0342 149.942C56.387 149.942 55.8835 150.143 55.5234 150.544C55.1634 150.945 54.9834 151.49 54.9834 152.178H53.5684C53.5684 151.48 53.7096 150.868 53.9922 150.339C54.2793 149.81 54.6803 149.398 55.1953 149.102C55.7148 148.801 56.3255 148.65 57.0273 148.65C57.6836 148.65 58.2646 148.783 58.7705 149.047C59.2764 149.307 59.6729 149.671 59.96 150.141C60.2516 150.605 60.3975 151.146 60.3975 151.761C60.3975 152.44 60.2106 153.053 59.8369 153.6C59.4632 154.142 58.9095 154.741 58.1758 155.397L55.6191 157.694V157.708H60.4521V159H53.5547Z" fill="black"/>
<rect x="70" y="145" width="18" height="18" stroke="#AAAAAA"/>
<circle cx="79" cy="154" r="2" fill="black"/>
</g>
<rect x="44" y="145" width="44" height="18" rx="2" stroke="black"/>
<g clip-path="url(#clip4_48_103)">
<rect x="326" y="19" width="44" height="18" rx="2" fill="white"/>
<rect x="326" y="19" width="26" height="18" stroke="#AAAAAA"/>
<path d="M339.089 33.1641C337.913 33.1641 337.002 32.738 336.354 31.8857C335.712 31.0335 335.391 29.8327 335.391 28.2832C335.391 27.1484 335.53 26.1595 335.808 25.3164C336.086 24.4733 336.507 23.8193 337.072 23.3545C337.642 22.8851 338.36 22.6504 339.226 22.6504C339.845 22.6504 340.39 22.7689 340.859 23.0059C341.333 23.2383 341.714 23.5641 342.001 23.9834C342.288 24.4027 342.461 24.8857 342.521 25.4326H341.064C340.978 24.9723 340.78 24.6055 340.47 24.332C340.164 24.0586 339.763 23.9219 339.267 23.9219C338.715 23.9219 338.257 24.0791 337.893 24.3936C337.533 24.708 337.264 25.141 337.086 25.6924C336.908 26.2438 336.819 26.8796 336.819 27.5996H336.833C337.07 27.2077 337.412 26.9001 337.858 26.6768C338.31 26.4489 338.806 26.335 339.349 26.335C339.973 26.335 340.531 26.4831 341.023 26.7793C341.516 27.071 341.903 27.472 342.186 27.9824C342.473 28.4928 342.616 29.0716 342.616 29.7188C342.616 30.3978 342.466 30.9971 342.165 31.5166C341.864 32.0316 341.447 32.4349 340.914 32.7266C340.385 33.0182 339.777 33.1641 339.089 33.1641ZM339.082 31.8857C339.469 31.8857 339.818 31.79 340.128 31.5986C340.442 31.4027 340.691 31.1429 340.873 30.8193C341.06 30.4912 341.153 30.1243 341.153 29.7188C341.153 29.3177 341.064 28.9577 340.887 28.6387C340.709 28.3151 340.465 28.0599 340.155 27.873C339.85 27.6816 339.504 27.5859 339.116 27.5859C338.729 27.5859 338.376 27.6816 338.057 27.873C337.742 28.0645 337.492 28.3219 337.305 28.6455C337.118 28.9691 337.024 29.3314 337.024 29.7324C337.024 30.1289 337.116 30.4912 337.298 30.8193C337.485 31.1429 337.733 31.4027 338.043 31.5986C338.357 31.79 338.704 31.8857 339.082 31.8857Z" fill="black"/>
<rect x="352" y="19" width="18" height="18" stroke="#AAAAAA"/>
<circle cx="361" cy="28" r="2" fill="black"/>
</g>
<rect x="326" y="19" width="44" height="18" rx="2" stroke="black"/>
<g clip-path="url(#clip5_48_103)">
<rect x="279" y="91" width="44" height="18" rx="2" fill="white"/>
<rect x="279" y="91" width="26" height="18" stroke="#AAAAAA"/>
<path d="M291.829 105.144C291.15 105.144 290.544 105.009 290.011 104.74C289.482 104.467 289.058 104.093 288.739 103.619C288.425 103.141 288.254 102.596 288.227 101.985H289.71C289.756 102.532 289.974 102.983 290.366 103.339C290.763 103.69 291.253 103.865 291.836 103.865C292.451 103.865 292.948 103.658 293.326 103.243C293.709 102.828 293.9 102.298 293.9 101.65C293.9 101.008 293.716 100.479 293.347 100.064C292.978 99.6452 292.497 99.4355 291.904 99.4355C291.385 99.4355 290.938 99.5426 290.564 99.7568C290.191 99.9665 289.931 100.272 289.785 100.673H288.356L288.691 94.8145H294.782V96.1133H290.052L289.826 99.1143H289.84C290.437 98.4808 291.2 98.1641 292.13 98.1641C292.75 98.1641 293.301 98.3145 293.784 98.6152C294.272 98.9115 294.655 99.3216 294.933 99.8457C295.215 100.365 295.356 100.958 295.356 101.623C295.356 102.311 295.208 102.92 294.912 103.448C294.62 103.977 294.21 104.392 293.682 104.692C293.153 104.993 292.535 105.144 291.829 105.144Z" fill="black"/>
<rect x="305" y="91" width="18" height="18" stroke="#AAAAAA"/>
<circle cx="314" cy="100" r="2" fill="black"/>
</g>
<rect x="279" y="91" width="44" height="18" rx="2" stroke="black"/>
<g clip-path="url(#clip6_48_103)">
<rect x="260" y="55" width="44" height="18" rx="2" fill="white"/>
<rect x="260" y="55" width="26" height="18" stroke="#AAAAAA"/>
<path d="M268.953 66.6279V65.4111L273.697 58.8145H275.557V65.3564H277.04V66.6279H275.557V69H274.114V66.6279H268.953ZM274.114 65.3564V60.4072H274.101L270.56 65.3428V65.3564H274.114Z" fill="black"/>
<rect x="286" y="55" width="18" height="18" stroke="#AAAAAA"/>
<circle cx="295" cy="64" r="2" fill="black"/>
</g>
<rect x="260" y="55" width="44" height="18" rx="2" stroke="black"/>
<g clip-path="url(#clip7_48_103)">
<rect x="194" y="127" width="44" height="18" rx="2" fill="white"/>
<rect x="194" y="127" width="26" height="18" stroke="#AAAAAA"/>
<path d="M207 141.164C206.248 141.164 205.596 141.016 205.045 140.72C204.498 140.424 204.074 140.018 203.773 139.503C203.473 138.988 203.322 138.402 203.322 137.746H204.819C204.819 138.425 205.008 138.954 205.387 139.332C205.77 139.71 206.298 139.899 206.973 139.899C207.62 139.899 208.144 139.735 208.545 139.407C208.951 139.079 209.153 138.639 209.153 138.088C209.153 137.582 208.937 137.176 208.504 136.871C208.076 136.561 207.51 136.406 206.809 136.406H205.961V135.169H206.809C207.428 135.169 207.927 135.028 208.306 134.745C208.688 134.463 208.88 134.087 208.88 133.617C208.88 133.089 208.702 132.672 208.347 132.366C207.991 132.061 207.522 131.908 206.938 131.908C206.337 131.908 205.861 132.077 205.51 132.414C205.163 132.751 204.99 133.216 204.99 133.809H203.534C203.534 133.193 203.678 132.649 203.965 132.175C204.252 131.696 204.651 131.323 205.161 131.054C205.672 130.785 206.266 130.65 206.945 130.65C207.592 130.65 208.171 130.773 208.682 131.02C209.192 131.261 209.593 131.598 209.885 132.031C210.181 132.46 210.329 132.95 210.329 133.501C210.329 134.039 210.16 134.506 209.823 134.902C209.486 135.294 209.033 135.568 208.463 135.723V135.743C209.133 135.848 209.664 136.121 210.056 136.563C210.448 137.006 210.644 137.527 210.644 138.129C210.644 138.721 210.486 139.245 210.172 139.701C209.857 140.157 209.424 140.515 208.873 140.774C208.326 141.034 207.702 141.164 207 141.164Z" fill="black"/>
<rect x="220" y="127" width="18" height="18" stroke="#AAAAAA"/>
<circle cx="229" cy="136" r="2" fill="black"/>
</g>
<rect x="194" y="127" width="44" height="18" rx="2" stroke="black"/>
<g clip-path="url(#clip8_48_103)">
<rect x="131" y="199" width="44" height="18" rx="2" fill="white"/>
<rect x="131" y="199" width="26" height="18" stroke="#AAAAAA"/>
<path d="M136.419 213V211.708H139.023V204.305H139.017L136.528 205.932V204.482L139.064 202.814H140.493V211.708H142.852V213H136.419ZM148.512 213.164C147.728 213.164 147.051 212.95 146.481 212.521C145.916 212.093 145.481 211.487 145.176 210.703C144.875 209.915 144.725 208.985 144.725 207.914C144.725 206.839 144.875 205.907 145.176 205.118C145.481 204.33 145.916 203.721 146.481 203.293C147.051 202.865 147.728 202.65 148.512 202.65C149.296 202.65 149.97 202.865 150.535 203.293C151.105 203.721 151.54 204.33 151.841 205.118C152.146 205.907 152.299 206.839 152.299 207.914C152.299 208.985 152.146 209.915 151.841 210.703C151.54 211.487 151.105 212.093 150.535 212.521C149.97 212.95 149.296 213.164 148.512 213.164ZM148.512 211.872C149.25 211.872 149.826 211.521 150.241 210.819C150.656 210.113 150.863 209.145 150.863 207.914C150.863 206.679 150.656 205.708 150.241 205.002C149.826 204.296 149.25 203.942 148.512 203.942C147.773 203.942 147.197 204.296 146.782 205.002C146.368 205.708 146.16 206.679 146.16 207.914C146.16 209.145 146.368 210.113 146.782 210.819C147.197 211.521 147.773 211.872 148.512 211.872Z" fill="black"/>
<rect x="157" y="199" width="18" height="18" stroke="#AAAAAA"/>
<circle cx="166" cy="208" r="2" fill="black"/>
</g>
<rect x="131" y="199" width="44" height="18" rx="2" stroke="black"/>
<g clip-path="url(#clip9_48_103)">
<rect x="338" y="181" width="44" height="18" rx="2" fill="white"/>
<rect x="338" y="181" width="26" height="18" stroke="#AAAAAA"/>
<path d="M350.754 195.164C350.139 195.164 349.592 195.048 349.113 194.815C348.639 194.578 348.257 194.25 347.965 193.831C347.678 193.412 347.502 192.929 347.438 192.382H348.895C348.981 192.842 349.182 193.209 349.496 193.482C349.811 193.756 350.214 193.893 350.706 193.893C351.262 193.893 351.72 193.735 352.08 193.421C352.445 193.106 352.716 192.674 352.894 192.122C353.071 191.571 353.16 190.935 353.16 190.215H353.146C352.91 190.607 352.57 190.91 352.128 191.124C351.69 191.334 351.201 191.438 350.658 191.438C350.029 191.438 349.469 191.293 348.977 191.001C348.484 190.709 348.097 190.311 347.814 189.805C347.532 189.299 347.391 188.722 347.391 188.075C347.391 187.396 347.541 186.799 347.842 186.284C348.143 185.769 348.557 185.368 349.086 185.081C349.615 184.794 350.225 184.65 350.918 184.65C352.094 184.65 353.003 185.076 353.646 185.929C354.293 186.781 354.616 187.982 354.616 189.531C354.616 190.666 354.475 191.655 354.192 192.498C353.91 193.341 353.481 193.997 352.907 194.467C352.338 194.932 351.62 195.164 350.754 195.164ZM350.884 190.181C351.271 190.181 351.622 190.087 351.937 189.9C352.256 189.714 352.508 189.461 352.695 189.142C352.882 188.818 352.976 188.458 352.976 188.062C352.976 187.66 352.884 187.3 352.702 186.981C352.52 186.658 352.271 186.403 351.957 186.216C351.647 186.024 351.301 185.929 350.918 185.929C350.535 185.929 350.187 186.024 349.872 186.216C349.558 186.403 349.307 186.658 349.12 186.981C348.938 187.305 348.847 187.67 348.847 188.075C348.847 188.476 348.936 188.836 349.113 189.155C349.296 189.47 349.539 189.72 349.845 189.907C350.155 190.09 350.501 190.181 350.884 190.181Z" fill="black"/>
<rect x="364" y="181" width="18" height="18" stroke="#AAAAAA"/>
<circle cx="373" cy="190" r="2" fill="black"/>
</g>
<rect x="338" y="181" width="44" height="18" rx="2" stroke="black"/>
<g clip-path="url(#clip10_48_103)">
<rect x="410" y="109" width="44" height="18" rx="2" fill="white"/>
<rect x="410" y="109" width="26" height="18" stroke="#AAAAAA"/>
<path d="M423 123.164C422.294 123.164 421.669 123.041 421.127 122.795C420.589 122.549 420.168 122.209 419.862 121.776C419.557 121.343 419.404 120.847 419.404 120.286C419.404 119.83 419.502 119.418 419.698 119.049C419.894 118.675 420.161 118.37 420.498 118.133C420.84 117.891 421.227 117.743 421.66 117.688C421.1 117.584 420.644 117.326 420.293 116.916C419.942 116.506 419.767 115.998 419.767 115.392C419.767 114.863 419.906 114.394 420.184 113.983C420.462 113.569 420.844 113.243 421.332 113.006C421.82 112.769 422.376 112.65 423 112.65C423.624 112.65 424.178 112.769 424.661 113.006C425.149 113.238 425.532 113.562 425.81 113.977C426.088 114.391 426.227 114.863 426.227 115.392C426.227 115.993 426.049 116.501 425.693 116.916C425.342 117.326 424.891 117.584 424.34 117.688C424.773 117.748 425.158 117.898 425.495 118.14C425.837 118.377 426.106 118.682 426.302 119.056C426.498 119.425 426.596 119.835 426.596 120.286C426.596 120.847 426.443 121.343 426.138 121.776C425.832 122.209 425.409 122.549 424.866 122.795C424.324 123.041 423.702 123.164 423 123.164ZM423 121.927C423.629 121.927 424.132 121.77 424.511 121.455C424.889 121.141 425.078 120.721 425.078 120.197C425.078 119.664 424.882 119.227 424.49 118.885C424.103 118.538 423.606 118.365 423 118.365C422.389 118.365 421.888 118.538 421.496 118.885C421.104 119.227 420.908 119.664 420.908 120.197C420.908 120.717 421.097 121.136 421.476 121.455C421.858 121.77 422.367 121.927 423 121.927ZM423 117.142C423.524 117.142 423.948 116.993 424.271 116.697C424.6 116.396 424.764 116 424.764 115.508C424.764 115.025 424.602 114.635 424.278 114.339C423.955 114.043 423.529 113.895 423 113.895C422.467 113.895 422.038 114.043 421.715 114.339C421.391 114.635 421.229 115.025 421.229 115.508C421.229 115.995 421.391 116.39 421.715 116.69C422.043 116.991 422.471 117.142 423 117.142Z" fill="black"/>
<rect x="436" y="109" width="18" height="18" stroke="#AAAAAA"/>
<circle cx="445" cy="118" r="2" fill="black"/>
</g>
<rect x="410" y="109" width="44" height="18" rx="2" stroke="black"/>
<g clip-path="url(#clip11_48_103)">
<rect x="444" y="73" width="44" height="18" rx="2" fill="white"/>
<rect x="444" y="73" width="26" height="18" stroke="#AAAAAA"/>
<path d="M454.341 87L458.825 78.1338V78.127H453.637V76.8145H460.356V78.168L455.913 87H454.341Z" fill="black"/>
<rect x="470" y="73" width="18" height="18" stroke="#AAAAAA"/>
<circle cx="479" cy="82" r="2" fill="black"/>
</g>
<rect x="444" y="73" width="44" height="18" rx="2" stroke="black"/>
<path d="M65.6464 144.354C65.8417 144.549 66.1583 144.549 66.3535 144.354L69.5355 141.172C69.7308 140.976 69.7308 140.66 69.5355 140.464C69.3403 140.269 69.0237 140.269 68.8284 140.464L66 143.293L63.1716 140.464C62.9763 140.269 62.6597 140.269 62.4645 140.464C62.2692 140.66 62.2692 140.976 62.4645 141.172L65.6464 144.354ZM121 10L120.504 9.93644C120.204 12.276 119.149 14.7698 117.49 17.5306C115.833 20.2896 113.594 23.2823 110.959 26.6199C105.698 33.2834 98.8799 41.2944 92.1463 51.4105C78.6635 71.6659 65.5 100.386 65.5 144L66 144L66.5 144C66.5 100.614 79.5864 72.0841 92.9787 51.9646C99.6826 41.8931 106.458 33.9354 111.744 27.2395C114.382 23.8974 116.655 20.8628 118.348 18.0456C120.039 15.2303 121.171 12.599 121.496 10.0636L121 10Z" fill="black"/>
<path d="M216.354 145.646C216.158 145.451 215.842 145.451 215.646 145.646L212.464 148.828C212.269 149.024 212.269 149.34 212.464 149.536C212.66 149.731 212.976 149.731 213.172 149.536L216 146.707L218.828 149.536C219.024 149.731 219.34 149.731 219.536 149.536C219.731 149.34 219.731 149.024 219.536 148.828L216.354 145.646ZM79 154C78.8713 154.483 78.8719 154.483 78.873 154.484C78.8741 154.484 78.8757 154.484 78.8778 154.485C78.8821 154.486 78.8884 154.488 78.8968 154.49C78.9136 154.494 78.9386 154.501 78.9717 154.51C79.038 154.527 79.1366 154.553 79.2667 154.587C79.5267 154.655 79.9122 154.755 80.4148 154.883C81.4199 155.14 82.8935 155.511 84.7686 155.967C88.5186 156.879 93.875 158.132 100.302 159.497C113.155 162.225 130.299 165.401 147.448 167.185C164.586 168.967 181.776 169.366 194.702 166.512C201.165 165.085 206.607 162.835 210.442 159.497C214.294 156.144 216.5 151.71 216.5 146L216 146L215.5 146C215.5 151.415 213.425 155.575 209.785 158.743C206.127 161.927 200.867 164.126 194.486 165.535C181.724 168.353 164.664 167.97 147.552 166.19C130.451 164.411 113.345 161.243 100.51 158.519C94.0937 157.157 88.747 155.906 85.0049 154.996C83.1339 154.541 81.6641 154.171 80.6624 153.915C80.1616 153.787 79.7778 153.687 79.5194 153.62C79.3902 153.586 79.2923 153.56 79.2269 153.543C79.1941 153.534 79.1695 153.528 79.1531 153.523C79.1449 153.521 79.1388 153.52 79.1347 153.518C79.1327 153.518 79.1312 153.518 79.1301 153.517C79.1292 153.517 79.1287 153.517 79 154Z" fill="black"/>
<path d="M259.354 64.3536C259.549 64.1583 259.549 63.8417 259.354 63.6464L256.172 60.4645C255.976 60.2692 255.66 60.2692 255.464 60.4645C255.269 60.6597 255.269 60.9763 255.464 61.1716L258.293 64L255.464 66.8284C255.269 67.0237 255.269 67.3403 255.464 67.5355C255.66 67.7308 255.976 67.7308 256.172 67.5355L259.354 64.3536ZM229 136C229.5 135.993 229.5 135.993 229.5 135.992C229.5 135.992 229.5 135.991 229.5 135.99C229.5 135.988 229.5 135.985 229.5 135.981C229.5 135.972 229.5 135.96 229.5 135.943C229.499 135.908 229.499 135.857 229.498 135.79C229.497 135.655 229.496 135.454 229.496 135.192C229.497 134.667 229.501 133.896 229.518 132.915C229.551 130.952 229.633 128.146 229.827 124.779C230.217 118.042 231.059 109.068 232.865 100.099C234.673 91.1215 237.439 82.1912 241.657 75.5171C245.869 68.8521 251.482 64.5 259 64.5L259 64L259 63.5C251.018 63.5 245.131 68.1479 240.812 74.9829C236.498 81.8087 233.702 90.8784 231.885 99.9012C230.066 108.932 229.22 117.957 228.829 124.721C228.633 128.104 228.551 130.923 228.518 132.898C228.501 133.885 228.497 134.661 228.496 135.191C228.496 135.456 228.497 135.659 228.498 135.797C228.499 135.866 228.499 135.918 228.5 135.953C228.5 135.971 228.5 135.984 228.5 135.993C228.5 135.997 228.5 136.001 228.5 136.003C228.5 136.004 228.5 136.005 228.5 136.006C228.5 136.007 228.5 136.007 229 136Z" fill="black"/>
<path d="M300.647 90.3536C300.842 90.5489 301.158 90.5489 301.354 90.3536L304.536 87.1716C304.731 86.9763 304.731 86.6598 304.536 86.4645C304.34 86.2692 304.024 86.2692 303.829 86.4645L301 89.2929L298.172 86.4645C297.976 86.2692 297.66 86.2693 297.465 86.4645C297.269 86.6598 297.269 86.9764 297.465 87.1716L300.647 90.3536ZM295 64.0001C294.571 64.2573 294.571 64.2572 294.571 64.2571C294.571 64.2571 294.571 64.2571 294.571 64.2572C294.571 64.2573 294.572 64.2575 294.572 64.2579C294.572 64.2588 294.573 64.2602 294.574 64.2622C294.577 64.2663 294.581 64.2728 294.586 64.2817C294.596 64.2995 294.612 64.3268 294.633 64.3637C294.675 64.4375 294.738 64.5493 294.818 64.698C294.978 64.9956 295.208 65.441 295.486 66.0266C296.041 67.1978 296.783 68.9291 297.526 71.1581C299.012 75.6164 300.5 82.0627 300.5 90L301 90L301.5 90C301.5 81.9374 299.988 75.3837 298.474 70.8419C297.717 68.5709 296.96 66.8023 296.389 65.5985C296.104 64.9966 295.866 64.5358 295.698 64.2239C295.614 64.068 295.548 63.9493 295.502 63.8688C295.479 63.8285 295.461 63.7978 295.449 63.7768C295.443 63.7663 295.438 63.7582 295.435 63.7525C295.433 63.7497 295.432 63.7474 295.431 63.7458C295.43 63.745 295.43 63.7444 295.43 63.7439C295.429 63.7436 295.429 63.7433 295.429 63.7432C295.429 63.743 295.429 63.7428 295 64.0001Z" fill="black"/>
<path d="M348.354 37.6464C348.158 37.4512 347.842 37.4512 347.646 37.6464L344.464 40.8284C344.269 41.0237 344.269 41.3403 344.464 41.5355C344.66 41.7308 344.976 41.7308 345.172 41.5355L348 38.7071L350.828 41.5355C351.024 41.7308 351.34 41.7308 351.536 41.5355C351.731 41.3403 351.731 41.0237 351.536 40.8284L348.354 37.6464ZM314 100C314.359 100.348 314.359 100.348 314.359 100.348C314.359 100.348 314.36 100.347 314.36 100.347C314.362 100.345 314.363 100.344 314.365 100.341C314.37 100.337 314.376 100.33 314.384 100.322C314.401 100.305 314.426 100.279 314.458 100.245C314.523 100.177 314.62 100.076 314.745 99.9442C314.995 99.6796 315.362 99.2887 315.829 98.782C316.762 97.7687 318.094 96.2918 319.691 94.4356C322.887 90.7236 327.147 85.4916 331.409 79.412C335.67 73.3338 339.939 66.3995 343.143 59.2834C346.346 52.1718 348.5 44.8483 348.5 38L348 38L347.5 38C347.5 44.6516 345.404 51.8282 342.232 58.8728C339.061 65.913 334.83 72.7912 330.591 78.838C326.353 84.8834 322.113 90.0889 318.934 93.7832C317.344 95.6301 316.019 97.0985 315.093 98.1047C314.63 98.6078 314.266 98.9952 314.019 99.2565C313.895 99.3872 313.8 99.4863 313.737 99.5526C313.705 99.5857 313.681 99.6107 313.665 99.6272C313.657 99.6355 313.651 99.6417 313.647 99.6458C313.645 99.6478 313.644 99.6493 313.643 99.6503C313.642 99.6508 313.642 99.6511 313.642 99.6513C313.641 99.6515 313.641 99.6516 314 100Z" fill="black"/>
<path d="M465.647 72.3535C465.842 72.5487 466.159 72.5487 466.354 72.3535L469.536 69.1715C469.731 68.9762 469.731 68.6596 469.536 68.4644C469.341 68.2691 469.024 68.2691 468.829 68.4644L466 71.2928L463.172 68.4644C462.977 68.2691 462.66 68.2691 462.465 68.4644C462.27 68.6596 462.27 68.9762 462.465 69.1715L465.647 72.3535ZM361 27.9999C361.031 28.4989 361.032 28.4989 361.032 28.4989C361.033 28.4988 361.034 28.4988 361.036 28.4987C361.039 28.4985 361.043 28.4982 361.05 28.4978C361.062 28.4971 361.081 28.496 361.106 28.4945C361.155 28.4916 361.23 28.4874 361.329 28.4821C361.526 28.4714 361.819 28.4563 362.203 28.4387C362.969 28.4036 364.094 28.3585 365.526 28.319C368.391 28.2401 372.484 28.1836 377.398 28.2733C387.226 28.4527 400.323 29.2172 413.413 31.5547C426.511 33.8936 439.558 37.8002 449.319 44.2377C459.062 50.6631 465.5 59.585 465.5 71.9999L466 71.9999L466.5 71.9999C466.5 59.1648 459.814 49.9618 449.869 43.4029C439.943 36.8559 426.74 32.9188 413.588 30.5702C400.428 28.2202 387.275 27.4534 377.416 27.2734C372.485 27.1834 368.376 27.2402 365.498 27.3194C364.06 27.3591 362.929 27.4043 362.157 27.4398C361.771 27.4575 361.475 27.4727 361.275 27.4835C361.175 27.4889 361.099 27.4933 361.048 27.4962C361.022 27.4977 361.003 27.4989 360.99 27.4996C360.983 27.5 360.978 27.5003 360.975 27.5005C360.973 27.5006 360.972 27.5007 360.971 27.5008C360.97 27.5008 360.97 27.5009 361 27.9999Z" fill="black"/>
<path d="M454.646 117.646C454.451 117.842 454.451 118.158 454.646 118.354L457.828 121.536C458.024 121.731 458.34 121.731 458.536 121.536C458.731 121.34 458.731 121.024 458.536 120.828L455.707 118L458.536 115.172C458.731 114.976 458.731 114.66 458.536 114.464C458.34 114.269 458.024 114.269 457.828 114.464L454.646 117.646ZM479 82C478.524 82.1522 478.524 82.1521 478.524 82.1522C478.524 82.1524 478.524 82.1526 478.524 82.153C478.524 82.1538 478.525 82.1551 478.525 82.157C478.526 82.1608 478.528 82.1668 478.531 82.1749C478.536 82.191 478.543 82.2157 478.553 82.2485C478.573 82.3142 478.603 82.4128 478.64 82.5421C478.714 82.8006 478.819 83.1816 478.94 83.6677C479.182 84.6401 479.489 86.0314 479.748 87.7016C480.267 91.0468 480.588 95.4877 479.82 99.9145C479.052 104.338 477.202 108.718 473.4 111.996C469.6 115.273 463.79 117.5 455 117.5L455 118L455 118.5C463.96 118.5 470.025 116.227 474.053 112.754C478.08 109.282 480.011 104.662 480.805 100.086C481.599 95.5124 481.264 90.9532 480.736 87.5484C480.472 85.8436 480.158 84.4224 479.91 83.4261C479.786 82.9278 479.678 82.5354 479.601 82.2666C479.563 82.1321 479.532 82.0286 479.51 81.9581C479.5 81.9228 479.491 81.8958 479.486 81.8774C479.483 81.8681 479.48 81.861 479.479 81.8561C479.478 81.8536 479.478 81.8517 479.477 81.8504C479.477 81.8497 479.477 81.849 479.477 81.8487C479.476 81.8482 479.476 81.8479 479 82Z" fill="black"/>
<path d="M359.647 180.354C359.842 180.549 360.158 180.549 360.354 180.354L363.536 177.172C363.731 176.976 363.731 176.66 363.536 176.465C363.34 176.269 363.024 176.269 362.829 176.465L360 179.293L357.172 176.465C356.976 176.269 356.66 176.269 356.465 176.465C356.269 176.66 356.269 176.976 356.465 177.172L359.647 180.354ZM445 118L444.5 118C444.5 127.128 439.353 132.988 431.478 137.304C423.575 141.635 413.019 144.355 402.371 147.205C391.761 150.044 381.064 153.013 373.023 157.861C364.95 162.728 359.5 169.527 359.5 180L360 180L360.5 180C360.5 169.973 365.675 163.459 373.539 158.717C381.437 153.956 391.989 151.018 402.629 148.171C413.231 145.333 423.925 142.584 431.959 138.181C440.022 133.762 445.5 127.623 445.5 118L445 118Z" fill="black"/>
<path d="M175.675 207.62C175.465 207.799 175.44 208.115 175.62 208.325L178.545 211.744C178.725 211.954 179.04 211.978 179.25 211.799C179.46 211.619 179.485 211.304 179.305 211.094L176.705 208.055L179.744 205.454C179.954 205.275 179.978 204.959 179.799 204.749C179.619 204.539 179.304 204.515 179.094 204.694L175.675 207.62ZM373 190L372.574 190.262C373.87 192.372 374.225 194.222 373.843 195.856C373.46 197.499 372.313 199.019 370.411 200.42C366.591 203.233 359.917 205.424 351.195 207.087C333.783 210.406 308.526 211.562 282.561 211.625C256.605 211.687 229.974 210.657 209.83 209.61C199.759 209.087 191.31 208.559 185.38 208.163C182.414 207.965 180.079 207.799 178.485 207.684C177.687 207.626 177.076 207.58 176.663 207.549C176.457 207.533 176.301 207.522 176.196 207.513C176.144 207.509 176.104 207.506 176.078 207.504C176.065 207.503 176.055 207.503 176.048 207.502C176.045 207.502 176.043 207.502 176.041 207.502C176.039 207.501 176.038 207.501 176 208C175.961 208.498 175.962 208.498 175.963 208.499C175.965 208.499 175.968 208.499 175.971 208.499C175.978 208.5 175.988 208.5 176.001 208.501C176.028 208.503 176.067 208.507 176.12 208.511C176.225 208.519 176.382 208.531 176.588 208.546C177.001 208.577 177.614 208.623 178.412 208.681C180.008 208.797 182.346 208.963 185.313 209.161C191.248 209.557 199.701 210.085 209.778 210.609C229.932 211.656 256.582 212.687 282.563 212.625C308.536 212.562 333.872 211.407 351.382 208.069C360.121 206.403 366.99 204.181 371.004 201.225C373.02 199.74 374.362 198.037 374.817 196.083C375.275 194.122 374.817 192.002 373.426 189.738L373 190Z" fill="black"/>
<path d="M139.354 109.646C139.158 109.451 138.842 109.451 138.647 109.646L135.465 112.828C135.269 113.024 135.269 113.34 135.465 113.535C135.66 113.731 135.976 113.731 136.172 113.535L139 110.707L141.829 113.535C142.024 113.731 142.34 113.731 142.536 113.535C142.731 113.34 142.731 113.024 142.536 112.828L139.354 109.646ZM166 208C166.438 207.759 166.438 207.759 166.438 207.758C166.438 207.758 166.437 207.757 166.437 207.757C166.436 207.755 166.435 207.753 166.434 207.75C166.43 207.745 166.426 207.736 166.419 207.724C166.407 207.701 166.387 207.666 166.362 207.62C166.312 207.526 166.236 207.387 166.138 207.202C165.941 206.834 165.653 206.286 165.285 205.57C164.549 204.139 163.497 202.039 162.233 199.365C159.707 194.016 156.338 186.374 152.969 177.203C146.229 158.854 139.5 134.417 139.5 110L139 110L138.5 110C138.5 134.583 145.271 159.146 152.031 177.547C155.412 186.751 158.793 194.422 161.329 199.792C162.598 202.477 163.655 204.587 164.395 206.027C164.766 206.748 165.057 207.3 165.256 207.673C165.355 207.859 165.432 208.001 165.483 208.096C165.509 208.144 165.529 208.18 165.542 208.204C165.548 208.216 165.553 208.225 165.557 208.232C165.559 208.235 165.56 208.237 165.561 208.239C165.561 208.239 165.562 208.24 165.562 208.241C165.562 208.241 165.562 208.241 166 208Z" fill="black"/>
<path d="M184.354 55.6464C184.158 55.4512 183.842 55.4512 183.646 55.6465L180.464 58.8284C180.269 59.0237 180.269 59.3403 180.464 59.5355C180.66 59.7308 180.976 59.7308 181.172 59.5355L184 56.7071L186.828 59.5355C187.024 59.7308 187.34 59.7308 187.536 59.5355C187.731 59.3403 187.731 59.0237 187.536 58.8284L184.354 55.6464ZM152 100C152.206 100.455 152.207 100.455 152.207 100.455C152.207 100.455 152.208 100.455 152.209 100.454C152.21 100.454 152.211 100.453 152.214 100.452C152.218 100.45 152.224 100.447 152.232 100.444C152.249 100.436 152.273 100.425 152.304 100.41C152.366 100.381 152.458 100.338 152.577 100.28C152.816 100.165 153.163 99.9925 153.605 99.7631C154.489 99.3045 155.749 98.6175 157.259 97.7009C160.28 95.8684 164.307 93.1151 168.337 89.4316C176.392 82.0693 184.5 70.9455 184.5 56L184 56L183.5 56C183.5 70.5545 175.608 81.4307 167.663 88.6934C163.693 92.3224 159.72 95.0379 156.741 96.846C155.251 97.7497 154.011 98.4259 153.145 98.8755C152.712 99.1003 152.372 99.2684 152.142 99.3799C152.026 99.4356 151.939 99.4772 151.88 99.5046C151.851 99.5184 151.829 99.5286 151.814 99.5352C151.807 99.5385 151.802 99.541 151.798 99.5425C151.796 99.5433 151.795 99.5439 151.794 99.5442C151.794 99.5444 151.794 99.5445 151.794 99.5446C151.794 99.5446 151.794 99.5446 152 100Z" fill="black"/>
<defs>
<clipPath id="clip0_48_103">
<rect x="86" y="1" width="44" height="18" rx="2" fill="white"/>
</clipPath>
<clipPath id="clip1_48_103">
<rect x="117" y="91" width="44" height="18" rx="2" fill="white"/>
</clipPath>
<clipPath id="clip2_48_103">
<rect x="162" y="37" width="44" height="18" rx="2" fill="white"/>
</clipPath>
<clipPath id="clip3_48_103">
<rect x="44" y="145" width="44" height="18" rx="2" fill="white"/>
</clipPath>
<clipPath id="clip4_48_103">
<rect x="326" y="19" width="44" height="18" rx="2" fill="white"/>
</clipPath>
<clipPath id="clip5_48_103">
<rect x="279" y="91" width="44" height="18" rx="2" fill="white"/>
</clipPath>
<clipPath id="clip6_48_103">
<rect x="260" y="55" width="44" height="18" rx="2" fill="white"/>
</clipPath>
<clipPath id="clip7_48_103">
<rect x="194" y="127" width="44" height="18" rx="2" fill="white"/>
</clipPath>
<clipPath id="clip8_48_103">
<rect x="131" y="199" width="44" height="18" rx="2" fill="white"/>
</clipPath>
<clipPath id="clip9_48_103">
<rect x="338" y="181" width="44" height="18" rx="2" fill="white"/>
</clipPath>
<clipPath id="clip10_48_103">
<rect x="410" y="109" width="44" height="18" rx="2" fill="white"/>
</clipPath>
<clipPath id="clip11_48_103">
<rect x="444" y="73" width="44" height="18" rx="2" fill="white"/>
</clipPath>
</defs>
</svg>
