<svg width="221" height="77" viewBox="0 0 221 77" fill="none" xmlns="http://www.w3.org/2000/svg">
    <path d="M2.48011 15H1.00284L5.27557 3.36364H6.73011L11.0028 15H9.52557L6.0483 5.20455H5.95739L2.48011 15ZM3.02557 10.4545H8.98011V11.7045H3.02557V10.4545Z"
          fill="black"/>
    <path d="M2.20597 44V32.3636H6.27415C7.08475 32.3636 7.75331 32.5038 8.27983 32.7841C8.80635 33.0606 9.19839 33.4337 9.45597 33.9034C9.71354 34.3693 9.84233 34.8864 9.84233 35.4545C9.84233 35.9545 9.75331 36.3674 9.57528 36.6932C9.40104 37.0189 9.16998 37.2765 8.8821 37.4659C8.59801 37.6553 8.2893 37.7955 7.95597 37.8864V38C8.31203 38.0227 8.66998 38.1477 9.02983 38.375C9.38968 38.6023 9.69081 38.928 9.93324 39.3523C10.1757 39.7765 10.2969 40.2955 10.2969 40.9091C10.2969 41.4924 10.1643 42.017 9.89915 42.483C9.634 42.9489 9.21544 43.3182 8.64347 43.5909C8.0715 43.8636 7.32718 44 6.41051 44H2.20597ZM3.61506 42.75H6.41051C7.33097 42.75 7.98438 42.572 8.37074 42.2159C8.76089 41.8561 8.95597 41.4205 8.95597 40.9091C8.95597 40.5152 8.85559 40.1515 8.65483 39.8182C8.45407 39.4811 8.16809 39.2121 7.79688 39.0114C7.42566 38.8068 6.98627 38.7045 6.47869 38.7045H3.61506V42.75ZM3.61506 37.4773H6.22869C6.65294 37.4773 7.03551 37.3939 7.37642 37.2273C7.72112 37.0606 7.99384 36.8258 8.1946 36.5227C8.39915 36.2197 8.50142 35.8636 8.50142 35.4545C8.50142 34.9432 8.32339 34.5095 7.96733 34.1534C7.61127 33.7936 7.04688 33.6136 6.27415 33.6136H3.61506V37.4773Z"
          fill="black"/>
    <path d="M10.9524 65H9.54332C9.45999 64.5947 9.31416 64.2386 9.10582 63.9318C8.90128 63.625 8.65128 63.3674 8.35582 63.1591C8.06416 62.947 7.74029 62.7879 7.38423 62.6818C7.02817 62.5758 6.65696 62.5227 6.2706 62.5227C5.56605 62.5227 4.92779 62.7008 4.35582 63.0568C3.78764 63.4129 3.33499 63.9375 2.99787 64.6307C2.66454 65.3239 2.49787 66.1742 2.49787 67.1818C2.49787 68.1894 2.66454 69.0398 2.99787 69.733C3.33499 70.4261 3.78764 70.9508 4.35582 71.3068C4.92779 71.6629 5.56605 71.8409 6.2706 71.8409C6.65696 71.8409 7.02817 71.7879 7.38423 71.6818C7.74029 71.5758 8.06416 71.4186 8.35582 71.2102C8.65128 70.9981 8.90128 70.7386 9.10582 70.4318C9.31416 70.1212 9.45999 69.7652 9.54332 69.3636H10.9524C10.8464 69.9583 10.6532 70.4905 10.3729 70.9602C10.0926 71.4299 9.74408 71.8295 9.32742 72.1591C8.91075 72.4848 8.44295 72.733 7.92401 72.9034C7.40885 73.0739 6.85772 73.1591 6.2706 73.1591C5.27817 73.1591 4.3956 72.9167 3.62287 72.4318C2.85014 71.947 2.24219 71.2576 1.79901 70.3636C1.35582 69.4697 1.13423 68.4091 1.13423 67.1818C1.13423 65.9545 1.35582 64.8939 1.79901 64C2.24219 63.1061 2.85014 62.4167 3.62287 61.9318C4.3956 61.447 5.27817 61.2045 6.2706 61.2045C6.85772 61.2045 7.40885 61.2898 7.92401 61.4602C8.44295 61.6307 8.91075 61.8807 9.32742 62.2102C9.74408 62.536 10.0926 62.9337 10.3729 63.4034C10.6532 63.8693 10.8464 64.4015 10.9524 65Z"
          fill="black"/>
    <path d="M79.5767 17.3636V29H78.1676V18.8409H78.0994L75.2585 20.7273V19.2955L78.1676 17.3636H79.5767Z"
          fill="black"/>
    <path d="M74.3608 58V56.9773L78.2017 52.7727C78.6525 52.2803 79.0237 51.8523 79.3153 51.4886C79.607 51.1212 79.8229 50.7765 79.9631 50.4545C80.107 50.1288 80.179 49.7879 80.179 49.4318C80.179 49.0227 80.0805 48.6686 79.8835 48.3693C79.6903 48.0701 79.4252 47.839 79.0881 47.6761C78.7509 47.5133 78.3722 47.4318 77.9517 47.4318C77.5047 47.4318 77.1146 47.5246 76.7812 47.7102C76.4517 47.892 76.196 48.1477 76.0142 48.4773C75.8362 48.8068 75.7472 49.1932 75.7472 49.6364H74.4062C74.4062 48.9545 74.5634 48.3561 74.8778 47.8409C75.1922 47.3258 75.6203 46.9242 76.1619 46.6364C76.7074 46.3485 77.3191 46.2045 77.9972 46.2045C78.679 46.2045 79.2831 46.3485 79.8097 46.6364C80.3362 46.9242 80.7491 47.3125 81.0483 47.8011C81.3475 48.2898 81.4972 48.8333 81.4972 49.4318C81.4972 49.8598 81.4195 50.2784 81.2642 50.6875C81.1127 51.0928 80.8475 51.5455 80.4688 52.0455C80.0938 52.5417 79.5729 53.1477 78.9062 53.8636L76.2926 56.6591V56.75H81.7017V58H74.3608Z"
          fill="black"/>
    <path d="M16.1035 8.51083C15.8333 8.45368 15.568 8.62636 15.5108 8.89652C15.4537 9.16668 15.6264 9.43202 15.8965 9.48917L16.1035 8.51083ZM68.2727 20.4191C68.5042 20.2684 68.5697 19.9587 68.4191 19.7273L65.9645 15.9556C65.8139 15.7242 65.5042 15.6587 65.2727 15.8093C65.0413 15.9599 64.9758 16.2697 65.1264 16.5011L67.3082 19.8537L63.9556 22.0355C63.7242 22.1861 63.6587 22.4958 63.8093 22.7273C63.9599 22.9587 64.2697 23.0242 64.5011 22.8736L68.2727 20.4191ZM15.8965 9.48917L67.8965 20.4892L68.1035 19.5108L16.1035 8.51083L15.8965 9.48917Z"
          fill="#666666"/>
    <path d="M16.13 37.5172C15.8633 37.4454 15.589 37.6034 15.5172 37.87C15.4454 38.1367 15.6034 38.411 15.87 38.4828L16.13 37.5172ZM68.2495 52.4333C68.4888 52.2955 68.5711 51.9898 68.4333 51.7505L66.188 47.8507C66.0502 47.6114 65.7445 47.5291 65.5052 47.6669C65.2659 47.8047 65.1836 48.1104 65.3213 48.3497L67.3172 51.8162L63.8507 53.812C63.6114 53.9498 63.5291 54.2555 63.6669 54.4948C63.8047 54.7341 64.1104 54.8164 64.3497 54.6787L68.2495 52.4333ZM15.87 38.4828L67.87 52.4828L68.13 51.5172L16.13 37.5172L15.87 38.4828Z"
          fill="#666666"/>
    <path d="M15.6904 66.6074C15.4736 66.7783 15.4364 67.0927 15.6074 67.3096C15.7783 67.5264 16.0927 67.5636 16.3096 67.3926L15.6904 66.6074ZM68.4965 26.0587C68.529 25.7845 68.333 25.5359 68.0587 25.5035L63.5899 24.9749C63.3156 24.9425 63.067 25.1385 63.0346 25.4127C63.0022 25.6869 63.1982 25.9355 63.4724 25.968L67.4447 26.4378L66.9749 30.4101C66.9424 30.6844 67.1385 30.933 67.4127 30.9654C67.6869 30.9978 67.9355 30.8018 67.968 30.5276L68.4965 26.0587ZM16.3096 67.3926L68.3096 26.3926L67.6904 25.6074L15.6904 66.6074L16.3096 67.3926Z"
          fill="#666666"/>
    <path d="M156.48 68.5H155.003L159.276 56.8636H160.73L165.003 68.5H163.526L160.048 58.7045H159.957L156.48 68.5ZM157.026 63.9545H162.98V65.2045H157.026V63.9545Z"
          fill="black"/>
    <path d="M181.206 68.5V56.8636H185.274C186.085 56.8636 186.753 57.0038 187.28 57.2841C187.806 57.5606 188.198 57.9337 188.456 58.4034C188.714 58.8693 188.842 59.3864 188.842 59.9545C188.842 60.4545 188.753 60.8674 188.575 61.1932C188.401 61.5189 188.17 61.7765 187.882 61.9659C187.598 62.1553 187.289 62.2955 186.956 62.3864V62.5C187.312 62.5227 187.67 62.6477 188.03 62.875C188.39 63.1023 188.691 63.428 188.933 63.8523C189.176 64.2765 189.297 64.7955 189.297 65.4091C189.297 65.9924 189.164 66.517 188.899 66.983C188.634 67.4489 188.215 67.8182 187.643 68.0909C187.071 68.3636 186.327 68.5 185.411 68.5H181.206ZM182.615 67.25H185.411C186.331 67.25 186.984 67.072 187.371 66.7159C187.761 66.3561 187.956 65.9205 187.956 65.4091C187.956 65.0152 187.856 64.6515 187.655 64.3182C187.454 63.9811 187.168 63.7121 186.797 63.5114C186.426 63.3068 185.986 63.2045 185.479 63.2045H182.615V67.25ZM182.615 61.9773H185.229C185.653 61.9773 186.036 61.8939 186.376 61.7273C186.721 61.5606 186.994 61.3258 187.195 61.0227C187.399 60.7197 187.501 60.3636 187.501 59.9545C187.501 59.4432 187.323 59.0095 186.967 58.6534C186.611 58.2936 186.047 58.1136 185.274 58.1136H182.615V61.9773Z"
          fill="black"/>
    <path d="M214.952 60.5H213.543C213.46 60.0947 213.314 59.7386 213.106 59.4318C212.901 59.125 212.651 58.8674 212.356 58.6591C212.064 58.447 211.74 58.2879 211.384 58.1818C211.028 58.0758 210.657 58.0227 210.271 58.0227C209.566 58.0227 208.928 58.2008 208.356 58.5568C207.788 58.9129 207.335 59.4375 206.998 60.1307C206.665 60.8239 206.498 61.6742 206.498 62.6818C206.498 63.6894 206.665 64.5398 206.998 65.233C207.335 65.9261 207.788 66.4508 208.356 66.8068C208.928 67.1629 209.566 67.3409 210.271 67.3409C210.657 67.3409 211.028 67.2879 211.384 67.1818C211.74 67.0758 212.064 66.9186 212.356 66.7102C212.651 66.4981 212.901 66.2386 213.106 65.9318C213.314 65.6212 213.46 65.2652 213.543 64.8636H214.952C214.846 65.4583 214.653 65.9905 214.373 66.4602C214.093 66.9299 213.744 67.3295 213.327 67.6591C212.911 67.9848 212.443 68.233 211.924 68.4034C211.409 68.5739 210.858 68.6591 210.271 68.6591C209.278 68.6591 208.396 68.4167 207.623 67.9318C206.85 67.447 206.242 66.7576 205.799 65.8636C205.356 64.9697 205.134 63.9091 205.134 62.6818C205.134 61.4545 205.356 60.3939 205.799 59.5C206.242 58.6061 206.85 57.9167 207.623 57.4318C208.396 56.947 209.278 56.7045 210.271 56.7045C210.858 56.7045 211.409 56.7898 211.924 56.9602C212.443 57.1307 212.911 57.3807 213.327 57.7102C213.744 58.036 214.093 58.4337 214.373 58.9034C214.653 59.3693 214.846 59.9015 214.952 60.5Z"
          fill="black"/>
    <path d="M136.361 20.5V19.4773L140.202 15.2727C140.652 14.7803 141.024 14.3523 141.315 13.9886C141.607 13.6212 141.823 13.2765 141.963 12.9545C142.107 12.6288 142.179 12.2879 142.179 11.9318C142.179 11.5227 142.08 11.1686 141.884 10.8693C141.69 10.5701 141.425 10.339 141.088 10.1761C140.751 10.0133 140.372 9.93182 139.952 9.93182C139.505 9.93182 139.115 10.0246 138.781 10.2102C138.452 10.392 138.196 10.6477 138.014 10.9773C137.836 11.3068 137.747 11.6932 137.747 12.1364H136.406C136.406 11.4545 136.563 10.8561 136.878 10.3409C137.192 9.82576 137.62 9.42424 138.162 9.13636C138.707 8.84848 139.319 8.70455 139.997 8.70455C140.679 8.70455 141.283 8.84848 141.81 9.13636C142.336 9.42424 142.749 9.8125 143.048 10.3011C143.348 10.7898 143.497 11.3333 143.497 11.9318C143.497 12.3598 143.42 12.7784 143.264 13.1875C143.113 13.5928 142.848 14.0455 142.469 14.5455C142.094 15.0417 141.573 15.6477 140.906 16.3636L138.293 19.1591V19.25H143.702V20.5H136.361Z"
          fill="black"/>
    <path d="M141.577 33.8636V45.5H140.168V35.3409H140.099L137.259 37.2273V35.7955L140.168 33.8636H141.577Z"
          fill="black"/>
    <path d="M160 49.5V4.5" stroke="#AAAAAA" stroke-linecap="round"/>
    <path d="M185 49.5V4.5" stroke="#AAAAAA" stroke-linecap="round"/>
    <path d="M210 49.5V4.5" stroke="#AAAAAA" stroke-linecap="round"/>
    <path d="M150 14.5L220 14.5" stroke="#AAAAAA" stroke-linecap="round"/>
    <path d="M150 39.5L220 39.5" stroke="#AAAAAA" stroke-linecap="round"/>
    <circle cx="160" cy="39.5" r="3" fill="black"/>
    <circle cx="185" cy="14.5" r="3" fill="black"/>
    <circle cx="210" cy="39.5" r="3" fill="black"/>
</svg>
