<svg width="790" height="187" viewBox="0 0 790 187" fill="none" xmlns="http://www.w3.org/2000/svg">
    <rect width="160" height="160" fill="white"/>
    <circle cx="80" cy="80" r="75" fill="#0078FC" fill-opacity="0.2" stroke="#0078FC"/>
    <circle cx="80" cy="80" r="2" fill="black"/>
    <path d="M13.5914 184V173.818H19.7362V174.912H14.8243V178.352H19.4181V179.446H14.8243V182.906H19.8158V184H13.5914ZM21.7994 184V176.364H24.9216C25.7436 176.364 26.3965 176.549 26.8804 176.92C27.3643 177.292 27.6063 177.782 27.6063 178.392C27.6063 178.856 27.4687 179.216 27.1936 179.471C26.9185 179.723 26.5655 179.893 26.1347 179.983C26.4164 180.023 26.6898 180.122 26.955 180.281C27.2235 180.44 27.4455 180.659 27.6212 180.938C27.7968 181.213 27.8847 181.551 27.8847 181.952C27.8847 182.343 27.7852 182.692 27.5864 183.001C27.3875 183.309 27.1025 183.553 26.7313 183.732C26.3601 183.911 25.9159 184 25.3989 184H21.7994ZM22.9131 182.926H25.3989C25.8032 182.926 26.1198 182.83 26.3485 182.638C26.5771 182.446 26.6915 182.184 26.6915 181.852C26.6915 181.458 26.5771 181.148 26.3485 180.923C26.1198 180.694 25.8032 180.58 25.3989 180.58H22.9131V182.926ZM22.9131 179.565H24.9216C25.2365 179.565 25.5066 179.522 25.732 179.436C25.9574 179.347 26.1297 179.221 26.249 179.058C26.3717 178.893 26.433 178.697 26.433 178.472C26.433 178.15 26.2987 177.898 26.0303 177.716C25.7618 177.53 25.3923 177.438 24.9216 177.438H22.9131V179.565ZM29.6608 184V176.364H30.8341V179.685H31.6096L34.354 176.364H35.8653L32.7829 180.043L35.9051 184H34.3937L31.8881 180.778H30.8341V184H29.6608ZM36.5042 184V182.906H36.7826C37.0113 182.906 37.2019 182.862 37.3543 182.772C37.5068 182.679 37.6294 182.518 37.7222 182.29C37.8183 182.058 37.8912 181.736 37.941 181.325C37.994 180.911 38.0321 180.384 38.0553 179.744L38.1945 176.364H43.2854V184H42.1121V177.457H39.3081L39.1888 180.182C39.1623 180.808 39.106 181.36 39.0198 181.837C38.9369 182.311 38.8093 182.709 38.637 183.031C38.468 183.352 38.2426 183.594 37.9608 183.756C37.6791 183.919 37.3261 184 36.9019 184H36.5042ZM46.6114 182.27L50.2904 176.364H51.6427V184H50.4694V178.094L46.8103 184H45.4381V176.364H46.6114V182.27ZM52.9763 186.188V182.906H53.6127C53.7684 182.744 53.9027 182.568 54.0154 182.379C54.128 182.19 54.2258 181.967 54.3087 181.708C54.3949 181.446 54.4678 181.128 54.5274 180.754C54.5871 180.376 54.6401 179.92 54.6865 179.386L54.945 176.364H59.7973V182.906H60.9706V186.188H59.7973V184H54.1496V186.188H52.9763ZM54.945 182.906H58.624V177.457H56.0388L55.8399 179.386C55.7571 180.185 55.6543 180.883 55.5317 181.479C55.4091 182.076 55.2135 182.552 54.945 182.906ZM65.6302 184.159C64.9408 184.159 64.336 183.995 63.8156 183.667C63.2986 183.339 62.8942 182.88 62.6025 182.29C62.3142 181.7 62.17 181.01 62.17 180.222C62.17 179.426 62.3142 178.732 62.6025 178.138C62.8942 177.545 63.2986 177.085 63.8156 176.756C64.336 176.428 64.9408 176.264 65.6302 176.264C66.3196 176.264 66.9229 176.428 67.4399 176.756C67.9603 177.085 68.3646 177.545 68.653 178.138C68.9446 178.732 69.0905 179.426 69.0905 180.222C69.0905 181.01 68.9446 181.7 68.653 182.29C68.3646 182.88 67.9603 183.339 67.4399 183.667C66.9229 183.995 66.3196 184.159 65.6302 184.159ZM65.6302 183.105C66.1539 183.105 66.5848 182.971 66.9229 182.702C67.2609 182.434 67.5112 182.081 67.6736 181.643C67.836 181.206 67.9172 180.732 67.9172 180.222C67.9172 179.711 67.836 179.236 67.6736 178.795C67.5112 178.354 67.2609 177.998 66.9229 177.726C66.5848 177.454 66.1539 177.318 65.6302 177.318C65.1066 177.318 64.6757 177.454 64.3376 177.726C63.9996 177.998 63.7493 178.354 63.5869 178.795C63.4245 179.236 63.3433 179.711 63.3433 180.222C63.3433 180.732 63.4245 181.206 63.5869 181.643C63.7493 182.081 63.9996 182.434 64.3376 182.702C64.6757 182.971 65.1066 183.105 65.6302 183.105ZM70.8815 184V176.364H74.0036C74.8256 176.364 75.4785 176.549 75.9624 176.92C76.4463 177.292 76.6883 177.782 76.6883 178.392C76.6883 178.856 76.5508 179.216 76.2757 179.471C76.0006 179.723 75.6476 179.893 75.2167 179.983C75.4984 180.023 75.7719 180.122 76.037 180.281C76.3055 180.44 76.5276 180.659 76.7032 180.938C76.8789 181.213 76.9667 181.551 76.9667 181.952C76.9667 182.343 76.8673 182.692 76.6684 183.001C76.4695 183.309 76.1845 183.553 75.8133 183.732C75.4421 183.911 74.998 184 74.4809 184H70.8815ZM71.9951 182.926H74.4809C74.8853 182.926 75.2018 182.83 75.4305 182.638C75.6592 182.446 75.7735 182.184 75.7735 181.852C75.7735 181.458 75.6592 181.148 75.4305 180.923C75.2018 180.694 74.8853 180.58 74.4809 180.58H71.9951V182.926ZM71.9951 179.565H74.0036C74.3185 179.565 74.5886 179.522 74.814 179.436C75.0394 179.347 75.2117 179.221 75.3311 179.058C75.4537 178.893 75.515 178.697 75.515 178.472C75.515 178.15 75.3808 177.898 75.1123 177.716C74.8438 177.53 74.4743 177.438 74.0036 177.438H71.9951V179.565ZM80.99 184.179C80.5061 184.179 80.0669 184.088 79.6725 183.906C79.2781 183.72 78.9649 183.453 78.7329 183.105C78.5009 182.754 78.3849 182.33 78.3849 181.832C78.3849 181.395 78.471 181.04 78.6434 180.768C78.8157 180.493 79.0461 180.278 79.3344 180.122C79.6228 179.966 79.941 179.85 80.289 179.774C80.6403 179.695 80.9933 179.632 81.3479 179.585C81.8119 179.526 82.1881 179.481 82.4765 179.451C82.7681 179.418 82.9803 179.363 83.1128 179.287C83.2487 179.211 83.3167 179.078 83.3167 178.889V178.849C83.3167 178.359 83.1824 177.978 82.914 177.706C82.6488 177.434 82.2461 177.298 81.7059 177.298C81.1457 177.298 80.7066 177.421 80.3884 177.666C80.0702 177.911 79.8465 178.173 79.7172 178.452L78.6036 178.054C78.8025 177.59 79.0676 177.229 79.3991 176.97C79.7338 176.708 80.0984 176.526 80.4928 176.423C80.8905 176.317 81.2816 176.264 81.6661 176.264C81.9114 176.264 82.1931 176.294 82.5113 176.354C82.8328 176.41 83.1427 176.528 83.441 176.707C83.7426 176.886 83.9928 177.156 84.1917 177.517C84.3905 177.878 84.49 178.362 84.49 178.969V184H83.3167V182.966H83.257C83.1775 183.132 83.0449 183.309 82.8593 183.498C82.6737 183.687 82.4268 183.848 82.1185 183.98C81.8103 184.113 81.4341 184.179 80.99 184.179ZM81.1689 183.125C81.633 183.125 82.0241 183.034 82.3422 182.852C82.6637 182.669 82.9057 182.434 83.0681 182.146C83.2338 181.857 83.3167 181.554 83.3167 181.236V180.162C83.267 180.222 83.1576 180.276 82.9885 180.326C82.8228 180.372 82.6306 180.414 82.4118 180.45C82.1964 180.483 81.9859 180.513 81.7805 180.54C81.5783 180.563 81.4142 180.583 81.2883 180.599C80.9833 180.639 80.6983 180.704 80.4331 180.793C80.1713 180.879 79.9592 181.01 79.7968 181.186C79.6377 181.358 79.5581 181.594 79.5581 181.892C79.5581 182.3 79.709 182.608 80.0106 182.817C80.3155 183.022 80.7016 183.125 81.1689 183.125ZM94.7451 182.409L97.4099 176.364H98.5235L95.2224 184H94.2678L91.0264 176.364H92.1201L94.7451 182.409ZM91.7423 176.364V184H90.569V176.364H91.7423ZM97.748 184V176.364H98.9213V184H97.748ZM104.271 184.159C103.535 184.159 102.9 183.997 102.367 183.672C101.836 183.344 101.427 182.886 101.139 182.3C100.854 181.71 100.711 181.024 100.711 180.241C100.711 179.459 100.854 178.77 101.139 178.173C101.427 177.573 101.828 177.106 102.342 176.771C102.859 176.433 103.462 176.264 104.151 176.264C104.549 176.264 104.942 176.33 105.33 176.463C105.717 176.596 106.07 176.811 106.389 177.109C106.707 177.404 106.96 177.795 107.149 178.283C107.338 178.77 107.433 179.37 107.433 180.082V180.58H101.546V179.565H106.239C106.239 179.134 106.153 178.75 105.981 178.412C105.812 178.074 105.57 177.807 105.255 177.612C104.944 177.416 104.576 177.318 104.151 177.318C103.684 177.318 103.28 177.434 102.938 177.666C102.6 177.895 102.34 178.193 102.158 178.561C101.975 178.929 101.884 179.323 101.884 179.744V180.42C101.884 180.997 101.984 181.486 102.183 181.887C102.385 182.285 102.665 182.588 103.023 182.797C103.381 183.002 103.797 183.105 104.271 183.105C104.579 183.105 104.857 183.062 105.106 182.976C105.358 182.886 105.575 182.754 105.757 182.578C105.939 182.399 106.08 182.177 106.18 181.912L107.313 182.23C107.194 182.615 106.993 182.953 106.712 183.244C106.43 183.533 106.082 183.758 105.668 183.92C105.253 184.08 104.788 184.159 104.271 184.159ZM108.506 177.457V176.364H114.711V177.457H112.205V184H111.032V177.457H108.506ZM116.422 186.864V176.364H117.556V177.577H117.695C117.781 177.444 117.901 177.275 118.053 177.07C118.209 176.861 118.431 176.675 118.719 176.513C119.011 176.347 119.405 176.264 119.903 176.264C120.546 176.264 121.112 176.425 121.603 176.746C122.093 177.068 122.476 177.524 122.751 178.114C123.026 178.704 123.164 179.4 123.164 180.202C123.164 181.01 123.026 181.711 122.751 182.305C122.476 182.895 122.095 183.352 121.608 183.677C121.121 183.998 120.559 184.159 119.922 184.159C119.432 184.159 119.039 184.078 118.744 183.915C118.449 183.75 118.222 183.562 118.063 183.354C117.904 183.142 117.781 182.966 117.695 182.827H117.596V186.864H116.422ZM117.576 180.182C117.576 180.759 117.66 181.267 117.829 181.708C117.998 182.146 118.245 182.489 118.57 182.737C118.895 182.982 119.293 183.105 119.763 183.105C120.254 183.105 120.663 182.976 120.991 182.717C121.323 182.455 121.571 182.104 121.737 181.663C121.906 181.219 121.991 180.725 121.991 180.182C121.991 179.645 121.908 179.161 121.742 178.73C121.58 178.296 121.333 177.953 121.001 177.701C120.673 177.446 120.261 177.318 119.763 177.318C119.286 177.318 118.885 177.439 118.56 177.681C118.235 177.92 117.99 178.254 117.824 178.685C117.659 179.113 117.576 179.612 117.576 180.182ZM126.127 182.27L129.806 176.364H131.158V184H129.985V178.094L126.326 184H124.954V176.364H126.127V182.27ZM133.307 184V176.364H134.481V179.685H135.256L138 176.364H139.512L136.429 180.043L139.552 184H138.04L135.535 180.778H134.481V184H133.307ZM143.074 184.179C142.59 184.179 142.151 184.088 141.756 183.906C141.362 183.72 141.049 183.453 140.817 183.105C140.585 182.754 140.469 182.33 140.469 181.832C140.469 181.395 140.555 181.04 140.727 180.768C140.9 180.493 141.13 180.278 141.418 180.122C141.707 179.966 142.025 179.85 142.373 179.774C142.724 179.695 143.077 179.632 143.432 179.585C143.896 179.526 144.272 179.481 144.56 179.451C144.852 179.418 145.064 179.363 145.197 179.287C145.333 179.211 145.401 179.078 145.401 178.889V178.849C145.401 178.359 145.266 177.978 144.998 177.706C144.733 177.434 144.33 177.298 143.79 177.298C143.23 177.298 142.791 177.421 142.472 177.666C142.154 177.911 141.93 178.173 141.801 178.452L140.688 178.054C140.886 177.59 141.152 177.229 141.483 176.97C141.818 176.708 142.182 176.526 142.577 176.423C142.975 176.317 143.366 176.264 143.75 176.264C143.995 176.264 144.277 176.294 144.595 176.354C144.917 176.41 145.227 176.528 145.525 176.707C145.827 176.886 146.077 177.156 146.276 177.517C146.475 177.878 146.574 178.362 146.574 178.969V184H145.401V182.966H145.341C145.261 183.132 145.129 183.309 144.943 183.498C144.758 183.687 144.511 183.848 144.203 183.98C143.894 184.113 143.518 184.179 143.074 184.179ZM143.253 183.125C143.717 183.125 144.108 183.034 144.426 182.852C144.748 182.669 144.99 182.434 145.152 182.146C145.318 181.857 145.401 181.554 145.401 181.236V180.162C145.351 180.222 145.242 180.276 145.073 180.326C144.907 180.372 144.715 180.414 144.496 180.45C144.28 180.483 144.07 180.513 143.864 180.54C143.662 180.563 143.498 180.583 143.372 180.599C143.067 180.639 142.782 180.704 142.517 180.793C142.255 180.879 142.043 181.01 141.881 181.186C141.722 181.358 141.642 181.594 141.642 181.892C141.642 182.3 141.793 182.608 142.095 182.817C142.399 183.022 142.786 183.125 143.253 183.125Z"
          fill="black"/>
    <rect width="160" height="160" transform="translate(210)" fill="white"/>
    <rect x="225" y="15" width="130" height="130" rx="50" fill="#0078FC" fill-opacity="0.2" stroke="#0078FC"/>
    <circle cx="290" cy="80" r="2" fill="black"/>
    <path d="M220.342 186.864V176.364H221.476V177.577H221.615C221.701 177.444 221.821 177.275 221.973 177.07C222.129 176.861 222.351 176.675 222.639 176.513C222.931 176.347 223.325 176.264 223.823 176.264C224.466 176.264 225.032 176.425 225.523 176.746C226.013 177.068 226.396 177.524 226.671 178.114C226.946 178.704 227.084 179.4 227.084 180.202C227.084 181.01 226.946 181.711 226.671 182.305C226.396 182.895 226.015 183.352 225.528 183.677C225.041 183.998 224.479 184.159 223.842 184.159C223.352 184.159 222.959 184.078 222.664 183.915C222.369 183.75 222.142 183.562 221.983 183.354C221.824 183.142 221.701 182.966 221.615 182.827H221.516V186.864H220.342ZM221.496 180.182C221.496 180.759 221.58 181.267 221.749 181.708C221.918 182.146 222.165 182.489 222.49 182.737C222.815 182.982 223.213 183.105 223.683 183.105C224.174 183.105 224.583 182.976 224.911 182.717C225.243 182.455 225.491 182.104 225.657 181.663C225.826 181.219 225.911 180.725 225.911 180.182C225.911 179.645 225.828 179.161 225.662 178.73C225.5 178.296 225.253 177.953 224.921 177.701C224.593 177.446 224.18 177.318 223.683 177.318C223.206 177.318 222.805 177.439 222.48 177.681C222.155 177.92 221.91 178.254 221.744 178.685C221.579 179.113 221.496 179.612 221.496 180.182ZM233.249 179.088V180.182H228.794V179.088H233.249ZM239.489 182.409L242.154 176.364H243.268L239.967 184H239.012L235.771 176.364H236.864L239.489 182.409ZM236.486 176.364V184H235.313V176.364H236.486ZM242.492 184V176.364H243.665V184H242.492ZM249.015 184.159C248.279 184.159 247.644 183.997 247.111 183.672C246.58 183.344 246.171 182.886 245.883 182.3C245.598 181.71 245.455 181.024 245.455 180.241C245.455 179.459 245.598 178.77 245.883 178.173C246.171 177.573 246.572 177.106 247.086 176.771C247.603 176.433 248.206 176.264 248.896 176.264C249.293 176.264 249.686 176.33 250.074 176.463C250.462 176.596 250.815 176.811 251.133 177.109C251.451 177.404 251.704 177.795 251.893 178.283C252.082 178.77 252.177 179.37 252.177 180.082V180.58H246.29V179.565H250.984C250.984 179.134 250.897 178.75 250.725 178.412C250.556 178.074 250.314 177.807 249.999 177.612C249.688 177.416 249.32 177.318 248.896 177.318C248.428 177.318 248.024 177.434 247.682 177.666C247.344 177.895 247.084 178.193 246.902 178.561C246.72 178.929 246.628 179.323 246.628 179.744V180.42C246.628 180.997 246.728 181.486 246.927 181.887C247.129 182.285 247.409 182.588 247.767 182.797C248.125 183.002 248.541 183.105 249.015 183.105C249.323 183.105 249.601 183.062 249.85 182.976C250.102 182.886 250.319 182.754 250.501 182.578C250.684 182.399 250.824 182.177 250.924 181.912L252.057 182.23C251.938 182.615 251.738 182.953 251.456 183.244C251.174 183.533 250.826 183.758 250.412 183.92C249.998 184.08 249.532 184.159 249.015 184.159ZM253.251 177.457V176.364H259.455V177.457H256.949V184H255.776V177.457H253.251ZM261.167 186.864V176.364H262.3V177.577H262.439C262.526 177.444 262.645 177.275 262.797 177.07C262.953 176.861 263.175 176.675 263.464 176.513C263.755 176.347 264.15 176.264 264.647 176.264C265.29 176.264 265.857 176.425 266.347 176.746C266.838 177.068 267.22 177.524 267.495 178.114C267.771 178.704 267.908 179.4 267.908 180.202C267.908 181.01 267.771 181.711 267.495 182.305C267.22 182.895 266.839 183.352 266.352 183.677C265.865 183.998 265.303 184.159 264.667 184.159C264.176 184.159 263.783 184.078 263.488 183.915C263.193 183.75 262.966 183.562 262.807 183.354C262.648 183.142 262.526 182.966 262.439 182.827H262.34V186.864H261.167ZM262.32 180.182C262.32 180.759 262.405 181.267 262.574 181.708C262.743 182.146 262.99 182.489 263.314 182.737C263.639 182.982 264.037 183.105 264.508 183.105C264.998 183.105 265.407 182.976 265.736 182.717C266.067 182.455 266.316 182.104 266.481 181.663C266.65 181.219 266.735 180.725 266.735 180.182C266.735 179.645 266.652 179.161 266.486 178.73C266.324 178.296 266.077 177.953 265.745 177.701C265.417 177.446 265.005 177.318 264.508 177.318C264.03 177.318 263.629 177.439 263.304 177.681C262.98 177.92 262.734 178.254 262.569 178.685C262.403 179.113 262.32 179.612 262.32 180.182ZM270.871 182.27L274.55 176.364H275.902V184H274.729V178.094L271.07 184H269.698V176.364H270.871V182.27ZM278.051 184V176.364H279.225V179.685H280L282.745 176.364H284.256L281.174 180.043L284.296 184H282.784L280.279 180.778H279.225V184H278.051ZM287.818 184.179C287.334 184.179 286.895 184.088 286.501 183.906C286.106 183.72 285.793 183.453 285.561 183.105C285.329 182.754 285.213 182.33 285.213 181.832C285.213 181.395 285.299 181.04 285.472 180.768C285.644 180.493 285.874 180.278 286.163 180.122C286.451 179.966 286.769 179.85 287.117 179.774C287.468 179.695 287.821 179.632 288.176 179.585C288.64 179.526 289.016 179.481 289.305 179.451C289.596 179.418 289.808 179.363 289.941 179.287C290.077 179.211 290.145 179.078 290.145 178.889V178.849C290.145 178.359 290.011 177.978 289.742 177.706C289.477 177.434 289.074 177.298 288.534 177.298C287.974 177.298 287.535 177.421 287.217 177.666C286.898 177.911 286.675 178.173 286.545 178.452L285.432 178.054C285.631 177.59 285.896 177.229 286.227 176.97C286.562 176.708 286.927 176.526 287.321 176.423C287.719 176.317 288.11 176.264 288.494 176.264C288.739 176.264 289.021 176.294 289.339 176.354C289.661 176.41 289.971 176.528 290.269 176.707C290.571 176.886 290.821 177.156 291.02 177.517C291.219 177.878 291.318 178.362 291.318 178.969V184H290.145V182.966H290.085C290.006 183.132 289.873 183.309 289.687 183.498C289.502 183.687 289.255 183.848 288.947 183.98C288.638 184.113 288.262 184.179 287.818 184.179ZM287.997 183.125C288.461 183.125 288.852 183.034 289.17 182.852C289.492 182.669 289.734 182.434 289.896 182.146C290.062 181.857 290.145 181.554 290.145 181.236V180.162C290.095 180.222 289.986 180.276 289.817 180.326C289.651 180.372 289.459 180.414 289.24 180.45C289.025 180.483 288.814 180.513 288.609 180.54C288.406 180.563 288.242 180.583 288.116 180.599C287.811 180.639 287.526 180.704 287.261 180.793C286.999 180.879 286.787 181.01 286.625 181.186C286.466 181.358 286.386 181.594 286.386 181.892C286.386 182.3 286.537 182.608 286.839 182.817C287.144 183.022 287.53 183.125 287.997 183.125ZM303.701 173.818V174.912H298.789V184H297.556V173.818H303.701ZM307.544 184.159C306.808 184.159 306.174 183.997 305.64 183.672C305.11 183.344 304.7 182.886 304.412 182.3C304.127 181.71 303.984 181.024 303.984 180.241C303.984 179.459 304.127 178.77 304.412 178.173C304.7 177.573 305.101 177.106 305.615 176.771C306.132 176.433 306.735 176.264 307.425 176.264C307.823 176.264 308.215 176.33 308.603 176.463C308.991 176.596 309.344 176.811 309.662 177.109C309.98 177.404 310.234 177.795 310.423 178.283C310.612 178.77 310.706 179.37 310.706 180.082V180.58H304.82V179.565H309.513C309.513 179.134 309.427 178.75 309.254 178.412C309.085 178.074 308.843 177.807 308.528 177.612C308.217 177.416 307.849 177.318 307.425 177.318C306.957 177.318 306.553 177.434 306.212 177.666C305.874 177.895 305.613 178.193 305.431 178.561C305.249 178.929 305.158 179.323 305.158 179.744V180.42C305.158 180.997 305.257 181.486 305.456 181.887C305.658 182.285 305.938 182.588 306.296 182.797C306.654 183.002 307.07 183.105 307.544 183.105C307.852 183.105 308.131 183.062 308.379 182.976C308.631 182.886 308.848 182.754 309.031 182.578C309.213 182.399 309.354 182.177 309.453 181.912L310.587 182.23C310.467 182.615 310.267 182.953 309.985 183.244C309.703 183.533 309.355 183.758 308.941 183.92C308.527 184.08 308.061 184.159 307.544 184.159ZM305.933 175.091C305.725 175.091 305.539 175.011 305.377 174.852C305.217 174.69 305.138 174.504 305.138 174.295C305.138 174.067 305.217 173.878 305.377 173.729C305.539 173.576 305.725 173.5 305.933 173.5C306.162 173.5 306.351 173.576 306.5 173.729C306.653 173.878 306.729 174.067 306.729 174.295C306.729 174.504 306.653 174.69 306.5 174.852C306.351 175.011 306.162 175.091 305.933 175.091ZM308.797 175.091C308.588 175.091 308.403 175.011 308.24 174.852C308.081 174.69 308.002 174.504 308.002 174.295C308.002 174.067 308.081 173.878 308.24 173.729C308.403 173.576 308.588 173.5 308.797 173.5C309.026 173.5 309.215 173.576 309.364 173.729C309.516 173.878 309.592 174.067 309.592 174.295C309.592 174.504 309.516 174.69 309.364 174.852C309.215 175.011 309.026 175.091 308.797 175.091ZM311.815 184V182.906H312.093C312.322 182.906 312.512 182.862 312.665 182.772C312.817 182.679 312.94 182.518 313.033 182.29C313.129 182.058 313.202 181.736 313.252 181.325C313.305 180.911 313.343 180.384 313.366 179.744L313.505 176.364H318.596V184H317.423V177.457H314.619L314.499 180.182C314.473 180.808 314.417 181.36 314.33 181.837C314.247 182.311 314.12 182.709 313.948 183.031C313.778 183.352 313.553 183.594 313.271 183.756C312.99 183.919 312.637 184 312.212 184H311.815ZM321.763 179.128H323.95C324.845 179.128 325.53 179.355 326.004 179.809C326.478 180.263 326.715 180.838 326.715 181.534C326.715 181.991 326.609 182.407 326.396 182.782C326.184 183.153 325.873 183.45 325.462 183.672C325.051 183.891 324.547 184 323.95 184H320.749V176.364H321.922V182.906H323.95C324.414 182.906 324.796 182.784 325.094 182.538C325.392 182.293 325.541 181.978 325.541 181.594C325.541 181.189 325.392 180.86 325.094 180.604C324.796 180.349 324.414 180.222 323.95 180.222H321.763V179.128ZM327.685 186.188V182.906H328.322C328.477 182.744 328.612 182.568 328.724 182.379C328.837 182.19 328.935 181.967 329.018 181.708C329.104 181.446 329.177 181.128 329.236 180.754C329.296 180.376 329.349 179.92 329.396 179.386L329.654 176.364H334.506V182.906H335.68V186.188H334.506V184H328.859V186.188H327.685ZM329.654 182.906H333.333V177.457H330.748L330.549 179.386C330.466 180.185 330.363 180.883 330.241 181.479C330.118 182.076 329.922 182.552 329.654 182.906ZM340.439 184.159C339.703 184.159 339.068 183.997 338.535 183.672C338.004 183.344 337.595 182.886 337.307 182.3C337.022 181.71 336.879 181.024 336.879 180.241C336.879 179.459 337.022 178.77 337.307 178.173C337.595 177.573 337.996 177.106 338.51 176.771C339.027 176.433 339.63 176.264 340.319 176.264C340.717 176.264 341.11 176.33 341.498 176.463C341.885 176.596 342.238 176.811 342.557 177.109C342.875 177.404 343.128 177.795 343.317 178.283C343.506 178.77 343.601 179.37 343.601 180.082V180.58H337.714V179.565H342.407C342.407 179.134 342.321 178.75 342.149 178.412C341.98 178.074 341.738 177.807 341.423 177.612C341.111 177.416 340.744 177.318 340.319 177.318C339.852 177.318 339.448 177.434 339.106 177.666C338.768 177.895 338.508 178.193 338.326 178.561C338.143 178.929 338.052 179.323 338.052 179.744V180.42C338.052 180.997 338.152 181.486 338.351 181.887C338.553 182.285 338.833 182.588 339.191 182.797C339.549 183.002 339.965 183.105 340.439 183.105C340.747 183.105 341.025 183.062 341.274 182.976C341.526 182.886 341.743 182.754 341.925 182.578C342.107 182.399 342.248 182.177 342.348 181.912L343.481 182.23C343.362 182.615 343.161 182.953 342.88 183.244C342.598 183.533 342.25 183.758 341.836 183.92C341.421 184.08 340.956 184.159 340.439 184.159ZM345.385 186.864V176.364H346.519V177.577H346.658C346.744 177.444 346.864 177.275 347.016 177.07C347.172 176.861 347.394 176.675 347.682 176.513C347.974 176.347 348.368 176.264 348.866 176.264C349.508 176.264 350.075 176.425 350.566 176.746C351.056 177.068 351.439 177.524 351.714 178.114C351.989 178.704 352.127 179.4 352.127 180.202C352.127 181.01 351.989 181.711 351.714 182.305C351.439 182.895 351.058 183.352 350.571 183.677C350.084 183.998 349.522 184.159 348.885 184.159C348.395 184.159 348.002 184.078 347.707 183.915C347.412 183.75 347.185 183.562 347.026 183.354C346.867 183.142 346.744 182.966 346.658 182.827H346.559V186.864H345.385ZM346.539 180.182C346.539 180.759 346.623 181.267 346.792 181.708C346.961 182.146 347.208 182.489 347.533 182.737C347.858 182.982 348.256 183.105 348.726 183.105C349.217 183.105 349.626 182.976 349.954 182.717C350.286 182.455 350.534 182.104 350.7 181.663C350.869 181.219 350.954 180.725 350.954 180.182C350.954 179.645 350.871 179.161 350.705 178.73C350.543 178.296 350.296 177.953 349.964 177.701C349.636 177.446 349.223 177.318 348.726 177.318C348.249 177.318 347.848 177.439 347.523 177.681C347.198 177.92 346.953 178.254 346.787 178.685C346.622 179.113 346.539 179.612 346.539 180.182ZM356.164 184.179C355.68 184.179 355.241 184.088 354.846 183.906C354.452 183.72 354.139 183.453 353.907 183.105C353.675 182.754 353.559 182.33 353.559 181.832C353.559 181.395 353.645 181.04 353.817 180.768C353.99 180.493 354.22 180.278 354.508 180.122C354.797 179.966 355.115 179.85 355.463 179.774C355.814 179.695 356.167 179.632 356.522 179.585C356.986 179.526 357.362 179.481 357.65 179.451C357.942 179.418 358.154 179.363 358.287 179.287C358.423 179.211 358.491 179.078 358.491 178.889V178.849C358.491 178.359 358.356 177.978 358.088 177.706C357.823 177.434 357.42 177.298 356.88 177.298C356.32 177.298 355.88 177.421 355.562 177.666C355.244 177.911 355.02 178.173 354.891 178.452L353.777 178.054C353.976 177.59 354.241 177.229 354.573 176.97C354.908 176.708 355.272 176.526 355.667 176.423C356.064 176.317 356.455 176.264 356.84 176.264C357.085 176.264 357.367 176.294 357.685 176.354C358.007 176.41 358.316 176.528 358.615 176.707C358.916 176.886 359.167 177.156 359.366 177.517C359.564 177.878 359.664 178.362 359.664 178.969V184H358.491V182.966H358.431C358.351 183.132 358.219 183.309 358.033 183.498C357.848 183.687 357.601 183.848 357.292 183.98C356.984 184.113 356.608 184.179 356.164 184.179ZM356.343 183.125C356.807 183.125 357.198 183.034 357.516 182.852C357.838 182.669 358.08 182.434 358.242 182.146C358.408 181.857 358.491 181.554 358.491 181.236V180.162C358.441 180.222 358.331 180.276 358.162 180.326C357.997 180.372 357.804 180.414 357.586 180.45C357.37 180.483 357.16 180.513 356.954 180.54C356.752 180.563 356.588 180.583 356.462 180.599C356.157 180.639 355.872 180.704 355.607 180.793C355.345 180.879 355.133 181.01 354.971 181.186C354.812 181.358 354.732 181.594 354.732 181.892C354.732 182.3 354.883 182.608 355.184 182.817C355.489 183.022 355.875 183.125 356.343 183.125Z"
          fill="black"/>
    <rect width="160" height="160" transform="translate(420)" fill="white"/>
    <rect x="435" y="15" width="130" height="130" fill="#0078FC" fill-opacity="0.2" stroke="#0078FC"/>
    <circle cx="500" cy="80" r="2" fill="black"/>
    <path d="M455.13 184V176.364H456.263V177.557H456.362C456.522 177.149 456.778 176.833 457.133 176.607C457.488 176.379 457.914 176.264 458.411 176.264C458.915 176.264 459.334 176.379 459.669 176.607C460.007 176.833 460.27 177.149 460.459 177.557H460.539C460.734 177.162 461.027 176.849 461.419 176.617C461.81 176.382 462.279 176.264 462.826 176.264C463.508 176.264 464.067 176.478 464.501 176.906C464.935 177.33 465.152 177.991 465.152 178.889V184H463.979V178.889C463.979 178.326 463.825 177.923 463.517 177.681C463.208 177.439 462.845 177.318 462.428 177.318C461.891 177.318 461.475 177.481 461.18 177.805C460.885 178.127 460.737 178.535 460.737 179.028V184H459.544V178.77C459.544 178.336 459.403 177.986 459.122 177.721C458.84 177.452 458.477 177.318 458.033 177.318C457.728 177.318 457.443 177.399 457.178 177.562C456.916 177.724 456.704 177.95 456.541 178.238C456.382 178.523 456.303 178.853 456.303 179.227V184H455.13ZM469.545 184.179C469.061 184.179 468.622 184.088 468.227 183.906C467.833 183.72 467.52 183.453 467.288 183.105C467.056 182.754 466.94 182.33 466.94 181.832C466.94 181.395 467.026 181.04 467.198 180.768C467.37 180.493 467.601 180.278 467.889 180.122C468.177 179.966 468.496 179.85 468.844 179.774C469.195 179.695 469.548 179.632 469.903 179.585C470.367 179.526 470.743 179.481 471.031 179.451C471.323 179.418 471.535 179.363 471.668 179.287C471.803 179.211 471.871 179.078 471.871 178.889V178.849C471.871 178.359 471.737 177.978 471.469 177.706C471.204 177.434 470.801 177.298 470.261 177.298C469.7 177.298 469.261 177.421 468.943 177.666C468.625 177.911 468.401 178.173 468.272 178.452L467.158 178.054C467.357 177.59 467.622 177.229 467.954 176.97C468.289 176.708 468.653 176.526 469.047 176.423C469.445 176.317 469.836 176.264 470.221 176.264C470.466 176.264 470.748 176.294 471.066 176.354C471.387 176.41 471.697 176.528 471.996 176.707C472.297 176.886 472.547 177.156 472.746 177.517C472.945 177.878 473.045 178.362 473.045 178.969V184H471.871V182.966H471.812C471.732 183.132 471.6 183.309 471.414 183.498C471.228 183.687 470.981 183.848 470.673 183.98C470.365 184.113 469.989 184.179 469.545 184.179ZM469.724 183.125C470.188 183.125 470.579 183.034 470.897 182.852C471.218 182.669 471.46 182.434 471.623 182.146C471.789 181.857 471.871 181.554 471.871 181.236V180.162C471.822 180.222 471.712 180.276 471.543 180.326C471.378 180.372 471.185 180.414 470.967 180.45C470.751 180.483 470.541 180.513 470.335 180.54C470.133 180.563 469.969 180.583 469.843 180.599C469.538 180.639 469.253 180.704 468.988 180.793C468.726 180.879 468.514 181.01 468.351 181.186C468.192 181.358 468.113 181.594 468.113 181.892C468.113 182.3 468.264 182.608 468.565 182.817C468.87 183.022 469.256 183.125 469.724 183.125ZM476.061 176.364L477.891 179.486L479.72 176.364H481.073L478.607 180.182L481.073 184H479.72L477.891 181.037L476.061 184H474.709L477.135 180.182L474.709 176.364H476.061ZM486.807 179.088V180.182H482.353V179.088H486.807ZM493.048 182.409L495.713 176.364H496.826L493.525 184H492.571L489.329 176.364H490.423L493.048 182.409ZM490.045 176.364V184H488.872V176.364H490.045ZM496.051 184V176.364H497.224V184H496.051ZM502.573 184.159C501.838 184.159 501.203 183.997 500.669 183.672C500.139 183.344 499.73 182.886 499.441 182.3C499.156 181.71 499.014 181.024 499.014 180.241C499.014 179.459 499.156 178.77 499.441 178.173C499.73 177.573 500.131 177.106 500.644 176.771C501.161 176.433 501.765 176.264 502.454 176.264C502.852 176.264 503.245 176.33 503.632 176.463C504.02 176.596 504.373 176.811 504.691 177.109C505.009 177.404 505.263 177.795 505.452 178.283C505.641 178.77 505.735 179.37 505.735 180.082V180.58H499.849V179.565H504.542C504.542 179.134 504.456 178.75 504.284 178.412C504.115 178.074 503.873 177.807 503.558 177.612C503.246 177.416 502.878 177.318 502.454 177.318C501.987 177.318 501.582 177.434 501.241 177.666C500.903 177.895 500.643 178.193 500.46 178.561C500.278 178.929 500.187 179.323 500.187 179.744V180.42C500.187 180.997 500.286 181.486 500.485 181.887C500.688 182.285 500.968 182.588 501.326 182.797C501.684 183.002 502.099 183.105 502.573 183.105C502.882 183.105 503.16 183.062 503.409 182.976C503.661 182.886 503.878 182.754 504.06 182.578C504.242 182.399 504.383 182.177 504.483 181.912L505.616 182.23C505.497 182.615 505.296 182.953 505.014 183.244C504.733 183.533 504.385 183.758 503.97 183.92C503.556 184.08 503.09 184.159 502.573 184.159ZM506.809 177.457V176.364H513.014V177.457H510.508V184H509.335V177.457H506.809ZM514.725 186.864V176.364H515.859V177.577H515.998C516.084 177.444 516.203 177.275 516.356 177.07C516.512 176.861 516.734 176.675 517.022 176.513C517.314 176.347 517.708 176.264 518.205 176.264C518.848 176.264 519.415 176.425 519.906 176.746C520.396 177.068 520.779 177.524 521.054 178.114C521.329 178.704 521.467 179.4 521.467 180.202C521.467 181.01 521.329 181.711 521.054 182.305C520.779 182.895 520.398 183.352 519.911 183.677C519.423 183.998 518.862 184.159 518.225 184.159C517.735 184.159 517.342 184.078 517.047 183.915C516.752 183.75 516.525 183.562 516.366 183.354C516.207 183.142 516.084 182.966 515.998 182.827H515.899V186.864H514.725ZM515.879 180.182C515.879 180.759 515.963 181.267 516.132 181.708C516.301 182.146 516.548 182.489 516.873 182.737C517.198 182.982 517.595 183.105 518.066 183.105C518.557 183.105 518.966 182.976 519.294 182.717C519.626 182.455 519.874 182.104 520.04 181.663C520.209 181.219 520.293 180.725 520.293 180.182C520.293 179.645 520.211 179.161 520.045 178.73C519.882 178.296 519.636 177.953 519.304 177.701C518.976 177.446 518.563 177.318 518.066 177.318C517.589 177.318 517.188 177.439 516.863 177.681C516.538 177.92 516.293 178.254 516.127 178.685C515.961 179.113 515.879 179.612 515.879 180.182ZM524.43 182.27L528.109 176.364H529.461V184H528.288V178.094L524.629 184H523.256V176.364H524.43V182.27ZM531.61 184V176.364H532.783V179.685H533.559L536.303 176.364H537.815L534.732 180.043L537.854 184H536.343L533.837 180.778H532.783V184H531.61ZM541.377 184.179C540.893 184.179 540.454 184.088 540.059 183.906C539.665 183.72 539.352 183.453 539.12 183.105C538.888 182.754 538.772 182.33 538.772 181.832C538.772 181.395 538.858 181.04 539.03 180.768C539.202 180.493 539.433 180.278 539.721 180.122C540.009 179.966 540.328 179.85 540.676 179.774C541.027 179.695 541.38 179.632 541.735 179.585C542.199 179.526 542.575 179.481 542.863 179.451C543.155 179.418 543.367 179.363 543.5 179.287C543.635 179.211 543.703 179.078 543.703 178.889V178.849C543.703 178.359 543.569 177.978 543.301 177.706C543.036 177.434 542.633 177.298 542.093 177.298C541.532 177.298 541.093 177.421 540.775 177.666C540.457 177.911 540.233 178.173 540.104 178.452L538.99 178.054C539.189 177.59 539.454 177.229 539.786 176.97C540.121 176.708 540.485 176.526 540.88 176.423C541.277 176.317 541.668 176.264 542.053 176.264C542.298 176.264 542.58 176.294 542.898 176.354C543.219 176.41 543.529 176.528 543.828 176.707C544.129 176.886 544.38 177.156 544.578 177.517C544.777 177.878 544.877 178.362 544.877 178.969V184H543.703V182.966H543.644C543.564 183.132 543.432 183.309 543.246 183.498C543.06 183.687 542.813 183.848 542.505 183.98C542.197 184.113 541.821 184.179 541.377 184.179ZM541.556 183.125C542.02 183.125 542.411 183.034 542.729 182.852C543.05 182.669 543.292 182.434 543.455 182.146C543.621 181.857 543.703 181.554 543.703 181.236V180.162C543.654 180.222 543.544 180.276 543.375 180.326C543.21 180.372 543.017 180.414 542.799 180.45C542.583 180.483 542.373 180.513 542.167 180.54C541.965 180.563 541.801 180.583 541.675 180.599C541.37 180.639 541.085 180.704 540.82 180.793C540.558 180.879 540.346 181.01 540.184 181.186C540.024 181.358 539.945 181.594 539.945 181.892C539.945 182.3 540.096 182.608 540.397 182.817C540.702 183.022 541.088 183.125 541.556 183.125Z"
          fill="black"/>
    <rect width="160" height="160" transform="translate(630)" fill="white"/>
    <path d="M709.646 5.35356C709.842 5.15829 710.158 5.15829 710.354 5.35355L784.646 79.6464C784.842 79.8417 784.842 80.1583 784.646 80.3536L710.354 154.646C710.158 154.842 709.842 154.842 709.646 154.646L635.354 80.3536C635.158 80.1583 635.158 79.8417 635.354 79.6464L709.646 5.35356Z"
          fill="#0078FC" fill-opacity="0.2" stroke="#0078FC"/>
    <circle cx="710" cy="80" r="2" fill="black"/>
    <path d="M639.527 182.409L642.192 176.364H643.306L640.005 184H639.05L635.809 176.364H636.902L639.527 182.409ZM636.525 176.364V184H635.351V176.364H636.525ZM642.53 184V176.364H643.703V184H642.53ZM649.053 184.159C648.317 184.159 647.682 183.997 647.149 183.672C646.618 183.344 646.209 182.886 645.921 182.3C645.636 181.71 645.493 181.024 645.493 180.241C645.493 179.459 645.636 178.77 645.921 178.173C646.209 177.573 646.61 177.106 647.124 176.771C647.641 176.433 648.244 176.264 648.934 176.264C649.331 176.264 649.724 176.33 650.112 176.463C650.5 176.596 650.853 176.811 651.171 177.109C651.489 177.404 651.743 177.795 651.931 178.283C652.12 178.77 652.215 179.37 652.215 180.082V180.58H646.328V179.565H651.022C651.022 179.134 650.935 178.75 650.763 178.412C650.594 178.074 650.352 177.807 650.037 177.612C649.726 177.416 649.358 177.318 648.934 177.318C648.466 177.318 648.062 177.434 647.721 177.666C647.382 177.895 647.122 178.193 646.94 178.561C646.758 178.929 646.667 179.323 646.667 179.744V180.42C646.667 180.997 646.766 181.486 646.965 181.887C647.167 182.285 647.447 182.588 647.805 182.797C648.163 183.002 648.579 183.105 649.053 183.105C649.361 183.105 649.64 183.062 649.888 182.976C650.14 182.886 650.357 182.754 650.539 182.578C650.722 182.399 650.863 182.177 650.962 181.912L652.096 182.23C651.976 182.615 651.776 182.953 651.494 183.244C651.212 183.533 650.864 183.758 650.45 183.92C650.036 184.08 649.57 184.159 649.053 184.159ZM653.289 177.457V176.364H659.493V177.457H656.988V184H655.814V177.457H653.289ZM661.205 186.864V176.364H662.338V177.577H662.477C662.564 177.444 662.683 177.275 662.835 177.07C662.991 176.861 663.213 176.675 663.502 176.513C663.793 176.347 664.188 176.264 664.685 176.264C665.328 176.264 665.895 176.425 666.385 176.746C666.876 177.068 667.258 177.524 667.534 178.114C667.809 178.704 667.946 179.4 667.946 180.202C667.946 181.01 667.809 181.711 667.534 182.305C667.258 182.895 666.877 183.352 666.39 183.677C665.903 183.998 665.341 184.159 664.705 184.159C664.214 184.159 663.821 184.078 663.526 183.915C663.231 183.75 663.004 183.562 662.845 183.354C662.686 183.142 662.564 182.966 662.477 182.827H662.378V186.864H661.205ZM662.358 180.182C662.358 180.759 662.443 181.267 662.612 181.708C662.781 182.146 663.028 182.489 663.352 182.737C663.677 182.982 664.075 183.105 664.546 183.105C665.036 183.105 665.445 182.976 665.774 182.717C666.105 182.455 666.354 182.104 666.519 181.663C666.688 181.219 666.773 180.725 666.773 180.182C666.773 179.645 666.69 179.161 666.524 178.73C666.362 178.296 666.115 177.953 665.784 177.701C665.455 177.446 665.043 177.318 664.546 177.318C664.068 177.318 663.667 177.439 663.343 177.681C663.018 177.92 662.772 178.254 662.607 178.685C662.441 179.113 662.358 179.612 662.358 180.182ZM670.909 182.27L674.588 176.364H675.941V184H674.767V178.094L671.108 184H669.736V176.364H670.909V182.27ZM678.089 184V176.364H679.263V179.685H680.038L682.783 176.364H684.294L681.212 180.043L684.334 184H682.822L680.317 180.778H679.263V184H678.089ZM687.856 184.179C687.372 184.179 686.933 184.088 686.539 183.906C686.144 183.72 685.831 183.453 685.599 183.105C685.367 182.754 685.251 182.33 685.251 181.832C685.251 181.395 685.337 181.04 685.51 180.768C685.682 180.493 685.912 180.278 686.201 180.122C686.489 179.966 686.807 179.85 687.155 179.774C687.507 179.695 687.859 179.632 688.214 179.585C688.678 179.526 689.054 179.481 689.343 179.451C689.634 179.418 689.846 179.363 689.979 179.287C690.115 179.211 690.183 179.078 690.183 178.889V178.849C690.183 178.359 690.049 177.978 689.78 177.706C689.515 177.434 689.112 177.298 688.572 177.298C688.012 177.298 687.573 177.421 687.255 177.666C686.936 177.911 686.713 178.173 686.583 178.452L685.47 178.054C685.669 177.59 685.934 177.229 686.265 176.97C686.6 176.708 686.965 176.526 687.359 176.423C687.757 176.317 688.148 176.264 688.532 176.264C688.778 176.264 689.059 176.294 689.377 176.354C689.699 176.41 690.009 176.528 690.307 176.707C690.609 176.886 690.859 177.156 691.058 177.517C691.257 177.878 691.356 178.362 691.356 178.969V184H690.183V182.966H690.123C690.044 183.132 689.911 183.309 689.725 183.498C689.54 183.687 689.293 183.848 688.985 183.98C688.676 184.113 688.3 184.179 687.856 184.179ZM688.035 183.125C688.499 183.125 688.89 183.034 689.208 182.852C689.53 182.669 689.772 182.434 689.934 182.146C690.1 181.857 690.183 181.554 690.183 181.236V180.162C690.133 180.222 690.024 180.276 689.855 180.326C689.689 180.372 689.497 180.414 689.278 180.45C689.063 180.483 688.852 180.513 688.647 180.54C688.444 180.563 688.28 180.583 688.154 180.599C687.85 180.639 687.565 180.704 687.299 180.793C687.038 180.879 686.825 181.01 686.663 181.186C686.504 181.358 686.424 181.594 686.424 181.892C686.424 182.3 686.575 182.608 686.877 182.817C687.182 183.022 687.568 183.125 688.035 183.125ZM697.594 173.818H699.066L702.526 182.27H702.645L706.106 173.818H707.577V184H706.424V176.264H706.324L703.143 184H702.029L698.847 176.264H698.748V184H697.594V173.818ZM711.064 182.27L714.743 176.364H716.095V184H714.922V178.094L711.262 184H709.89V176.364H711.064V182.27ZM723.355 179.645V180.739H719.139V179.645H723.355ZM719.417 176.364V184H718.244V176.364H719.417ZM724.249 176.364V184H723.076V176.364H724.249ZM726.392 184V176.364H727.566V179.685H728.341L731.085 176.364H732.597L729.514 180.043L732.637 184H731.125L728.619 180.778H727.566V184H726.392ZM736.7 184.159C736.01 184.159 735.405 183.995 734.885 183.667C734.368 183.339 733.964 182.88 733.672 182.29C733.384 181.7 733.239 181.01 733.239 180.222C733.239 179.426 733.384 178.732 733.672 178.138C733.964 177.545 734.368 177.085 734.885 176.756C735.405 176.428 736.01 176.264 736.7 176.264C737.389 176.264 737.992 176.428 738.509 176.756C739.03 177.085 739.434 177.545 739.722 178.138C740.014 178.732 740.16 179.426 740.16 180.222C740.16 181.01 740.014 181.7 739.722 182.29C739.434 182.88 739.03 183.339 738.509 183.667C737.992 183.995 737.389 184.159 736.7 184.159ZM736.7 183.105C737.223 183.105 737.654 182.971 737.992 182.702C738.33 182.434 738.58 182.081 738.743 181.643C738.905 181.206 738.987 180.732 738.987 180.222C738.987 179.711 738.905 179.236 738.743 178.795C738.58 178.354 738.33 177.998 737.992 177.726C737.654 177.454 737.223 177.318 736.7 177.318C736.176 177.318 735.745 177.454 735.407 177.726C735.069 177.998 734.819 178.354 734.656 178.795C734.494 179.236 734.413 179.711 734.413 180.222C734.413 180.732 734.494 181.206 734.656 181.643C734.819 182.081 735.069 182.434 735.407 182.702C735.745 182.971 736.176 183.105 736.7 183.105ZM741.951 184V176.364H745.073C745.895 176.364 746.548 176.549 747.032 176.92C747.516 177.292 747.758 177.782 747.758 178.392C747.758 178.856 747.62 179.216 747.345 179.471C747.07 179.723 746.717 179.893 746.286 179.983C746.568 180.023 746.841 180.122 747.106 180.281C747.375 180.44 747.597 180.659 747.773 180.938C747.948 181.213 748.036 181.551 748.036 181.952C748.036 182.343 747.937 182.692 747.738 183.001C747.539 183.309 747.254 183.553 746.883 183.732C746.511 183.911 746.067 184 745.55 184H741.951ZM743.064 182.926H745.55C745.955 182.926 746.271 182.83 746.5 182.638C746.729 182.446 746.843 182.184 746.843 181.852C746.843 181.458 746.729 181.148 746.5 180.923C746.271 180.694 745.955 180.58 745.55 180.58H743.064V182.926ZM743.064 179.565H745.073C745.388 179.565 745.658 179.522 745.883 179.436C746.109 179.347 746.281 179.221 746.4 179.058C746.523 178.893 746.584 178.697 746.584 178.472C746.584 178.15 746.45 177.898 746.182 177.716C745.913 177.53 745.544 177.438 745.073 177.438H743.064V179.565ZM752.914 184.159C752.199 184.159 751.582 183.99 751.065 183.652C750.548 183.314 750.15 182.848 749.872 182.255C749.593 181.662 749.454 180.984 749.454 180.222C749.454 179.446 749.597 178.762 749.882 178.168C750.17 177.572 750.571 177.106 751.085 176.771C751.602 176.433 752.205 176.264 752.895 176.264C753.431 176.264 753.915 176.364 754.346 176.562C754.777 176.761 755.13 177.04 755.405 177.398C755.68 177.756 755.851 178.173 755.917 178.651H754.744C754.654 178.303 754.456 177.994 754.147 177.726C753.842 177.454 753.431 177.318 752.914 177.318C752.457 177.318 752.056 177.437 751.711 177.676C751.37 177.911 751.103 178.245 750.911 178.675C750.722 179.103 750.627 179.605 750.627 180.182C750.627 180.772 750.72 181.286 750.906 181.723C751.095 182.161 751.36 182.5 751.701 182.742C752.046 182.984 752.45 183.105 752.914 183.105C753.219 183.105 753.496 183.052 753.745 182.946C753.993 182.84 754.204 182.688 754.376 182.489C754.548 182.29 754.671 182.051 754.744 181.773H755.917C755.851 182.223 755.687 182.629 755.425 182.991C755.167 183.349 754.824 183.634 754.396 183.846C753.972 184.055 753.478 184.159 752.914 184.159ZM757.632 184V176.364H758.806V179.685H759.581L762.326 176.364H763.837L760.755 180.043L763.877 184H762.365L759.86 180.778H758.806V184H757.632ZM767.94 184.159C767.25 184.159 766.646 183.995 766.125 183.667C765.608 183.339 765.204 182.88 764.912 182.29C764.624 181.7 764.48 181.01 764.48 180.222C764.48 179.426 764.624 178.732 764.912 178.138C765.204 177.545 765.608 177.085 766.125 176.756C766.646 176.428 767.25 176.264 767.94 176.264C768.629 176.264 769.232 176.428 769.749 176.756C770.27 177.085 770.674 177.545 770.963 178.138C771.254 178.732 771.4 179.426 771.4 180.222C771.4 181.01 771.254 181.7 770.963 182.29C770.674 182.88 770.27 183.339 769.749 183.667C769.232 183.995 768.629 184.159 767.94 184.159ZM767.94 183.105C768.463 183.105 768.894 182.971 769.232 182.702C769.57 182.434 769.821 182.081 769.983 181.643C770.146 181.206 770.227 180.732 770.227 180.222C770.227 179.711 770.146 179.236 769.983 178.795C769.821 178.354 769.57 177.998 769.232 177.726C768.894 177.454 768.463 177.318 767.94 177.318C767.416 177.318 766.985 177.454 766.647 177.726C766.309 177.998 766.059 178.354 765.896 178.795C765.734 179.236 765.653 179.711 765.653 180.222C765.653 180.732 765.734 181.206 765.896 181.643C766.059 182.081 766.309 182.434 766.647 182.702C766.985 182.971 767.416 183.105 767.94 183.105ZM777.904 176.364V177.457H774.364V184H773.191V176.364H777.904ZM782.323 184.159C781.633 184.159 781.028 183.995 780.508 183.667C779.991 183.339 779.587 182.88 779.295 182.29C779.007 181.7 778.862 181.01 778.862 180.222C778.862 179.426 779.007 178.732 779.295 178.138C779.587 177.545 779.991 177.085 780.508 176.756C781.028 176.428 781.633 176.264 782.323 176.264C783.012 176.264 783.615 176.428 784.132 176.756C784.653 177.085 785.057 177.545 785.345 178.138C785.637 178.732 785.783 179.426 785.783 180.222C785.783 181.01 785.637 181.7 785.345 182.29C785.057 182.88 784.653 183.339 784.132 183.667C783.615 183.995 783.012 184.159 782.323 184.159ZM782.323 183.105C782.846 183.105 783.277 182.971 783.615 182.702C783.953 182.434 784.204 182.081 784.366 181.643C784.528 181.206 784.61 180.732 784.61 180.222C784.61 179.711 784.528 179.236 784.366 178.795C784.204 178.354 783.953 177.998 783.615 177.726C783.277 177.454 782.846 177.318 782.323 177.318C781.799 177.318 781.368 177.454 781.03 177.726C780.692 177.998 780.442 178.354 780.279 178.795C780.117 179.236 780.036 179.711 780.036 180.222C780.036 180.732 780.117 181.206 780.279 181.643C780.442 182.081 780.692 182.434 781.03 182.702C781.368 182.971 781.799 183.105 782.323 183.105Z"
          fill="black"/>
</svg>
