<svg width="386" height="176" viewBox="0 0 386 176" fill="none"
  xmlns="http://www.w3.org/2000/svg">
  <g clip-path="url(#clip0_397_14)">
    <rect width="386" height="176" fill="white"/>
    <path d="M32 51L66 17" stroke="black" stroke-width="2" stroke-linecap="round"/>
    <path d="M114 65L66 17" stroke="black" stroke-width="2" stroke-linecap="round"/>
    <rect x="50" y="1" width="32" height="32" rx="16" fill="white"/>
    <rect x="50" y="1" width="32" height="32" rx="16" stroke="black" stroke-width="2"/>
    <path d="M62.3864 22.5H60.9091L65.1818 10.8636H66.6364L70.9091 22.5H69.4318L65.9545 12.7045H65.8636L62.3864 22.5ZM62.9318 17.9545H68.8864V19.2045H62.9318V17.9545Z" fill="black"/>
    <path d="M80 99L114 65" stroke="black" stroke-width="2" stroke-linecap="round"/>
    <path d="M148 99L114 65" stroke="black" stroke-width="2" stroke-linecap="round"/>
    <rect x="98" y="49" width="32" height="32" rx="16" fill="white"/>
    <rect x="98" y="49" width="32" height="32" rx="16" stroke="black" stroke-width="2"/>
    <path d="M109.909 70.5V58.8636H113.977C114.788 58.8636 115.456 59.0038 115.983 59.2841C116.509 59.5606 116.902 59.9337 117.159 60.4034C117.417 60.8693 117.545 61.3864 117.545 61.9545C117.545 62.4545 117.456 62.8674 117.278 63.1932C117.104 63.5189 116.873 63.7765 116.585 63.9659C116.301 64.1553 115.992 64.2955 115.659 64.3864V64.5C116.015 64.5227 116.373 64.6477 116.733 64.875C117.093 65.1023 117.394 65.428 117.636 65.8523C117.879 66.2765 118 66.7955 118 67.4091C118 67.9924 117.867 68.517 117.602 68.983C117.337 69.4489 116.919 69.8182 116.347 70.0909C115.775 70.3636 115.03 70.5 114.114 70.5H109.909ZM111.318 69.25H114.114C115.034 69.25 115.688 69.072 116.074 68.7159C116.464 68.3561 116.659 67.9205 116.659 67.4091C116.659 67.0152 116.559 66.6515 116.358 66.3182C116.157 65.9811 115.871 65.7121 115.5 65.5114C115.129 65.3068 114.689 65.2045 114.182 65.2045H111.318V69.25ZM111.318 63.9773H113.932C114.356 63.9773 114.739 63.8939 115.08 63.7273C115.424 63.5606 115.697 63.3258 115.898 63.0227C116.102 62.7197 116.205 62.3636 116.205 61.9545C116.205 61.4432 116.027 61.0095 115.67 60.6534C115.314 60.2936 114.75 60.1136 113.977 60.1136H111.318V63.9773Z" fill="black"/>
    <path d="M29.3573 52.0301C30.7772 48.9 35.2228 48.9 36.6427 52.0301L59.0147 101.348C60.216 103.996 58.2798 107 55.372 107H10.628C7.72017 107 5.78403 103.996 6.9853 101.348L29.3573 52.0301Z" fill="white" stroke="black" stroke-width="2"/>
    <path d="M34.7738 78.9091V92H33.1886V80.571H33.1119L29.9158 82.6932V81.0824L33.1886 78.9091H34.7738Z" fill="#AAAAAA"/>
    <path d="M77.3573 100.03C78.7772 96.9 83.2228 96.9 84.6427 100.03L107.015 149.348C108.216 151.996 106.28 155 103.372 155H58.628C55.7202 155 53.784 151.996 54.9853 149.348L77.3573 100.03Z" fill="white" stroke="black" stroke-width="2"/>
    <path d="M76.9059 140V138.849L81.2269 134.119C81.734 133.565 82.1516 133.084 82.4798 132.675C82.8079 132.261 83.0508 131.874 83.2085 131.511C83.3704 131.145 83.4513 130.761 83.4513 130.361C83.4513 129.901 83.3406 129.502 83.119 129.165C82.9016 128.829 82.6033 128.569 82.2241 128.386C81.8448 128.202 81.4187 128.111 80.9457 128.111C80.4428 128.111 80.0039 128.215 79.6289 128.424C79.2582 128.629 78.9705 128.916 78.766 129.287C78.5657 129.658 78.4656 130.092 78.4656 130.591H76.957C76.957 129.824 77.1339 129.151 77.4876 128.571C77.8413 127.991 78.3228 127.54 78.9322 127.216C79.5458 126.892 80.234 126.73 80.9968 126.73C81.7638 126.73 82.4435 126.892 83.0359 127.216C83.6282 127.54 84.0927 127.977 84.4293 128.526C84.766 129.076 84.9343 129.688 84.9343 130.361C84.9343 130.842 84.8469 131.313 84.6722 131.773C84.5018 132.229 84.2035 132.739 83.7773 133.301C83.3555 133.859 82.7695 134.541 82.0195 135.347L79.0792 138.491V138.594H85.1644V140H76.9059Z" fill="#AAAAAA"/>
    <path d="M77.3573 100.03C78.7772 96.9 83.2228 96.9 84.6427 100.03L107.015 149.348C108.216 151.996 106.28 155 103.372 155H58.628C55.7202 155 53.784 151.996 54.9853 149.348L77.3573 100.03Z" fill="white" stroke="black" stroke-width="2"/>
    <path d="M76.9059 140V138.849L81.2269 134.119C81.734 133.565 82.1516 133.084 82.4798 132.675C82.8079 132.261 83.0508 131.874 83.2085 131.511C83.3704 131.145 83.4513 130.761 83.4513 130.361C83.4513 129.901 83.3406 129.502 83.119 129.165C82.9016 128.829 82.6033 128.569 82.2241 128.386C81.8448 128.202 81.4187 128.111 80.9457 128.111C80.4428 128.111 80.0039 128.215 79.6289 128.424C79.2582 128.629 78.9705 128.916 78.766 129.287C78.5657 129.658 78.4656 130.092 78.4656 130.591H76.957C76.957 129.824 77.1339 129.151 77.4876 128.571C77.8413 127.991 78.3228 127.54 78.9322 127.216C79.5458 126.892 80.234 126.73 80.9968 126.73C81.7638 126.73 82.4435 126.892 83.0359 127.216C83.6282 127.54 84.0927 127.977 84.4293 128.526C84.766 129.076 84.9343 129.688 84.9343 130.361C84.9343 130.842 84.8469 131.313 84.6722 131.773C84.5018 132.229 84.2035 132.739 83.7773 133.301C83.3555 133.859 82.7695 134.541 82.0195 135.347L79.0792 138.491V138.594H85.1644V140H76.9059Z" fill="#AAAAAA"/>
    <path d="M150.643 100.03C149.223 96.9 144.777 96.9 143.357 100.03L120.985 149.348C119.784 151.996 121.72 155 124.628 155H169.372C172.28 155 174.216 151.996 173.015 149.348L150.643 100.03Z" fill="white" stroke="black" stroke-width="2"/>
    <path d="M148.048 138.179C147.204 138.179 146.452 138.034 145.792 137.744C145.135 137.455 144.613 137.052 144.225 136.536C143.842 136.016 143.633 135.413 143.599 134.727H145.21C145.244 135.149 145.389 135.513 145.645 135.82C145.9 136.123 146.235 136.357 146.648 136.523C147.061 136.69 147.52 136.773 148.022 136.773C148.585 136.773 149.083 136.675 149.518 136.479C149.953 136.283 150.294 136.01 150.541 135.661C150.788 135.311 150.912 134.906 150.912 134.446C150.912 133.964 150.792 133.54 150.554 133.174C150.315 132.803 149.966 132.513 149.505 132.305C149.045 132.096 148.483 131.991 147.818 131.991H146.77V130.585H147.818C148.338 130.585 148.794 130.491 149.186 130.304C149.582 130.116 149.891 129.852 150.113 129.511C150.338 129.17 150.451 128.77 150.451 128.31C150.451 127.866 150.353 127.481 150.157 127.153C149.961 126.825 149.684 126.569 149.326 126.386C148.973 126.202 148.555 126.111 148.074 126.111C147.622 126.111 147.196 126.194 146.795 126.36C146.399 126.522 146.075 126.759 145.824 127.07C145.572 127.376 145.436 127.747 145.414 128.182H143.88C143.906 127.496 144.113 126.895 144.5 126.379C144.888 125.859 145.395 125.455 146.022 125.165C146.652 124.875 147.345 124.73 148.099 124.73C148.909 124.73 149.603 124.894 150.183 125.222C150.762 125.546 151.208 125.974 151.519 126.507C151.83 127.04 151.985 127.615 151.985 128.233C151.985 128.97 151.792 129.599 151.404 130.119C151.02 130.638 150.498 130.999 149.838 131.199V131.301C150.664 131.437 151.31 131.789 151.775 132.356C152.239 132.918 152.471 133.615 152.471 134.446C152.471 135.158 152.277 135.797 151.89 136.364C151.506 136.926 150.982 137.369 150.317 137.693C149.652 138.017 148.896 138.179 148.048 138.179Z" fill="#AAAAAA"/>
    <path d="M354 51L320 17" stroke="black" stroke-width="2" stroke-linecap="round"/>
    <path d="M272 65L320 17" stroke="black" stroke-width="2" stroke-linecap="round"/>
    <rect width="32" height="32" rx="16" transform="matrix(-1 0 0 1 336 1)" fill="white"/>
    <rect width="32" height="32" rx="16" transform="matrix(-1 0 0 1 336 1)" stroke="black" stroke-width="2"/>
    <path d="M315.909 22.5V10.8636H319.977C320.788 10.8636 321.456 11.0038 321.983 11.2841C322.509 11.5606 322.902 11.9337 323.159 12.4034C323.417 12.8693 323.545 13.3864 323.545 13.9545C323.545 14.4545 323.456 14.8674 323.278 15.1932C323.104 15.5189 322.873 15.7765 322.585 15.9659C322.301 16.1553 321.992 16.2955 321.659 16.3864V16.5C322.015 16.5227 322.373 16.6477 322.733 16.875C323.093 17.1023 323.394 17.428 323.636 17.8523C323.879 18.2765 324 18.7955 324 19.4091C324 19.9924 323.867 20.517 323.602 20.983C323.337 21.4489 322.919 21.8182 322.347 22.0909C321.775 22.3636 321.03 22.5 320.114 22.5H315.909ZM317.318 21.25H320.114C321.034 21.25 321.688 21.072 322.074 20.7159C322.464 20.3561 322.659 19.9205 322.659 19.4091C322.659 19.0152 322.559 18.6515 322.358 18.3182C322.157 17.9811 321.871 17.7121 321.5 17.5114C321.129 17.3068 320.689 17.2045 320.182 17.2045H317.318V21.25ZM317.318 15.9773H319.932C320.356 15.9773 320.739 15.8939 321.08 15.7273C321.424 15.5606 321.697 15.3258 321.898 15.0227C322.102 14.7197 322.205 14.3636 322.205 13.9545C322.205 13.4432 322.027 13.0095 321.67 12.6534C321.314 12.2936 320.75 12.1136 319.977 12.1136H317.318V15.9773Z" fill="black"/>
    <path d="M356.643 52.0301C355.223 48.9 350.777 48.9 349.357 52.0301L326.985 101.348C325.784 103.996 327.72 107 330.628 107H375.372C378.28 107 380.216 103.996 379.015 101.348L356.643 52.0301Z" fill="white" stroke="black" stroke-width="2"/>
    <path d="M353.048 92.179C352.204 92.179 351.452 92.0341 350.792 91.7443C350.135 91.4545 349.613 91.0518 349.225 90.5362C348.842 90.0163 348.633 89.4134 348.599 88.7273H350.21C350.244 89.1491 350.389 89.5135 350.645 89.8203C350.9 90.1229 351.235 90.3572 351.648 90.5234C352.061 90.6896 352.52 90.7727 353.022 90.7727C353.585 90.7727 354.083 90.6747 354.518 90.4787C354.953 90.2827 355.294 90.0099 355.541 89.6605C355.788 89.3111 355.912 88.9062 355.912 88.446C355.912 87.9645 355.792 87.5405 355.554 87.174C355.315 86.8033 354.966 86.5135 354.505 86.3047C354.045 86.0959 353.483 85.9915 352.818 85.9915H351.77V84.5852H352.818C353.338 84.5852 353.794 84.4915 354.186 84.304C354.582 84.1165 354.891 83.8523 355.113 83.5114C355.338 83.1705 355.451 82.7699 355.451 82.3097C355.451 81.8665 355.353 81.4808 355.157 81.1527C354.961 80.8246 354.684 80.5689 354.326 80.3857C353.973 80.2024 353.555 80.1108 353.074 80.1108C352.622 80.1108 352.196 80.1939 351.795 80.3601C351.399 80.522 351.075 80.7585 350.824 81.0696C350.572 81.3764 350.436 81.7472 350.414 82.1818H348.88C348.906 81.4957 349.113 80.8949 349.5 80.3793C349.888 79.8594 350.395 79.4545 351.022 79.1648C351.652 78.875 352.345 78.7301 353.099 78.7301C353.909 78.7301 354.603 78.8942 355.183 79.2223C355.762 79.5462 356.208 79.9744 356.519 80.5071C356.83 81.0398 356.985 81.6151 356.985 82.233C356.985 82.9702 356.792 83.5987 356.404 84.1186C356.02 84.6385 355.498 84.9986 354.838 85.1989V85.3011C355.664 85.4375 356.31 85.7891 356.775 86.3558C357.239 86.9183 357.471 87.6151 357.471 88.446C357.471 89.1577 357.277 89.7969 356.89 90.3636C356.506 90.9261 355.982 91.3693 355.317 91.6932C354.652 92.017 353.896 92.179 353.048 92.179Z" fill="#AAAAAA"/>
    <path d="M306 99L272 65" stroke="black" stroke-width="2" stroke-linecap="round"/>
    <path d="M238 99L272 65" stroke="black" stroke-width="2" stroke-linecap="round"/>
    <rect width="32" height="32" rx="16" transform="matrix(-1 0 0 1 288 49)" fill="white"/>
    <rect width="32" height="32" rx="16" transform="matrix(-1 0 0 1 288 49)" stroke="black" stroke-width="2"/>
    <path d="M268.386 70.5H266.909L271.182 58.8636H272.636L276.909 70.5H275.432L271.955 60.7045H271.864L268.386 70.5ZM268.932 65.9545H274.886V67.2045H268.932V65.9545Z" fill="black"/>
    <path d="M235.357 100.03C236.777 96.9 241.223 96.9 242.643 100.03L265.015 149.348C266.216 151.996 264.28 155 261.372 155H216.628C213.72 155 211.784 151.996 212.985 149.348L235.357 100.03Z" fill="white" stroke="black" stroke-width="2"/>
    <path d="M240.774 126.909V140H239.189V128.571H239.112L235.916 130.693V129.082L239.189 126.909H240.774Z" fill="#AAAAAA"/>
    <path d="M308.643 100.03C307.223 96.9 302.777 96.9 301.357 100.03L278.985 149.348C277.784 151.996 279.72 155 282.628 155H327.372C330.28 155 332.216 151.996 331.015 149.348L308.643 100.03Z" fill="white" stroke="black" stroke-width="2"/>
    <path d="M300.906 140V138.849L305.227 134.119C305.734 133.565 306.152 133.084 306.48 132.675C306.808 132.261 307.051 131.874 307.208 131.511C307.37 131.145 307.451 130.761 307.451 130.361C307.451 129.901 307.341 129.502 307.119 129.165C306.902 128.829 306.603 128.569 306.224 128.386C305.845 128.202 305.419 128.111 304.946 128.111C304.443 128.111 304.004 128.215 303.629 128.424C303.258 128.629 302.971 128.916 302.766 129.287C302.566 129.658 302.466 130.092 302.466 130.591H300.957C300.957 129.824 301.134 129.151 301.488 128.571C301.841 127.991 302.323 127.54 302.932 127.216C303.546 126.892 304.234 126.73 304.997 126.73C305.764 126.73 306.444 126.892 307.036 127.216C307.628 127.54 308.093 127.977 308.429 128.526C308.766 129.076 308.934 129.688 308.934 130.361C308.934 130.842 308.847 131.313 308.672 131.773C308.502 132.229 308.203 132.739 307.777 133.301C307.355 133.859 306.77 134.541 306.02 135.347L303.079 138.491V138.594H309.164V140H300.906Z" fill="#AAAAAA"/>
    <path d="M225.259 11.5403C225.792 11.3974 226.109 10.849 225.966 10.3156L223.637 1.62222C223.494 1.08875 222.945 0.772171 222.412 0.915113C221.878 1.05806 221.562 1.60639 221.705 2.13986L223.775 9.86726L216.048 11.9378C215.514 12.0808 215.198 12.6291 215.341 13.1626C215.484 13.696 216.032 14.0126 216.565 13.8697L225.259 11.5403ZM160.034 10.3156C159.891 10.849 160.208 11.3974 160.741 11.5403L169.435 13.8697C169.968 14.0126 170.516 13.696 170.659 13.1626C170.802 12.6291 170.486 12.0808 169.952 11.9378L162.225 9.86726L164.295 2.13986C164.438 1.60639 164.122 1.05805 163.588 0.915112C163.055 0.772171 162.506 1.08875 162.363 1.62222L160.034 10.3156ZM225.5 9.70835C215.619 4.00341 204.41 1 193 1L193 3C204.059 3 214.923 5.91099 224.5 11.4404L225.5 9.70835ZM193 1C181.59 1 170.381 4.00341 160.5 9.70834L161.5 11.4404C171.077 5.91099 181.941 3 193 3L193 1Z" fill="black"/>
  </g>
  <defs>
    <clipPath id="clip0_397_14">
      <rect width="386" height="176" fill="white"/>
    </clipPath>
  </defs>
</svg>
  