<svg width="386" height="176" viewBox="0 0 386 176" fill="none" xmlns="http://www.w3.org/2000/svg">
    <g clip-path="url(#clip0_107_243)">
        <rect width="386" height="176" fill="white"/>
        <path d="M238 51L272 17" stroke="black" stroke-width="2" stroke-linecap="round"/>
        <path d="M320 65L272 17" stroke="black" stroke-width="2" stroke-linecap="round"/>
        <rect x="256" y="1" width="32" height="32" rx="16" fill="white"/>
        <rect x="256" y="1" width="32" height="32" rx="16" stroke="black" stroke-width="2"/>
        <path d="M268.386 22.5H266.909L271.182 10.8636H272.636L276.909 22.5H275.432L271.955 12.7045H271.864L268.386 22.5ZM268.932 17.9545H274.886V19.2045H268.932V17.9545Z" fill="black"/>
        <path d="M286 99L320 65" stroke="black" stroke-width="2" stroke-linecap="round"/>
        <path d="M354 99L320 65" stroke="black" stroke-width="2" stroke-linecap="round"/>
        <rect x="304" y="49" width="32" height="32" rx="16" fill="white"/>
        <rect x="304" y="49" width="32" height="32" rx="16" stroke="black" stroke-width="2"/>
        <path d="M315.909 70.5V58.8636H319.977C320.788 58.8636 321.456 59.0038 321.983 59.2841C322.509 59.5606 322.902 59.9337 323.159 60.4034C323.417 60.8693 323.545 61.3864 323.545 61.9545C323.545 62.4545 323.456 62.8674 323.278 63.1932C323.104 63.5189 322.873 63.7765 322.585 63.9659C322.301 64.1553 321.992 64.2955 321.659 64.3864V64.5C322.015 64.5227 322.373 64.6477 322.733 64.875C323.093 65.1023 323.394 65.428 323.636 65.8523C323.879 66.2765 324 66.7955 324 67.4091C324 67.9924 323.867 68.517 323.602 68.983C323.337 69.4489 322.919 69.8182 322.347 70.0909C321.775 70.3636 321.03 70.5 320.114 70.5H315.909ZM317.318 69.25H320.114C321.034 69.25 321.688 69.072 322.074 68.7159C322.464 68.3561 322.659 67.9205 322.659 67.4091C322.659 67.0152 322.559 66.6515 322.358 66.3182C322.157 65.9811 321.871 65.7121 321.5 65.5114C321.129 65.3068 320.689 65.2045 320.182 65.2045H317.318V69.25ZM317.318 63.9773H319.932C320.356 63.9773 320.739 63.8939 321.08 63.7273C321.424 63.5606 321.697 63.3258 321.898 63.0227C322.102 62.7197 322.205 62.3636 322.205 61.9545C322.205 61.4432 322.027 61.0095 321.67 60.6534C321.314 60.2936 320.75 60.1136 319.977 60.1136H317.318V63.9773Z" fill="black"/>
        <path d="M235.357 52.0301C236.777 48.9 241.223 48.9 242.643 52.0301L265.015 101.348C266.216 103.996 264.28 107 261.372 107H216.628C213.72 107 211.784 103.996 212.985 101.348L235.357 52.0301Z" fill="white" stroke="black" stroke-width="2"/>
        <path d="M240.774 78.9091V92H239.189V80.571H239.112L235.916 82.6932V81.0824L239.189 78.9091H240.774Z" fill="#AAAAAA"/>
        <path d="M283.357 100.03C284.777 96.9 289.223 96.9 290.643 100.03L313.015 149.348C314.216 151.996 312.28 155 309.372 155H264.628C261.72 155 259.784 151.996 260.985 149.348L283.357 100.03Z" fill="white" stroke="black" stroke-width="2"/>
        <path d="M282.906 140V138.849L287.227 134.119C287.734 133.565 288.152 133.084 288.48 132.675C288.808 132.261 289.051 131.874 289.208 131.511C289.37 131.145 289.451 130.761 289.451 130.361C289.451 129.901 289.341 129.502 289.119 129.165C288.902 128.829 288.603 128.569 288.224 128.386C287.845 128.202 287.419 128.111 286.946 128.111C286.443 128.111 286.004 128.215 285.629 128.424C285.258 128.629 284.971 128.916 284.766 129.287C284.566 129.658 284.466 130.092 284.466 130.591H282.957C282.957 129.824 283.134 129.151 283.488 128.571C283.841 127.991 284.323 127.54 284.932 127.216C285.546 126.892 286.234 126.73 286.997 126.73C287.764 126.73 288.444 126.892 289.036 127.216C289.628 127.54 290.093 127.977 290.429 128.526C290.766 129.076 290.934 129.688 290.934 130.361C290.934 130.842 290.847 131.313 290.672 131.773C290.502 132.229 290.203 132.739 289.777 133.301C289.355 133.859 288.77 134.541 288.02 135.347L285.079 138.491V138.594H291.164V140H282.906Z" fill="#AAAAAA"/>
        <path d="M356.643 100.03C355.223 96.9 350.777 96.9 349.357 100.03L326.985 149.348C325.784 151.996 327.72 155 330.628 155H375.372C378.28 155 380.216 151.996 379.015 149.348L356.643 100.03Z" fill="white" stroke="black" stroke-width="2"/>
        <path d="M354.048 138.179C353.204 138.179 352.452 138.034 351.792 137.744C351.135 137.455 350.613 137.052 350.225 136.536C349.842 136.016 349.633 135.413 349.599 134.727H351.21C351.244 135.149 351.389 135.513 351.645 135.82C351.9 136.123 352.235 136.357 352.648 136.523C353.061 136.69 353.52 136.773 354.022 136.773C354.585 136.773 355.083 136.675 355.518 136.479C355.953 136.283 356.294 136.01 356.541 135.661C356.788 135.311 356.912 134.906 356.912 134.446C356.912 133.964 356.792 133.54 356.554 133.174C356.315 132.803 355.966 132.513 355.505 132.305C355.045 132.096 354.483 131.991 353.818 131.991H352.77V130.585H353.818C354.338 130.585 354.794 130.491 355.186 130.304C355.582 130.116 355.891 129.852 356.113 129.511C356.338 129.17 356.451 128.77 356.451 128.31C356.451 127.866 356.353 127.481 356.157 127.153C355.961 126.825 355.684 126.569 355.326 126.386C354.973 126.202 354.555 126.111 354.074 126.111C353.622 126.111 353.196 126.194 352.795 126.36C352.399 126.522 352.075 126.759 351.824 127.07C351.572 127.376 351.436 127.747 351.414 128.182H349.88C349.906 127.496 350.113 126.895 350.5 126.379C350.888 125.859 351.395 125.455 352.022 125.165C352.652 124.875 353.345 124.73 354.099 124.73C354.909 124.73 355.603 124.894 356.183 125.222C356.762 125.546 357.208 125.974 357.519 126.507C357.83 127.04 357.985 127.615 357.985 128.233C357.985 128.97 357.792 129.599 357.404 130.119C357.02 130.638 356.498 130.999 355.838 131.199V131.301C356.664 131.437 357.31 131.789 357.775 132.356C358.239 132.918 358.471 133.615 358.471 134.446C358.471 135.158 358.277 135.797 357.89 136.364C357.506 136.926 356.982 137.369 356.317 137.693C355.652 138.017 354.896 138.179 354.048 138.179Z" fill="#AAAAAA"/>
        <path d="M148 51L114 17" stroke="black" stroke-width="2" stroke-linecap="round"/>
        <path d="M66 65L114 17" stroke="black" stroke-width="2" stroke-linecap="round"/>
        <rect width="32" height="32" rx="16" transform="matrix(-1 0 0 1 130 1)" fill="white"/>
        <rect width="32" height="32" rx="16" transform="matrix(-1 0 0 1 130 1)" stroke="black" stroke-width="2"/>
        <path d="M109.909 22.5V10.8636H113.977C114.788 10.8636 115.456 11.0038 115.983 11.2841C116.509 11.5606 116.902 11.9337 117.159 12.4034C117.417 12.8693 117.545 13.3864 117.545 13.9545C117.545 14.4545 117.456 14.8674 117.278 15.1932C117.104 15.5189 116.873 15.7765 116.585 15.9659C116.301 16.1553 115.992 16.2955 115.659 16.3864V16.5C116.015 16.5227 116.373 16.6477 116.733 16.875C117.093 17.1023 117.394 17.428 117.636 17.8523C117.879 18.2765 118 18.7955 118 19.4091C118 19.9924 117.867 20.517 117.602 20.983C117.337 21.4489 116.919 21.8182 116.347 22.0909C115.775 22.3636 115.03 22.5 114.114 22.5H109.909ZM111.318 21.25H114.114C115.034 21.25 115.688 21.072 116.074 20.7159C116.464 20.3561 116.659 19.9205 116.659 19.4091C116.659 19.0152 116.559 18.6515 116.358 18.3182C116.157 17.9811 115.871 17.7121 115.5 17.5114C115.129 17.3068 114.689 17.2045 114.182 17.2045H111.318V21.25ZM111.318 15.9773H113.932C114.356 15.9773 114.739 15.8939 115.08 15.7273C115.424 15.5606 115.697 15.3258 115.898 15.0227C116.102 14.7197 116.205 14.3636 116.205 13.9545C116.205 13.4432 116.027 13.0095 115.67 12.6534C115.314 12.2936 114.75 12.1136 113.977 12.1136H111.318V15.9773Z" fill="black"/>
        <path d="M150.643 52.0301C149.223 48.9 144.777 48.9 143.357 52.0301L120.985 101.348C119.784 103.996 121.72 107 124.628 107H169.372C172.28 107 174.216 103.996 173.015 101.348L150.643 52.0301Z" fill="white" stroke="black" stroke-width="2"/>
        <path d="M147.048 92.179C146.204 92.179 145.452 92.0341 144.792 91.7443C144.135 91.4545 143.613 91.0518 143.225 90.5362C142.842 90.0163 142.633 89.4134 142.599 88.7273H144.21C144.244 89.1491 144.389 89.5135 144.645 89.8203C144.9 90.1229 145.235 90.3572 145.648 90.5234C146.061 90.6896 146.52 90.7727 147.022 90.7727C147.585 90.7727 148.083 90.6747 148.518 90.4787C148.953 90.2827 149.294 90.0099 149.541 89.6605C149.788 89.3111 149.912 88.9062 149.912 88.446C149.912 87.9645 149.792 87.5405 149.554 87.174C149.315 86.8033 148.966 86.5135 148.505 86.3047C148.045 86.0959 147.483 85.9915 146.818 85.9915H145.77V84.5852H146.818C147.338 84.5852 147.794 84.4915 148.186 84.304C148.582 84.1165 148.891 83.8523 149.113 83.5114C149.338 83.1705 149.451 82.7699 149.451 82.3097C149.451 81.8665 149.353 81.4808 149.157 81.1527C148.961 80.8246 148.684 80.5689 148.326 80.3857C147.973 80.2024 147.555 80.1108 147.074 80.1108C146.622 80.1108 146.196 80.1939 145.795 80.3601C145.399 80.522 145.075 80.7585 144.824 81.0696C144.572 81.3764 144.436 81.7472 144.414 82.1818H142.88C142.906 81.4957 143.113 80.8949 143.5 80.3793C143.888 79.8594 144.395 79.4545 145.022 79.1648C145.652 78.875 146.345 78.7301 147.099 78.7301C147.909 78.7301 148.603 78.8942 149.183 79.2223C149.762 79.5462 150.208 79.9744 150.519 80.5071C150.83 81.0398 150.985 81.6151 150.985 82.233C150.985 82.9702 150.792 83.5987 150.404 84.1186C150.02 84.6385 149.498 84.9986 148.838 85.1989V85.3011C149.664 85.4375 150.31 85.7891 150.775 86.3558C151.239 86.9183 151.471 87.6151 151.471 88.446C151.471 89.1577 151.277 89.7969 150.89 90.3636C150.506 90.9261 149.982 91.3693 149.317 91.6932C148.652 92.017 147.896 92.179 147.048 92.179Z" fill="#AAAAAA"/>
        <path d="M100 99L66 65" stroke="black" stroke-width="2" stroke-linecap="round"/>
        <path d="M32 99L66 65" stroke="black" stroke-width="2" stroke-linecap="round"/>
        <rect width="32" height="32" rx="16" transform="matrix(-1 0 0 1 82 49)" fill="white"/>
        <rect width="32" height="32" rx="16" transform="matrix(-1 0 0 1 82 49)" stroke="black" stroke-width="2"/>
        <path d="M62.3864 70.5H60.9091L65.1818 58.8636H66.6364L70.9091 70.5H69.4318L65.9545 60.7045H65.8636L62.3864 70.5ZM62.9318 65.9545H68.8864V67.2045H62.9318V65.9545Z" fill="black"/>
        <path d="M29.3573 100.03C30.7772 96.9 35.2228 96.9 36.6427 100.03L59.0147 149.348C60.216 151.996 58.2798 155 55.372 155H10.628C7.72017 155 5.78403 151.996 6.9853 149.348L29.3573 100.03Z" fill="white" stroke="black" stroke-width="2"/>
        <path d="M34.7738 126.909V140H33.1886V128.571H33.1119L29.9158 130.693V129.082L33.1886 126.909H34.7738Z" fill="#AAAAAA"/>
        <path d="M102.643 100.03C101.223 96.9 96.7772 96.9 95.3573 100.03L72.9853 149.348C71.784 151.996 73.7202 155 76.628 155H121.372C124.28 155 126.216 151.996 125.015 149.348L102.643 100.03Z" fill="white" stroke="black" stroke-width="2"/>
        <path d="M94.9059 140V138.849L99.2269 134.119C99.734 133.565 100.152 133.084 100.48 132.675C100.808 132.261 101.051 131.874 101.208 131.511C101.37 131.145 101.451 130.761 101.451 130.361C101.451 129.901 101.341 129.502 101.119 129.165C100.902 128.829 100.603 128.569 100.224 128.386C99.8448 128.202 99.4187 128.111 98.9457 128.111C98.4428 128.111 98.0039 128.215 97.6289 128.424C97.2582 128.629 96.9705 128.916 96.766 129.287C96.5657 129.658 96.4656 130.092 96.4656 130.591H94.957C94.957 129.824 95.1339 129.151 95.4876 128.571C95.8413 127.991 96.3228 127.54 96.9322 127.216C97.5458 126.892 98.234 126.73 98.9968 126.73C99.7638 126.73 100.444 126.892 101.036 127.216C101.628 127.54 102.093 127.977 102.429 128.526C102.766 129.076 102.934 129.688 102.934 130.361C102.934 130.842 102.847 131.313 102.672 131.773C102.502 132.229 102.203 132.739 101.777 133.301C101.355 133.859 100.77 134.541 100.02 135.347L97.0792 138.491V138.594H103.164V140H94.9059Z" fill="#AAAAAA"/>
        <path d="M225.259 11.5403C225.792 11.3974 226.109 10.849 225.966 10.3156L223.637 1.62222C223.494 1.08875 222.945 0.772171 222.412 0.915113C221.878 1.05806 221.562 1.60639 221.705 2.13986L223.775 9.86726L216.048 11.9378C215.514 12.0808 215.198 12.6291 215.341 13.1626C215.484 13.696 216.032 14.0126 216.565 13.8697L225.259 11.5403ZM160.034 10.3156C159.891 10.849 160.208 11.3974 160.741 11.5403L169.435 13.8697C169.968 14.0126 170.516 13.696 170.659 13.1626C170.802 12.6291 170.486 12.0808 169.952 11.9378L162.225 9.86726L164.295 2.13986C164.438 1.60639 164.122 1.05805 163.588 0.915112C163.055 0.772171 162.506 1.08875 162.363 1.62222L160.034 10.3156ZM225 10.5744L225.5 9.70835C215.619 4.00341 204.41 1 193 1L193 2L193 3C204.059 3 214.923 5.91099 224.5 11.4404L225 10.5744ZM193 2L193 1C181.59 1 170.381 4.00341 160.5 9.70834L161 10.5744L161.5 11.4404C171.077 5.91099 181.941 3 193 3L193 2Z" fill="black"/>
    </g>
    <defs>
        <clipPath id="clip0_107_243">
            <rect width="386" height="176" fill="white"/>
        </clipPath>
    </defs>
</svg>
