<svg width="780" height="188" viewBox="0 0 780 188" fill="none" xmlns="http://www.w3.org/2000/svg">
<g clip-path="url(#clip0_335_111)">
<g clip-path="url(#clip1_335_111)">
<path d="M45 120.25L75 67.75" stroke="black" stroke-width="1.875" stroke-linecap="round"/>
<path d="M135 15.25L75 67.75" stroke="black" stroke-width="1.875" stroke-linecap="round"/>
<path d="M135 15.25L195 67.75" stroke="black" stroke-width="1.875" stroke-linecap="round"/>
<path d="M105 120.25L75 67.75" stroke="black" stroke-width="1.875" stroke-linecap="round"/>
<path d="M225 120.25L195 67.75" stroke="black" stroke-width="1.875" stroke-linecap="round"/>
<path d="M165 120.25L195 67.75" stroke="black" stroke-width="1.875" stroke-linecap="round"/>
<path d="M15 172.75L45 120.25" stroke="black" stroke-width="1.875" stroke-linecap="round"/>
<path d="M75 172.75L45 120.25" stroke="black" stroke-width="1.875" stroke-linecap="round"/>
<rect x="30.9375" y="106.188" width="28.125" height="28.125" rx="14.0625" fill="white"/>
<rect x="30.9375" y="106.188" width="28.125" height="28.125" rx="14.0625" stroke="black" stroke-width="1.875"/>
<path d="M37.6293 125.25V124.291L41.2301 120.349C41.6527 119.888 42.0007 119.487 42.2741 119.146C42.5476 118.801 42.75 118.478 42.8814 118.176C43.0163 117.871 43.0838 117.551 43.0838 117.217C43.0838 116.834 42.9915 116.502 42.8068 116.221C42.6257 115.941 42.3771 115.724 42.0611 115.571C41.745 115.419 41.3899 115.342 40.9957 115.342C40.5767 115.342 40.2109 115.429 39.8984 115.603C39.5895 115.774 39.3498 116.013 39.1793 116.322C39.0124 116.631 38.929 116.994 38.929 117.409H37.6719C37.6719 116.77 37.8192 116.209 38.114 115.726C38.4087 115.243 38.81 114.866 39.3178 114.597C39.8292 114.327 40.4027 114.192 41.0384 114.192C41.6776 114.192 42.244 114.327 42.7376 114.597C43.2312 114.866 43.6183 115.23 43.8988 115.689C44.1793 116.147 44.3196 116.656 44.3196 117.217C44.3196 117.619 44.2468 118.011 44.1012 118.395C43.9592 118.775 43.7106 119.199 43.3555 119.668C43.0039 120.133 42.5156 120.701 41.8906 121.372L39.4403 123.993V124.078H44.5114V125.25H37.6293ZM50.5465 114.341V125.25H49.2255V115.726H49.1616L46.4982 117.494V116.152L49.2255 114.341H50.5465Z" fill="black"/>
<rect x="90.9375" y="106.188" width="28.125" height="28.125" rx="14.0625" fill="white"/>
<rect x="90.9375" y="106.188" width="28.125" height="28.125" rx="14.0625" stroke="black" stroke-width="1.875"/>
<path d="M104.602 114.192C105.05 114.195 105.497 114.281 105.945 114.447C106.392 114.614 106.8 114.891 107.17 115.278C107.539 115.662 107.836 116.186 108.059 116.85C108.283 117.514 108.395 118.347 108.395 119.348C108.395 120.317 108.303 121.179 108.118 121.931C107.937 122.681 107.674 123.313 107.33 123.828C106.989 124.343 106.573 124.733 106.083 125C105.597 125.266 105.046 125.399 104.432 125.399C103.821 125.399 103.276 125.278 102.797 125.037C102.321 124.792 101.93 124.453 101.625 124.02C101.323 123.583 101.129 123.077 101.044 122.501H102.344C102.461 123.002 102.694 123.416 103.042 123.743C103.393 124.066 103.857 124.227 104.432 124.227C105.273 124.227 105.938 123.86 106.424 123.125C106.914 122.39 107.159 121.351 107.159 120.009H107.074C106.875 120.307 106.639 120.564 106.365 120.781C106.092 120.998 105.788 121.164 105.455 121.282C105.121 121.399 104.766 121.457 104.389 121.457C103.764 121.457 103.191 121.303 102.669 120.994C102.15 120.681 101.735 120.254 101.422 119.71C101.113 119.163 100.959 118.538 100.959 117.835C100.959 117.168 101.108 116.557 101.406 116.003C101.708 115.445 102.131 115.001 102.674 114.671C103.221 114.341 103.864 114.181 104.602 114.192ZM104.602 115.364C104.155 115.364 103.752 115.475 103.393 115.699C103.038 115.919 102.756 116.218 102.546 116.594C102.34 116.967 102.237 117.381 102.237 117.835C102.237 118.29 102.337 118.703 102.536 119.076C102.738 119.446 103.013 119.74 103.361 119.961C103.713 120.177 104.112 120.286 104.56 120.286C104.897 120.286 105.211 120.22 105.502 120.088C105.794 119.953 106.048 119.771 106.264 119.54C106.484 119.305 106.657 119.041 106.781 118.746C106.905 118.448 106.967 118.137 106.967 117.814C106.967 117.388 106.864 116.988 106.658 116.615C106.456 116.243 106.175 115.941 105.817 115.71C105.462 115.479 105.057 115.364 104.602 115.364Z" fill="black"/>
<rect x="0.9375" y="158.688" width="28.125" height="28.125" rx="14.0625" fill="white"/>
<rect x="0.9375" y="158.688" width="28.125" height="28.125" rx="14.0625" stroke="black" stroke-width="1.875"/>
<path d="M11.9702 177.75L16.8494 168.098V168.013H11.2244V166.841H18.2131V168.077L13.3551 177.75H11.9702Z" fill="black"/>
<rect x="60.9375" y="158.688" width="28.125" height="28.125" rx="14.0625" fill="white"/>
<rect x="60.9375" y="158.688" width="28.125" height="28.125" rx="14.0625" stroke="#0078FC" stroke-width="1.875"/>
<path d="M70.3153 177.899C69.6122 177.899 68.9854 177.778 68.435 177.537C67.8881 177.295 67.4531 176.96 67.13 176.53C66.8104 176.097 66.6364 175.594 66.608 175.023H67.9503C67.9787 175.374 68.0994 175.678 68.3125 175.934C68.5256 176.186 68.8043 176.381 69.1488 176.52C69.4933 176.658 69.875 176.727 70.294 176.727C70.7628 176.727 71.1783 176.646 71.5405 176.482C71.9027 176.319 72.1868 176.092 72.3928 175.8C72.5987 175.509 72.7017 175.172 72.7017 174.788C72.7017 174.387 72.6023 174.034 72.4034 173.728C72.2045 173.419 71.9134 173.178 71.5298 173.004C71.1463 172.83 70.6776 172.743 70.1236 172.743H69.25V171.571H70.1236C70.5568 171.571 70.9368 171.493 71.2635 171.337C71.5938 171.18 71.8512 170.96 72.0359 170.676C72.2241 170.392 72.3182 170.058 72.3182 169.675C72.3182 169.305 72.2365 168.984 72.0732 168.711C71.9098 168.437 71.679 168.224 71.3807 168.071C71.0859 167.919 70.7379 167.842 70.3366 167.842C69.9602 167.842 69.6051 167.912 69.2713 168.05C68.9411 168.185 68.6712 168.382 68.4616 168.641C68.2521 168.897 68.1385 169.206 68.1207 169.568H66.8423C66.8636 168.996 67.0359 168.496 67.359 168.066C67.6822 167.633 68.1048 167.295 68.6268 167.054C69.1523 166.812 69.7294 166.692 70.358 166.692C71.0327 166.692 71.6115 166.828 72.0945 167.102C72.5774 167.372 72.9485 167.729 73.2077 168.173C73.467 168.616 73.5966 169.096 73.5966 169.611C73.5966 170.225 73.435 170.749 73.1119 171.182C72.7923 171.615 72.3572 171.915 71.8068 172.082V172.168C72.4957 172.281 73.0337 172.574 73.4208 173.047C73.8079 173.515 74.0014 174.096 74.0014 174.788C74.0014 175.381 73.8398 175.914 73.5167 176.386C73.1971 176.855 72.7603 177.224 72.2063 177.494C71.6523 177.764 71.022 177.899 70.3153 177.899ZM76.521 177.75L81.4002 168.098V168.013H75.7752V166.841H82.7638V168.077L77.9059 177.75H76.521Z" fill="#0078FC"/>
<rect x="150.938" y="106.188" width="28.125" height="28.125" rx="14.0625" fill="white"/>
<rect x="150.938" y="106.188" width="28.125" height="28.125" rx="14.0625" stroke="black" stroke-width="1.875"/>
<path d="M161.464 114.341V125.25H160.143V115.726H160.08L157.416 117.494V116.152L160.143 114.341H161.464ZM164.602 125.25V124.291L168.203 120.349C168.625 119.888 168.973 119.487 169.247 119.146C169.52 118.801 169.723 118.478 169.854 118.176C169.989 117.871 170.056 117.551 170.056 117.217C170.056 116.834 169.964 116.502 169.779 116.221C169.598 115.941 169.35 115.724 169.034 115.571C168.718 115.419 168.363 115.342 167.968 115.342C167.549 115.342 167.184 115.429 166.871 115.603C166.562 115.774 166.322 116.013 166.152 116.322C165.985 116.631 165.902 116.994 165.902 117.409H164.645C164.645 116.77 164.792 116.209 165.087 115.726C165.381 115.243 165.783 114.866 166.29 114.597C166.802 114.327 167.375 114.192 168.011 114.192C168.65 114.192 169.217 114.327 169.71 114.597C170.204 114.866 170.591 115.23 170.871 115.689C171.152 116.147 171.292 116.656 171.292 117.217C171.292 117.619 171.219 118.011 171.074 118.395C170.932 118.775 170.683 119.199 170.328 119.668C169.977 120.133 169.488 120.701 168.863 121.372L166.413 123.993V124.078H171.484V125.25H164.602Z" fill="black"/>
<rect x="210.938" y="106.188" width="28.125" height="28.125" rx="14.0625" fill="white"/>
<rect x="210.938" y="106.188" width="28.125" height="28.125" rx="14.0625" stroke="black" stroke-width="1.875"/>
<path d="M226.464 114.341V125.25H225.143V115.726H225.08L222.416 117.494V116.152L225.143 114.341H226.464Z" fill="black"/>
<rect x="60.9375" y="53.6875" width="28.125" height="28.125" rx="14.0625" fill="white"/>
<rect x="60.9375" y="53.6875" width="28.125" height="28.125" rx="14.0625" stroke="black" stroke-width="1.875"/>
<path d="M70.3153 72.8991C69.6122 72.8991 68.9854 72.7784 68.435 72.5369C67.8881 72.2955 67.4531 71.9599 67.13 71.5302C66.8104 71.0969 66.6364 70.5945 66.608 70.0227H67.9503C67.9787 70.3743 68.0994 70.6779 68.3125 70.9336C68.5256 71.1857 68.8043 71.381 69.1488 71.5195C69.4933 71.658 69.875 71.7273 70.294 71.7273C70.7628 71.7273 71.1783 71.6456 71.5405 71.4822C71.9027 71.3189 72.1868 71.0916 72.3928 70.8004C72.5987 70.5092 72.7017 70.1719 72.7017 69.7884C72.7017 69.3871 72.6023 69.0337 72.4034 68.7283C72.2045 68.4194 71.9134 68.1779 71.5298 68.0039C71.1463 67.8299 70.6776 67.7429 70.1236 67.7429H69.25V66.571H70.1236C70.5568 66.571 70.9368 66.4929 71.2635 66.3366C71.5938 66.1804 71.8512 65.9602 72.0359 65.6761C72.2241 65.392 72.3182 65.0582 72.3182 64.6747C72.3182 64.3054 72.2365 63.984 72.0732 63.7106C71.9098 63.4371 71.679 63.2241 71.3807 63.0714C71.0859 62.9187 70.7379 62.8423 70.3366 62.8423C69.9602 62.8423 69.6051 62.9116 69.2713 63.0501C68.9411 63.185 68.6712 63.3821 68.4616 63.6413C68.2521 63.897 68.1385 64.206 68.1207 64.5682H66.8423C66.8636 63.9964 67.0359 63.4957 67.359 63.0661C67.6822 62.6328 68.1048 62.2955 68.6268 62.054C69.1523 61.8125 69.7294 61.6918 70.358 61.6918C71.0327 61.6918 71.6115 61.8285 72.0945 62.1019C72.5774 62.3718 72.9485 62.7287 73.2077 63.1726C73.467 63.6165 73.5966 64.0959 73.5966 64.6108C73.5966 65.2251 73.435 65.7489 73.1119 66.1822C72.7923 66.6154 72.3572 66.9155 71.8068 67.0824V67.1676C72.4957 67.2812 73.0337 67.5742 73.4208 68.0465C73.8079 68.5153 74.0014 69.0959 74.0014 69.7884C74.0014 70.3814 73.8398 70.9141 73.5167 71.3864C73.1971 71.8551 72.7603 72.2244 72.2063 72.4943C71.6523 72.7642 71.022 72.8991 70.3153 72.8991ZM76.18 72.75V71.7912L79.7809 67.8494C80.2035 67.3878 80.5515 66.9865 80.8249 66.6456C81.0984 66.3011 81.3008 65.978 81.4322 65.6761C81.5671 65.3707 81.6346 65.0511 81.6346 64.7173C81.6346 64.3338 81.5423 64.0018 81.3576 63.7212C81.1765 63.4407 80.9279 63.2241 80.6119 63.0714C80.2958 62.9187 79.9407 62.8423 79.5465 62.8423C79.1275 62.8423 78.7617 62.9293 78.4492 63.1033C78.1403 63.2738 77.9006 63.5135 77.7301 63.8224C77.5632 64.1314 77.4798 64.4936 77.4798 64.9091H76.2227C76.2227 64.2699 76.37 63.7088 76.6648 63.2259C76.9595 62.7429 77.3608 62.3665 77.8686 62.0966C78.38 61.8267 78.9535 61.6918 79.5891 61.6918C80.2283 61.6918 80.7947 61.8267 81.2884 62.0966C81.782 62.3665 82.169 62.7305 82.4496 63.1886C82.7301 63.6467 82.8704 64.1562 82.8704 64.7173C82.8704 65.1186 82.7976 65.511 82.652 65.8945C82.5099 66.2745 82.2614 66.6989 81.9062 67.1676C81.5547 67.6328 81.0664 68.201 80.4414 68.8722L77.9911 71.4929V71.5781H83.0621V72.75H76.18Z" fill="black"/>
<rect x="120.938" y="1.1875" width="28.125" height="28.125" rx="14.0625" fill="white"/>
<rect x="120.938" y="1.1875" width="28.125" height="28.125" rx="14.0625" stroke="black" stroke-width="1.875"/>
<path d="M127.47 20.25L132.349 10.598V10.5128H126.724V9.34091H133.713V10.5767L128.855 20.25H127.47ZM139.136 20.3991C138.433 20.3991 137.806 20.2784 137.255 20.0369C136.708 19.7955 136.273 19.4599 135.95 19.0302C135.631 18.5969 135.457 18.0945 135.428 17.5227H136.771C136.799 17.8743 136.92 18.1779 137.133 18.4336C137.346 18.6857 137.625 18.881 137.969 19.0195C138.314 19.158 138.695 19.2273 139.114 19.2273C139.583 19.2273 139.999 19.1456 140.361 18.9822C140.723 18.8189 141.007 18.5916 141.213 18.3004C141.419 18.0092 141.522 17.6719 141.522 17.2884C141.522 16.8871 141.423 16.5337 141.224 16.2283C141.025 15.9194 140.734 15.6779 140.35 15.5039C139.967 15.3299 139.498 15.2429 138.944 15.2429H138.07V14.071H138.944C139.377 14.071 139.757 13.9929 140.084 13.8366C140.414 13.6804 140.672 13.4602 140.856 13.1761C141.044 12.892 141.138 12.5582 141.138 12.1747C141.138 11.8054 141.057 11.484 140.893 11.2106C140.73 10.9371 140.499 10.7241 140.201 10.5714C139.906 10.4187 139.558 10.3423 139.157 10.3423C138.781 10.3423 138.425 10.4116 138.092 10.5501C137.761 10.685 137.491 10.8821 137.282 11.1413C137.072 11.397 136.959 11.706 136.941 12.0682H135.663C135.684 11.4964 135.856 10.9957 136.179 10.5661C136.502 10.1328 136.925 9.79545 137.447 9.55398C137.973 9.3125 138.55 9.19176 139.178 9.19176C139.853 9.19176 140.432 9.32848 140.915 9.60192C141.398 9.8718 141.769 10.2287 142.028 10.6726C142.287 11.1165 142.417 11.5959 142.417 12.1108C142.417 12.7251 142.255 13.2489 141.932 13.6822C141.613 14.1154 141.178 14.4155 140.627 14.5824V14.6676C141.316 14.7812 141.854 15.0742 142.241 15.5465C142.628 16.0153 142.822 16.5959 142.822 17.2884C142.822 17.8814 142.66 18.4141 142.337 18.8864C142.017 19.3551 141.581 19.7244 141.027 19.9943C140.473 20.2642 139.842 20.3991 139.136 20.3991Z" fill="black"/>
<rect x="180.938" y="53.6875" width="28.125" height="28.125" rx="14.0625" fill="white"/>
<rect x="180.938" y="53.6875" width="28.125" height="28.125" rx="14.0625" stroke="black" stroke-width="1.875"/>
<path d="M191.464 61.8409V72.75H190.143V63.2259H190.08L187.416 64.9943V63.652L190.143 61.8409H191.464ZM198.075 61.6918C198.522 61.6953 198.97 61.7805 199.417 61.9474C199.865 62.1143 200.273 62.3913 200.642 62.7784C201.012 63.1619 201.308 63.6857 201.532 64.3498C201.756 65.0138 201.868 65.8466 201.868 66.848C201.868 67.8175 201.775 68.6786 201.591 69.4315C201.409 70.1808 201.147 70.8129 200.802 71.3278C200.461 71.8427 200.046 72.2333 199.556 72.4996C199.069 72.766 198.519 72.8991 197.904 72.8991C197.294 72.8991 196.749 72.7784 196.269 72.5369C195.793 72.2919 195.403 71.9528 195.097 71.5195C194.795 71.0827 194.602 70.5767 194.517 70.0014H195.816C195.934 70.5021 196.166 70.9158 196.514 71.2425C196.866 71.5657 197.329 71.7273 197.904 71.7273C198.746 71.7273 199.41 71.3597 199.897 70.6246C200.387 69.8896 200.632 68.8509 200.632 67.5085H200.547C200.348 67.8068 200.112 68.0643 199.838 68.2809C199.565 68.4975 199.261 68.6644 198.927 68.7816C198.593 68.8988 198.238 68.9574 197.862 68.9574C197.237 68.9574 196.663 68.8029 196.141 68.494C195.623 68.1815 195.207 67.7536 194.895 67.2102C194.586 66.6634 194.431 66.0384 194.431 65.3352C194.431 64.6676 194.581 64.0568 194.879 63.5028C195.181 62.9453 195.603 62.5014 196.147 62.1712C196.694 61.8409 197.336 61.6811 198.075 61.6918ZM198.075 62.8636C197.627 62.8636 197.224 62.9755 196.866 63.1992C196.511 63.4194 196.228 63.7177 196.019 64.0941C195.813 64.467 195.71 64.8807 195.71 65.3352C195.71 65.7898 195.809 66.2035 196.008 66.5763C196.211 66.9457 196.486 67.2404 196.834 67.4606C197.185 67.6772 197.585 67.7855 198.032 67.7855C198.37 67.7855 198.684 67.7198 198.975 67.5884C199.266 67.4535 199.52 67.2706 199.737 67.0398C199.957 66.8054 200.129 66.5408 200.254 66.2461C200.378 65.9478 200.44 65.6371 200.44 65.3139C200.44 64.8878 200.337 64.4883 200.131 64.1154C199.929 63.7425 199.648 63.4407 199.289 63.2099C198.934 62.979 198.529 62.8636 198.075 62.8636Z" fill="black"/>
</g>
<g clip-path="url(#clip2_335_111)">
<path d="M315 120.25L345 67.75" stroke="black" stroke-width="1.875" stroke-linecap="round"/>
<path d="M405 15.25L345 67.75" stroke="black" stroke-width="1.875" stroke-linecap="round"/>
<path d="M405 15.25L465 67.75" stroke="black" stroke-width="1.875" stroke-linecap="round"/>
<path d="M375 120.25L345 67.75" stroke="black" stroke-width="1.875" stroke-linecap="round"/>
<path d="M495 120.25L465 67.75" stroke="black" stroke-width="1.875" stroke-linecap="round"/>
<path d="M435 120.25L465 67.75" stroke="black" stroke-width="1.875" stroke-linecap="round"/>
<path d="M285 172.75L315 120.25" stroke="black" stroke-width="1.875" stroke-linecap="round"/>
<path d="M345 172.75L315 120.25" stroke="#F5332B" stroke-width="1.875" stroke-linecap="round"/>
<rect x="300.938" y="106.188" width="28.125" height="28.125" rx="14.0625" fill="white"/>
<rect x="300.938" y="106.188" width="28.125" height="28.125" rx="14.0625" stroke="#0078FC" stroke-width="1.875"/>
<path d="M310.315 125.399C309.612 125.399 308.985 125.278 308.435 125.037C307.888 124.795 307.453 124.46 307.13 124.03C306.81 123.597 306.636 123.094 306.608 122.523H307.95C307.979 122.874 308.099 123.178 308.312 123.434C308.526 123.686 308.804 123.881 309.149 124.02C309.493 124.158 309.875 124.227 310.294 124.227C310.763 124.227 311.178 124.146 311.54 123.982C311.903 123.819 312.187 123.592 312.393 123.3C312.599 123.009 312.702 122.672 312.702 122.288C312.702 121.887 312.602 121.534 312.403 121.228C312.205 120.919 311.913 120.678 311.53 120.504C311.146 120.33 310.678 120.243 310.124 120.243H309.25V119.071H310.124C310.557 119.071 310.937 118.993 311.263 118.837C311.594 118.68 311.851 118.46 312.036 118.176C312.224 117.892 312.318 117.558 312.318 117.175C312.318 116.805 312.237 116.484 312.073 116.211C311.91 115.937 311.679 115.724 311.381 115.571C311.086 115.419 310.738 115.342 310.337 115.342C309.96 115.342 309.605 115.412 309.271 115.55C308.941 115.685 308.671 115.882 308.462 116.141C308.252 116.397 308.138 116.706 308.121 117.068H306.842C306.864 116.496 307.036 115.996 307.359 115.566C307.682 115.133 308.105 114.795 308.627 114.554C309.152 114.312 309.729 114.192 310.358 114.192C311.033 114.192 311.612 114.328 312.094 114.602C312.577 114.872 312.949 115.229 313.208 115.673C313.467 116.116 313.597 116.596 313.597 117.111C313.597 117.725 313.435 118.249 313.112 118.682C312.792 119.115 312.357 119.415 311.807 119.582V119.668C312.496 119.781 313.034 120.074 313.421 120.547C313.808 121.015 314.001 121.596 314.001 122.288C314.001 122.881 313.84 123.414 313.517 123.886C313.197 124.355 312.76 124.724 312.206 124.994C311.652 125.264 311.022 125.399 310.315 125.399ZM316.521 125.25L321.4 115.598V115.513H315.775V114.341H322.764V115.577L317.906 125.25H316.521Z" fill="#0078FC"/>
<rect x="360.938" y="106.188" width="28.125" height="28.125" rx="14.0625" fill="white"/>
<rect x="360.938" y="106.188" width="28.125" height="28.125" rx="14.0625" stroke="black" stroke-width="1.875"/>
<path d="M374.602 114.192C375.05 114.195 375.497 114.281 375.945 114.447C376.392 114.614 376.8 114.891 377.17 115.278C377.539 115.662 377.836 116.186 378.059 116.85C378.283 117.514 378.395 118.347 378.395 119.348C378.395 120.317 378.303 121.179 378.118 121.931C377.937 122.681 377.674 123.313 377.33 123.828C376.989 124.343 376.573 124.733 376.083 125C375.597 125.266 375.046 125.399 374.432 125.399C373.821 125.399 373.276 125.278 372.797 125.037C372.321 124.792 371.93 124.453 371.625 124.02C371.323 123.583 371.129 123.077 371.044 122.501H372.344C372.461 123.002 372.694 123.416 373.042 123.743C373.393 124.066 373.857 124.227 374.432 124.227C375.273 124.227 375.938 123.86 376.424 123.125C376.914 122.39 377.159 121.351 377.159 120.009H377.074C376.875 120.307 376.639 120.564 376.365 120.781C376.092 120.998 375.788 121.164 375.455 121.282C375.121 121.399 374.766 121.457 374.389 121.457C373.764 121.457 373.191 121.303 372.669 120.994C372.15 120.681 371.735 120.254 371.422 119.71C371.113 119.163 370.959 118.538 370.959 117.835C370.959 117.168 371.108 116.557 371.406 116.003C371.708 115.445 372.131 115.001 372.674 114.671C373.221 114.341 373.864 114.181 374.602 114.192ZM374.602 115.364C374.155 115.364 373.752 115.475 373.393 115.699C373.038 115.919 372.756 116.218 372.546 116.594C372.34 116.967 372.237 117.381 372.237 117.835C372.237 118.29 372.337 118.703 372.536 119.076C372.738 119.446 373.013 119.74 373.361 119.961C373.713 120.177 374.112 120.286 374.56 120.286C374.897 120.286 375.211 120.22 375.502 120.088C375.794 119.953 376.048 119.771 376.264 119.54C376.484 119.305 376.657 119.041 376.781 118.746C376.905 118.448 376.967 118.137 376.967 117.814C376.967 117.388 376.864 116.988 376.658 116.615C376.456 116.243 376.175 115.941 375.817 115.71C375.462 115.479 375.057 115.364 374.602 115.364Z" fill="black"/>
<rect x="270.938" y="158.688" width="28.125" height="28.125" rx="14.0625" fill="white"/>
<rect x="270.938" y="158.688" width="28.125" height="28.125" rx="14.0625" stroke="black" stroke-width="1.875"/>
<path d="M281.97 177.75L286.849 168.098V168.013H281.224V166.841H288.213V168.077L283.355 177.75H281.97Z" fill="black"/>
<rect x="330.938" y="158.688" width="28.125" height="28.125" rx="14.0625" fill="white"/>
<rect x="330.938" y="158.688" width="28.125" height="28.125" rx="14.0625" stroke="#F5332B" stroke-width="1.875"/>
<path d="M337.629 177.75V176.791L341.23 172.849C341.653 172.388 342.001 171.987 342.274 171.646C342.548 171.301 342.75 170.978 342.881 170.676C343.016 170.371 343.084 170.051 343.084 169.717C343.084 169.334 342.991 169.002 342.807 168.721C342.626 168.441 342.377 168.224 342.061 168.071C341.745 167.919 341.39 167.842 340.996 167.842C340.577 167.842 340.211 167.929 339.898 168.103C339.589 168.274 339.35 168.513 339.179 168.822C339.012 169.131 338.929 169.494 338.929 169.909H337.672C337.672 169.27 337.819 168.709 338.114 168.226C338.409 167.743 338.81 167.366 339.318 167.097C339.829 166.827 340.403 166.692 341.038 166.692C341.678 166.692 342.244 166.827 342.738 167.097C343.231 167.366 343.618 167.73 343.899 168.189C344.179 168.647 344.32 169.156 344.32 169.717C344.32 170.119 344.247 170.511 344.101 170.895C343.959 171.275 343.711 171.699 343.355 172.168C343.004 172.633 342.516 173.201 341.891 173.872L339.44 176.493V176.578H344.511V177.75H337.629ZM350.547 166.841V177.75H349.225V168.226H349.162L346.498 169.994V168.652L349.225 166.841H350.547Z" fill="#F5332B"/>
<rect x="420.938" y="106.188" width="28.125" height="28.125" rx="14.0625" fill="white"/>
<rect x="420.938" y="106.188" width="28.125" height="28.125" rx="14.0625" stroke="black" stroke-width="1.875"/>
<path d="M431.464 114.341V125.25H430.143V115.726H430.08L427.416 117.494V116.152L430.143 114.341H431.464ZM434.602 125.25V124.291L438.203 120.349C438.625 119.888 438.973 119.487 439.247 119.146C439.52 118.801 439.723 118.478 439.854 118.176C439.989 117.871 440.056 117.551 440.056 117.217C440.056 116.834 439.964 116.502 439.779 116.221C439.598 115.941 439.35 115.724 439.034 115.571C438.718 115.419 438.363 115.342 437.968 115.342C437.549 115.342 437.184 115.429 436.871 115.603C436.562 115.774 436.322 116.013 436.152 116.322C435.985 116.631 435.902 116.994 435.902 117.409H434.645C434.645 116.77 434.792 116.209 435.087 115.726C435.381 115.243 435.783 114.866 436.29 114.597C436.802 114.327 437.375 114.192 438.011 114.192C438.65 114.192 439.217 114.327 439.71 114.597C440.204 114.866 440.591 115.23 440.871 115.689C441.152 116.147 441.292 116.656 441.292 117.217C441.292 117.619 441.219 118.011 441.074 118.395C440.932 118.775 440.683 119.199 440.328 119.668C439.977 120.133 439.488 120.701 438.863 121.372L436.413 123.993V124.078H441.484V125.25H434.602Z" fill="black"/>
<rect x="480.938" y="106.188" width="28.125" height="28.125" rx="14.0625" fill="white"/>
<rect x="480.938" y="106.188" width="28.125" height="28.125" rx="14.0625" stroke="black" stroke-width="1.875"/>
<path d="M496.464 114.341V125.25H495.143V115.726H495.08L492.416 117.494V116.152L495.143 114.341H496.464Z" fill="black"/>
<rect x="330.938" y="53.6875" width="28.125" height="28.125" rx="14.0625" fill="white"/>
<rect x="330.938" y="53.6875" width="28.125" height="28.125" rx="14.0625" stroke="black" stroke-width="1.875"/>
<path d="M340.315 72.8991C339.612 72.8991 338.985 72.7784 338.435 72.5369C337.888 72.2955 337.453 71.9599 337.13 71.5302C336.81 71.0969 336.636 70.5945 336.608 70.0227H337.95C337.979 70.3743 338.099 70.6779 338.312 70.9336C338.526 71.1857 338.804 71.381 339.149 71.5195C339.493 71.658 339.875 71.7273 340.294 71.7273C340.763 71.7273 341.178 71.6456 341.54 71.4822C341.903 71.3189 342.187 71.0916 342.393 70.8004C342.599 70.5092 342.702 70.1719 342.702 69.7884C342.702 69.3871 342.602 69.0337 342.403 68.7283C342.205 68.4194 341.913 68.1779 341.53 68.0039C341.146 67.8299 340.678 67.7429 340.124 67.7429H339.25V66.571H340.124C340.557 66.571 340.937 66.4929 341.263 66.3366C341.594 66.1804 341.851 65.9602 342.036 65.6761C342.224 65.392 342.318 65.0582 342.318 64.6747C342.318 64.3054 342.237 63.984 342.073 63.7106C341.91 63.4371 341.679 63.2241 341.381 63.0714C341.086 62.9187 340.738 62.8423 340.337 62.8423C339.96 62.8423 339.605 62.9116 339.271 63.0501C338.941 63.185 338.671 63.3821 338.462 63.6413C338.252 63.897 338.138 64.206 338.121 64.5682H336.842C336.864 63.9964 337.036 63.4957 337.359 63.0661C337.682 62.6328 338.105 62.2955 338.627 62.054C339.152 61.8125 339.729 61.6918 340.358 61.6918C341.033 61.6918 341.612 61.8285 342.094 62.1019C342.577 62.3718 342.949 62.7287 343.208 63.1726C343.467 63.6165 343.597 64.0959 343.597 64.6108C343.597 65.2251 343.435 65.7489 343.112 66.1822C342.792 66.6154 342.357 66.9155 341.807 67.0824V67.1676C342.496 67.2812 343.034 67.5742 343.421 68.0465C343.808 68.5153 344.001 69.0959 344.001 69.7884C344.001 70.3814 343.84 70.9141 343.517 71.3864C343.197 71.8551 342.76 72.2244 342.206 72.4943C341.652 72.7642 341.022 72.8991 340.315 72.8991ZM346.18 72.75V71.7912L349.781 67.8494C350.203 67.3878 350.551 66.9865 350.825 66.6456C351.098 66.3011 351.301 65.978 351.432 65.6761C351.567 65.3707 351.635 65.0511 351.635 64.7173C351.635 64.3338 351.542 64.0018 351.358 63.7212C351.176 63.4407 350.928 63.2241 350.612 63.0714C350.296 62.9187 349.941 62.8423 349.547 62.8423C349.127 62.8423 348.762 62.9293 348.449 63.1033C348.14 63.2738 347.901 63.5135 347.73 63.8224C347.563 64.1314 347.48 64.4936 347.48 64.9091H346.223C346.223 64.2699 346.37 63.7088 346.665 63.2259C346.96 62.7429 347.361 62.3665 347.869 62.0966C348.38 61.8267 348.953 61.6918 349.589 61.6918C350.228 61.6918 350.795 61.8267 351.288 62.0966C351.782 62.3665 352.169 62.7305 352.45 63.1886C352.73 63.6467 352.87 64.1562 352.87 64.7173C352.87 65.1186 352.798 65.511 352.652 65.8945C352.51 66.2745 352.261 66.6989 351.906 67.1676C351.555 67.6328 351.066 68.201 350.441 68.8722L347.991 71.4929V71.5781H353.062V72.75H346.18Z" fill="black"/>
<rect x="390.938" y="1.1875" width="28.125" height="28.125" rx="14.0625" fill="white"/>
<rect x="390.938" y="1.1875" width="28.125" height="28.125" rx="14.0625" stroke="black" stroke-width="1.875"/>
<path d="M397.47 20.25L402.349 10.598V10.5128H396.724V9.34091H403.713V10.5767L398.855 20.25H397.47ZM409.136 20.3991C408.433 20.3991 407.806 20.2784 407.255 20.0369C406.708 19.7955 406.273 19.4599 405.95 19.0302C405.631 18.5969 405.457 18.0945 405.428 17.5227H406.771C406.799 17.8743 406.92 18.1779 407.133 18.4336C407.346 18.6857 407.625 18.881 407.969 19.0195C408.314 19.158 408.695 19.2273 409.114 19.2273C409.583 19.2273 409.999 19.1456 410.361 18.9822C410.723 18.8189 411.007 18.5916 411.213 18.3004C411.419 18.0092 411.522 17.6719 411.522 17.2884C411.522 16.8871 411.423 16.5337 411.224 16.2283C411.025 15.9194 410.734 15.6779 410.35 15.5039C409.967 15.3299 409.498 15.2429 408.944 15.2429H408.07V14.071H408.944C409.377 14.071 409.757 13.9929 410.084 13.8366C410.414 13.6804 410.672 13.4602 410.856 13.1761C411.044 12.892 411.138 12.5582 411.138 12.1747C411.138 11.8054 411.057 11.484 410.893 11.2106C410.73 10.9371 410.499 10.7241 410.201 10.5714C409.906 10.4187 409.558 10.3423 409.157 10.3423C408.781 10.3423 408.425 10.4116 408.092 10.5501C407.761 10.685 407.491 10.8821 407.282 11.1413C407.072 11.397 406.959 11.706 406.941 12.0682H405.663C405.684 11.4964 405.856 10.9957 406.179 10.5661C406.502 10.1328 406.925 9.79545 407.447 9.55398C407.973 9.3125 408.55 9.19176 409.178 9.19176C409.853 9.19176 410.432 9.32848 410.915 9.60192C411.398 9.8718 411.769 10.2287 412.028 10.6726C412.287 11.1165 412.417 11.5959 412.417 12.1108C412.417 12.7251 412.255 13.2489 411.932 13.6822C411.613 14.1154 411.178 14.4155 410.627 14.5824V14.6676C411.316 14.7812 411.854 15.0742 412.241 15.5465C412.628 16.0153 412.822 16.5959 412.822 17.2884C412.822 17.8814 412.66 18.4141 412.337 18.8864C412.017 19.3551 411.581 19.7244 411.027 19.9943C410.473 20.2642 409.842 20.3991 409.136 20.3991Z" fill="black"/>
<rect x="450.938" y="53.6875" width="28.125" height="28.125" rx="14.0625" fill="white"/>
<rect x="450.938" y="53.6875" width="28.125" height="28.125" rx="14.0625" stroke="black" stroke-width="1.875"/>
<path d="M461.464 61.8409V72.75H460.143V63.2259H460.08L457.416 64.9943V63.652L460.143 61.8409H461.464ZM468.075 61.6918C468.522 61.6953 468.97 61.7805 469.417 61.9474C469.865 62.1143 470.273 62.3913 470.642 62.7784C471.012 63.1619 471.308 63.6857 471.532 64.3498C471.756 65.0138 471.868 65.8466 471.868 66.848C471.868 67.8175 471.775 68.6786 471.591 69.4315C471.409 70.1808 471.147 70.8129 470.802 71.3278C470.461 71.8427 470.046 72.2333 469.556 72.4996C469.069 72.766 468.519 72.8991 467.904 72.8991C467.294 72.8991 466.749 72.7784 466.269 72.5369C465.793 72.2919 465.403 71.9528 465.097 71.5195C464.795 71.0827 464.602 70.5767 464.517 70.0014H465.816C465.934 70.5021 466.166 70.9158 466.514 71.2425C466.866 71.5657 467.329 71.7273 467.904 71.7273C468.746 71.7273 469.41 71.3597 469.897 70.6246C470.387 69.8896 470.632 68.8509 470.632 67.5085H470.547C470.348 67.8068 470.112 68.0643 469.838 68.2809C469.565 68.4975 469.261 68.6644 468.927 68.7816C468.593 68.8988 468.238 68.9574 467.862 68.9574C467.237 68.9574 466.663 68.8029 466.141 68.494C465.623 68.1815 465.207 67.7536 464.895 67.2102C464.586 66.6634 464.431 66.0384 464.431 65.3352C464.431 64.6676 464.581 64.0568 464.879 63.5028C465.181 62.9453 465.603 62.5014 466.147 62.1712C466.694 61.8409 467.336 61.6811 468.075 61.6918ZM468.075 62.8636C467.627 62.8636 467.224 62.9755 466.866 63.1992C466.511 63.4194 466.228 63.7177 466.019 64.0941C465.813 64.467 465.71 64.8807 465.71 65.3352C465.71 65.7898 465.809 66.2035 466.008 66.5763C466.211 66.9457 466.486 67.2404 466.834 67.4606C467.185 67.6772 467.585 67.7855 468.032 67.7855C468.37 67.7855 468.684 67.7198 468.975 67.5884C469.266 67.4535 469.52 67.2706 469.737 67.0398C469.957 66.8054 470.129 66.5408 470.254 66.2461C470.378 65.9478 470.44 65.6371 470.44 65.3139C470.44 64.8878 470.337 64.4883 470.131 64.1154C469.929 63.7425 469.648 63.4407 469.289 63.2099C468.934 62.979 468.529 62.8636 468.075 62.8636Z" fill="black"/>
</g>
<g clip-path="url(#clip3_335_111)">
<path d="M585 120.25L615 67.75" stroke="#F5332B" stroke-width="1.875" stroke-linecap="round"/>
<path d="M675 15.25L615 67.75" stroke="black" stroke-width="1.875" stroke-linecap="round"/>
<path d="M675 15.25L735 67.75" stroke="black" stroke-width="1.875" stroke-linecap="round"/>
<path d="M645 120.25L615 67.75" stroke="black" stroke-width="1.875" stroke-linecap="round"/>
<path d="M765 120.25L735 67.75" stroke="black" stroke-width="1.875" stroke-linecap="round"/>
<path d="M705 120.25L735 67.75" stroke="black" stroke-width="1.875" stroke-linecap="round"/>
<path d="M555 172.75L585 120.25" stroke="black" stroke-width="1.875" stroke-linecap="round"/>
<path d="M615 172.75L585 120.25" stroke="#F5332B" stroke-width="1.875" stroke-linecap="round"/>
<rect x="570.938" y="106.188" width="28.125" height="28.125" rx="14.0625" fill="white"/>
<rect x="570.938" y="106.188" width="28.125" height="28.125" rx="14.0625" stroke="#F5332B" stroke-width="1.875"/>
<path d="M580.315 125.399C579.612 125.399 578.985 125.278 578.435 125.037C577.888 124.795 577.453 124.46 577.13 124.03C576.81 123.597 576.636 123.094 576.608 122.523H577.95C577.979 122.874 578.099 123.178 578.312 123.434C578.526 123.686 578.804 123.881 579.149 124.02C579.493 124.158 579.875 124.227 580.294 124.227C580.763 124.227 581.178 124.146 581.54 123.982C581.903 123.819 582.187 123.592 582.393 123.3C582.599 123.009 582.702 122.672 582.702 122.288C582.702 121.887 582.602 121.534 582.403 121.228C582.205 120.919 581.913 120.678 581.53 120.504C581.146 120.33 580.678 120.243 580.124 120.243H579.25V119.071H580.124C580.557 119.071 580.937 118.993 581.263 118.837C581.594 118.68 581.851 118.46 582.036 118.176C582.224 117.892 582.318 117.558 582.318 117.175C582.318 116.805 582.237 116.484 582.073 116.211C581.91 115.937 581.679 115.724 581.381 115.571C581.086 115.419 580.738 115.342 580.337 115.342C579.96 115.342 579.605 115.412 579.271 115.55C578.941 115.685 578.671 115.882 578.462 116.141C578.252 116.397 578.138 116.706 578.121 117.068H576.842C576.864 116.496 577.036 115.996 577.359 115.566C577.682 115.133 578.105 114.795 578.627 114.554C579.152 114.312 579.729 114.192 580.358 114.192C581.033 114.192 581.612 114.328 582.094 114.602C582.577 114.872 582.949 115.229 583.208 115.673C583.467 116.116 583.597 116.596 583.597 117.111C583.597 117.725 583.435 118.249 583.112 118.682C582.792 119.115 582.357 119.415 581.807 119.582V119.668C582.496 119.781 583.034 120.074 583.421 120.547C583.808 121.015 584.001 121.596 584.001 122.288C584.001 122.881 583.84 123.414 583.517 123.886C583.197 124.355 582.76 124.724 582.206 124.994C581.652 125.264 581.022 125.399 580.315 125.399ZM586.18 125.25V124.291L589.781 120.349C590.203 119.888 590.551 119.487 590.825 119.146C591.098 118.801 591.301 118.478 591.432 118.176C591.567 117.871 591.635 117.551 591.635 117.217C591.635 116.834 591.542 116.502 591.358 116.221C591.176 115.941 590.928 115.724 590.612 115.571C590.296 115.419 589.941 115.342 589.547 115.342C589.127 115.342 588.762 115.429 588.449 115.603C588.14 115.774 587.901 116.013 587.73 116.322C587.563 116.631 587.48 116.994 587.48 117.409H586.223C586.223 116.77 586.37 116.209 586.665 115.726C586.96 115.243 587.361 114.866 587.869 114.597C588.38 114.327 588.953 114.192 589.589 114.192C590.228 114.192 590.795 114.327 591.288 114.597C591.782 114.866 592.169 115.23 592.45 115.689C592.73 116.147 592.87 116.656 592.87 117.217C592.87 117.619 592.798 118.011 592.652 118.395C592.51 118.775 592.261 119.199 591.906 119.668C591.555 120.133 591.066 120.701 590.441 121.372L587.991 123.993V124.078H593.062V125.25H586.18Z" fill="#F5332B"/>
<rect x="630.938" y="106.188" width="28.125" height="28.125" rx="14.0625" fill="white"/>
<rect x="630.938" y="106.188" width="28.125" height="28.125" rx="14.0625" stroke="black" stroke-width="1.875"/>
<path d="M644.602 114.192C645.05 114.195 645.497 114.281 645.945 114.447C646.392 114.614 646.8 114.891 647.17 115.278C647.539 115.662 647.836 116.186 648.059 116.85C648.283 117.514 648.395 118.347 648.395 119.348C648.395 120.317 648.303 121.179 648.118 121.931C647.937 122.681 647.674 123.313 647.33 123.828C646.989 124.343 646.573 124.733 646.083 125C645.597 125.266 645.046 125.399 644.432 125.399C643.821 125.399 643.276 125.278 642.797 125.037C642.321 124.792 641.93 124.453 641.625 124.02C641.323 123.583 641.129 123.077 641.044 122.501H642.344C642.461 123.002 642.694 123.416 643.042 123.743C643.393 124.066 643.857 124.227 644.432 124.227C645.273 124.227 645.938 123.86 646.424 123.125C646.914 122.39 647.159 121.351 647.159 120.009H647.074C646.875 120.307 646.639 120.564 646.365 120.781C646.092 120.998 645.788 121.164 645.455 121.282C645.121 121.399 644.766 121.457 644.389 121.457C643.764 121.457 643.191 121.303 642.669 120.994C642.15 120.681 641.735 120.254 641.422 119.71C641.113 119.163 640.959 118.538 640.959 117.835C640.959 117.168 641.108 116.557 641.406 116.003C641.708 115.445 642.131 115.001 642.674 114.671C643.221 114.341 643.864 114.181 644.602 114.192ZM644.602 115.364C644.155 115.364 643.752 115.475 643.393 115.699C643.038 115.919 642.756 116.218 642.546 116.594C642.34 116.967 642.237 117.381 642.237 117.835C642.237 118.29 642.337 118.703 642.536 119.076C642.738 119.446 643.013 119.74 643.361 119.961C643.713 120.177 644.112 120.286 644.56 120.286C644.897 120.286 645.211 120.22 645.502 120.088C645.794 119.953 646.048 119.771 646.264 119.54C646.484 119.305 646.657 119.041 646.781 118.746C646.905 118.448 646.967 118.137 646.967 117.814C646.967 117.388 646.864 116.988 646.658 116.615C646.456 116.243 646.175 115.941 645.817 115.71C645.462 115.479 645.057 115.364 644.602 115.364Z" fill="black"/>
<rect x="540.938" y="158.688" width="28.125" height="28.125" rx="14.0625" fill="white"/>
<rect x="540.938" y="158.688" width="28.125" height="28.125" rx="14.0625" stroke="black" stroke-width="1.875"/>
<path d="M551.97 177.75L556.849 168.098V168.013H551.224V166.841H558.213V168.077L553.355 177.75H551.97Z" fill="black"/>
<rect x="600.938" y="158.688" width="28.125" height="28.125" rx="14.0625" fill="white"/>
<rect x="600.938" y="158.688" width="28.125" height="28.125" rx="14.0625" stroke="#F5332B" stroke-width="1.875"/>
<path d="M607.629 177.75V176.791L611.23 172.849C611.653 172.388 612.001 171.987 612.274 171.646C612.548 171.301 612.75 170.978 612.881 170.676C613.016 170.371 613.084 170.051 613.084 169.717C613.084 169.334 612.991 169.002 612.807 168.721C612.626 168.441 612.377 168.224 612.061 168.071C611.745 167.919 611.39 167.842 610.996 167.842C610.577 167.842 610.211 167.929 609.898 168.103C609.589 168.274 609.35 168.513 609.179 168.822C609.012 169.131 608.929 169.494 608.929 169.909H607.672C607.672 169.27 607.819 168.709 608.114 168.226C608.409 167.743 608.81 167.366 609.318 167.097C609.829 166.827 610.403 166.692 611.038 166.692C611.678 166.692 612.244 166.827 612.738 167.097C613.231 167.366 613.618 167.73 613.899 168.189C614.179 168.647 614.32 169.156 614.32 169.717C614.32 170.119 614.247 170.511 614.101 170.895C613.959 171.275 613.711 171.699 613.355 172.168C613.004 172.633 612.516 173.201 611.891 173.872L609.44 176.493V176.578H614.511V177.75H607.629ZM620.547 166.841V177.75H619.225V168.226H619.162L616.498 169.994V168.652L619.225 166.841H620.547Z" fill="#F5332B"/>
<rect x="690.938" y="106.188" width="28.125" height="28.125" rx="14.0625" fill="white"/>
<rect x="690.938" y="106.188" width="28.125" height="28.125" rx="14.0625" stroke="black" stroke-width="1.875"/>
<path d="M701.464 114.341V125.25H700.143V115.726H700.08L697.416 117.494V116.152L700.143 114.341H701.464ZM704.602 125.25V124.291L708.203 120.349C708.625 119.888 708.973 119.487 709.247 119.146C709.52 118.801 709.723 118.478 709.854 118.176C709.989 117.871 710.056 117.551 710.056 117.217C710.056 116.834 709.964 116.502 709.779 116.221C709.598 115.941 709.35 115.724 709.034 115.571C708.718 115.419 708.363 115.342 707.968 115.342C707.549 115.342 707.184 115.429 706.871 115.603C706.562 115.774 706.322 116.013 706.152 116.322C705.985 116.631 705.902 116.994 705.902 117.409H704.645C704.645 116.77 704.792 116.209 705.087 115.726C705.381 115.243 705.783 114.866 706.29 114.597C706.802 114.327 707.375 114.192 708.011 114.192C708.65 114.192 709.217 114.327 709.71 114.597C710.204 114.866 710.591 115.23 710.871 115.689C711.152 116.147 711.292 116.656 711.292 117.217C711.292 117.619 711.219 118.011 711.074 118.395C710.932 118.775 710.683 119.199 710.328 119.668C709.977 120.133 709.488 120.701 708.863 121.372L706.413 123.993V124.078H711.484V125.25H704.602Z" fill="black"/>
<rect x="750.938" y="106.188" width="28.125" height="28.125" rx="14.0625" fill="white"/>
<rect x="750.938" y="106.188" width="28.125" height="28.125" rx="14.0625" stroke="black" stroke-width="1.875"/>
<path d="M766.464 114.341V125.25H765.143V115.726H765.08L762.416 117.494V116.152L765.143 114.341H766.464Z" fill="black"/>
<rect x="600.938" y="53.6875" width="28.125" height="28.125" rx="14.0625" fill="white"/>
<rect x="600.938" y="53.6875" width="28.125" height="28.125" rx="14.0625" stroke="#0078FC" stroke-width="1.875"/>
<path d="M610.315 72.8991C609.612 72.8991 608.985 72.7784 608.435 72.5369C607.888 72.2955 607.453 71.9599 607.13 71.5302C606.81 71.0969 606.636 70.5945 606.608 70.0227H607.95C607.979 70.3743 608.099 70.6779 608.312 70.9336C608.526 71.1857 608.804 71.381 609.149 71.5195C609.493 71.658 609.875 71.7273 610.294 71.7273C610.763 71.7273 611.178 71.6456 611.54 71.4822C611.903 71.3189 612.187 71.0916 612.393 70.8004C612.599 70.5092 612.702 70.1719 612.702 69.7884C612.702 69.3871 612.602 69.0337 612.403 68.7283C612.205 68.4194 611.913 68.1779 611.53 68.0039C611.146 67.8299 610.678 67.7429 610.124 67.7429H609.25V66.571H610.124C610.557 66.571 610.937 66.4929 611.263 66.3366C611.594 66.1804 611.851 65.9602 612.036 65.6761C612.224 65.392 612.318 65.0582 612.318 64.6747C612.318 64.3054 612.237 63.984 612.073 63.7106C611.91 63.4371 611.679 63.2241 611.381 63.0714C611.086 62.9187 610.738 62.8423 610.337 62.8423C609.96 62.8423 609.605 62.9116 609.271 63.0501C608.941 63.185 608.671 63.3821 608.462 63.6413C608.252 63.897 608.138 64.206 608.121 64.5682H606.842C606.864 63.9964 607.036 63.4957 607.359 63.0661C607.682 62.6328 608.105 62.2955 608.627 62.054C609.152 61.8125 609.729 61.6918 610.358 61.6918C611.033 61.6918 611.612 61.8285 612.094 62.1019C612.577 62.3718 612.949 62.7287 613.208 63.1726C613.467 63.6165 613.597 64.0959 613.597 64.6108C613.597 65.2251 613.435 65.7489 613.112 66.1822C612.792 66.6154 612.357 66.9155 611.807 67.0824V67.1676C612.496 67.2812 613.034 67.5742 613.421 68.0465C613.808 68.5153 614.001 69.0959 614.001 69.7884C614.001 70.3814 613.84 70.9141 613.517 71.3864C613.197 71.8551 612.76 72.2244 612.206 72.4943C611.652 72.7642 611.022 72.8991 610.315 72.8991ZM616.521 72.75L621.4 63.098V63.0128H615.775V61.8409H622.764V63.0767L617.906 72.75H616.521Z" fill="#0078FC"/>
<rect x="660.938" y="1.1875" width="28.125" height="28.125" rx="14.0625" fill="white"/>
<rect x="660.938" y="1.1875" width="28.125" height="28.125" rx="14.0625" stroke="black" stroke-width="1.875"/>
<path d="M667.47 20.25L672.349 10.598V10.5128H666.724V9.34091H673.713V10.5767L668.855 20.25H667.47ZM679.136 20.3991C678.433 20.3991 677.806 20.2784 677.255 20.0369C676.708 19.7955 676.273 19.4599 675.95 19.0302C675.631 18.5969 675.457 18.0945 675.428 17.5227H676.771C676.799 17.8743 676.92 18.1779 677.133 18.4336C677.346 18.6857 677.625 18.881 677.969 19.0195C678.314 19.158 678.695 19.2273 679.114 19.2273C679.583 19.2273 679.999 19.1456 680.361 18.9822C680.723 18.8189 681.007 18.5916 681.213 18.3004C681.419 18.0092 681.522 17.6719 681.522 17.2884C681.522 16.8871 681.423 16.5337 681.224 16.2283C681.025 15.9194 680.734 15.6779 680.35 15.5039C679.967 15.3299 679.498 15.2429 678.944 15.2429H678.07V14.071H678.944C679.377 14.071 679.757 13.9929 680.084 13.8366C680.414 13.6804 680.672 13.4602 680.856 13.1761C681.044 12.892 681.138 12.5582 681.138 12.1747C681.138 11.8054 681.057 11.484 680.893 11.2106C680.73 10.9371 680.499 10.7241 680.201 10.5714C679.906 10.4187 679.558 10.3423 679.157 10.3423C678.781 10.3423 678.425 10.4116 678.092 10.5501C677.761 10.685 677.491 10.8821 677.282 11.1413C677.072 11.397 676.959 11.706 676.941 12.0682H675.663C675.684 11.4964 675.856 10.9957 676.179 10.5661C676.502 10.1328 676.925 9.79545 677.447 9.55398C677.973 9.3125 678.55 9.19176 679.178 9.19176C679.853 9.19176 680.432 9.32848 680.915 9.60192C681.398 9.8718 681.769 10.2287 682.028 10.6726C682.287 11.1165 682.417 11.5959 682.417 12.1108C682.417 12.7251 682.255 13.2489 681.932 13.6822C681.613 14.1154 681.178 14.4155 680.627 14.5824V14.6676C681.316 14.7812 681.854 15.0742 682.241 15.5465C682.628 16.0153 682.822 16.5959 682.822 17.2884C682.822 17.8814 682.66 18.4141 682.337 18.8864C682.017 19.3551 681.581 19.7244 681.027 19.9943C680.473 20.2642 679.842 20.3991 679.136 20.3991Z" fill="black"/>
<rect x="720.938" y="53.6875" width="28.125" height="28.125" rx="14.0625" fill="white"/>
<rect x="720.938" y="53.6875" width="28.125" height="28.125" rx="14.0625" stroke="black" stroke-width="1.875"/>
<path d="M731.464 61.8409V72.75H730.143V63.2259H730.08L727.416 64.9943V63.652L730.143 61.8409H731.464ZM738.075 61.6918C738.522 61.6953 738.97 61.7805 739.417 61.9474C739.865 62.1143 740.273 62.3913 740.642 62.7784C741.012 63.1619 741.308 63.6857 741.532 64.3498C741.756 65.0138 741.868 65.8466 741.868 66.848C741.868 67.8175 741.775 68.6786 741.591 69.4315C741.409 70.1808 741.147 70.8129 740.802 71.3278C740.461 71.8427 740.046 72.2333 739.556 72.4996C739.069 72.766 738.519 72.8991 737.904 72.8991C737.294 72.8991 736.749 72.7784 736.269 72.5369C735.793 72.2919 735.403 71.9528 735.097 71.5195C734.795 71.0827 734.602 70.5767 734.517 70.0014H735.816C735.934 70.5021 736.166 70.9158 736.514 71.2425C736.866 71.5657 737.329 71.7273 737.904 71.7273C738.746 71.7273 739.41 71.3597 739.897 70.6246C740.387 69.8896 740.632 68.8509 740.632 67.5085H740.547C740.348 67.8068 740.112 68.0643 739.838 68.2809C739.565 68.4975 739.261 68.6644 738.927 68.7816C738.593 68.8988 738.238 68.9574 737.862 68.9574C737.237 68.9574 736.663 68.8029 736.141 68.494C735.623 68.1815 735.207 67.7536 734.895 67.2102C734.586 66.6634 734.431 66.0384 734.431 65.3352C734.431 64.6676 734.581 64.0568 734.879 63.5028C735.181 62.9453 735.603 62.5014 736.147 62.1712C736.694 61.8409 737.336 61.6811 738.075 61.6918ZM738.075 62.8636C737.627 62.8636 737.224 62.9755 736.866 63.1992C736.511 63.4194 736.228 63.7177 736.019 64.0941C735.813 64.467 735.71 64.8807 735.71 65.3352C735.71 65.7898 735.809 66.2035 736.008 66.5763C736.211 66.9457 736.486 67.2404 736.834 67.4606C737.185 67.6772 737.585 67.7855 738.032 67.7855C738.37 67.7855 738.684 67.7198 738.975 67.5884C739.266 67.4535 739.52 67.2706 739.737 67.0398C739.957 66.8054 740.129 66.5408 740.254 66.2461C740.378 65.9478 740.44 65.6371 740.44 65.3139C740.44 64.8878 740.337 64.4883 740.131 64.1154C739.929 63.7425 739.648 63.4407 739.289 63.2099C738.934 62.979 738.529 62.8636 738.075 62.8636Z" fill="black"/>
</g>
</g>
<defs>
<clipPath id="clip0_335_111">
<rect width="780" height="187.5" fill="white" transform="translate(0 0.25)"/>
</clipPath>
<clipPath id="clip1_335_111">
<rect width="240" height="187.5" fill="white" transform="translate(0 0.25)"/>
</clipPath>
<clipPath id="clip2_335_111">
<rect width="240" height="187.5" fill="white" transform="translate(270 0.25)"/>
</clipPath>
<clipPath id="clip3_335_111">
<rect width="240" height="187.5" fill="white" transform="translate(540 0.25)"/>
</clipPath>
</defs>
</svg>
