<svg width="780" height="188" viewBox="0 0 780 188" fill="none" xmlns="http://www.w3.org/2000/svg">
<g clip-path="url(#clip0_336_193)">
<g clip-path="url(#clip1_336_193)">
<path d="M45 120.25L75 67.75" stroke="black" stroke-width="1.875" stroke-linecap="round"/>
<path d="M135 15.25L75 67.75" stroke="black" stroke-width="1.875" stroke-linecap="round"/>
<path d="M135 15.25L195 67.75" stroke="black" stroke-width="1.875" stroke-linecap="round"/>
<path d="M105 120.25L75 67.75" stroke="black" stroke-width="1.875" stroke-linecap="round"/>
<path d="M225 120.25L195 67.75" stroke="black" stroke-width="1.875" stroke-linecap="round"/>
<path d="M165 120.25L195 67.75" stroke="black" stroke-width="1.875" stroke-linecap="round"/>
<path d="M15 172.75L45 120.25" stroke="black" stroke-width="1.875" stroke-linecap="round"/>
<path d="M75 172.75L45 120.25" stroke="black" stroke-width="1.875" stroke-linecap="round"/>
<rect x="30.9375" y="106.188" width="28.125" height="28.125" rx="14.0625" fill="white"/>
<rect x="30.9375" y="106.188" width="28.125" height="28.125" rx="14.0625" stroke="black" stroke-width="1.875"/>
<path d="M37.6293 125.25V124.291L41.2301 120.349C41.6527 119.888 42.0007 119.487 42.2741 119.146C42.5476 118.801 42.75 118.478 42.8814 118.176C43.0163 117.871 43.0838 117.551 43.0838 117.217C43.0838 116.834 42.9915 116.502 42.8068 116.221C42.6257 115.941 42.3771 115.724 42.0611 115.571C41.745 115.419 41.3899 115.342 40.9957 115.342C40.5767 115.342 40.2109 115.429 39.8984 115.603C39.5895 115.774 39.3498 116.013 39.1793 116.322C39.0124 116.631 38.929 116.994 38.929 117.409H37.6719C37.6719 116.77 37.8192 116.209 38.114 115.726C38.4087 115.243 38.81 114.866 39.3178 114.597C39.8292 114.327 40.4027 114.192 41.0384 114.192C41.6776 114.192 42.244 114.327 42.7376 114.597C43.2312 114.866 43.6183 115.23 43.8988 115.689C44.1793 116.147 44.3196 116.656 44.3196 117.217C44.3196 117.619 44.2468 118.011 44.1012 118.395C43.9592 118.775 43.7106 119.199 43.3555 119.668C43.0039 120.133 42.5156 120.701 41.8906 121.372L39.4403 123.993V124.078H44.5114V125.25H37.6293ZM50.5465 114.341V125.25H49.2255V115.726H49.1616L46.4982 117.494V116.152L49.2255 114.341H50.5465Z" fill="black"/>
<rect x="90.9375" y="106.188" width="28.125" height="28.125" rx="14.0625" fill="white"/>
<rect x="90.9375" y="106.188" width="28.125" height="28.125" rx="14.0625" stroke="black" stroke-width="1.875"/>
<path d="M104.602 114.192C105.05 114.195 105.497 114.281 105.945 114.447C106.392 114.614 106.8 114.891 107.17 115.278C107.539 115.662 107.836 116.186 108.059 116.85C108.283 117.514 108.395 118.347 108.395 119.348C108.395 120.317 108.303 121.179 108.118 121.931C107.937 122.681 107.674 123.313 107.33 123.828C106.989 124.343 106.573 124.733 106.083 125C105.597 125.266 105.046 125.399 104.432 125.399C103.821 125.399 103.276 125.278 102.797 125.037C102.321 124.792 101.93 124.453 101.625 124.02C101.323 123.583 101.129 123.077 101.044 122.501H102.344C102.461 123.002 102.694 123.416 103.042 123.743C103.393 124.066 103.857 124.227 104.432 124.227C105.273 124.227 105.938 123.86 106.424 123.125C106.914 122.39 107.159 121.351 107.159 120.009H107.074C106.875 120.307 106.639 120.564 106.365 120.781C106.092 120.998 105.788 121.164 105.455 121.282C105.121 121.399 104.766 121.457 104.389 121.457C103.764 121.457 103.191 121.303 102.669 120.994C102.15 120.681 101.735 120.254 101.422 119.71C101.113 119.163 100.959 118.538 100.959 117.835C100.959 117.168 101.108 116.557 101.406 116.003C101.708 115.445 102.131 115.001 102.674 114.671C103.221 114.341 103.864 114.181 104.602 114.192ZM104.602 115.364C104.155 115.364 103.752 115.475 103.393 115.699C103.038 115.919 102.756 116.218 102.546 116.594C102.34 116.967 102.237 117.381 102.237 117.835C102.237 118.29 102.337 118.703 102.536 119.076C102.738 119.446 103.013 119.74 103.361 119.961C103.713 120.177 104.112 120.286 104.56 120.286C104.897 120.286 105.211 120.22 105.502 120.088C105.794 119.953 106.048 119.771 106.264 119.54C106.484 119.305 106.657 119.041 106.781 118.746C106.905 118.448 106.967 118.137 106.967 117.814C106.967 117.388 106.864 116.988 106.658 116.615C106.456 116.243 106.175 115.941 105.817 115.71C105.462 115.479 105.057 115.364 104.602 115.364Z" fill="black"/>
<rect x="0.9375" y="158.688" width="28.125" height="28.125" rx="14.0625" fill="white"/>
<rect x="0.9375" y="158.688" width="28.125" height="28.125" rx="14.0625" stroke="black" stroke-width="1.875"/>
<path d="M11.9702 177.75L16.8494 168.098V168.013H11.2244V166.841H18.2131V168.077L13.3551 177.75H11.9702Z" fill="black"/>
<rect x="60.9375" y="158.688" width="28.125" height="28.125" rx="14.0625" fill="white"/>
<rect x="60.9375" y="158.688" width="28.125" height="28.125" rx="14.0625" stroke="black" stroke-width="1.875"/>
<path d="M74.8153 177.899C74.1122 177.899 73.4854 177.778 72.935 177.537C72.3881 177.295 71.9531 176.96 71.63 176.53C71.3104 176.097 71.1364 175.594 71.108 175.023H72.4503C72.4787 175.374 72.5994 175.678 72.8125 175.934C73.0256 176.186 73.3043 176.381 73.6488 176.52C73.9933 176.658 74.375 176.727 74.794 176.727C75.2628 176.727 75.6783 176.646 76.0405 176.482C76.4027 176.319 76.6868 176.092 76.8928 175.8C77.0987 175.509 77.2017 175.172 77.2017 174.788C77.2017 174.387 77.1023 174.034 76.9034 173.728C76.7045 173.419 76.4134 173.178 76.0298 173.004C75.6463 172.83 75.1776 172.743 74.6236 172.743H73.75V171.571H74.6236C75.0568 171.571 75.4368 171.493 75.7635 171.337C76.0938 171.18 76.3512 170.96 76.5359 170.676C76.7241 170.392 76.8182 170.058 76.8182 169.675C76.8182 169.305 76.7365 168.984 76.5732 168.711C76.4098 168.437 76.179 168.224 75.8807 168.071C75.5859 167.919 75.2379 167.842 74.8366 167.842C74.4602 167.842 74.1051 167.912 73.7713 168.05C73.4411 168.185 73.1712 168.382 72.9616 168.641C72.7521 168.897 72.6385 169.206 72.6207 169.568H71.3423C71.3636 168.996 71.5359 168.496 71.859 168.066C72.1822 167.633 72.6048 167.295 73.1268 167.054C73.6523 166.812 74.2294 166.692 74.858 166.692C75.5327 166.692 76.1115 166.828 76.5945 167.102C77.0774 167.372 77.4485 167.729 77.7077 168.173C77.967 168.616 78.0966 169.096 78.0966 169.611C78.0966 170.225 77.935 170.749 77.6119 171.182C77.2923 171.615 76.8572 171.915 76.3068 172.082V172.168C76.9957 172.281 77.5337 172.574 77.9208 173.047C78.3079 173.515 78.5014 174.096 78.5014 174.788C78.5014 175.381 78.3398 175.914 78.0167 176.386C77.6971 176.855 77.2603 177.224 76.7063 177.494C76.1523 177.764 75.522 177.899 74.8153 177.899Z" fill="black"/>
<rect x="150.938" y="106.188" width="28.125" height="28.125" rx="14.0625" fill="white"/>
<rect x="150.938" y="106.188" width="28.125" height="28.125" rx="14.0625" stroke="black" stroke-width="1.875"/>
<path d="M161.464 114.341V125.25H160.143V115.726H160.08L157.416 117.494V116.152L160.143 114.341H161.464ZM164.602 125.25V124.291L168.203 120.349C168.625 119.888 168.973 119.487 169.247 119.146C169.52 118.801 169.723 118.478 169.854 118.176C169.989 117.871 170.056 117.551 170.056 117.217C170.056 116.834 169.964 116.502 169.779 116.221C169.598 115.941 169.35 115.724 169.034 115.571C168.718 115.419 168.363 115.342 167.968 115.342C167.549 115.342 167.184 115.429 166.871 115.603C166.562 115.774 166.322 116.013 166.152 116.322C165.985 116.631 165.902 116.994 165.902 117.409H164.645C164.645 116.77 164.792 116.209 165.087 115.726C165.381 115.243 165.783 114.866 166.29 114.597C166.802 114.327 167.375 114.192 168.011 114.192C168.65 114.192 169.217 114.327 169.71 114.597C170.204 114.866 170.591 115.23 170.871 115.689C171.152 116.147 171.292 116.656 171.292 117.217C171.292 117.619 171.219 118.011 171.074 118.395C170.932 118.775 170.683 119.199 170.328 119.668C169.977 120.133 169.488 120.701 168.863 121.372L166.413 123.993V124.078H171.484V125.25H164.602Z" fill="black"/>
<rect x="210.938" y="106.188" width="28.125" height="28.125" rx="14.0625" fill="white"/>
<rect x="210.938" y="106.188" width="28.125" height="28.125" rx="14.0625" stroke="black" stroke-width="1.875"/>
<path d="M226.464 114.341V125.25H225.143V115.726H225.08L222.416 117.494V116.152L225.143 114.341H226.464Z" fill="black"/>
<rect x="60.9375" y="53.6875" width="28.125" height="28.125" rx="14.0625" fill="white"/>
<rect x="60.9375" y="53.6875" width="28.125" height="28.125" rx="14.0625" stroke="#0078FC" stroke-width="1.875"/>
<path d="M71.1293 72.75V71.7912L74.7301 67.8494C75.1527 67.3878 75.5007 66.9865 75.7741 66.6456C76.0476 66.3011 76.25 65.978 76.3814 65.6761C76.5163 65.3707 76.5838 65.0511 76.5838 64.7173C76.5838 64.3338 76.4915 64.0018 76.3068 63.7212C76.1257 63.4407 75.8771 63.2241 75.5611 63.0714C75.245 62.9187 74.8899 62.8423 74.4957 62.8423C74.0767 62.8423 73.7109 62.9293 73.3984 63.1033C73.0895 63.2738 72.8498 63.5135 72.6793 63.8224C72.5124 64.1314 72.429 64.4936 72.429 64.9091H71.1719C71.1719 64.2699 71.3192 63.7088 71.614 63.2259C71.9087 62.7429 72.31 62.3665 72.8178 62.0966C73.3292 61.8267 73.9027 61.6918 74.5384 61.6918C75.1776 61.6918 75.744 61.8267 76.2376 62.0966C76.7312 62.3665 77.1183 62.7305 77.3988 63.1886C77.6793 63.6467 77.8196 64.1562 77.8196 64.7173C77.8196 65.1186 77.7468 65.511 77.6012 65.8945C77.4592 66.2745 77.2106 66.6989 76.8555 67.1676C76.5039 67.6328 76.0156 68.201 75.3906 68.8722L72.9403 71.4929V71.5781H78.0114V72.75H71.1293Z" fill="#0078FC"/>
<rect x="120.938" y="1.1875" width="28.125" height="28.125" rx="14.0625" fill="white"/>
<rect x="120.938" y="1.1875" width="28.125" height="28.125" rx="14.0625" stroke="black" stroke-width="1.875"/>
<path d="M127.47 20.25L132.349 10.598V10.5128H126.724V9.34091H133.713V10.5767L128.855 20.25H127.47ZM139.136 20.3991C138.433 20.3991 137.806 20.2784 137.255 20.0369C136.708 19.7955 136.273 19.4599 135.95 19.0302C135.631 18.5969 135.457 18.0945 135.428 17.5227H136.771C136.799 17.8743 136.92 18.1779 137.133 18.4336C137.346 18.6857 137.625 18.881 137.969 19.0195C138.314 19.158 138.695 19.2273 139.114 19.2273C139.583 19.2273 139.999 19.1456 140.361 18.9822C140.723 18.8189 141.007 18.5916 141.213 18.3004C141.419 18.0092 141.522 17.6719 141.522 17.2884C141.522 16.8871 141.423 16.5337 141.224 16.2283C141.025 15.9194 140.734 15.6779 140.35 15.5039C139.967 15.3299 139.498 15.2429 138.944 15.2429H138.07V14.071H138.944C139.377 14.071 139.757 13.9929 140.084 13.8366C140.414 13.6804 140.672 13.4602 140.856 13.1761C141.044 12.892 141.138 12.5582 141.138 12.1747C141.138 11.8054 141.057 11.484 140.893 11.2106C140.73 10.9371 140.499 10.7241 140.201 10.5714C139.906 10.4187 139.558 10.3423 139.157 10.3423C138.781 10.3423 138.425 10.4116 138.092 10.5501C137.761 10.685 137.491 10.8821 137.282 11.1413C137.072 11.397 136.959 11.706 136.941 12.0682H135.663C135.684 11.4964 135.856 10.9957 136.179 10.5661C136.502 10.1328 136.925 9.79545 137.447 9.55398C137.973 9.3125 138.55 9.19176 139.178 9.19176C139.853 9.19176 140.432 9.32848 140.915 9.60192C141.398 9.8718 141.769 10.2287 142.028 10.6726C142.287 11.1165 142.417 11.5959 142.417 12.1108C142.417 12.7251 142.255 13.2489 141.932 13.6822C141.613 14.1154 141.178 14.4155 140.627 14.5824V14.6676C141.316 14.7812 141.854 15.0742 142.241 15.5465C142.628 16.0153 142.822 16.5959 142.822 17.2884C142.822 17.8814 142.66 18.4141 142.337 18.8864C142.017 19.3551 141.581 19.7244 141.027 19.9943C140.473 20.2642 139.842 20.3991 139.136 20.3991Z" fill="black"/>
<rect x="180.938" y="53.6875" width="28.125" height="28.125" rx="14.0625" fill="white"/>
<rect x="180.938" y="53.6875" width="28.125" height="28.125" rx="14.0625" stroke="black" stroke-width="1.875"/>
<path d="M191.464 61.8409V72.75H190.143V63.2259H190.08L187.416 64.9943V63.652L190.143 61.8409H191.464ZM198.075 61.6918C198.522 61.6953 198.97 61.7805 199.417 61.9474C199.865 62.1143 200.273 62.3913 200.642 62.7784C201.012 63.1619 201.308 63.6857 201.532 64.3498C201.756 65.0138 201.868 65.8466 201.868 66.848C201.868 67.8175 201.775 68.6786 201.591 69.4315C201.409 70.1808 201.147 70.8129 200.802 71.3278C200.461 71.8427 200.046 72.2333 199.556 72.4996C199.069 72.766 198.519 72.8991 197.904 72.8991C197.294 72.8991 196.749 72.7784 196.269 72.5369C195.793 72.2919 195.403 71.9528 195.097 71.5195C194.795 71.0827 194.602 70.5767 194.517 70.0014H195.816C195.934 70.5021 196.166 70.9158 196.514 71.2425C196.866 71.5657 197.329 71.7273 197.904 71.7273C198.746 71.7273 199.41 71.3597 199.897 70.6246C200.387 69.8896 200.632 68.8509 200.632 67.5085H200.547C200.348 67.8068 200.112 68.0643 199.838 68.2809C199.565 68.4975 199.261 68.6644 198.927 68.7816C198.593 68.8988 198.238 68.9574 197.862 68.9574C197.237 68.9574 196.663 68.8029 196.141 68.494C195.623 68.1815 195.207 67.7536 194.895 67.2102C194.586 66.6634 194.431 66.0384 194.431 65.3352C194.431 64.6676 194.581 64.0568 194.879 63.5028C195.181 62.9453 195.603 62.5014 196.147 62.1712C196.694 61.8409 197.336 61.6811 198.075 61.6918ZM198.075 62.8636C197.627 62.8636 197.224 62.9755 196.866 63.1992C196.511 63.4194 196.228 63.7177 196.019 64.0941C195.813 64.467 195.71 64.8807 195.71 65.3352C195.71 65.7898 195.809 66.2035 196.008 66.5763C196.211 66.9457 196.486 67.2404 196.834 67.4606C197.185 67.6772 197.585 67.7855 198.032 67.7855C198.37 67.7855 198.684 67.7198 198.975 67.5884C199.266 67.4535 199.52 67.2706 199.737 67.0398C199.957 66.8054 200.129 66.5408 200.254 66.2461C200.378 65.9478 200.44 65.6371 200.44 65.3139C200.44 64.8878 200.337 64.4883 200.131 64.1154C199.929 63.7425 199.648 63.4407 199.289 63.2099C198.934 62.979 198.529 62.8636 198.075 62.8636Z" fill="black"/>
</g>
<g clip-path="url(#clip2_336_193)">
<path d="M315 120.25L345 67.75" stroke="#F5332B" stroke-width="1.875" stroke-linecap="round"/>
<path d="M405 15.25L345 67.75" stroke="black" stroke-width="1.875" stroke-linecap="round"/>
<path d="M405 15.25L465 67.75" stroke="black" stroke-width="1.875" stroke-linecap="round"/>
<path d="M375 120.25L345 67.75" stroke="black" stroke-width="1.875" stroke-linecap="round"/>
<path d="M495 120.25L465 67.75" stroke="black" stroke-width="1.875" stroke-linecap="round"/>
<path d="M435 120.25L465 67.75" stroke="black" stroke-width="1.875" stroke-linecap="round"/>
<path d="M285 172.75L315 120.25" stroke="black" stroke-width="1.875" stroke-linecap="round"/>
<path d="M345 172.75L315 120.25" stroke="black" stroke-width="1.875" stroke-linecap="round"/>
<rect x="300.938" y="106.188" width="28.125" height="28.125" rx="14.0625" fill="white"/>
<rect x="300.938" y="106.188" width="28.125" height="28.125" rx="14.0625" stroke="#0078FC" stroke-width="1.875"/>
<path d="M311.129 125.25V124.291L314.73 120.349C315.153 119.888 315.501 119.487 315.774 119.146C316.048 118.801 316.25 118.478 316.381 118.176C316.516 117.871 316.584 117.551 316.584 117.217C316.584 116.834 316.491 116.502 316.307 116.221C316.126 115.941 315.877 115.724 315.561 115.571C315.245 115.419 314.89 115.342 314.496 115.342C314.077 115.342 313.711 115.429 313.398 115.603C313.089 115.774 312.85 116.013 312.679 116.322C312.512 116.631 312.429 116.994 312.429 117.409H311.172C311.172 116.77 311.319 116.209 311.614 115.726C311.909 115.243 312.31 114.866 312.818 114.597C313.329 114.327 313.903 114.192 314.538 114.192C315.178 114.192 315.744 114.327 316.238 114.597C316.731 114.866 317.118 115.23 317.399 115.689C317.679 116.147 317.82 116.656 317.82 117.217C317.82 117.619 317.747 118.011 317.601 118.395C317.459 118.775 317.211 119.199 316.855 119.668C316.504 120.133 316.016 120.701 315.391 121.372L312.94 123.993V124.078H318.011V125.25H311.129Z" fill="#0078FC"/>
<rect x="360.938" y="106.188" width="28.125" height="28.125" rx="14.0625" fill="white"/>
<rect x="360.938" y="106.188" width="28.125" height="28.125" rx="14.0625" stroke="black" stroke-width="1.875"/>
<path d="M374.602 114.192C375.05 114.195 375.497 114.281 375.945 114.447C376.392 114.614 376.8 114.891 377.17 115.278C377.539 115.662 377.836 116.186 378.059 116.85C378.283 117.514 378.395 118.347 378.395 119.348C378.395 120.317 378.303 121.179 378.118 121.931C377.937 122.681 377.674 123.313 377.33 123.828C376.989 124.343 376.573 124.733 376.083 125C375.597 125.266 375.046 125.399 374.432 125.399C373.821 125.399 373.276 125.278 372.797 125.037C372.321 124.792 371.93 124.453 371.625 124.02C371.323 123.583 371.129 123.077 371.044 122.501H372.344C372.461 123.002 372.694 123.416 373.042 123.743C373.393 124.066 373.857 124.227 374.432 124.227C375.273 124.227 375.938 123.86 376.424 123.125C376.914 122.39 377.159 121.351 377.159 120.009H377.074C376.875 120.307 376.639 120.564 376.365 120.781C376.092 120.998 375.788 121.164 375.455 121.282C375.121 121.399 374.766 121.457 374.389 121.457C373.764 121.457 373.191 121.303 372.669 120.994C372.15 120.681 371.735 120.254 371.422 119.71C371.113 119.163 370.959 118.538 370.959 117.835C370.959 117.168 371.108 116.557 371.406 116.003C371.708 115.445 372.131 115.001 372.674 114.671C373.221 114.341 373.864 114.181 374.602 114.192ZM374.602 115.364C374.155 115.364 373.752 115.475 373.393 115.699C373.038 115.919 372.756 116.218 372.546 116.594C372.34 116.967 372.237 117.381 372.237 117.835C372.237 118.29 372.337 118.703 372.536 119.076C372.738 119.446 373.013 119.74 373.361 119.961C373.713 120.177 374.112 120.286 374.56 120.286C374.897 120.286 375.211 120.22 375.502 120.088C375.794 119.953 376.048 119.771 376.264 119.54C376.484 119.305 376.657 119.041 376.781 118.746C376.905 118.448 376.967 118.137 376.967 117.814C376.967 117.388 376.864 116.988 376.658 116.615C376.456 116.243 376.175 115.941 375.817 115.71C375.462 115.479 375.057 115.364 374.602 115.364Z" fill="black"/>
<rect x="270.938" y="158.688" width="28.125" height="28.125" rx="14.0625" fill="white"/>
<rect x="270.938" y="158.688" width="28.125" height="28.125" rx="14.0625" stroke="black" stroke-width="1.875"/>
<path d="M281.97 177.75L286.849 168.098V168.013H281.224V166.841H288.213V168.077L283.355 177.75H281.97Z" fill="black"/>
<rect x="330.938" y="158.688" width="28.125" height="28.125" rx="14.0625" fill="white"/>
<rect x="330.938" y="158.688" width="28.125" height="28.125" rx="14.0625" stroke="black" stroke-width="1.875"/>
<path d="M344.815 177.899C344.112 177.899 343.485 177.778 342.935 177.537C342.388 177.295 341.953 176.96 341.63 176.53C341.31 176.097 341.136 175.594 341.108 175.023H342.45C342.479 175.374 342.599 175.678 342.812 175.934C343.026 176.186 343.304 176.381 343.649 176.52C343.993 176.658 344.375 176.727 344.794 176.727C345.263 176.727 345.678 176.646 346.04 176.482C346.403 176.319 346.687 176.092 346.893 175.8C347.099 175.509 347.202 175.172 347.202 174.788C347.202 174.387 347.102 174.034 346.903 173.728C346.705 173.419 346.413 173.178 346.03 173.004C345.646 172.83 345.178 172.743 344.624 172.743H343.75V171.571H344.624C345.057 171.571 345.437 171.493 345.763 171.337C346.094 171.18 346.351 170.96 346.536 170.676C346.724 170.392 346.818 170.058 346.818 169.675C346.818 169.305 346.737 168.984 346.573 168.711C346.41 168.437 346.179 168.224 345.881 168.071C345.586 167.919 345.238 167.842 344.837 167.842C344.46 167.842 344.105 167.912 343.771 168.05C343.441 168.185 343.171 168.382 342.962 168.641C342.752 168.897 342.638 169.206 342.621 169.568H341.342C341.364 168.996 341.536 168.496 341.859 168.066C342.182 167.633 342.605 167.295 343.127 167.054C343.652 166.812 344.229 166.692 344.858 166.692C345.533 166.692 346.112 166.828 346.594 167.102C347.077 167.372 347.449 167.729 347.708 168.173C347.967 168.616 348.097 169.096 348.097 169.611C348.097 170.225 347.935 170.749 347.612 171.182C347.292 171.615 346.857 171.915 346.307 172.082V172.168C346.996 172.281 347.534 172.574 347.921 173.047C348.308 173.515 348.501 174.096 348.501 174.788C348.501 175.381 348.34 175.914 348.017 176.386C347.697 176.855 347.26 177.224 346.706 177.494C346.152 177.764 345.522 177.899 344.815 177.899Z" fill="black"/>
<rect x="420.938" y="106.188" width="28.125" height="28.125" rx="14.0625" fill="white"/>
<rect x="420.938" y="106.188" width="28.125" height="28.125" rx="14.0625" stroke="black" stroke-width="1.875"/>
<path d="M431.464 114.341V125.25H430.143V115.726H430.08L427.416 117.494V116.152L430.143 114.341H431.464ZM434.602 125.25V124.291L438.203 120.349C438.625 119.888 438.973 119.487 439.247 119.146C439.52 118.801 439.723 118.478 439.854 118.176C439.989 117.871 440.056 117.551 440.056 117.217C440.056 116.834 439.964 116.502 439.779 116.221C439.598 115.941 439.35 115.724 439.034 115.571C438.718 115.419 438.363 115.342 437.968 115.342C437.549 115.342 437.184 115.429 436.871 115.603C436.562 115.774 436.322 116.013 436.152 116.322C435.985 116.631 435.902 116.994 435.902 117.409H434.645C434.645 116.77 434.792 116.209 435.087 115.726C435.381 115.243 435.783 114.866 436.29 114.597C436.802 114.327 437.375 114.192 438.011 114.192C438.65 114.192 439.217 114.327 439.71 114.597C440.204 114.866 440.591 115.23 440.871 115.689C441.152 116.147 441.292 116.656 441.292 117.217C441.292 117.619 441.219 118.011 441.074 118.395C440.932 118.775 440.683 119.199 440.328 119.668C439.977 120.133 439.488 120.701 438.863 121.372L436.413 123.993V124.078H441.484V125.25H434.602Z" fill="black"/>
<rect x="480.938" y="106.188" width="28.125" height="28.125" rx="14.0625" fill="white"/>
<rect x="480.938" y="106.188" width="28.125" height="28.125" rx="14.0625" stroke="black" stroke-width="1.875"/>
<path d="M496.464 114.341V125.25H495.143V115.726H495.08L492.416 117.494V116.152L495.143 114.341H496.464Z" fill="black"/>
<rect x="330.938" y="53.6875" width="28.125" height="28.125" rx="14.0625" fill="white"/>
<rect x="330.938" y="53.6875" width="28.125" height="28.125" rx="14.0625" stroke="#F5332B" stroke-width="1.875"/>
<path d="M337.629 72.75V71.7912L341.23 67.8494C341.653 67.3878 342.001 66.9865 342.274 66.6456C342.548 66.3011 342.75 65.978 342.881 65.6761C343.016 65.3707 343.084 65.0511 343.084 64.7173C343.084 64.3338 342.991 64.0018 342.807 63.7212C342.626 63.4407 342.377 63.2241 342.061 63.0714C341.745 62.9187 341.39 62.8423 340.996 62.8423C340.577 62.8423 340.211 62.9293 339.898 63.1033C339.589 63.2738 339.35 63.5135 339.179 63.8224C339.012 64.1314 338.929 64.4936 338.929 64.9091H337.672C337.672 64.2699 337.819 63.7088 338.114 63.2259C338.409 62.7429 338.81 62.3665 339.318 62.0966C339.829 61.8267 340.403 61.6918 341.038 61.6918C341.678 61.6918 342.244 61.8267 342.738 62.0966C343.231 62.3665 343.618 62.7305 343.899 63.1886C344.179 63.6467 344.32 64.1562 344.32 64.7173C344.32 65.1186 344.247 65.511 344.101 65.8945C343.959 66.2745 343.711 66.6989 343.355 67.1676C343.004 67.6328 342.516 68.201 341.891 68.8722L339.44 71.4929V71.5781H344.511V72.75H337.629ZM350.547 61.8409V72.75H349.225V63.2259H349.162L346.498 64.9943V63.652L349.225 61.8409H350.547Z" fill="#F5332B"/>
<rect x="390.938" y="1.1875" width="28.125" height="28.125" rx="14.0625" fill="white"/>
<rect x="390.938" y="1.1875" width="28.125" height="28.125" rx="14.0625" stroke="black" stroke-width="1.875"/>
<path d="M397.47 20.25L402.349 10.598V10.5128H396.724V9.34091H403.713V10.5767L398.855 20.25H397.47ZM409.136 20.3991C408.433 20.3991 407.806 20.2784 407.255 20.0369C406.708 19.7955 406.273 19.4599 405.95 19.0302C405.631 18.5969 405.457 18.0945 405.428 17.5227H406.771C406.799 17.8743 406.92 18.1779 407.133 18.4336C407.346 18.6857 407.625 18.881 407.969 19.0195C408.314 19.158 408.695 19.2273 409.114 19.2273C409.583 19.2273 409.999 19.1456 410.361 18.9822C410.723 18.8189 411.007 18.5916 411.213 18.3004C411.419 18.0092 411.522 17.6719 411.522 17.2884C411.522 16.8871 411.423 16.5337 411.224 16.2283C411.025 15.9194 410.734 15.6779 410.35 15.5039C409.967 15.3299 409.498 15.2429 408.944 15.2429H408.07V14.071H408.944C409.377 14.071 409.757 13.9929 410.084 13.8366C410.414 13.6804 410.672 13.4602 410.856 13.1761C411.044 12.892 411.138 12.5582 411.138 12.1747C411.138 11.8054 411.057 11.484 410.893 11.2106C410.73 10.9371 410.499 10.7241 410.201 10.5714C409.906 10.4187 409.558 10.3423 409.157 10.3423C408.781 10.3423 408.425 10.4116 408.092 10.5501C407.761 10.685 407.491 10.8821 407.282 11.1413C407.072 11.397 406.959 11.706 406.941 12.0682H405.663C405.684 11.4964 405.856 10.9957 406.179 10.5661C406.502 10.1328 406.925 9.79545 407.447 9.55398C407.973 9.3125 408.55 9.19176 409.178 9.19176C409.853 9.19176 410.432 9.32848 410.915 9.60192C411.398 9.8718 411.769 10.2287 412.028 10.6726C412.287 11.1165 412.417 11.5959 412.417 12.1108C412.417 12.7251 412.255 13.2489 411.932 13.6822C411.613 14.1154 411.178 14.4155 410.627 14.5824V14.6676C411.316 14.7812 411.854 15.0742 412.241 15.5465C412.628 16.0153 412.822 16.5959 412.822 17.2884C412.822 17.8814 412.66 18.4141 412.337 18.8864C412.017 19.3551 411.581 19.7244 411.027 19.9943C410.473 20.2642 409.842 20.3991 409.136 20.3991Z" fill="black"/>
<rect x="450.938" y="53.6875" width="28.125" height="28.125" rx="14.0625" fill="white"/>
<rect x="450.938" y="53.6875" width="28.125" height="28.125" rx="14.0625" stroke="black" stroke-width="1.875"/>
<path d="M461.464 61.8409V72.75H460.143V63.2259H460.08L457.416 64.9943V63.652L460.143 61.8409H461.464ZM468.075 61.6918C468.522 61.6953 468.97 61.7805 469.417 61.9474C469.865 62.1143 470.273 62.3913 470.642 62.7784C471.012 63.1619 471.308 63.6857 471.532 64.3498C471.756 65.0138 471.868 65.8466 471.868 66.848C471.868 67.8175 471.775 68.6786 471.591 69.4315C471.409 70.1808 471.147 70.8129 470.802 71.3278C470.461 71.8427 470.046 72.2333 469.556 72.4996C469.069 72.766 468.519 72.8991 467.904 72.8991C467.294 72.8991 466.749 72.7784 466.269 72.5369C465.793 72.2919 465.403 71.9528 465.097 71.5195C464.795 71.0827 464.602 70.5767 464.517 70.0014H465.816C465.934 70.5021 466.166 70.9158 466.514 71.2425C466.866 71.5657 467.329 71.7273 467.904 71.7273C468.746 71.7273 469.41 71.3597 469.897 70.6246C470.387 69.8896 470.632 68.8509 470.632 67.5085H470.547C470.348 67.8068 470.112 68.0643 469.838 68.2809C469.565 68.4975 469.261 68.6644 468.927 68.7816C468.593 68.8988 468.238 68.9574 467.862 68.9574C467.237 68.9574 466.663 68.8029 466.141 68.494C465.623 68.1815 465.207 67.7536 464.895 67.2102C464.586 66.6634 464.431 66.0384 464.431 65.3352C464.431 64.6676 464.581 64.0568 464.879 63.5028C465.181 62.9453 465.603 62.5014 466.147 62.1712C466.694 61.8409 467.336 61.6811 468.075 61.6918ZM468.075 62.8636C467.627 62.8636 467.224 62.9755 466.866 63.1992C466.511 63.4194 466.228 63.7177 466.019 64.0941C465.813 64.467 465.71 64.8807 465.71 65.3352C465.71 65.7898 465.809 66.2035 466.008 66.5763C466.211 66.9457 466.486 67.2404 466.834 67.4606C467.185 67.6772 467.585 67.7855 468.032 67.7855C468.37 67.7855 468.684 67.7198 468.975 67.5884C469.266 67.4535 469.52 67.2706 469.737 67.0398C469.957 66.8054 470.129 66.5408 470.254 66.2461C470.378 65.9478 470.44 65.6371 470.44 65.3139C470.44 64.8878 470.337 64.4883 470.131 64.1154C469.929 63.7425 469.648 63.4407 469.289 63.2099C468.934 62.979 468.529 62.8636 468.075 62.8636Z" fill="black"/>
</g>
<g clip-path="url(#clip3_336_193)">
<path d="M585 120.25L615 67.75" stroke="#F5332B" stroke-width="1.875" stroke-linecap="round"/>
<path d="M675 15.25L615 67.75" stroke="black" stroke-width="1.875" stroke-linecap="round"/>
<path d="M675 15.25L735 67.75" stroke="black" stroke-width="1.875" stroke-linecap="round"/>
<path d="M645 120.25L615 67.75" stroke="black" stroke-width="1.875" stroke-linecap="round"/>
<path d="M765 120.25L735 67.75" stroke="black" stroke-width="1.875" stroke-linecap="round"/>
<path d="M705 120.25L735 67.75" stroke="black" stroke-width="1.875" stroke-linecap="round"/>
<path d="M555 172.75L585 120.25" stroke="#F5332B" stroke-width="1.875" stroke-linecap="round"/>
<path d="M615 172.75L585 120.25" stroke="black" stroke-width="1.875" stroke-linecap="round"/>
<rect x="570.938" y="106.188" width="28.125" height="28.125" rx="14.0625" fill="white"/>
<rect x="570.938" y="106.188" width="28.125" height="28.125" rx="14.0625" stroke="#F5332B" stroke-width="1.875"/>
<path d="M581.97 125.25L586.849 115.598V115.513H581.224V114.341H588.213V115.577L583.355 125.25H581.97Z" fill="#F5332B"/>
<rect x="630.938" y="106.188" width="28.125" height="28.125" rx="14.0625" fill="white"/>
<rect x="630.938" y="106.188" width="28.125" height="28.125" rx="14.0625" stroke="black" stroke-width="1.875"/>
<path d="M644.602 114.192C645.05 114.195 645.497 114.281 645.945 114.447C646.392 114.614 646.8 114.891 647.17 115.278C647.539 115.662 647.836 116.186 648.059 116.85C648.283 117.514 648.395 118.347 648.395 119.348C648.395 120.317 648.303 121.179 648.118 121.931C647.937 122.681 647.674 123.313 647.33 123.828C646.989 124.343 646.573 124.733 646.083 125C645.597 125.266 645.046 125.399 644.432 125.399C643.821 125.399 643.276 125.278 642.797 125.037C642.321 124.792 641.93 124.453 641.625 124.02C641.323 123.583 641.129 123.077 641.044 122.501H642.344C642.461 123.002 642.694 123.416 643.042 123.743C643.393 124.066 643.857 124.227 644.432 124.227C645.273 124.227 645.938 123.86 646.424 123.125C646.914 122.39 647.159 121.351 647.159 120.009H647.074C646.875 120.307 646.639 120.564 646.365 120.781C646.092 120.998 645.788 121.164 645.455 121.282C645.121 121.399 644.766 121.457 644.389 121.457C643.764 121.457 643.191 121.303 642.669 120.994C642.15 120.681 641.735 120.254 641.422 119.71C641.113 119.163 640.959 118.538 640.959 117.835C640.959 117.168 641.108 116.557 641.406 116.003C641.708 115.445 642.131 115.001 642.674 114.671C643.221 114.341 643.864 114.181 644.602 114.192ZM644.602 115.364C644.155 115.364 643.752 115.475 643.393 115.699C643.038 115.919 642.756 116.218 642.546 116.594C642.34 116.967 642.237 117.381 642.237 117.835C642.237 118.29 642.337 118.703 642.536 119.076C642.738 119.446 643.013 119.74 643.361 119.961C643.713 120.177 644.112 120.286 644.56 120.286C644.897 120.286 645.211 120.22 645.502 120.088C645.794 119.953 646.048 119.771 646.264 119.54C646.484 119.305 646.657 119.041 646.781 118.746C646.905 118.448 646.967 118.137 646.967 117.814C646.967 117.388 646.864 116.988 646.658 116.615C646.456 116.243 646.175 115.941 645.817 115.71C645.462 115.479 645.057 115.364 644.602 115.364Z" fill="black"/>
<rect x="540.938" y="158.688" width="28.125" height="28.125" rx="14.0625" fill="white"/>
<rect x="540.938" y="158.688" width="28.125" height="28.125" rx="14.0625" stroke="#0078FC" stroke-width="1.875"/>
<path d="M551.129 177.75V176.791L554.73 172.849C555.153 172.388 555.501 171.987 555.774 171.646C556.048 171.301 556.25 170.978 556.381 170.676C556.516 170.371 556.584 170.051 556.584 169.717C556.584 169.334 556.491 169.002 556.307 168.721C556.126 168.441 555.877 168.224 555.561 168.071C555.245 167.919 554.89 167.842 554.496 167.842C554.077 167.842 553.711 167.929 553.398 168.103C553.089 168.274 552.85 168.513 552.679 168.822C552.512 169.131 552.429 169.494 552.429 169.909H551.172C551.172 169.27 551.319 168.709 551.614 168.226C551.909 167.743 552.31 167.366 552.818 167.097C553.329 166.827 553.903 166.692 554.538 166.692C555.178 166.692 555.744 166.827 556.238 167.097C556.731 167.366 557.118 167.73 557.399 168.189C557.679 168.647 557.82 169.156 557.82 169.717C557.82 170.119 557.747 170.511 557.601 170.895C557.459 171.275 557.211 171.699 556.855 172.168C556.504 172.633 556.016 173.201 555.391 173.872L552.94 176.493V176.578H558.011V177.75H551.129Z" fill="#0078FC"/>
<rect x="600.938" y="158.688" width="28.125" height="28.125" rx="14.0625" fill="white"/>
<rect x="600.938" y="158.688" width="28.125" height="28.125" rx="14.0625" stroke="black" stroke-width="1.875"/>
<path d="M614.815 177.899C614.112 177.899 613.485 177.778 612.935 177.537C612.388 177.295 611.953 176.96 611.63 176.53C611.31 176.097 611.136 175.594 611.108 175.023H612.45C612.479 175.374 612.599 175.678 612.812 175.934C613.026 176.186 613.304 176.381 613.649 176.52C613.993 176.658 614.375 176.727 614.794 176.727C615.263 176.727 615.678 176.646 616.04 176.482C616.403 176.319 616.687 176.092 616.893 175.8C617.099 175.509 617.202 175.172 617.202 174.788C617.202 174.387 617.102 174.034 616.903 173.728C616.705 173.419 616.413 173.178 616.03 173.004C615.646 172.83 615.178 172.743 614.624 172.743H613.75V171.571H614.624C615.057 171.571 615.437 171.493 615.763 171.337C616.094 171.18 616.351 170.96 616.536 170.676C616.724 170.392 616.818 170.058 616.818 169.675C616.818 169.305 616.737 168.984 616.573 168.711C616.41 168.437 616.179 168.224 615.881 168.071C615.586 167.919 615.238 167.842 614.837 167.842C614.46 167.842 614.105 167.912 613.771 168.05C613.441 168.185 613.171 168.382 612.962 168.641C612.752 168.897 612.638 169.206 612.621 169.568H611.342C611.364 168.996 611.536 168.496 611.859 168.066C612.182 167.633 612.605 167.295 613.127 167.054C613.652 166.812 614.229 166.692 614.858 166.692C615.533 166.692 616.112 166.828 616.594 167.102C617.077 167.372 617.449 167.729 617.708 168.173C617.967 168.616 618.097 169.096 618.097 169.611C618.097 170.225 617.935 170.749 617.612 171.182C617.292 171.615 616.857 171.915 616.307 172.082V172.168C616.996 172.281 617.534 172.574 617.921 173.047C618.308 173.515 618.501 174.096 618.501 174.788C618.501 175.381 618.34 175.914 618.017 176.386C617.697 176.855 617.26 177.224 616.706 177.494C616.152 177.764 615.522 177.899 614.815 177.899Z" fill="black"/>
<rect x="690.938" y="106.188" width="28.125" height="28.125" rx="14.0625" fill="white"/>
<rect x="690.938" y="106.188" width="28.125" height="28.125" rx="14.0625" stroke="black" stroke-width="1.875"/>
<path d="M701.464 114.341V125.25H700.143V115.726H700.08L697.416 117.494V116.152L700.143 114.341H701.464ZM704.602 125.25V124.291L708.203 120.349C708.625 119.888 708.973 119.487 709.247 119.146C709.52 118.801 709.723 118.478 709.854 118.176C709.989 117.871 710.056 117.551 710.056 117.217C710.056 116.834 709.964 116.502 709.779 116.221C709.598 115.941 709.35 115.724 709.034 115.571C708.718 115.419 708.363 115.342 707.968 115.342C707.549 115.342 707.184 115.429 706.871 115.603C706.562 115.774 706.322 116.013 706.152 116.322C705.985 116.631 705.902 116.994 705.902 117.409H704.645C704.645 116.77 704.792 116.209 705.087 115.726C705.381 115.243 705.783 114.866 706.29 114.597C706.802 114.327 707.375 114.192 708.011 114.192C708.65 114.192 709.217 114.327 709.71 114.597C710.204 114.866 710.591 115.23 710.871 115.689C711.152 116.147 711.292 116.656 711.292 117.217C711.292 117.619 711.219 118.011 711.074 118.395C710.932 118.775 710.683 119.199 710.328 119.668C709.977 120.133 709.488 120.701 708.863 121.372L706.413 123.993V124.078H711.484V125.25H704.602Z" fill="black"/>
<rect x="750.938" y="106.188" width="28.125" height="28.125" rx="14.0625" fill="white"/>
<rect x="750.938" y="106.188" width="28.125" height="28.125" rx="14.0625" stroke="black" stroke-width="1.875"/>
<path d="M766.464 114.341V125.25H765.143V115.726H765.08L762.416 117.494V116.152L765.143 114.341H766.464Z" fill="black"/>
<rect x="600.938" y="53.6875" width="28.125" height="28.125" rx="14.0625" fill="white"/>
<rect x="600.938" y="53.6875" width="28.125" height="28.125" rx="14.0625" stroke="#F5332B" stroke-width="1.875"/>
<path d="M607.629 72.75V71.7912L611.23 67.8494C611.653 67.3878 612.001 66.9865 612.274 66.6456C612.548 66.3011 612.75 65.978 612.881 65.6761C613.016 65.3707 613.084 65.0511 613.084 64.7173C613.084 64.3338 612.991 64.0018 612.807 63.7212C612.626 63.4407 612.377 63.2241 612.061 63.0714C611.745 62.9187 611.39 62.8423 610.996 62.8423C610.577 62.8423 610.211 62.9293 609.898 63.1033C609.589 63.2738 609.35 63.5135 609.179 63.8224C609.012 64.1314 608.929 64.4936 608.929 64.9091H607.672C607.672 64.2699 607.819 63.7088 608.114 63.2259C608.409 62.7429 608.81 62.3665 609.318 62.0966C609.829 61.8267 610.403 61.6918 611.038 61.6918C611.678 61.6918 612.244 61.8267 612.738 62.0966C613.231 62.3665 613.618 62.7305 613.899 63.1886C614.179 63.6467 614.32 64.1562 614.32 64.7173C614.32 65.1186 614.247 65.511 614.101 65.8945C613.959 66.2745 613.711 66.6989 613.355 67.1676C613.004 67.6328 612.516 68.201 611.891 68.8722L609.44 71.4929V71.5781H614.511V72.75H607.629ZM620.547 61.8409V72.75H619.225V63.2259H619.162L616.498 64.9943V63.652L619.225 61.8409H620.547Z" fill="#F5332B"/>
<rect x="660.938" y="1.1875" width="28.125" height="28.125" rx="14.0625" fill="white"/>
<rect x="660.938" y="1.1875" width="28.125" height="28.125" rx="14.0625" stroke="black" stroke-width="1.875"/>
<path d="M667.47 20.25L672.349 10.598V10.5128H666.724V9.34091H673.713V10.5767L668.855 20.25H667.47ZM679.136 20.3991C678.433 20.3991 677.806 20.2784 677.255 20.0369C676.708 19.7955 676.273 19.4599 675.95 19.0302C675.631 18.5969 675.457 18.0945 675.428 17.5227H676.771C676.799 17.8743 676.92 18.1779 677.133 18.4336C677.346 18.6857 677.625 18.881 677.969 19.0195C678.314 19.158 678.695 19.2273 679.114 19.2273C679.583 19.2273 679.999 19.1456 680.361 18.9822C680.723 18.8189 681.007 18.5916 681.213 18.3004C681.419 18.0092 681.522 17.6719 681.522 17.2884C681.522 16.8871 681.423 16.5337 681.224 16.2283C681.025 15.9194 680.734 15.6779 680.35 15.5039C679.967 15.3299 679.498 15.2429 678.944 15.2429H678.07V14.071H678.944C679.377 14.071 679.757 13.9929 680.084 13.8366C680.414 13.6804 680.672 13.4602 680.856 13.1761C681.044 12.892 681.138 12.5582 681.138 12.1747C681.138 11.8054 681.057 11.484 680.893 11.2106C680.73 10.9371 680.499 10.7241 680.201 10.5714C679.906 10.4187 679.558 10.3423 679.157 10.3423C678.781 10.3423 678.425 10.4116 678.092 10.5501C677.761 10.685 677.491 10.8821 677.282 11.1413C677.072 11.397 676.959 11.706 676.941 12.0682H675.663C675.684 11.4964 675.856 10.9957 676.179 10.5661C676.502 10.1328 676.925 9.79545 677.447 9.55398C677.973 9.3125 678.55 9.19176 679.178 9.19176C679.853 9.19176 680.432 9.32848 680.915 9.60192C681.398 9.8718 681.769 10.2287 682.028 10.6726C682.287 11.1165 682.417 11.5959 682.417 12.1108C682.417 12.7251 682.255 13.2489 681.932 13.6822C681.613 14.1154 681.178 14.4155 680.627 14.5824V14.6676C681.316 14.7812 681.854 15.0742 682.241 15.5465C682.628 16.0153 682.822 16.5959 682.822 17.2884C682.822 17.8814 682.66 18.4141 682.337 18.8864C682.017 19.3551 681.581 19.7244 681.027 19.9943C680.473 20.2642 679.842 20.3991 679.136 20.3991Z" fill="black"/>
<rect x="720.938" y="53.6875" width="28.125" height="28.125" rx="14.0625" fill="white"/>
<rect x="720.938" y="53.6875" width="28.125" height="28.125" rx="14.0625" stroke="black" stroke-width="1.875"/>
<path d="M731.464 61.8409V72.75H730.143V63.2259H730.08L727.416 64.9943V63.652L730.143 61.8409H731.464ZM738.075 61.6918C738.522 61.6953 738.97 61.7805 739.417 61.9474C739.865 62.1143 740.273 62.3913 740.642 62.7784C741.012 63.1619 741.308 63.6857 741.532 64.3498C741.756 65.0138 741.868 65.8466 741.868 66.848C741.868 67.8175 741.775 68.6786 741.591 69.4315C741.409 70.1808 741.147 70.8129 740.802 71.3278C740.461 71.8427 740.046 72.2333 739.556 72.4996C739.069 72.766 738.519 72.8991 737.904 72.8991C737.294 72.8991 736.749 72.7784 736.269 72.5369C735.793 72.2919 735.403 71.9528 735.097 71.5195C734.795 71.0827 734.602 70.5767 734.517 70.0014H735.816C735.934 70.5021 736.166 70.9158 736.514 71.2425C736.866 71.5657 737.329 71.7273 737.904 71.7273C738.746 71.7273 739.41 71.3597 739.897 70.6246C740.387 69.8896 740.632 68.8509 740.632 67.5085H740.547C740.348 67.8068 740.112 68.0643 739.838 68.2809C739.565 68.4975 739.261 68.6644 738.927 68.7816C738.593 68.8988 738.238 68.9574 737.862 68.9574C737.237 68.9574 736.663 68.8029 736.141 68.494C735.623 68.1815 735.207 67.7536 734.895 67.2102C734.586 66.6634 734.431 66.0384 734.431 65.3352C734.431 64.6676 734.581 64.0568 734.879 63.5028C735.181 62.9453 735.603 62.5014 736.147 62.1712C736.694 61.8409 737.336 61.6811 738.075 61.6918ZM738.075 62.8636C737.627 62.8636 737.224 62.9755 736.866 63.1992C736.511 63.4194 736.228 63.7177 736.019 64.0941C735.813 64.467 735.71 64.8807 735.71 65.3352C735.71 65.7898 735.809 66.2035 736.008 66.5763C736.211 66.9457 736.486 67.2404 736.834 67.4606C737.185 67.6772 737.585 67.7855 738.032 67.7855C738.37 67.7855 738.684 67.7198 738.975 67.5884C739.266 67.4535 739.52 67.2706 739.737 67.0398C739.957 66.8054 740.129 66.5408 740.254 66.2461C740.378 65.9478 740.44 65.6371 740.44 65.3139C740.44 64.8878 740.337 64.4883 740.131 64.1154C739.929 63.7425 739.648 63.4407 739.289 63.2099C738.934 62.979 738.529 62.8636 738.075 62.8636Z" fill="black"/>
</g>
</g>
<defs>
<clipPath id="clip0_336_193">
<rect width="780" height="187.5" fill="white" transform="translate(0 0.25)"/>
</clipPath>
<clipPath id="clip1_336_193">
<rect width="240" height="187.5" fill="white" transform="translate(0 0.25)"/>
</clipPath>
<clipPath id="clip2_336_193">
<rect width="240" height="187.5" fill="white" transform="translate(270 0.25)"/>
</clipPath>
<clipPath id="clip3_336_193">
<rect width="240" height="187.5" fill="white" transform="translate(540 0.25)"/>
</clipPath>
</defs>
</svg>
