<svg width="644" height="162" viewBox="0 0 644 162" fill="none"
  xmlns="http://www.w3.org/2000/svg">
  <g clip-path="url(#clip0_376_435)">
    <path d="M1.472 118V106.32H2.912V110.88H2.928C3.00267 110.293 3.24267 109.84 3.648 109.52C4.05333 109.2 4.592 109.04 5.264 109.04C6.14933 109.04 6.85333 109.312 7.376 109.856C7.89867 110.4 8.16 111.141 8.16 112.08V118H6.72V112.32C6.72 111.659 6.54933 111.152 6.208 110.8C5.87733 110.437 5.424 110.256 4.848 110.256C4.25067 110.256 3.776 110.443 3.424 110.816C3.08267 111.189 2.912 111.717 2.912 112.4V118H1.472ZM14.3938 118.16C13.3591 118.16 12.5218 117.851 11.8818 117.232C11.2524 116.603 10.9378 115.739 10.9378 114.64V112.56C10.9378 111.461 11.2524 110.603 11.8818 109.984C12.5218 109.355 13.3591 109.04 14.3938 109.04C15.0871 109.04 15.6898 109.179 16.2018 109.456C16.7244 109.733 17.1298 110.123 17.4178 110.624C17.7058 111.125 17.8498 111.717 17.8498 112.4V113.968H12.3458V114.8C12.3458 115.451 12.5324 115.968 12.9058 116.352C13.2791 116.725 13.7751 116.912 14.3938 116.912C14.9271 116.912 15.3644 116.811 15.7058 116.608C16.0578 116.395 16.2711 116.112 16.3458 115.76H17.7858C17.6898 116.496 17.3324 117.083 16.7138 117.52C16.0951 117.947 15.3218 118.16 14.3938 118.16ZM12.3458 112.848H16.4418V112.4C16.4418 111.707 16.2604 111.173 15.8978 110.8C15.5458 110.416 15.0444 110.224 14.3938 110.224C13.7431 110.224 13.2364 110.416 12.8738 110.8C12.5218 111.173 12.3458 111.707 12.3458 112.4V112.848ZM23.2195 118.16C22.3128 118.16 21.5928 117.909 21.0595 117.408C20.5262 116.896 20.2595 116.229 20.2595 115.408C20.2595 114.864 20.3822 114.389 20.6275 113.984C20.8728 113.579 21.2142 113.264 21.6515 113.04C22.0888 112.805 22.5902 112.688 23.1555 112.688H25.8755V112C25.8755 110.859 25.2515 110.288 24.0035 110.288C23.4488 110.288 23.0008 110.389 22.6595 110.592C22.3182 110.795 22.1368 111.077 22.1155 111.44H20.6755C20.7288 110.747 21.0488 110.176 21.6355 109.728C22.2328 109.269 23.0222 109.04 24.0035 109.04C25.0702 109.04 25.8862 109.296 26.4515 109.808C27.0275 110.32 27.3155 111.035 27.3155 111.952V118H25.8915V116.4H25.8595C25.7742 116.944 25.5022 117.376 25.0435 117.696C24.5848 118.005 23.9768 118.16 23.2195 118.16ZM23.5715 116.944C24.2755 116.944 24.8355 116.773 25.2515 116.432C25.6675 116.091 25.8755 115.627 25.8755 115.04V113.808H23.3155C22.8462 113.808 22.4622 113.952 22.1635 114.24C21.8755 114.517 21.7315 114.891 21.7315 115.36C21.7315 115.851 21.8915 116.24 22.2115 116.528C22.5422 116.805 22.9955 116.944 23.5715 116.944ZM33.0693 118.16C32.1946 118.16 31.4906 117.867 30.9573 117.28C30.4346 116.693 30.1733 115.899 30.1733 114.896V112.32C30.1733 111.307 30.4346 110.507 30.9573 109.92C31.4799 109.333 32.1839 109.04 33.0693 109.04C33.7306 109.04 34.2746 109.205 34.7013 109.536C35.1386 109.867 35.3999 110.315 35.4853 110.88H35.5013L35.4693 108.88V106.32H36.9093V118H35.4693V116.32H35.4533C35.3786 116.896 35.1279 117.349 34.7013 117.68C34.2746 118 33.7306 118.16 33.0693 118.16ZM33.5493 116.912C34.1466 116.912 34.6159 116.725 34.9573 116.352C35.2986 115.979 35.4693 115.461 35.4693 114.8V112.4C35.4693 111.739 35.2986 111.221 34.9573 110.848C34.6159 110.475 34.1466 110.288 33.5493 110.288C32.9413 110.288 32.4666 110.448 32.1253 110.768C31.7839 111.077 31.6133 111.595 31.6133 112.32V114.88C31.6133 115.595 31.7839 116.112 32.1253 116.432C32.4666 116.752 32.9413 116.912 33.5493 116.912Z" fill="black"/>
    <path d="M606.472 118V109.2H607.912V110.88H607.928C608.003 110.293 608.243 109.84 608.648 109.52C609.053 109.2 609.592 109.04 610.264 109.04C611.149 109.04 611.853 109.312 612.376 109.856C612.899 110.4 613.16 111.141 613.16 112.08V118H611.72V112.336C611.72 111.664 611.549 111.152 611.208 110.8C610.877 110.437 610.424 110.256 609.848 110.256C609.251 110.256 608.776 110.443 608.424 110.816C608.083 111.189 607.912 111.717 607.912 112.4V118H606.472ZM619.394 118.128C618.338 118.128 617.495 117.819 616.866 117.2C616.247 116.581 615.938 115.717 615.938 114.608V112.592C615.938 111.472 616.247 110.608 616.866 110C617.484 109.381 618.327 109.072 619.394 109.072C620.46 109.072 621.303 109.381 621.922 110C622.54 110.608 622.85 111.472 622.85 112.592V114.608C622.85 115.717 622.535 116.581 621.906 117.2C621.287 117.819 620.45 118.128 619.394 118.128ZM619.394 116.848C620.023 116.848 620.514 116.672 620.866 116.32C621.228 115.968 621.41 115.451 621.41 114.768V112.432C621.41 111.749 621.228 111.232 620.866 110.88C620.514 110.528 620.023 110.352 619.394 110.352C618.775 110.352 618.284 110.528 617.922 110.88C617.559 111.232 617.378 111.749 617.378 112.432V114.768C617.378 115.451 617.559 115.968 617.922 116.32C618.284 116.672 618.775 116.848 619.394 116.848ZM625.66 118V109.2H627.1V110.88H627.116C627.19 110.293 627.43 109.84 627.836 109.52C628.241 109.2 628.78 109.04 629.452 109.04C630.337 109.04 631.041 109.312 631.564 109.856C632.086 110.4 632.348 111.141 632.348 112.08V118H630.908V112.336C630.908 111.664 630.737 111.152 630.396 110.8C630.065 110.437 629.612 110.256 629.036 110.256C628.438 110.256 627.964 110.443 627.612 110.816C627.27 111.189 627.1 111.717 627.1 112.4V118H625.66ZM638.581 118.16C637.547 118.16 636.709 117.851 636.069 117.232C635.44 116.603 635.125 115.739 635.125 114.64V112.56C635.125 111.461 635.44 110.603 636.069 109.984C636.709 109.355 637.547 109.04 638.581 109.04C639.275 109.04 639.877 109.179 640.389 109.456C640.912 109.733 641.317 110.123 641.605 110.624C641.893 111.125 642.037 111.717 642.037 112.4V113.968H636.533V114.8C636.533 115.451 636.72 115.968 637.093 116.352C637.467 116.725 637.963 116.912 638.581 116.912C639.115 116.912 639.552 116.811 639.893 116.608C640.245 116.395 640.459 116.112 640.533 115.76H641.973C641.877 116.496 641.52 117.083 640.901 117.52C640.283 117.947 639.509 118.16 638.581 118.16ZM636.533 112.848H640.629V112.4C640.629 111.707 640.448 111.173 640.085 110.8C639.733 110.416 639.232 110.224 638.581 110.224C637.931 110.224 637.424 110.416 637.061 110.8C636.709 111.173 636.533 111.707 636.533 112.4V112.848Z" fill="#AAAAAA"/>
    <path d="M606.472 86V77.2H607.912V78.88H607.928C608.003 78.2933 608.243 77.84 608.648 77.52C609.053 77.2 609.592 77.04 610.264 77.04C611.149 77.04 611.853 77.312 612.376 77.856C612.899 78.4 613.16 79.1413 613.16 80.08V86H611.72V80.336C611.72 79.664 611.549 79.152 611.208 78.8C610.877 78.4373 610.424 78.256 609.848 78.256C609.251 78.256 608.776 78.4427 608.424 78.816C608.083 79.1893 607.912 79.7173 607.912 80.4V86H606.472ZM619.394 86.128C618.338 86.128 617.495 85.8187 616.866 85.2C616.247 84.5813 615.938 83.7173 615.938 82.608V80.592C615.938 79.472 616.247 78.608 616.866 78C617.484 77.3813 618.327 77.072 619.394 77.072C620.46 77.072 621.303 77.3813 621.922 78C622.54 78.608 622.85 79.472 622.85 80.592V82.608C622.85 83.7173 622.535 84.5813 621.906 85.2C621.287 85.8187 620.45 86.128 619.394 86.128ZM619.394 84.848C620.023 84.848 620.514 84.672 620.866 84.32C621.228 83.968 621.41 83.4507 621.41 82.768V80.432C621.41 79.7493 621.228 79.232 620.866 78.88C620.514 78.528 620.023 78.352 619.394 78.352C618.775 78.352 618.284 78.528 617.922 78.88C617.559 79.232 617.378 79.7493 617.378 80.432V82.768C617.378 83.4507 617.559 83.968 617.922 84.32C618.284 84.672 618.775 84.848 619.394 84.848ZM625.66 86V77.2H627.1V78.88H627.116C627.19 78.2933 627.43 77.84 627.836 77.52C628.241 77.2 628.78 77.04 629.452 77.04C630.337 77.04 631.041 77.312 631.564 77.856C632.086 78.4 632.348 79.1413 632.348 80.08V86H630.908V80.336C630.908 79.664 630.737 79.152 630.396 78.8C630.065 78.4373 629.612 78.256 629.036 78.256C628.438 78.256 627.964 78.4427 627.612 78.816C627.27 79.1893 627.1 79.7173 627.1 80.4V86H625.66ZM638.581 86.16C637.547 86.16 636.709 85.8507 636.069 85.232C635.44 84.6027 635.125 83.7387 635.125 82.64V80.56C635.125 79.4613 635.44 78.6027 636.069 77.984C636.709 77.3547 637.547 77.04 638.581 77.04C639.275 77.04 639.877 77.1787 640.389 77.456C640.912 77.7333 641.317 78.1227 641.605 78.624C641.893 79.1253 642.037 79.7173 642.037 80.4V81.968H636.533V82.8C636.533 83.4507 636.72 83.968 637.093 84.352C637.467 84.7253 637.963 84.912 638.581 84.912C639.115 84.912 639.552 84.8107 639.893 84.608C640.245 84.3947 640.459 84.112 640.533 83.76H641.973C641.877 84.496 641.52 85.0827 640.901 85.52C640.283 85.9467 639.509 86.16 638.581 86.16ZM636.533 80.848H640.629V80.4C640.629 79.7067 640.448 79.1733 640.085 78.8C639.733 78.416 639.232 78.224 638.581 78.224C637.931 78.224 637.424 78.416 637.061 78.8C636.709 79.1733 636.533 79.7067 636.533 80.4V80.848Z" fill="#AAAAAA"/>
    <path d="M606.472 54V45.2H607.912V46.88H607.928C608.003 46.2933 608.243 45.84 608.648 45.52C609.053 45.2 609.592 45.04 610.264 45.04C611.149 45.04 611.853 45.312 612.376 45.856C612.899 46.4 613.16 47.1413 613.16 48.08V54H611.72V48.336C611.72 47.664 611.549 47.152 611.208 46.8C610.877 46.4373 610.424 46.256 609.848 46.256C609.251 46.256 608.776 46.4427 608.424 46.816C608.083 47.1893 607.912 47.7173 607.912 48.4V54H606.472ZM619.394 54.128C618.338 54.128 617.495 53.8187 616.866 53.2C616.247 52.5813 615.938 51.7173 615.938 50.608V48.592C615.938 47.472 616.247 46.608 616.866 46C617.484 45.3813 618.327 45.072 619.394 45.072C620.46 45.072 621.303 45.3813 621.922 46C622.54 46.608 622.85 47.472 622.85 48.592V50.608C622.85 51.7173 622.535 52.5813 621.906 53.2C621.287 53.8187 620.45 54.128 619.394 54.128ZM619.394 52.848C620.023 52.848 620.514 52.672 620.866 52.32C621.228 51.968 621.41 51.4507 621.41 50.768V48.432C621.41 47.7493 621.228 47.232 620.866 46.88C620.514 46.528 620.023 46.352 619.394 46.352C618.775 46.352 618.284 46.528 617.922 46.88C617.559 47.232 617.378 47.7493 617.378 48.432V50.768C617.378 51.4507 617.559 51.968 617.922 52.32C618.284 52.672 618.775 52.848 619.394 52.848ZM625.66 54V45.2H627.1V46.88H627.116C627.19 46.2933 627.43 45.84 627.836 45.52C628.241 45.2 628.78 45.04 629.452 45.04C630.337 45.04 631.041 45.312 631.564 45.856C632.086 46.4 632.348 47.1413 632.348 48.08V54H630.908V48.336C630.908 47.664 630.737 47.152 630.396 46.8C630.065 46.4373 629.612 46.256 629.036 46.256C628.438 46.256 627.964 46.4427 627.612 46.816C627.27 47.1893 627.1 47.7173 627.1 48.4V54H625.66ZM638.581 54.16C637.547 54.16 636.709 53.8507 636.069 53.232C635.44 52.6027 635.125 51.7387 635.125 50.64V48.56C635.125 47.4613 635.44 46.6027 636.069 45.984C636.709 45.3547 637.547 45.04 638.581 45.04C639.275 45.04 639.877 45.1787 640.389 45.456C640.912 45.7333 641.317 46.1227 641.605 46.624C641.893 47.1253 642.037 47.7173 642.037 48.4V49.968H636.533V50.8C636.533 51.4507 636.72 51.968 637.093 52.352C637.467 52.7253 637.963 52.912 638.581 52.912C639.115 52.912 639.552 52.8107 639.893 52.608C640.245 52.3947 640.459 52.112 640.533 51.76H641.973C641.877 52.496 641.52 53.0827 640.901 53.52C640.283 53.9467 639.509 54.16 638.581 54.16ZM636.533 48.848H640.629V48.4C640.629 47.7067 640.448 47.1733 640.085 46.8C639.733 46.416 639.232 46.224 638.581 46.224C637.931 46.224 637.424 46.416 637.061 46.8C636.709 47.1733 636.533 47.7067 636.533 48.4V48.848Z" fill="#AAAAAA"/>
    <path d="M606.472 22V13.2H607.912V14.88H607.928C608.003 14.2933 608.243 13.84 608.648 13.52C609.053 13.2 609.592 13.04 610.264 13.04C611.149 13.04 611.853 13.312 612.376 13.856C612.899 14.4 613.16 15.1413 613.16 16.08V22H611.72V16.336C611.72 15.664 611.549 15.152 611.208 14.8C610.877 14.4373 610.424 14.256 609.848 14.256C609.251 14.256 608.776 14.4427 608.424 14.816C608.083 15.1893 607.912 15.7173 607.912 16.4V22H606.472ZM619.394 22.128C618.338 22.128 617.495 21.8187 616.866 21.2C616.247 20.5813 615.938 19.7173 615.938 18.608V16.592C615.938 15.472 616.247 14.608 616.866 14C617.484 13.3813 618.327 13.072 619.394 13.072C620.46 13.072 621.303 13.3813 621.922 14C622.54 14.608 622.85 15.472 622.85 16.592V18.608C622.85 19.7173 622.535 20.5813 621.906 21.2C621.287 21.8187 620.45 22.128 619.394 22.128ZM619.394 20.848C620.023 20.848 620.514 20.672 620.866 20.32C621.228 19.968 621.41 19.4507 621.41 18.768V16.432C621.41 15.7493 621.228 15.232 620.866 14.88C620.514 14.528 620.023 14.352 619.394 14.352C618.775 14.352 618.284 14.528 617.922 14.88C617.559 15.232 617.378 15.7493 617.378 16.432V18.768C617.378 19.4507 617.559 19.968 617.922 20.32C618.284 20.672 618.775 20.848 619.394 20.848ZM625.66 22V13.2H627.1V14.88H627.116C627.19 14.2933 627.43 13.84 627.836 13.52C628.241 13.2 628.78 13.04 629.452 13.04C630.337 13.04 631.041 13.312 631.564 13.856C632.086 14.4 632.348 15.1413 632.348 16.08V22H630.908V16.336C630.908 15.664 630.737 15.152 630.396 14.8C630.065 14.4373 629.612 14.256 629.036 14.256C628.438 14.256 627.964 14.4427 627.612 14.816C627.27 15.1893 627.1 15.7173 627.1 16.4V22H625.66ZM638.581 22.16C637.547 22.16 636.709 21.8507 636.069 21.232C635.44 20.6027 635.125 19.7387 635.125 18.64V16.56C635.125 15.4613 635.44 14.6027 636.069 13.984C636.709 13.3547 637.547 13.04 638.581 13.04C639.275 13.04 639.877 13.1787 640.389 13.456C640.912 13.7333 641.317 14.1227 641.605 14.624C641.893 15.1253 642.037 15.7173 642.037 16.4V17.968H636.533V18.8C636.533 19.4507 636.72 19.968 637.093 20.352C637.467 20.7253 637.963 20.912 638.581 20.912C639.115 20.912 639.552 20.8107 639.893 20.608C640.245 20.3947 640.459 20.112 640.533 19.76H641.973C641.877 20.496 641.52 21.0827 640.901 21.52C640.283 21.9467 639.509 22.16 638.581 22.16ZM636.533 16.848H640.629V16.4C640.629 15.7067 640.448 15.1733 640.085 14.8C639.733 14.416 639.232 14.224 638.581 14.224C637.931 14.224 637.424 14.416 637.061 14.8C636.709 15.1733 636.533 15.7067 636.533 16.4V16.848Z" fill="#AAAAAA"/>
    <path d="M1.472 86V74.32H2.912V78.88H2.928C3.00267 78.2933 3.24267 77.84 3.648 77.52C4.05333 77.2 4.592 77.04 5.264 77.04C6.14933 77.04 6.85333 77.312 7.376 77.856C7.89867 78.4 8.16 79.1413 8.16 80.08V86H6.72V80.32C6.72 79.6587 6.54933 79.152 6.208 78.8C5.87733 78.4373 5.424 78.256 4.848 78.256C4.25067 78.256 3.776 78.4427 3.424 78.816C3.08267 79.1893 2.912 79.7173 2.912 80.4V86H1.472ZM14.3938 86.16C13.3591 86.16 12.5218 85.8507 11.8818 85.232C11.2524 84.6027 10.9378 83.7387 10.9378 82.64V80.56C10.9378 79.4613 11.2524 78.6027 11.8818 77.984C12.5218 77.3547 13.3591 77.04 14.3938 77.04C15.0871 77.04 15.6898 77.1787 16.2018 77.456C16.7244 77.7333 17.1298 78.1227 17.4178 78.624C17.7058 79.1253 17.8498 79.7173 17.8498 80.4V81.968H12.3458V82.8C12.3458 83.4507 12.5324 83.968 12.9058 84.352C13.2791 84.7253 13.7751 84.912 14.3938 84.912C14.9271 84.912 15.3644 84.8107 15.7058 84.608C16.0578 84.3947 16.2711 84.112 16.3458 83.76H17.7858C17.6898 84.496 17.3324 85.0827 16.7138 85.52C16.0951 85.9467 15.3218 86.16 14.3938 86.16ZM12.3458 80.848H16.4418V80.4C16.4418 79.7067 16.2604 79.1733 15.8978 78.8C15.5458 78.416 15.0444 78.224 14.3938 78.224C13.7431 78.224 13.2364 78.416 12.8738 78.8C12.5218 79.1733 12.3458 79.7067 12.3458 80.4V80.848ZM23.2195 86.16C22.3128 86.16 21.5928 85.9093 21.0595 85.408C20.5262 84.896 20.2595 84.2293 20.2595 83.408C20.2595 82.864 20.3822 82.3893 20.6275 81.984C20.8728 81.5787 21.2142 81.264 21.6515 81.04C22.0888 80.8053 22.5902 80.688 23.1555 80.688H25.8755V80C25.8755 78.8587 25.2515 78.288 24.0035 78.288C23.4488 78.288 23.0008 78.3893 22.6595 78.592C22.3182 78.7947 22.1368 79.0773 22.1155 79.44H20.6755C20.7288 78.7467 21.0488 78.176 21.6355 77.728C22.2328 77.2693 23.0222 77.04 24.0035 77.04C25.0702 77.04 25.8862 77.296 26.4515 77.808C27.0275 78.32 27.3155 79.0347 27.3155 79.952V86H25.8915V84.4H25.8595C25.7742 84.944 25.5022 85.376 25.0435 85.696C24.5848 86.0053 23.9768 86.16 23.2195 86.16ZM23.5715 84.944C24.2755 84.944 24.8355 84.7733 25.2515 84.432C25.6675 84.0907 25.8755 83.6267 25.8755 83.04V81.808H23.3155C22.8462 81.808 22.4622 81.952 22.1635 82.24C21.8755 82.5173 21.7315 82.8907 21.7315 83.36C21.7315 83.8507 21.8915 84.24 22.2115 84.528C22.5422 84.8053 22.9955 84.944 23.5715 84.944ZM33.0693 86.16C32.1946 86.16 31.4906 85.8667 30.9573 85.28C30.4346 84.6933 30.1733 83.8987 30.1733 82.896V80.32C30.1733 79.3067 30.4346 78.5067 30.9573 77.92C31.4799 77.3333 32.1839 77.04 33.0693 77.04C33.7306 77.04 34.2746 77.2053 34.7013 77.536C35.1386 77.8667 35.3999 78.3147 35.4853 78.88H35.5013L35.4693 76.88V74.32H36.9093V86H35.4693V84.32H35.4533C35.3786 84.896 35.1279 85.3493 34.7013 85.68C34.2746 86 33.7306 86.16 33.0693 86.16ZM33.5493 84.912C34.1466 84.912 34.6159 84.7253 34.9573 84.352C35.2986 83.9787 35.4693 83.4613 35.4693 82.8V80.4C35.4693 79.7387 35.2986 79.2213 34.9573 78.848C34.6159 78.4747 34.1466 78.288 33.5493 78.288C32.9413 78.288 32.4666 78.448 32.1253 78.768C31.7839 79.0773 31.6133 79.5947 31.6133 80.32V82.88C31.6133 83.5947 31.7839 84.112 32.1253 84.432C32.4666 84.752 32.9413 84.912 33.5493 84.912Z" fill="black"/>
    <path d="M1.472 54V42.32H2.912V46.88H2.928C3.00267 46.2933 3.24267 45.84 3.648 45.52C4.05333 45.2 4.592 45.04 5.264 45.04C6.14933 45.04 6.85333 45.312 7.376 45.856C7.89867 46.4 8.16 47.1413 8.16 48.08V54H6.72V48.32C6.72 47.6587 6.54933 47.152 6.208 46.8C5.87733 46.4373 5.424 46.256 4.848 46.256C4.25067 46.256 3.776 46.4427 3.424 46.816C3.08267 47.1893 2.912 47.7173 2.912 48.4V54H1.472ZM14.3938 54.16C13.3591 54.16 12.5218 53.8507 11.8818 53.232C11.2524 52.6027 10.9378 51.7387 10.9378 50.64V48.56C10.9378 47.4613 11.2524 46.6027 11.8818 45.984C12.5218 45.3547 13.3591 45.04 14.3938 45.04C15.0871 45.04 15.6898 45.1787 16.2018 45.456C16.7244 45.7333 17.1298 46.1227 17.4178 46.624C17.7058 47.1253 17.8498 47.7173 17.8498 48.4V49.968H12.3458V50.8C12.3458 51.4507 12.5324 51.968 12.9058 52.352C13.2791 52.7253 13.7751 52.912 14.3938 52.912C14.9271 52.912 15.3644 52.8107 15.7058 52.608C16.0578 52.3947 16.2711 52.112 16.3458 51.76H17.7858C17.6898 52.496 17.3324 53.0827 16.7138 53.52C16.0951 53.9467 15.3218 54.16 14.3938 54.16ZM12.3458 48.848H16.4418V48.4C16.4418 47.7067 16.2604 47.1733 15.8978 46.8C15.5458 46.416 15.0444 46.224 14.3938 46.224C13.7431 46.224 13.2364 46.416 12.8738 46.8C12.5218 47.1733 12.3458 47.7067 12.3458 48.4V48.848ZM23.2195 54.16C22.3128 54.16 21.5928 53.9093 21.0595 53.408C20.5262 52.896 20.2595 52.2293 20.2595 51.408C20.2595 50.864 20.3822 50.3893 20.6275 49.984C20.8728 49.5787 21.2142 49.264 21.6515 49.04C22.0888 48.8053 22.5902 48.688 23.1555 48.688H25.8755V48C25.8755 46.8587 25.2515 46.288 24.0035 46.288C23.4488 46.288 23.0008 46.3893 22.6595 46.592C22.3182 46.7947 22.1368 47.0773 22.1155 47.44H20.6755C20.7288 46.7467 21.0488 46.176 21.6355 45.728C22.2328 45.2693 23.0222 45.04 24.0035 45.04C25.0702 45.04 25.8862 45.296 26.4515 45.808C27.0275 46.32 27.3155 47.0347 27.3155 47.952V54H25.8915V52.4H25.8595C25.7742 52.944 25.5022 53.376 25.0435 53.696C24.5848 54.0053 23.9768 54.16 23.2195 54.16ZM23.5715 52.944C24.2755 52.944 24.8355 52.7733 25.2515 52.432C25.6675 52.0907 25.8755 51.6267 25.8755 51.04V49.808H23.3155C22.8462 49.808 22.4622 49.952 22.1635 50.24C21.8755 50.5173 21.7315 50.8907 21.7315 51.36C21.7315 51.8507 21.8915 52.24 22.2115 52.528C22.5422 52.8053 22.9955 52.944 23.5715 52.944ZM33.0693 54.16C32.1946 54.16 31.4906 53.8667 30.9573 53.28C30.4346 52.6933 30.1733 51.8987 30.1733 50.896V48.32C30.1733 47.3067 30.4346 46.5067 30.9573 45.92C31.4799 45.3333 32.1839 45.04 33.0693 45.04C33.7306 45.04 34.2746 45.2053 34.7013 45.536C35.1386 45.8667 35.3999 46.3147 35.4853 46.88H35.5013L35.4693 44.88V42.32H36.9093V54H35.4693V52.32H35.4533C35.3786 52.896 35.1279 53.3493 34.7013 53.68C34.2746 54 33.7306 54.16 33.0693 54.16ZM33.5493 52.912C34.1466 52.912 34.6159 52.7253 34.9573 52.352C35.2986 51.9787 35.4693 51.4613 35.4693 50.8V48.4C35.4693 47.7387 35.2986 47.2213 34.9573 46.848C34.6159 46.4747 34.1466 46.288 33.5493 46.288C32.9413 46.288 32.4666 46.448 32.1253 46.768C31.7839 47.0773 31.6133 47.5947 31.6133 48.32V50.88C31.6133 51.5947 31.7839 52.112 32.1253 52.432C32.4666 52.752 32.9413 52.912 33.5493 52.912Z" fill="black"/>
    <path d="M1.472 22V10.32H2.912V14.88H2.928C3.00267 14.2933 3.24267 13.84 3.648 13.52C4.05333 13.2 4.592 13.04 5.264 13.04C6.14933 13.04 6.85333 13.312 7.376 13.856C7.89867 14.4 8.16 15.1413 8.16 16.08V22H6.72V16.32C6.72 15.6587 6.54933 15.152 6.208 14.8C5.87733 14.4373 5.424 14.256 4.848 14.256C4.25067 14.256 3.776 14.4427 3.424 14.816C3.08267 15.1893 2.912 15.7173 2.912 16.4V22H1.472ZM14.3938 22.16C13.3591 22.16 12.5218 21.8507 11.8818 21.232C11.2524 20.6027 10.9378 19.7387 10.9378 18.64V16.56C10.9378 15.4613 11.2524 14.6027 11.8818 13.984C12.5218 13.3547 13.3591 13.04 14.3938 13.04C15.0871 13.04 15.6898 13.1787 16.2018 13.456C16.7244 13.7333 17.1298 14.1227 17.4178 14.624C17.7058 15.1253 17.8498 15.7173 17.8498 16.4V17.968H12.3458V18.8C12.3458 19.4507 12.5324 19.968 12.9058 20.352C13.2791 20.7253 13.7751 20.912 14.3938 20.912C14.9271 20.912 15.3644 20.8107 15.7058 20.608C16.0578 20.3947 16.2711 20.112 16.3458 19.76H17.7858C17.6898 20.496 17.3324 21.0827 16.7138 21.52C16.0951 21.9467 15.3218 22.16 14.3938 22.16ZM12.3458 16.848H16.4418V16.4C16.4418 15.7067 16.2604 15.1733 15.8978 14.8C15.5458 14.416 15.0444 14.224 14.3938 14.224C13.7431 14.224 13.2364 14.416 12.8738 14.8C12.5218 15.1733 12.3458 15.7067 12.3458 16.4V16.848ZM23.2195 22.16C22.3128 22.16 21.5928 21.9093 21.0595 21.408C20.5262 20.896 20.2595 20.2293 20.2595 19.408C20.2595 18.864 20.3822 18.3893 20.6275 17.984C20.8728 17.5787 21.2142 17.264 21.6515 17.04C22.0888 16.8053 22.5902 16.688 23.1555 16.688H25.8755V16C25.8755 14.8587 25.2515 14.288 24.0035 14.288C23.4488 14.288 23.0008 14.3893 22.6595 14.592C22.3182 14.7947 22.1368 15.0773 22.1155 15.44H20.6755C20.7288 14.7467 21.0488 14.176 21.6355 13.728C22.2328 13.2693 23.0222 13.04 24.0035 13.04C25.0702 13.04 25.8862 13.296 26.4515 13.808C27.0275 14.32 27.3155 15.0347 27.3155 15.952V22H25.8915V20.4H25.8595C25.7742 20.944 25.5022 21.376 25.0435 21.696C24.5848 22.0053 23.9768 22.16 23.2195 22.16ZM23.5715 20.944C24.2755 20.944 24.8355 20.7733 25.2515 20.432C25.6675 20.0907 25.8755 19.6267 25.8755 19.04V17.808H23.3155C22.8462 17.808 22.4622 17.952 22.1635 18.24C21.8755 18.5173 21.7315 18.8907 21.7315 19.36C21.7315 19.8507 21.8915 20.24 22.2115 20.528C22.5422 20.8053 22.9955 20.944 23.5715 20.944ZM33.0693 22.16C32.1946 22.16 31.4906 21.8667 30.9573 21.28C30.4346 20.6933 30.1733 19.8987 30.1733 18.896V16.32C30.1733 15.3067 30.4346 14.5067 30.9573 13.92C31.4799 13.3333 32.1839 13.04 33.0693 13.04C33.7306 13.04 34.2746 13.2053 34.7013 13.536C35.1386 13.8667 35.3999 14.3147 35.4853 14.88H35.5013L35.4693 12.88V10.32H36.9093V22H35.4693V20.32H35.4533C35.3786 20.896 35.1279 21.3493 34.7013 21.68C34.2746 22 33.7306 22.16 33.0693 22.16ZM33.5493 20.912C34.1466 20.912 34.6159 20.7253 34.9573 20.352C35.2986 19.9787 35.4693 19.4613 35.4693 18.8V16.4C35.4693 15.7387 35.2986 15.2213 34.9573 14.848C34.6159 14.4747 34.1466 14.288 33.5493 14.288C32.9413 14.288 32.4666 14.448 32.1253 14.768C31.7839 15.0773 31.6133 15.5947 31.6133 16.32V18.88C31.6133 19.5947 31.7839 20.112 32.1253 20.432C32.4666 20.752 32.9413 20.912 33.5493 20.912Z" fill="black"/>
    <rect x="81" y="97" width="32" height="36" fill="white" stroke="#AAAAAA" stroke-width="2"/>
    <path d="M97 112C96.4477 112 96 112.448 96 113C96 113.552 96.4477 114 97 114V112ZM131.707 113.707C132.098 113.317 132.098 112.683 131.707 112.293L125.343 105.929C124.953 105.538 124.319 105.538 123.929 105.929C123.538 106.319 123.538 106.953 123.929 107.343L129.586 113L123.929 118.657C123.538 119.047 123.538 119.681 123.929 120.071C124.319 120.462 124.953 120.462 125.343 120.071L131.707 113.707ZM97 114H131V112H97V114Z" fill="black"/>
    <path d="M45 112C44.4477 112 44 112.448 44 113C44 113.552 44.4477 114 45 114V112ZM79.7071 113.707C80.0976 113.317 80.0976 112.683 79.7071 112.293L73.3431 105.929C72.9526 105.538 72.3195 105.538 71.9289 105.929C71.5384 106.319 71.5384 106.953 71.9289 107.343L77.5858 113L71.9289 118.657C71.5384 119.047 71.5384 119.681 71.9289 120.071C72.3195 120.462 72.9526 120.462 73.3431 120.071L79.7071 113.707ZM45 114H79V112H45V114Z" fill="black"/>
    <path d="M45 80C44.4477 80 44 80.4477 44 81C44 81.5523 44.4477 82 45 82V80ZM79.7071 81.7071C80.0976 81.3166 80.0976 80.6834 79.7071 80.2929L73.3431 73.9289C72.9526 73.5384 72.3195 73.5384 71.9289 73.9289C71.5384 74.3195 71.5384 74.9526 71.9289 75.3431L77.5858 81L71.9289 86.6569C71.5384 87.0474 71.5384 87.6805 71.9289 88.0711C72.3195 88.4616 72.9526 88.4616 73.3431 88.0711L79.7071 81.7071ZM45 82H79V80H45V82Z" fill="black"/>
    <path d="M45 48C44.4477 48 44 48.4477 44 49C44 49.5523 44.4477 50 45 50V48ZM79.7071 49.7071C80.0976 49.3166 80.0976 48.6834 79.7071 48.2929L73.3431 41.9289C72.9526 41.5384 72.3195 41.5384 71.9289 41.9289C71.5384 42.3195 71.5384 42.9526 71.9289 43.3431L77.5858 49L71.9289 54.6569C71.5384 55.0474 71.5384 55.6805 71.9289 56.0711C72.3195 56.4616 72.9526 56.4616 73.3431 56.0711L79.7071 49.7071ZM45 50H79V48H45V50Z" fill="black"/>
    <path d="M45 16C44.4477 16 44 16.4477 44 17C44 17.5523 44.4477 18 45 18V16ZM79.7071 17.7071C80.0976 17.3166 80.0976 16.6834 79.7071 16.2929L73.3431 9.92893C72.9526 9.53841 72.3195 9.53841 71.9289 9.92893C71.5384 10.3195 71.5384 10.9526 71.9289 11.3431L77.5858 17L71.9289 22.6569C71.5384 23.0474 71.5384 23.6805 71.9289 24.0711C72.3195 24.4616 72.9526 24.4616 73.3431 24.0711L79.7071 17.7071ZM45 18H79V16H45V18Z" fill="black"/>
    <circle cx="97" cy="113" r="3" fill="black"/>
    <path d="M133 101C133 98.7909 134.791 97 137 97H161C163.209 97 165 98.7909 165 101V133H133V101Z" fill="white" stroke="#AAAAAA" stroke-width="2"/>
    <path d="M149 112C148.448 112 148 112.448 148 113C148 113.552 148.448 114 149 114V112ZM183.707 113.707C184.098 113.317 184.098 112.683 183.707 112.293L177.343 105.929C176.953 105.538 176.319 105.538 175.929 105.929C175.538 106.319 175.538 106.953 175.929 107.343L181.586 113L175.929 118.657C175.538 119.047 175.538 119.681 175.929 120.071C176.319 120.462 176.953 120.462 177.343 120.071L183.707 113.707ZM149 114H183V112H149V114Z" fill="black"/>
    <circle cx="149" cy="113" r="3" fill="black"/>
    <rect x="185" y="97" width="32" height="36" fill="white" stroke="#AAAAAA" stroke-width="2"/>
    <path d="M201 112C200.448 112 200 112.448 200 113C200 113.552 200.448 114 201 114V112ZM235.707 113.707C236.098 113.317 236.098 112.683 235.707 112.293L229.343 105.929C228.953 105.538 228.319 105.538 227.929 105.929C227.538 106.319 227.538 106.953 227.929 107.343L233.586 113L227.929 118.657C227.538 119.047 227.538 119.681 227.929 120.071C228.319 120.462 228.953 120.462 229.343 120.071L235.707 113.707ZM201 114H235V112H201V114Z" fill="black"/>
    <circle cx="201" cy="113" r="3" fill="black"/>
    <rect x="237" y="97" width="32" height="36" fill="white" stroke="#AAAAAA" stroke-width="2"/>
    <path d="M253 112C252.448 112 252 112.448 252 113C252 113.552 252.448 114 253 114V112ZM287.707 113.707C288.098 113.317 288.098 112.683 287.707 112.293L281.343 105.929C280.953 105.538 280.319 105.538 279.929 105.929C279.538 106.319 279.538 106.953 279.929 107.343L285.586 113L279.929 118.657C279.538 119.047 279.538 119.681 279.929 120.071C280.319 120.462 280.953 120.462 281.343 120.071L287.707 113.707ZM253 114H287V112H253V114Z" fill="black"/>
    <circle cx="253" cy="113" r="3" fill="black"/>
    <path d="M289 101C289 98.7909 290.791 97 293 97H317C319.209 97 321 98.7909 321 101V133H289V101Z" fill="white" stroke="#AAAAAA" stroke-width="2"/>
    <path d="M305 112C304.448 112 304 112.448 304 113C304 113.552 304.448 114 305 114V112ZM339.707 113.707C340.098 113.317 340.098 112.683 339.707 112.293L333.343 105.929C332.953 105.538 332.319 105.538 331.929 105.929C331.538 106.319 331.538 106.953 331.929 107.343L337.586 113L331.929 118.657C331.538 119.047 331.538 119.681 331.929 120.071C332.319 120.462 332.953 120.462 333.343 120.071L339.707 113.707ZM305 114H339V112H305V114Z" fill="black"/>
    <circle cx="305" cy="113" r="3" fill="black"/>
    <rect x="341" y="97" width="32" height="36" fill="white" stroke="#AAAAAA" stroke-width="2"/>
    <path d="M357 112C356.448 112 356 112.448 356 113C356 113.552 356.448 114 357 114V112ZM391.707 113.707C392.098 113.317 392.098 112.683 391.707 112.293L385.343 105.929C384.953 105.538 384.319 105.538 383.929 105.929C383.538 106.319 383.538 106.953 383.929 107.343L389.586 113L383.929 118.657C383.538 119.047 383.538 119.681 383.929 120.071C384.319 120.462 384.953 120.462 385.343 120.071L391.707 113.707ZM357 114H391V112H357V114Z" fill="black"/>
    <circle cx="357" cy="113" r="3" fill="black"/>
    <path d="M393 101C393 98.7909 394.791 97 397 97H421C423.209 97 425 98.7909 425 101V133H393V101Z" fill="white" stroke="#AAAAAA" stroke-width="2"/>
    <path d="M409 112C408.448 112 408 112.448 408 113C408 113.552 408.448 114 409 114V112ZM443.707 113.707C444.098 113.317 444.098 112.683 443.707 112.293L437.343 105.929C436.953 105.538 436.319 105.538 435.929 105.929C435.538 106.319 435.538 106.953 435.929 107.343L441.586 113L435.929 118.657C435.538 119.047 435.538 119.681 435.929 120.071C436.319 120.462 436.953 120.462 437.343 120.071L443.707 113.707ZM409 114H443V112H409V114Z" fill="black"/>
    <circle cx="409" cy="113" r="3" fill="black"/>
    <path d="M445 101C445 98.7909 446.791 97 449 97H473C475.209 97 477 98.7909 477 101V133H445V101Z" fill="white" stroke="#AAAAAA" stroke-width="2"/>
    <path d="M461 112C460.448 112 460 112.448 460 113C460 113.552 460.448 114 461 114V112ZM495.707 113.707C496.098 113.317 496.098 112.683 495.707 112.293L489.343 105.929C488.953 105.538 488.319 105.538 487.929 105.929C487.538 106.319 487.538 106.953 487.929 107.343L493.586 113L487.929 118.657C487.538 119.047 487.538 119.681 487.929 120.071C488.319 120.462 488.953 120.462 489.343 120.071L495.707 113.707ZM461 114H495V112H461V114Z" fill="black"/>
    <circle cx="461" cy="113" r="3" fill="black"/>
    <rect x="497" y="97" width="32" height="36" fill="white" stroke="#AAAAAA" stroke-width="2"/>
    <path d="M513 112C512.448 112 512 112.448 512 113C512 113.552 512.448 114 513 114V112ZM547.707 113.707C548.098 113.317 548.098 112.683 547.707 112.293L541.343 105.929C540.953 105.538 540.319 105.538 539.929 105.929C539.538 106.319 539.538 106.953 539.929 107.343L545.586 113L539.929 118.657C539.538 119.047 539.538 119.681 539.929 120.071C540.319 120.462 540.953 120.462 541.343 120.071L547.707 113.707ZM513 114H547V112H513V114Z" fill="black"/>
    <circle cx="513" cy="113" r="3" fill="black"/>
    <rect x="81" y="65" width="32" height="32" fill="white" stroke="#AAAAAA" stroke-width="2"/>
    <path d="M97 80C96.4477 80 96 80.4477 96 81C96 81.5523 96.4477 82 97 82V80ZM183.707 81.7071C184.098 81.3166 184.098 80.6834 183.707 80.2929L177.343 73.9289C176.953 73.5384 176.319 73.5384 175.929 73.9289C175.538 74.3195 175.538 74.9526 175.929 75.3431L181.586 81L175.929 86.6569C175.538 87.0474 175.538 87.6805 175.929 88.0711C176.319 88.4616 176.953 88.4616 177.343 88.0711L183.707 81.7071ZM97 82H183V80H97V82Z" fill="black"/>
    <circle cx="97" cy="81" r="3" fill="black"/>
    <path d="M185 69C185 66.7909 186.791 65 189 65H213C215.209 65 217 66.7909 217 69V97H185V69Z" fill="white" stroke="#AAAAAA" stroke-width="2"/>
    <circle cx="201" cy="81" r="3" fill="black"/>
    <rect x="237" y="65" width="32" height="32" fill="white" stroke="#AAAAAA" stroke-width="2"/>
    <path d="M253 80C252.448 80 252 80.4477 252 81C252 81.5523 252.448 82 253 82V80ZM339.707 81.7071C340.098 81.3166 340.098 80.6834 339.707 80.2929L333.343 73.9289C332.953 73.5384 332.319 73.5384 331.929 73.9289C331.538 74.3195 331.538 74.9526 331.929 75.3431L337.586 81L331.929 86.6569C331.538 87.0474 331.538 87.6805 331.929 88.0711C332.319 88.4616 332.953 88.4616 333.343 88.0711L339.707 81.7071ZM253 82H339V80H253V82Z" fill="black"/>
    <circle cx="253" cy="81" r="3" fill="black"/>
    <rect x="341" y="65" width="32" height="32" fill="white" stroke="#AAAAAA" stroke-width="2"/>
    <path d="M357 80C356.448 80 356 80.4477 356 81C356 81.5523 356.448 82 357 82V80ZM495.707 81.7071C496.098 81.3166 496.098 80.6834 495.707 80.2929L489.343 73.9289C488.953 73.5384 488.319 73.5384 487.929 73.9289C487.538 74.3195 487.538 74.9526 487.929 75.3431L493.586 81L487.929 86.6569C487.538 87.0474 487.538 87.6805 487.929 88.0711C488.319 88.4616 488.953 88.4616 489.343 88.0711L495.707 81.7071ZM357 82H495V80H357V82Z" fill="black"/>
    <circle cx="357" cy="81" r="3" fill="black"/>
    <path d="M497 69C497 66.7909 498.791 65 501 65H525C527.209 65 529 66.7909 529 69V97H497V69Z" fill="white" stroke="#AAAAAA" stroke-width="2"/>
    <path d="M513 80C512.448 80 512 80.4477 512 81C512 81.5523 512.448 82 513 82V80ZM599.707 81.7071C600.098 81.3166 600.098 80.6834 599.707 80.2929L593.343 73.9289C592.953 73.5384 592.319 73.5384 591.929 73.9289C591.538 74.3195 591.538 74.9526 591.929 75.3431L597.586 81L591.929 86.6569C591.538 87.0474 591.538 87.6805 591.929 88.0711C592.319 88.4616 592.953 88.4616 593.343 88.0711L599.707 81.7071ZM513 82H599V80H513V82Z" fill="black"/>
    <circle cx="513" cy="81" r="3" fill="black"/>
    <path d="M549 101C549 98.7909 550.791 97 553 97H577C579.209 97 581 98.7909 581 101V133H549V101Z" fill="white" stroke="#AAAAAA" stroke-width="2"/>
    <path d="M565 112C564.448 112 564 112.448 564 113C564 113.552 564.448 114 565 114V112ZM599.707 113.707C600.098 113.317 600.098 112.683 599.707 112.293L593.343 105.929C592.953 105.538 592.319 105.538 591.929 105.929C591.538 106.319 591.538 106.953 591.929 107.343L597.586 113L591.929 118.657C591.538 119.047 591.538 119.681 591.929 120.071C592.319 120.462 592.953 120.462 593.343 120.071L599.707 113.707ZM565 114H599V112H565V114Z" fill="black"/>
    <circle cx="565" cy="113" r="3" fill="black"/>
    <rect x="81" y="129" width="32" height="32" rx="4" fill="white"/>
    <rect x="81" y="129" width="32" height="32" rx="4" stroke="black" stroke-width="2"/>
    <path d="M98.6193 137.455V152H96.858V139.301H96.7727L93.2216 141.659V139.869L96.858 137.455H98.6193Z" fill="black"/>
    <rect x="133" y="129" width="32" height="32" rx="4" fill="white"/>
    <rect x="133" y="129" width="32" height="32" rx="4" stroke="black" stroke-width="2"/>
    <path d="M144.006 152V150.722L148.807 145.466C149.37 144.85 149.834 144.315 150.199 143.861C150.563 143.402 150.833 142.971 151.009 142.568C151.188 142.161 151.278 141.735 151.278 141.29C151.278 140.778 151.155 140.336 150.909 139.962C150.668 139.588 150.336 139.299 149.915 139.095C149.493 138.892 149.02 138.79 148.494 138.79C147.936 138.79 147.448 138.906 147.031 139.138C146.619 139.365 146.3 139.685 146.072 140.097C145.85 140.509 145.739 140.991 145.739 141.545H144.062C144.062 140.693 144.259 139.945 144.652 139.301C145.045 138.657 145.58 138.155 146.257 137.795C146.939 137.436 147.704 137.256 148.551 137.256C149.403 137.256 150.159 137.436 150.817 137.795C151.475 138.155 151.991 138.641 152.365 139.251C152.739 139.862 152.926 140.542 152.926 141.29C152.926 141.825 152.829 142.348 152.635 142.859C152.446 143.366 152.114 143.932 151.641 144.557C151.172 145.177 150.521 145.935 149.688 146.83L146.42 150.324V150.438H153.182V152H144.006Z" fill="black"/>
    <rect x="185" y="129" width="32" height="32" rx="4" fill="white"/>
    <rect x="185" y="129" width="32" height="32" rx="4" stroke="black" stroke-width="2"/>
    <path d="M200.92 152.199C199.983 152.199 199.147 152.038 198.413 151.716C197.684 151.394 197.104 150.946 196.673 150.374C196.247 149.796 196.015 149.126 195.977 148.364H197.767C197.805 148.832 197.966 149.237 198.25 149.578C198.534 149.914 198.906 150.175 199.365 150.359C199.824 150.544 200.333 150.636 200.892 150.636C201.517 150.636 202.071 150.527 202.554 150.31C203.037 150.092 203.416 149.789 203.69 149.401C203.965 149.012 204.102 148.562 204.102 148.051C204.102 147.516 203.97 147.045 203.705 146.638C203.439 146.226 203.051 145.904 202.54 145.672C202.028 145.44 201.403 145.324 200.665 145.324H199.5V143.761H200.665C201.242 143.761 201.749 143.657 202.185 143.449C202.625 143.241 202.968 142.947 203.214 142.568C203.465 142.189 203.591 141.744 203.591 141.233C203.591 140.741 203.482 140.312 203.264 139.947C203.046 139.583 202.739 139.299 202.341 139.095C201.948 138.892 201.484 138.79 200.949 138.79C200.447 138.79 199.973 138.882 199.528 139.067C199.088 139.247 198.728 139.509 198.449 139.855C198.17 140.196 198.018 140.608 197.994 141.091H196.29C196.318 140.329 196.548 139.661 196.979 139.088C197.41 138.51 197.973 138.061 198.669 137.739C199.37 137.417 200.139 137.256 200.977 137.256C201.877 137.256 202.649 137.438 203.293 137.803C203.937 138.162 204.431 138.638 204.777 139.23C205.123 139.822 205.295 140.461 205.295 141.148C205.295 141.967 205.08 142.665 204.649 143.243C204.223 143.821 203.643 144.221 202.909 144.443V144.557C203.828 144.708 204.545 145.099 205.061 145.729C205.577 146.354 205.835 147.128 205.835 148.051C205.835 148.842 205.62 149.552 205.189 150.182C204.763 150.807 204.18 151.299 203.442 151.659C202.703 152.019 201.863 152.199 200.92 152.199Z" fill="black"/>
    <rect x="237" y="129" width="32" height="32" rx="4" fill="white"/>
    <rect x="237" y="129" width="32" height="32" rx="4" stroke="black" stroke-width="2"/>
    <path d="M247.665 149.017V147.568L254.057 137.455H255.108V139.699H254.398L249.568 147.341V147.455H258.176V149.017H247.665ZM254.511 152V148.577V147.902V137.455H256.188V152H254.511Z" fill="black"/>
    <rect x="289" y="129" width="32" height="32" rx="4" fill="white"/>
    <rect x="289" y="129" width="32" height="32" rx="4" stroke="black" stroke-width="2"/>
    <path d="M304.551 152.199C303.718 152.199 302.967 152.033 302.3 151.702C301.632 151.37 301.097 150.916 300.695 150.338C300.292 149.76 300.072 149.102 300.034 148.364H301.739C301.805 149.022 302.103 149.566 302.634 149.997C303.169 150.423 303.808 150.636 304.551 150.636C305.148 150.636 305.678 150.497 306.142 150.217C306.611 149.938 306.978 149.554 307.243 149.067C307.513 148.574 307.648 148.018 307.648 147.398C307.648 146.763 307.508 146.197 307.229 145.7C306.954 145.198 306.575 144.803 306.092 144.514C305.609 144.225 305.058 144.079 304.438 144.074C303.992 144.069 303.536 144.138 303.067 144.28C302.598 144.417 302.212 144.595 301.909 144.812L300.261 144.614L301.142 137.455H308.699V139.017H302.619L302.108 143.307H302.193C302.491 143.07 302.866 142.874 303.315 142.717C303.765 142.561 304.234 142.483 304.722 142.483C305.612 142.483 306.405 142.696 307.101 143.122C307.802 143.544 308.351 144.121 308.749 144.855C309.151 145.589 309.352 146.427 309.352 147.369C309.352 148.297 309.144 149.126 308.727 149.855C308.315 150.58 307.747 151.152 307.023 151.574C306.298 151.991 305.474 152.199 304.551 152.199Z" fill="black"/>
    <rect x="341" y="129" width="32" height="32" rx="4" fill="white"/>
    <rect x="341" y="129" width="32" height="32" rx="4" stroke="black" stroke-width="2"/>
    <path d="M352.96 152L359.466 139.131V139.017H351.966V137.455H361.284V139.102L354.807 152H352.96Z" fill="black"/>
    <rect x="393" y="129" width="32" height="32" rx="4" fill="white"/>
    <rect x="393" y="129" width="32" height="32" rx="4" stroke="black" stroke-width="2"/>
    <path d="M408.665 152.199C407.689 152.199 406.828 152.026 406.08 151.68C405.336 151.33 404.756 150.849 404.339 150.239C403.923 149.623 403.717 148.922 403.722 148.136C403.717 147.521 403.838 146.953 404.084 146.432C404.33 145.906 404.666 145.468 405.092 145.118C405.523 144.763 406.004 144.538 406.534 144.443V144.358C405.838 144.178 405.284 143.787 404.872 143.186C404.46 142.58 404.257 141.891 404.261 141.119C404.257 140.381 404.444 139.72 404.822 139.138C405.201 138.555 405.722 138.096 406.385 137.76C407.053 137.424 407.813 137.256 408.665 137.256C409.508 137.256 410.26 137.424 410.923 137.76C411.586 138.096 412.107 138.555 412.486 139.138C412.869 139.72 413.063 140.381 413.068 141.119C413.063 141.891 412.853 142.58 412.436 143.186C412.024 143.787 411.477 144.178 410.795 144.358V144.443C411.321 144.538 411.795 144.763 412.216 145.118C412.637 145.468 412.973 145.906 413.224 146.432C413.475 146.953 413.603 147.521 413.608 148.136C413.603 148.922 413.39 149.623 412.969 150.239C412.552 150.849 411.972 151.33 411.229 151.68C410.49 152.026 409.635 152.199 408.665 152.199ZM408.665 150.636C409.323 150.636 409.891 150.53 410.369 150.317C410.848 150.104 411.217 149.803 411.477 149.415C411.738 149.027 411.87 148.572 411.875 148.051C411.87 147.502 411.728 147.017 411.449 146.595C411.17 146.174 410.788 145.842 410.305 145.601C409.827 145.359 409.28 145.239 408.665 145.239C408.045 145.239 407.491 145.359 407.003 145.601C406.52 145.842 406.139 146.174 405.859 146.595C405.585 147.017 405.45 147.502 405.455 148.051C405.45 148.572 405.575 149.027 405.831 149.415C406.091 149.803 406.463 150.104 406.946 150.317C407.429 150.53 408.002 150.636 408.665 150.636ZM408.665 143.733C409.186 143.733 409.647 143.629 410.05 143.42C410.457 143.212 410.777 142.921 411.009 142.547C411.241 142.173 411.359 141.735 411.364 141.233C411.359 140.741 411.243 140.312 411.016 139.947C410.788 139.578 410.473 139.294 410.071 139.095C409.669 138.892 409.2 138.79 408.665 138.79C408.12 138.79 407.644 138.892 407.237 139.095C406.83 139.294 406.515 139.578 406.293 139.947C406.07 140.312 405.961 140.741 405.966 141.233C405.961 141.735 406.072 142.173 406.3 142.547C406.532 142.921 406.851 143.212 407.259 143.42C407.666 143.629 408.134 143.733 408.665 143.733Z" fill="black"/>
    <rect x="445" y="129" width="32" height="32" rx="4" fill="white"/>
    <rect x="445" y="129" width="32" height="32" rx="4" stroke="black" stroke-width="2"/>
    <path d="M460.636 137.256C461.233 137.26 461.83 137.374 462.426 137.597C463.023 137.819 463.567 138.188 464.06 138.705C464.552 139.216 464.947 139.914 465.246 140.8C465.544 141.685 465.693 142.795 465.693 144.131C465.693 145.423 465.57 146.571 465.324 147.575C465.082 148.574 464.732 149.417 464.273 150.104C463.818 150.79 463.264 151.311 462.611 151.666C461.962 152.021 461.228 152.199 460.409 152.199C459.595 152.199 458.868 152.038 458.229 151.716C457.594 151.389 457.073 150.937 456.666 150.359C456.264 149.777 456.006 149.102 455.892 148.335H457.625C457.781 149.003 458.091 149.554 458.555 149.99C459.024 150.421 459.642 150.636 460.409 150.636C461.531 150.636 462.417 150.146 463.065 149.166C463.719 148.186 464.045 146.801 464.045 145.011H463.932C463.667 145.409 463.352 145.752 462.987 146.041C462.623 146.33 462.218 146.553 461.773 146.709C461.328 146.865 460.854 146.943 460.352 146.943C459.519 146.943 458.754 146.737 458.058 146.325C457.367 145.909 456.813 145.338 456.396 144.614C455.984 143.884 455.778 143.051 455.778 142.114C455.778 141.223 455.977 140.409 456.375 139.67C456.777 138.927 457.341 138.335 458.065 137.895C458.795 137.455 459.652 137.241 460.636 137.256ZM460.636 138.818C460.04 138.818 459.502 138.967 459.024 139.266C458.551 139.559 458.174 139.957 457.895 140.459C457.62 140.956 457.483 141.508 457.483 142.114C457.483 142.72 457.616 143.271 457.881 143.768C458.151 144.261 458.518 144.654 458.982 144.947C459.45 145.236 459.983 145.381 460.58 145.381C461.029 145.381 461.448 145.293 461.837 145.118C462.225 144.938 462.563 144.694 462.852 144.386C463.146 144.074 463.375 143.721 463.541 143.328C463.707 142.93 463.79 142.516 463.79 142.085C463.79 141.517 463.652 140.984 463.378 140.487C463.108 139.99 462.734 139.588 462.256 139.28C461.782 138.972 461.242 138.818 460.636 138.818Z" fill="black"/>
    <rect x="497" y="129" width="32" height="32" rx="4" fill="white"/>
    <rect x="497" y="129" width="32" height="32" rx="4" stroke="black" stroke-width="2"/>
    <path d="M508.619 137.455V152H506.858V139.301H506.773L503.222 141.659V139.869L506.858 137.455H508.619ZM517.547 152.199C516.477 152.199 515.565 151.908 514.812 151.325C514.06 150.738 513.484 149.888 513.087 148.776C512.689 147.658 512.49 146.309 512.49 144.727C512.49 143.155 512.689 141.813 513.087 140.7C513.489 139.583 514.067 138.731 514.82 138.143C515.577 137.552 516.486 137.256 517.547 137.256C518.607 137.256 519.514 137.552 520.267 138.143C521.025 138.731 521.602 139.583 522 140.7C522.402 141.813 522.604 143.155 522.604 144.727C522.604 146.309 522.405 147.658 522.007 148.776C521.609 149.888 521.034 150.738 520.281 151.325C519.528 151.908 518.617 152.199 517.547 152.199ZM517.547 150.636C518.607 150.636 519.431 150.125 520.018 149.102C520.606 148.08 520.899 146.621 520.899 144.727C520.899 143.468 520.764 142.395 520.494 141.51C520.229 140.625 519.846 139.95 519.344 139.486C518.847 139.022 518.248 138.79 517.547 138.79C516.496 138.79 515.674 139.308 515.082 140.345C514.491 141.377 514.195 142.838 514.195 144.727C514.195 145.987 514.327 147.057 514.592 147.938C514.857 148.818 515.239 149.488 515.736 149.947C516.238 150.407 516.841 150.636 517.547 150.636Z" fill="black"/>
    <rect x="549" y="129" width="32" height="32" rx="4" fill="white"/>
    <rect x="549" y="129" width="32" height="32" rx="4" stroke="black" stroke-width="2"/>
    <path d="M562.119 137.455V152H560.358V139.301H560.273L556.722 141.659V139.869L560.358 137.455H562.119ZM571.416 137.455V152H569.655V139.301H569.57L566.018 141.659V139.869L569.655 137.455H571.416Z" fill="black"/>
    <path d="M201 80C200.448 80 200 80.4477 200 81C200 81.5523 200.448 82 201 82V80ZM235.707 81.7071C236.098 81.3166 236.098 80.6834 235.707 80.2929L229.343 73.9289C228.953 73.5384 228.319 73.5384 227.929 73.9289C227.538 74.3195 227.538 74.9526 227.929 75.3431L233.586 81L227.929 86.6569C227.538 87.0474 227.538 87.6805 227.929 88.0711C228.319 88.4616 228.953 88.4616 229.343 88.0711L235.707 81.7071ZM201 82H235V80H201V82Z" fill="black"/>
    <rect x="81" y="33" width="32" height="32" fill="white" stroke="#AAAAAA" stroke-width="2"/>
    <path d="M97 48C96.4477 48 96 48.4477 96 49C96 49.5523 96.4477 50 97 50V48ZM235.707 49.7071C236.098 49.3166 236.098 48.6834 235.707 48.2929L229.343 41.9289C228.953 41.5384 228.319 41.5384 227.929 41.9289C227.538 42.3195 227.538 42.9526 227.929 43.3431L233.586 49L227.929 54.6569C227.538 55.0474 227.538 55.6805 227.929 56.0711C228.319 56.4616 228.953 56.4616 229.343 56.0711L235.707 49.7071ZM97 50H235V48H97V50Z" fill="black"/>
    <circle cx="97" cy="49" r="3" fill="black"/>
    <path d="M81 5C81 2.79086 82.7909 1 85 1H109C111.209 1 113 2.79086 113 5V33H81V5Z" fill="white" stroke="#AAAAAA" stroke-width="2"/>
    <path d="M97 16C96.4477 16 96 16.4477 96 17C96 17.5523 96.4477 18 97 18V16ZM599.707 17.7071C600.098 17.3166 600.098 16.6834 599.707 16.2929L593.343 9.92893C592.953 9.53841 592.319 9.53841 591.929 9.92893C591.538 10.3195 591.538 10.9526 591.929 11.3431L597.586 17L591.929 22.6569C591.538 23.0474 591.538 23.6805 591.929 24.0711C592.319 24.4616 592.953 24.4616 593.343 24.0711L599.707 17.7071ZM97 18H599V16H97V18Z" fill="black"/>
    <circle cx="97" cy="17" r="3" fill="black"/>
    <path d="M237 37C237 34.7909 238.791 33 241 33H265C267.209 33 269 34.7909 269 37V65H237V37Z" fill="white" stroke="#AAAAAA" stroke-width="2"/>
    <path d="M253 48C252.448 48 252 48.4477 252 49C252 49.5523 252.448 50 253 50V48ZM339.707 49.7071C340.098 49.3166 340.098 48.6834 339.707 48.2929L333.343 41.9289C332.953 41.5384 332.319 41.5384 331.929 41.9289C331.538 42.3195 331.538 42.9526 331.929 43.3431L337.586 49L331.929 54.6569C331.538 55.0474 331.538 55.6805 331.929 56.0711C332.319 56.4616 332.953 56.4616 333.343 56.0711L339.707 49.7071ZM253 50H339V48H253V50Z" fill="black"/>
    <circle cx="253" cy="49" r="3" fill="black"/>
    <path d="M341 37C341 34.7909 342.791 33 345 33H369C371.209 33 373 34.7909 373 37V65H341V37Z" fill="white" stroke="#AAAAAA" stroke-width="2"/>
    <path d="M357 48C356.448 48 356 48.4477 356 49C356 49.5523 356.448 50 357 50V48ZM599.707 49.7071C600.098 49.3166 600.098 48.6834 599.707 48.2929L593.343 41.9289C592.953 41.5384 592.319 41.5384 591.929 41.9289C591.538 42.3195 591.538 42.9526 591.929 43.3431L597.586 49L591.929 54.6569C591.538 55.0474 591.538 55.6805 591.929 56.0711C592.319 56.4616 592.953 56.4616 593.343 56.0711L599.707 49.7071ZM357 50H599V48H357V50Z" fill="black"/>
    <circle cx="357" cy="49" r="3" fill="black"/>
  </g>
  <defs>
    <clipPath id="clip0_376_435">
      <rect width="644" height="162" fill="white"/>
    </clipPath>
  </defs>
</svg>
  