<svg width="428" height="322" viewBox="0 0 428 322" fill="none" xmlns="http://www.w3.org/2000/svg">
<g clip-path="url(#clip0_33_240)">
<path d="M254 266H174" stroke="#AAAAAA" stroke-width="2" stroke-linecap="round"/>
<path d="M254 140H174" stroke="#AAAAAA" stroke-width="2" stroke-linecap="round"/>
<path d="M174 56L94 14" stroke="#AAAAAA" stroke-width="2" stroke-linecap="round"/>
<path d="M414 14L334 14" stroke="#AAAAAA" stroke-width="2" stroke-linecap="round"/>
<path d="M334 14L254 14" stroke="#AAAAAA" stroke-width="2" stroke-linecap="round"/>
<path d="M254 14L174 14" stroke="#AAAAAA" stroke-width="2" stroke-linecap="round"/>
<path d="M174 98L94 98" stroke="#AAAAAA" stroke-width="2" stroke-linecap="round"/>
<path d="M174 140L94 98" stroke="#AAAAAA" stroke-width="2" stroke-linecap="round"/>
<path d="M254 98L174 98" stroke="#AAAAAA" stroke-width="2" stroke-linecap="round"/>
<path d="M254 182L174 140" stroke="#AAAAAA" stroke-width="2" stroke-linecap="round"/>
<path d="M334 182H254" stroke="#AAAAAA" stroke-width="2" stroke-linecap="round"/>
<path d="M334 140H254" stroke="#AAAAAA" stroke-width="2" stroke-linecap="round"/>
<path d="M174 14L94 14" stroke="#AAAAAA" stroke-width="2" stroke-linecap="round"/>
<path d="M94 14L14 14" stroke="#AAAAAA" stroke-width="2" stroke-linecap="round"/>
<path d="M94 98L14 14" stroke="#AAAAAA" stroke-width="2" stroke-linecap="round"/>
<path d="M94 224L14 14" stroke="#AAAAAA" stroke-width="2" stroke-linecap="round"/>
<path d="M254 308H174" stroke="#AAAAAA" stroke-width="2" stroke-linecap="round"/>
<path d="M174 266L94 224" stroke="#AAAAAA" stroke-width="2" stroke-linecap="round"/>
<path d="M174 308L94 224" stroke="#AAAAAA" stroke-width="2" stroke-linecap="round"/>
<path d="M334 224H254" stroke="#AAAAAA" stroke-width="2" stroke-linecap="round"/>
<path d="M254 224H174" stroke="#AAAAAA" stroke-width="2" stroke-linecap="round"/>
<path d="M174 224H94" stroke="#AAAAAA" stroke-width="2" stroke-linecap="round"/>
<path d="M132.718 229.22C132.027 229.22 131.404 229.097 130.85 228.851C130.301 228.6 129.865 228.231 129.543 227.743C129.226 227.255 129.067 226.654 129.067 225.939C129.067 225.323 129.181 224.814 129.408 224.412C129.636 224.009 129.946 223.688 130.339 223.446C130.732 223.205 131.174 223.022 131.667 222.899C132.164 222.771 132.678 222.679 133.208 222.622C133.847 222.556 134.366 222.497 134.763 222.445C135.161 222.388 135.45 222.303 135.63 222.189C135.815 222.071 135.907 221.888 135.907 221.642V221.599C135.907 221.064 135.748 220.65 135.431 220.357C135.114 220.063 134.657 219.916 134.06 219.916C133.431 219.916 132.931 220.054 132.562 220.328C132.197 220.603 131.951 220.927 131.823 221.301L129.423 220.96C129.612 220.297 129.924 219.743 130.36 219.298C130.796 218.848 131.328 218.512 131.958 218.29C132.588 218.062 133.284 217.949 134.046 217.949C134.572 217.949 135.095 218.01 135.616 218.134C136.137 218.257 136.612 218.46 137.043 218.744C137.474 219.024 137.82 219.405 138.08 219.888C138.345 220.371 138.478 220.974 138.478 221.699V229H136.006V227.501H135.921C135.765 227.804 135.545 228.089 135.261 228.354C134.981 228.614 134.629 228.825 134.202 228.986C133.781 229.142 133.286 229.22 132.718 229.22ZM133.386 227.331C133.902 227.331 134.349 227.229 134.728 227.026C135.107 226.817 135.398 226.543 135.602 226.202C135.81 225.861 135.914 225.489 135.914 225.087V223.801C135.834 223.867 135.696 223.929 135.502 223.986C135.313 224.043 135.1 224.092 134.863 224.135C134.626 224.178 134.392 224.215 134.16 224.249C133.928 224.282 133.727 224.31 133.556 224.334C133.173 224.386 132.829 224.471 132.526 224.589C132.223 224.708 131.984 224.874 131.809 225.087C131.634 225.295 131.546 225.565 131.546 225.896C131.546 226.37 131.719 226.727 132.065 226.969C132.41 227.21 132.851 227.331 133.386 227.331Z" fill="black"/>
<path d="M219.304 218.091L215.419 229H212.578L208.693 218.091H211.434L213.941 226.195H214.055L216.569 218.091H219.304Z" fill="black"/>
<path d="M294.223 229.213C293.129 229.213 292.184 228.986 291.389 228.531C290.598 228.072 289.99 227.423 289.564 226.585C289.138 225.742 288.925 224.75 288.925 223.609C288.925 222.487 289.138 221.502 289.564 220.655C289.995 219.803 290.596 219.14 291.368 218.666C292.14 218.188 293.046 217.949 294.088 217.949C294.76 217.949 295.395 218.058 295.991 218.276C296.593 218.489 297.123 218.82 297.582 219.27C298.046 219.72 298.411 220.293 298.676 220.989C298.941 221.68 299.074 222.504 299.074 223.46V224.249H290.132V222.516H296.609C296.604 222.023 296.498 221.585 296.29 221.202C296.081 220.813 295.79 220.508 295.416 220.286C295.047 220.063 294.616 219.952 294.123 219.952C293.598 219.952 293.136 220.08 292.738 220.335C292.341 220.586 292.031 220.918 291.808 221.33C291.59 221.737 291.479 222.184 291.474 222.672V224.185C291.474 224.819 291.59 225.364 291.822 225.818C292.054 226.268 292.379 226.614 292.795 226.855C293.212 227.092 293.7 227.21 294.258 227.21C294.632 227.21 294.971 227.158 295.274 227.054C295.577 226.945 295.84 226.786 296.062 226.578C296.285 226.37 296.453 226.112 296.567 225.804L298.967 226.074C298.816 226.708 298.527 227.262 298.101 227.736C297.679 228.205 297.14 228.569 296.481 228.83C295.823 229.085 295.07 229.213 294.223 229.213Z" fill="black"/>
<path d="M52.718 19.2202C52.0268 19.2202 51.4041 19.0971 50.8501 18.8509C50.3009 18.5999 49.8653 18.2306 49.5433 17.7429C49.2261 17.2552 49.0675 16.6539 49.0675 15.9389C49.0675 15.3234 49.1811 14.8144 49.4084 14.4119C49.6357 14.0095 49.9458 13.6875 50.3388 13.446C50.7318 13.2045 51.1745 13.0223 51.6669 12.8991C52.1641 12.7713 52.6778 12.679 53.2081 12.6222C53.8473 12.5559 54.3658 12.4967 54.7635 12.4446C55.1612 12.3878 55.45 12.3026 55.63 12.1889C55.8146 12.0705 55.907 11.8883 55.907 11.642V11.5994C55.907 11.0644 55.7483 10.6501 55.4311 10.3565C55.1139 10.063 54.657 9.91619 54.0604 9.91619C53.4306 9.91619 52.9311 10.0535 52.5618 10.3281C52.1972 10.6027 51.951 10.9271 51.8232 11.3011L49.4226 10.9602C49.612 10.2973 49.9245 9.74337 50.3601 9.2983C50.7957 8.84848 51.3284 8.51231 51.9581 8.28977C52.5878 8.0625 53.2839 7.94886 54.0462 7.94886C54.5717 7.94886 55.0949 8.01042 55.6158 8.13352C56.1366 8.25663 56.6125 8.46023 57.0433 8.74432C57.4742 9.02367 57.8198 9.40483 58.0803 9.88778C58.3454 10.3707 58.478 10.9744 58.478 11.6989V19H56.0064V17.5014H55.9212C55.7649 17.8045 55.5447 18.0885 55.2607 18.3537C54.9813 18.6141 54.6286 18.8248 54.2024 18.9858C53.781 19.142 53.2862 19.2202 52.718 19.2202ZM53.3857 17.331C53.9018 17.331 54.3492 17.2292 54.728 17.0256C55.1068 16.8172 55.398 16.5426 55.6016 16.2017C55.8099 15.8608 55.9141 15.4891 55.9141 15.0866V13.8011C55.8336 13.8674 55.6963 13.929 55.5021 13.9858C55.3127 14.0426 55.0997 14.0923 54.8629 14.1349C54.6262 14.1776 54.3918 14.2154 54.1598 14.2486C53.9278 14.2817 53.7266 14.3101 53.5561 14.3338C53.1726 14.3859 52.8293 14.4711 52.5263 14.5895C52.2232 14.7079 51.9841 14.8736 51.8089 15.0866C51.6338 15.295 51.5462 15.5649 51.5462 15.8963C51.5462 16.3698 51.719 16.7273 52.0646 16.9688C52.4103 17.2102 52.8506 17.331 53.3857 17.331Z" fill="black"/>
<path d="M52.718 19.2202C52.0268 19.2202 51.4041 19.0971 50.8501 18.8509C50.3009 18.5999 49.8653 18.2306 49.5433 17.7429C49.2261 17.2552 49.0675 16.6539 49.0675 15.9389C49.0675 15.3234 49.1811 14.8144 49.4084 14.4119C49.6357 14.0095 49.9458 13.6875 50.3388 13.446C50.7318 13.2045 51.1745 13.0223 51.6669 12.8991C52.1641 12.7713 52.6778 12.679 53.2081 12.6222C53.8473 12.5559 54.3658 12.4967 54.7635 12.4446C55.1612 12.3878 55.45 12.3026 55.63 12.1889C55.8146 12.0705 55.907 11.8883 55.907 11.642V11.5994C55.907 11.0644 55.7483 10.6501 55.4311 10.3565C55.1139 10.063 54.657 9.91619 54.0604 9.91619C53.4306 9.91619 52.9311 10.0535 52.5618 10.3281C52.1972 10.6027 51.951 10.9271 51.8232 11.3011L49.4226 10.9602C49.612 10.2973 49.9245 9.74337 50.3601 9.2983C50.7957 8.84848 51.3284 8.51231 51.9581 8.28977C52.5878 8.0625 53.2839 7.94886 54.0462 7.94886C54.5717 7.94886 55.0949 8.01042 55.6158 8.13352C56.1366 8.25663 56.6125 8.46023 57.0433 8.74432C57.4742 9.02367 57.8198 9.40483 58.0803 9.88778C58.3454 10.3707 58.478 10.9744 58.478 11.6989V19H56.0064V17.5014H55.9212C55.7649 17.8045 55.5447 18.0885 55.2607 18.3537C54.9813 18.6141 54.6286 18.8248 54.2024 18.9858C53.781 19.142 53.2862 19.2202 52.718 19.2202ZM53.3857 17.331C53.9018 17.331 54.3492 17.2292 54.728 17.0256C55.1068 16.8172 55.398 16.5426 55.6016 16.2017C55.8099 15.8608 55.9141 15.4891 55.9141 15.0866V13.8011C55.8336 13.8674 55.6963 13.929 55.5021 13.9858C55.3127 14.0426 55.0997 14.0923 54.8629 14.1349C54.6262 14.1776 54.3918 14.2154 54.1598 14.2486C53.9278 14.2817 53.7266 14.3101 53.5561 14.3338C53.1726 14.3859 52.8293 14.4711 52.5263 14.5895C52.2232 14.7079 51.9841 14.8736 51.8089 15.0866C51.6338 15.295 51.5462 15.5649 51.5462 15.8963C51.5462 16.3698 51.719 16.7273 52.0646 16.9688C52.4103 17.2102 52.8506 17.331 53.3857 17.331Z" fill="black"/>
<path d="M53.0705 61.1918C52.2135 61.1918 51.4464 60.9716 50.7694 60.5312C50.0923 60.0909 49.5572 59.4517 49.1642 58.6136C48.7712 57.7756 48.5748 56.7576 48.5748 55.5597C48.5748 54.3475 48.7736 53.3248 49.1713 52.4915C49.5738 51.6534 50.1159 51.0213 50.7978 50.5952C51.4796 50.1643 52.2395 49.9489 53.0776 49.9489C53.7168 49.9489 54.2424 50.0578 54.6543 50.2756C55.0662 50.4886 55.3929 50.7467 55.6344 51.0497C55.8759 51.348 56.0629 51.6297 56.1955 51.8949H56.302V46.4545H58.8801V61H56.3517V59.2812H56.1955C56.0629 59.5464 55.8712 59.8281 55.6202 60.1264C55.3693 60.42 55.0378 60.6709 54.6259 60.8793C54.214 61.0876 53.6955 61.1918 53.0705 61.1918ZM53.7878 59.0824C54.3323 59.0824 54.7963 58.9356 55.1799 58.642C55.5634 58.3437 55.8546 57.9295 56.0534 57.3991C56.2523 56.8688 56.3517 56.2509 56.3517 55.5455C56.3517 54.84 56.2523 54.2268 56.0534 53.706C55.8593 53.1851 55.5705 52.7803 55.187 52.4915C54.8082 52.2027 54.3418 52.0582 53.7878 52.0582C53.2149 52.0582 52.7367 52.2074 52.3532 52.5057C51.9696 52.804 51.6808 53.2159 51.4867 53.7415C51.2926 54.267 51.1955 54.8684 51.1955 55.5455C51.1955 56.2273 51.2926 56.8357 51.4867 57.3707C51.6855 57.901 51.9767 58.3201 52.3603 58.6278C52.7485 58.9309 53.2244 59.0824 53.7878 59.0824Z" fill="black"/>
<path d="M51.7592 117.608V124H49.1882V109.455H51.7024V114.945H51.8303C52.0859 114.329 52.4813 113.844 53.0163 113.489C53.5561 113.129 54.2427 112.949 55.076 112.949C55.8336 112.949 56.4941 113.107 57.0575 113.425C57.621 113.742 58.0566 114.206 58.3643 114.817C58.6768 115.428 58.8331 116.173 58.8331 117.054V124H56.2621V117.452C56.2621 116.718 56.0727 116.147 55.6939 115.74C55.3198 115.328 54.7943 115.122 54.1172 115.122C53.6626 115.122 53.2554 115.222 52.8956 115.42C52.5405 115.615 52.2611 115.896 52.0575 116.266C51.8587 116.635 51.7592 117.082 51.7592 117.608Z" fill="black"/>
<path d="M131.798 12.608V19H129.227V8.09091H131.685V9.9446H131.812C132.063 9.33381 132.464 8.84848 133.013 8.48864C133.567 8.12879 134.251 7.94886 135.065 7.94886C135.818 7.94886 136.474 8.10985 137.033 8.43182C137.596 8.75379 138.032 9.22017 138.339 9.83097C138.652 10.4418 138.806 11.1828 138.801 12.054V19H136.23V12.4517C136.23 11.7225 136.041 11.152 135.662 10.7401C135.288 10.3281 134.769 10.1222 134.107 10.1222C133.657 10.1222 133.257 10.2216 132.906 10.4205C132.561 10.6146 132.288 10.8963 132.089 11.2656C131.895 11.6349 131.798 12.0824 131.798 12.608Z" fill="black"/>
<path d="M136.97 31.0909V33.0795H130.698V31.0909H136.97ZM132.247 28.4773H134.818V38.7188C134.818 39.0644 134.87 39.3295 134.974 39.5142C135.083 39.6941 135.225 39.8172 135.4 39.8835C135.575 39.9498 135.769 39.983 135.982 39.983C136.143 39.983 136.29 39.9711 136.423 39.9474C136.56 39.9238 136.664 39.9025 136.735 39.8835L137.169 41.8935C137.031 41.9408 136.835 41.9929 136.579 42.0497C136.328 42.1065 136.02 42.1397 135.656 42.1491C135.012 42.1681 134.432 42.071 133.916 41.858C133.4 41.6402 132.99 41.304 132.687 40.8494C132.389 40.3949 132.242 39.8267 132.247 39.1449V28.4773Z" fill="black"/>
<path d="M211.798 138.608V145H209.227V134.091H211.685V135.945H211.812C212.063 135.334 212.464 134.848 213.013 134.489C213.567 134.129 214.251 133.949 215.065 133.949C215.818 133.949 216.474 134.11 217.033 134.432C217.596 134.754 218.032 135.22 218.339 135.831C218.652 136.442 218.806 137.183 218.801 138.054V145H216.23V138.452C216.23 137.723 216.041 137.152 215.662 136.74C215.288 136.328 214.769 136.122 214.107 136.122C213.657 136.122 213.257 136.222 212.906 136.42C212.561 136.615 212.288 136.896 212.089 137.266C211.895 137.635 211.798 138.082 211.798 138.608Z" fill="black"/>
<path d="M294.223 145.213C293.129 145.213 292.184 144.986 291.389 144.531C290.598 144.072 289.99 143.423 289.564 142.585C289.138 141.742 288.925 140.75 288.925 139.609C288.925 138.487 289.138 137.502 289.564 136.655C289.995 135.803 290.596 135.14 291.368 134.666C292.14 134.188 293.046 133.949 294.088 133.949C294.76 133.949 295.395 134.058 295.991 134.276C296.593 134.489 297.123 134.82 297.582 135.27C298.046 135.72 298.411 136.293 298.676 136.989C298.941 137.68 299.074 138.504 299.074 139.46V140.249H290.132V138.516H296.609C296.604 138.023 296.498 137.585 296.29 137.202C296.081 136.813 295.79 136.508 295.416 136.286C295.047 136.063 294.616 135.952 294.123 135.952C293.598 135.952 293.136 136.08 292.738 136.335C292.341 136.586 292.031 136.918 291.808 137.33C291.59 137.737 291.479 138.184 291.474 138.672V140.185C291.474 140.819 291.59 141.364 291.822 141.818C292.054 142.268 292.379 142.614 292.795 142.855C293.212 143.092 293.7 143.21 294.258 143.21C294.632 143.21 294.971 143.158 295.274 143.054C295.577 142.945 295.84 142.786 296.062 142.578C296.285 142.37 296.453 142.112 296.567 141.804L298.967 142.074C298.816 142.708 298.527 143.262 298.101 143.736C297.679 144.205 297.14 144.569 296.481 144.83C295.823 145.085 295.07 145.213 294.223 145.213Z" fill="black"/>
<path d="M291.971 183.577L291.964 180.473H292.376L296.297 176.091H299.301L294.479 181.46H293.946L291.971 183.577ZM289.628 187V172.455H292.199V187H289.628ZM296.474 187L292.923 182.036L294.656 180.224L299.55 187H296.474Z" fill="black"/>
<path d="M214.308 168.213C213.219 168.213 212.284 167.974 211.503 167.496C210.726 167.018 210.127 166.357 209.706 165.514C209.289 164.667 209.081 163.691 209.081 162.588C209.081 161.48 209.294 160.502 209.72 159.655C210.146 158.803 210.747 158.14 211.524 157.666C212.305 157.188 213.229 156.949 214.294 156.949C215.179 156.949 215.963 157.112 216.645 157.439C217.331 157.761 217.878 158.218 218.285 158.81C218.693 159.397 218.925 160.083 218.981 160.869H216.524C216.425 160.344 216.188 159.906 215.814 159.555C215.444 159.2 214.95 159.023 214.329 159.023C213.804 159.023 213.342 159.165 212.944 159.449C212.547 159.728 212.237 160.131 212.014 160.656C211.796 161.182 211.687 161.812 211.687 162.545C211.687 163.289 211.796 163.928 212.014 164.463C212.232 164.993 212.537 165.403 212.93 165.692C213.328 165.976 213.794 166.118 214.329 166.118C214.708 166.118 215.047 166.047 215.345 165.905C215.648 165.758 215.901 165.547 216.105 165.273C216.309 164.998 216.448 164.664 216.524 164.271H218.981C218.92 165.043 218.693 165.727 218.3 166.324C217.907 166.916 217.372 167.38 216.694 167.716C216.017 168.047 215.222 168.213 214.308 168.213Z" fill="black"/>
<path d="M132.718 103.22C132.027 103.22 131.404 103.097 130.85 102.851C130.301 102.6 129.865 102.231 129.543 101.743C129.226 101.255 129.067 100.654 129.067 99.9389C129.067 99.3234 129.181 98.8144 129.408 98.4119C129.636 98.0095 129.946 97.6875 130.339 97.446C130.732 97.2045 131.174 97.0223 131.667 96.8991C132.164 96.7713 132.678 96.679 133.208 96.6222C133.847 96.5559 134.366 96.4967 134.763 96.4446C135.161 96.3878 135.45 96.3026 135.63 96.1889C135.815 96.0705 135.907 95.8883 135.907 95.642V95.5994C135.907 95.0644 135.748 94.6501 135.431 94.3565C135.114 94.063 134.657 93.9162 134.06 93.9162C133.431 93.9162 132.931 94.0535 132.562 94.3281C132.197 94.6027 131.951 94.9271 131.823 95.3011L129.423 94.9602C129.612 94.2973 129.924 93.7434 130.36 93.2983C130.796 92.8485 131.328 92.5123 131.958 92.2898C132.588 92.0625 133.284 91.9489 134.046 91.9489C134.572 91.9489 135.095 92.0104 135.616 92.1335C136.137 92.2566 136.612 92.4602 137.043 92.7443C137.474 93.0237 137.82 93.4048 138.08 93.8878C138.345 94.3707 138.478 94.9744 138.478 95.6989V103H136.006V101.501H135.921C135.765 101.804 135.545 102.089 135.261 102.354C134.981 102.614 134.629 102.825 134.202 102.986C133.781 103.142 133.286 103.22 132.718 103.22ZM133.386 101.331C133.902 101.331 134.349 101.229 134.728 101.026C135.107 100.817 135.398 100.543 135.602 100.202C135.81 99.8608 135.914 99.4891 135.914 99.0866V97.8011C135.834 97.8674 135.696 97.929 135.502 97.9858C135.313 98.0426 135.1 98.0923 134.863 98.1349C134.626 98.1776 134.392 98.2154 134.16 98.2486C133.928 98.2817 133.727 98.3101 133.556 98.3338C133.173 98.3859 132.829 98.4711 132.526 98.5895C132.223 98.7079 131.984 98.8736 131.809 99.0866C131.634 99.295 131.546 99.5649 131.546 99.8963C131.546 100.37 131.719 100.727 132.065 100.969C132.41 101.21 132.851 101.331 133.386 101.331Z" fill="black"/>
<path d="M211.157 107.091C210.807 107.091 210.483 107.063 210.184 107.006C209.891 106.954 209.656 106.892 209.481 106.821L210.078 104.818C210.452 104.927 210.786 104.979 211.079 104.974C211.373 104.97 211.631 104.877 211.853 104.697C212.081 104.522 212.272 104.229 212.429 103.817L212.649 103.227L208.693 92.0909H211.42L213.934 100.33H214.048L216.569 92.0909H219.304L214.936 104.321C214.732 104.899 214.462 105.393 214.126 105.805C213.79 106.222 213.378 106.539 212.89 106.757C212.407 106.98 211.83 107.091 211.157 107.091Z" fill="black"/>
<path d="M212.714 19V8.09091H215.285V19H212.714ZM214.006 6.54261C213.599 6.54261 213.249 6.40767 212.955 6.13778C212.662 5.86316 212.515 5.53409 212.515 5.15057C212.515 4.76231 212.662 4.43324 212.955 4.16335C213.249 3.88873 213.599 3.75142 214.006 3.75142C214.418 3.75142 214.769 3.88873 215.057 4.16335C215.351 4.43324 215.498 4.76231 215.498 5.15057C215.498 5.53409 215.351 5.86316 215.057 6.13778C214.769 6.40767 214.418 6.54261 214.006 6.54261Z" fill="black"/>
<path d="M286.346 19V8.09091H288.804V9.9446H288.932C289.159 9.3196 289.535 8.83191 290.061 8.48153C290.586 8.12642 291.214 7.94886 291.943 7.94886C292.682 7.94886 293.304 8.12879 293.811 8.48864C294.322 8.84375 294.682 9.32907 294.89 9.9446H295.004C295.246 9.33854 295.653 8.85559 296.226 8.49574C296.803 8.13116 297.488 7.94886 298.278 7.94886C299.282 7.94886 300.101 8.2661 300.736 8.90057C301.37 9.53504 301.687 10.4607 301.687 11.6776V19H299.109V12.0753C299.109 11.3982 298.929 10.9034 298.569 10.5909C298.21 10.2737 297.769 10.1151 297.248 10.1151C296.628 10.1151 296.143 10.3092 295.792 10.6974C295.447 11.081 295.274 11.5805 295.274 12.196V19H292.753V11.9688C292.753 11.4053 292.582 10.9555 292.241 10.6193C291.905 10.2831 291.465 10.1151 290.92 10.1151C290.551 10.1151 290.215 10.2098 289.912 10.3991C289.609 10.5838 289.367 10.8466 289.187 11.1875C289.007 11.5237 288.917 11.9167 288.917 12.3665V19H286.346Z" fill="black"/>
<path d="M374.223 19.2131C373.129 19.2131 372.184 18.9858 371.389 18.5312C370.598 18.072 369.99 17.4233 369.564 16.5852C369.138 15.7424 368.925 14.7505 368.925 13.6094C368.925 12.4872 369.138 11.5024 369.564 10.6548C369.995 9.80256 370.596 9.13968 371.368 8.66619C372.14 8.18797 373.046 7.94886 374.088 7.94886C374.76 7.94886 375.395 8.05777 375.991 8.27557C376.593 8.48864 377.123 8.82008 377.582 9.26989C378.046 9.7197 378.411 10.2926 378.676 10.9886C378.941 11.6799 379.074 12.5038 379.074 13.4602V14.2486H370.132V12.5156H376.609C376.604 12.0232 376.498 11.5852 376.29 11.2017C376.081 10.8134 375.79 10.508 375.416 10.2855C375.047 10.063 374.616 9.9517 374.123 9.9517C373.598 9.9517 373.136 10.0795 372.738 10.3352C372.341 10.5862 372.031 10.9176 371.808 11.3295C371.59 11.7367 371.479 12.1842 371.474 12.6719V14.1847C371.474 14.8191 371.59 15.3636 371.822 15.8182C372.054 16.268 372.379 16.6136 372.795 16.8551C373.212 17.0919 373.7 17.2102 374.258 17.2102C374.632 17.2102 374.971 17.1581 375.274 17.054C375.577 16.9451 375.84 16.7865 376.062 16.5781C376.285 16.3698 376.453 16.1117 376.567 15.804L378.967 16.0739C378.816 16.7083 378.527 17.2623 378.101 17.7358C377.679 18.2045 377.14 18.5691 376.481 18.8295C375.823 19.0852 375.07 19.2131 374.223 19.2131Z" fill="black"/>
<path d="M133.996 126.213C132.93 126.213 132.007 125.979 131.226 125.51C130.444 125.041 129.838 124.385 129.407 123.543C128.981 122.7 128.768 121.715 128.768 120.588C128.768 119.461 128.981 118.474 129.407 117.626C129.838 116.779 130.444 116.121 131.226 115.652C132.007 115.183 132.93 114.949 133.996 114.949C135.061 114.949 135.984 115.183 136.765 115.652C137.547 116.121 138.15 116.779 138.577 117.626C139.007 118.474 139.223 119.461 139.223 120.588C139.223 121.715 139.007 122.7 138.577 123.543C138.15 124.385 137.547 125.041 136.765 125.51C135.984 125.979 135.061 126.213 133.996 126.213ZM134.01 124.153C134.587 124.153 135.07 123.995 135.459 123.678C135.847 123.356 136.136 122.925 136.325 122.385C136.519 121.845 136.616 121.244 136.616 120.581C136.616 119.913 136.519 119.31 136.325 118.77C136.136 118.225 135.847 117.792 135.459 117.47C135.07 117.148 134.587 116.987 134.01 116.987C133.418 116.987 132.925 117.148 132.532 117.47C132.144 117.792 131.853 118.225 131.659 118.77C131.47 119.31 131.375 119.913 131.375 120.581C131.375 121.244 131.47 121.845 131.659 122.385C131.853 122.925 132.144 123.356 132.532 123.678C132.925 123.995 133.418 124.153 134.01 124.153Z" fill="black"/>
<path d="M211.356 271V260.091H213.849V261.909H213.963C214.162 261.279 214.502 260.794 214.985 260.453C215.473 260.107 216.029 259.935 216.654 259.935C216.797 259.935 216.955 259.942 217.13 259.956C217.31 259.965 217.459 259.982 217.578 260.006V262.371C217.469 262.333 217.296 262.3 217.059 262.271C216.827 262.238 216.602 262.222 216.385 262.222C215.916 262.222 215.494 262.323 215.12 262.527C214.751 262.726 214.46 263.003 214.247 263.358C214.034 263.713 213.927 264.123 213.927 264.587V271H211.356Z" fill="black"/>
<path d="M206.346 313V302.091H208.804V303.945H208.932C209.159 303.32 209.535 302.832 210.061 302.482C210.586 302.126 211.214 301.949 211.943 301.949C212.682 301.949 213.304 302.129 213.811 302.489C214.322 302.844 214.682 303.329 214.89 303.945H215.004C215.246 303.339 215.653 302.856 216.226 302.496C216.803 302.131 217.488 301.949 218.278 301.949C219.282 301.949 220.101 302.266 220.736 302.901C221.37 303.535 221.687 304.461 221.687 305.678V313H219.109V306.075C219.109 305.398 218.929 304.903 218.569 304.591C218.21 304.274 217.769 304.115 217.248 304.115C216.628 304.115 216.143 304.309 215.792 304.697C215.447 305.081 215.274 305.58 215.274 306.196V313H212.753V305.969C212.753 305.405 212.582 304.955 212.241 304.619C211.905 304.283 211.465 304.115 210.92 304.115C210.551 304.115 210.215 304.21 209.912 304.399C209.609 304.584 209.367 304.847 209.187 305.188C209.007 305.524 208.917 305.917 208.917 306.366V313H206.346Z" fill="black"/>
<path d="M134.223 252.213C133.129 252.213 132.184 251.986 131.389 251.531C130.598 251.072 129.99 250.423 129.564 249.585C129.138 248.742 128.925 247.75 128.925 246.609C128.925 245.487 129.138 244.502 129.564 243.655C129.995 242.803 130.596 242.14 131.368 241.666C132.14 241.188 133.046 240.949 134.088 240.949C134.76 240.949 135.395 241.058 135.991 241.276C136.593 241.489 137.123 241.82 137.582 242.27C138.046 242.72 138.411 243.293 138.676 243.989C138.941 244.68 139.074 245.504 139.074 246.46V247.249H130.132V245.516H136.609C136.604 245.023 136.498 244.585 136.29 244.202C136.081 243.813 135.79 243.508 135.416 243.286C135.047 243.063 134.616 242.952 134.123 242.952C133.598 242.952 133.136 243.08 132.738 243.335C132.341 243.586 132.031 243.918 131.808 244.33C131.59 244.737 131.479 245.184 131.474 245.672V247.185C131.474 247.819 131.59 248.364 131.822 248.818C132.054 249.268 132.379 249.614 132.795 249.855C133.212 250.092 133.7 250.21 134.258 250.21C134.632 250.21 134.971 250.158 135.274 250.054C135.577 249.945 135.84 249.786 136.062 249.578C136.285 249.37 136.453 249.112 136.567 248.804L138.967 249.074C138.816 249.708 138.527 250.262 138.101 250.736C137.679 251.205 137.14 251.569 136.481 251.83C135.823 252.085 135.07 252.213 134.223 252.213Z" fill="black"/>
<path d="M132.714 273V262.091H135.285V273H132.714ZM134.006 260.543C133.599 260.543 133.249 260.408 132.955 260.138C132.662 259.863 132.515 259.534 132.515 259.151C132.515 258.762 132.662 258.433 132.955 258.163C133.249 257.889 133.599 257.751 134.006 257.751C134.418 257.751 134.769 257.889 135.057 258.163C135.351 258.433 135.498 258.762 135.498 259.151C135.498 259.534 135.351 259.863 135.057 260.138C134.769 260.408 134.418 260.543 134.006 260.543Z" fill="black"/>
<rect x="161" y="211" width="26" height="26" rx="13" fill="white"/>
<rect x="161" y="211" width="26" height="26" rx="13" stroke="black" stroke-width="2"/>
<rect x="241" y="253" width="26" height="26" rx="13" fill="white"/>
<rect x="241" y="253" width="26" height="26" rx="13" stroke="black" stroke-width="2"/>
<path d="M245 275L263 257" stroke="black" stroke-width="2" stroke-linecap="round"/>
<path d="M263 275L245 257" stroke="black" stroke-width="2" stroke-linecap="round"/>
<rect x="241" y="211" width="26" height="26" rx="13" fill="white"/>
<rect x="241" y="211" width="26" height="26" rx="13" stroke="black" stroke-width="2"/>
<rect x="321" y="211" width="26" height="26" rx="13" fill="white"/>
<rect x="321" y="211" width="26" height="26" rx="13" stroke="black" stroke-width="2"/>
<path d="M325 233L343 215" stroke="black" stroke-width="2" stroke-linecap="round"/>
<path d="M343 233L325 215" stroke="black" stroke-width="2" stroke-linecap="round"/>
<rect x="161" y="1" width="26" height="26" rx="13" fill="white"/>
<rect x="161" y="1" width="26" height="26" rx="13" stroke="black" stroke-width="2"/>
<path d="M165 23L183 5" stroke="black" stroke-width="2" stroke-linecap="round"/>
<path d="M183 23L165 5" stroke="black" stroke-width="2" stroke-linecap="round"/>
<rect x="161" y="43" width="26" height="26" rx="13" fill="white"/>
<rect x="161" y="43" width="26" height="26" rx="13" stroke="black" stroke-width="2"/>
<path d="M165 65L183 47" stroke="black" stroke-width="2" stroke-linecap="round"/>
<path d="M183 65L165 47" stroke="black" stroke-width="2" stroke-linecap="round"/>
<rect x="1" y="1" width="26" height="26" rx="13" fill="white"/>
<rect x="1" y="1" width="26" height="26" rx="13" stroke="black" stroke-width="2"/>
<g clip-path="url(#clip1_33_240)">
<path d="M20.8296 13.6036L15.8593 14.5987L19.4736 19.1279C19.9924 19.7779 19.8456 20.7221 19.1523 21.1912L19.0784 21.2409C18.3789 21.7144 17.4163 21.5065 16.985 20.7885L14.0306 15.871L11.0311 20.8001C10.5975 21.5131 9.63836 21.7172 8.94169 21.2454L8.8604 21.1906C8.16712 20.7215 8.02033 19.7773 8.53916 19.1274L12.1535 14.5982L7.17349 13.6081C6.29842 13.4344 5.78467 12.5399 6.08727 11.7168L6.09236 11.7025C6.36899 10.9491 7.22261 10.5635 7.98702 10.8467L12.8993 12.6655L12.4651 7.04218C12.4008 6.20969 13.0726 5.5 13.9245 5.5H14.0871C14.939 5.5 15.6108 6.21024 15.5465 7.04218L15.1123 12.6655L20.0195 10.8556C20.7952 10.5696 21.659 10.9712 21.9226 11.7412C22.2038 12.5587 21.6912 13.431 20.8296 13.6036Z" fill="black"/>
</g>
<rect x="81" y="1" width="26" height="26" rx="13" fill="white"/>
<rect x="81" y="1" width="26" height="26" rx="13" stroke="black" stroke-width="2"/>
<path d="M85 23L103 5" stroke="black" stroke-width="2" stroke-linecap="round"/>
<path d="M103 23L85 5" stroke="black" stroke-width="2" stroke-linecap="round"/>
<rect x="81" y="85" width="26" height="26" rx="13" fill="white"/>
<rect x="81" y="85" width="26" height="26" rx="13" stroke="black" stroke-width="2"/>
<rect x="81" y="211" width="26" height="26" rx="13" fill="white"/>
<rect x="81" y="211" width="26" height="26" rx="13" stroke="black" stroke-width="2"/>
<rect x="241" y="127" width="26" height="26" rx="13" fill="white"/>
<rect x="241" y="127" width="26" height="26" rx="13" stroke="black" stroke-width="2"/>
<rect x="241" y="169" width="26" height="26" rx="13" fill="white"/>
<rect x="241" y="169" width="26" height="26" rx="13" stroke="black" stroke-width="2"/>
<path d="M245 191L263 173" stroke="black" stroke-width="2" stroke-linecap="round"/>
<path d="M263 191L245 173" stroke="black" stroke-width="2" stroke-linecap="round"/>
<rect x="321" y="127" width="26" height="26" rx="13" fill="white"/>
<rect x="321" y="127" width="26" height="26" rx="13" stroke="black" stroke-width="2"/>
<path d="M325 149L343 131" stroke="black" stroke-width="2" stroke-linecap="round"/>
<path d="M343 149L325 131" stroke="black" stroke-width="2" stroke-linecap="round"/>
<rect x="321" y="169" width="26" height="26" rx="13" fill="white"/>
<rect x="321" y="169" width="26" height="26" rx="13" stroke="black" stroke-width="2"/>
<path d="M325 191L343 173" stroke="black" stroke-width="2" stroke-linecap="round"/>
<path d="M343 191L325 173" stroke="black" stroke-width="2" stroke-linecap="round"/>
<rect x="161" y="85" width="26" height="26" rx="13" fill="white"/>
<rect x="161" y="85" width="26" height="26" rx="13" stroke="black" stroke-width="2"/>
<rect x="161" y="127" width="26" height="26" rx="13" fill="white"/>
<rect x="161" y="127" width="26" height="26" rx="13" stroke="black" stroke-width="2"/>
<rect x="161" y="127" width="26" height="26" rx="13" fill="white"/>
<rect x="161" y="127" width="26" height="26" rx="13" stroke="black" stroke-width="2"/>
<rect x="241" y="85" width="26" height="26" rx="13" fill="white"/>
<rect x="241" y="85" width="26" height="26" rx="13" stroke="black" stroke-width="2"/>
<path d="M245 107L263 89" stroke="black" stroke-width="2" stroke-linecap="round"/>
<path d="M263 107L245 89" stroke="black" stroke-width="2" stroke-linecap="round"/>
<rect x="241" y="1" width="26" height="26" rx="13" fill="white"/>
<rect x="241" y="1" width="26" height="26" rx="13" stroke="black" stroke-width="2"/>
<rect x="321" y="1" width="26" height="26" rx="13" fill="white"/>
<rect x="321" y="1" width="26" height="26" rx="13" stroke="black" stroke-width="2"/>
<rect x="401" y="1" width="26" height="26" rx="13" fill="white"/>
<rect x="401" y="1" width="26" height="26" rx="13" stroke="black" stroke-width="2"/>
<path d="M405 23L423 5" stroke="black" stroke-width="2" stroke-linecap="round"/>
<path d="M423 23L405 5" stroke="black" stroke-width="2" stroke-linecap="round"/>
<rect x="161" y="253" width="26" height="26" rx="13" fill="white"/>
<rect x="161" y="253" width="26" height="26" rx="13" stroke="black" stroke-width="2"/>
<rect x="161" y="253" width="26" height="26" rx="13" fill="white"/>
<rect x="161" y="253" width="26" height="26" rx="13" stroke="black" stroke-width="2"/>
<rect x="241" y="295" width="26" height="26" rx="13" fill="white"/>
<rect x="241" y="295" width="26" height="26" rx="13" stroke="black" stroke-width="2"/>
<path d="M245 317L263 299" stroke="black" stroke-width="2" stroke-linecap="round"/>
<path d="M263 317L245 299" stroke="black" stroke-width="2" stroke-linecap="round"/>
<rect x="161" y="295" width="26" height="26" rx="13" fill="white"/>
<rect x="161" y="295" width="26" height="26" rx="13" stroke="black" stroke-width="2"/>
<rect x="161" y="295" width="26" height="26" rx="13" fill="white"/>
<rect x="161" y="295" width="26" height="26" rx="13" stroke="black" stroke-width="2"/>
</g>
<defs>
<clipPath id="clip0_33_240">
<rect width="428" height="322" fill="white"/>
</clipPath>
<clipPath id="clip1_33_240">
<rect width="16" height="17" fill="white" transform="translate(6 5.5)"/>
</clipPath>
</defs>
</svg>
