<?xml version="1.0" standalone="no"?>
<!DOCTYPE svg PUBLIC "-//W3C//DTD SVG 20010904//EN"
 "http://www.w3.org/TR/2001/REC-SVG-20010904/DTD/svg10.dtd">
<svg version="1.0" xmlns="http://www.w3.org/2000/svg"
 width="1280.000000pt" height="472.000000pt" viewBox="0 0 1280.000000 472.000000"
 preserveAspectRatio="xMidYMid meet">

<g transform="translate(0.000000,472.000000) scale(0.100000,-0.100000)"
fill="#000000" stroke="none">
<path d="M3 2990 c-2 -1182 1 -1729 8 -1718 9 17 70 18 1059 18 954 0 1050 -1
1058 -16 8 -15 10 -15 15 0 6 15 101 16 1056 16 989 0 1051 -1 1060 -17 10
-17 10 -17 11 0 0 16 57 17 1055 17 l1055 0 0 -645 c0 -423 3 -645 10 -645 7
0 10 222 10 645 l0 645 1055 0 1055 0 1 -22 0 -23 9 22 9 23 1050 0 c955 0
1051 -1 1059 -16 8 -15 10 -15 15 0 6 15 101 16 1057 16 934 0 1051 -2 1056
-15 6 -14 8 -13 20 2 16 21 18 63 4 63 -15 0 -14 2062 2 2078 8 8 8 15 0 25
-8 9 -13 80 -15 203 l-2 189 -3 -196 c-2 -169 -4 -198 -18 -203 -9 -3 -480 -6
-1048 -6 -789 0 -1035 3 -1044 12 -9 9 -13 169 -14 648 l-3 635 -5 -645 -5
-645 -1044 -3 c-763 -1 -1047 1 -1057 9 -12 9 -14 126 -16 648 l-3 636 -5
-645 -5 -645 -1050 0 -1050 0 -3 643 c-1 413 -6 642 -12 642 -6 0 -11 -229
-12 -642 l-3 -643 -24 -3 c-15 -3 -20 -7 -12 -11 8 -5 6 -13 -9 -26 -20 -18
-20 -18 -20 50 0 67 0 67 -22 53 -26 -17 -37 -41 -15 -32 12 4 16 -6 19 -48
l5 -53 -1014 -1015 -1013 -1015 0 1043 0 1042 1008 2 1007 3 -1005 5 -1005 5
-5 645 -5 645 -3 -636 c-2 -522 -4 -639 -16 -648 -10 -8 -294 -10 -1057 -9
l-1044 3 -5 645 -5 645 -3 -635 c-1 -479 -5 -639 -14 -648 -9 -9 -257 -12
-1055 -12 -574 0 -1044 1 -1045 3 -2 1 -5 292 -8 647 -3 414 -6 22 -7 -1090z
m2086 425 c-10 -11 -2036 -2038 -2056 -2057 l-23 -21 0 1041 0 1042 1042 0
c573 0 1039 -2 1037 -5z m2131 2 c0 -1 -468 -470 -1040 -1042 l-1040 -1040 0
1043 0 1042 1040 0 c572 0 1040 -1 1040 -3z m3225 -1037 l-1040 -1040 -3 1028
c-1 565 0 1033 3 1040 3 9 221 12 1042 12 l1038 0 -1040 -1040z m3155 1033 c0
-9 -2063 -2073 -2072 -2073 -10 0 -11 2064 -1 2073 9 9 2073 9 2073 0z m2130
2 c0 -8 -2064 -2075 -2073 -2075 -9 0 -10 2064 0 2073 7 8 2073 10 2073 2z
m-10608 -2097 c-4 -4 -472 -7 -1040 -6 l-1032 3 1038 1039 1037 1038 3 -1033
c1 -568 -2 -1037 -6 -1041z m2138 1037 c0 -819 -3 -1037 -12 -1040 -7 -3 -476
-4 -1041 -3 l-1029 3 1034 1037 c568 570 1036 1037 1041 1037 4 1 7 -465 7
-1034z m4250 -5 l0 -1040 -1041 0 -1042 0 1039 1040 c571 572 1040 1040 1041
1040 2 0 3 -468 3 -1040z m2130 0 l0 -1040 -1042 0 -1043 0 1040 1040 c572
572 1041 1040 1042 1040 2 0 3 -468 3 -1040z m2130 0 l0 -1040 -1042 0 -1043
0 1040 1040 c572 572 1041 1040 1042 1040 2 0 3 -468 3 -1040z m-6390 -5 l0
-1035 -1036 0 c-986 0 -1036 1 -1023 18 25 32 2044 2052 2052 2052 4 0 7 -466
7 -1035z"/>
<path d="M12773 4185 c0 -22 2 -30 4 -17 2 12 2 30 0 40 -3 9 -5 -1 -4 -23z"/>
<path d="M3 1225 c0 -8 4 -12 9 -9 12 8 10 -10 -4 -24 -9 -9 -8 -15 8 -27 18
-14 18 -16 2 -29 -20 -14 -23 -26 -9 -26 19 0 42 33 35 49 -4 9 -6 25 -6 36 1
19 -15 45 -28 45 -3 0 -7 -7 -7 -15z"/>
<path d="M2101 1226 c-8 -10 -9 -16 -1 -21 5 -3 10 -2 10 3 0 17 28 22 40 7 9
-10 3 -21 -24 -49 -20 -19 -36 -40 -36 -46 0 -5 18 -10 40 -10 22 0 40 5 40
10 0 6 -12 10 -27 10 l-27 0 28 29 c35 37 33 75 -5 79 -14 2 -31 -4 -38 -12z"/>
<path d="M4248 1226 c-22 -16 -23 -30 -3 -22 12 4 15 -4 15 -45 0 -31 4 -48
10 -44 11 7 14 125 3 125 -5 0 -16 -7 -25 -14z"/>
<path d="M6261 1226 c-7 -8 -11 -34 -9 -57 3 -49 27 -71 56 -53 21 13 29 89
11 110 -15 18 -43 18 -58 0z m51 -28 c6 -41 -3 -68 -23 -68 -16 0 -19 8 -19
45 0 38 3 45 19 45 13 0 21 -8 23 -22z"/>
<path d="M8508 1226 c-22 -16 -23 -30 -3 -22 12 4 15 -4 15 -45 0 -31 4 -48
10 -44 11 7 14 125 3 125 -5 0 -16 -7 -25 -14z"/>
<path d="M10611 1226 c-8 -10 -9 -16 -1 -21 5 -3 10 -2 10 3 0 17 28 21 40 7
9 -11 4 -21 -24 -50 -20 -20 -36 -40 -36 -45 0 -6 18 -10 40 -10 22 0 40 5 40
10 0 6 -12 10 -27 10 l-27 0 28 29 c35 37 33 75 -5 79 -14 2 -31 -4 -38 -12z"/>
<path d="M12741 1227 c-10 -12 -8 -15 13 -13 13 0 22 6 19 11 -3 6 0 4 8 -3
12 -11 11 -15 -3 -26 -23 -17 -23 -22 3 -29 18 -5 20 -1 17 31 -2 29 -8 38
-24 40 -11 2 -26 -4 -33 -11z"/>
<path d="M10641 1204 c0 -11 3 -14 6 -6 3 7 2 16 -1 19 -3 4 -6 -2 -5 -13z"/>
<path d="M2030 1160 c0 -5 11 -10 25 -10 14 0 25 5 25 10 0 6 -11 10 -25 10
-14 0 -25 -4 -25 -10z"/>
<path d="M4160 1160 c0 -5 11 -10 25 -10 14 0 25 5 25 10 0 6 -11 10 -25 10
-14 0 -25 -4 -25 -10z"/>
<path d="M12730 1142 c0 -15 24 -32 47 -32 13 0 23 6 23 14 0 9 -8 12 -25 8
-15 -2 -25 0 -25 7 0 6 -4 11 -10 11 -5 0 -10 -4 -10 -8z"/>
<path d="M5 550 c0 -305 1 -430 2 -277 2 152 2 402 0 555 -1 152 -2 27 -2
-278z"/>
<path d="M2135 550 c0 -305 1 -430 2 -277 2 152 2 402 0 555 -1 152 -2 27 -2
-278z"/>
<path d="M4265 550 c0 -305 1 -430 2 -277 2 152 2 402 0 555 -1 152 -2 27 -2
-278z"/>
<path d="M8515 550 c0 -305 1 -430 2 -277 2 152 2 402 0 555 -1 152 -2 27 -2
-278z"/>
<path d="M10645 550 c0 -305 1 -430 2 -277 2 152 2 402 0 555 -1 152 -2 27 -2
-278z"/>
<path d="M12775 550 c0 -305 1 -430 2 -277 2 152 2 402 0 555 -1 152 -2 27 -2
-278z"/>
</g>
</svg>
